<svg xmlns="http://www.w3.org/2000/svg" width="59.2" height="40.1" viewBox="0 0 59.2 40.1"><path d="M34.7 12.6c.1-.2.2-.4.2-.6l-.2.6zM29.2 32.9c5.5 0 6.3-2.5 6.3-3.3 0-.6-.4-2.2-3.2-2.2-.7 0-1.6.1-2.6.3 0 0-.3.1-.7.1l-1.8 4.8c.6.2 1.3.3 2 .3zM31 6.7c-2.5 0-4.1 1.5-4.1 4.1 0 1.7.7 2.8 1.9 3.4l2.8-7.5h-.6z" fill="none"/><path fill="#11A1B7" d="M34.9 12l2.8-7.6c1.5 1.6 2.4 3.9 2.4 6.3 0 2.6-1 4.9-2.7 6.6-1.4 1.3-3.2 2.1-5.3 2.3l2.6-7c.1-.2.2-.4.2-.6zm-8-1.3c0-2.5 1.6-4.1 4.1-4.1h.5l1.8-4.8c-.7-.2-1.5-.3-2.3-.3-5.3 0-9.1 3.8-9.1 9.1 0 3.8 2 6.8 5.2 8.1l1.7-4.7c-1.2-.4-1.9-1.6-1.9-3.3zm5.5 11.7c-.4 0-.9 0-1.3.1l-2 5.4c.4-.1.7-.1.7-.1 1.1-.2 1.9-.3 2.6-.3 2.8 0 3.2 1.6 3.2 2.2 0 .8-.8 3.3-6.3 3.3-.7 0-1.4 0-1.9-.1l-1.8 4.8c1.1.2 2.3.3 3.7.3 3.5 0 6.3-.8 8.4-2.5 1.9-1.5 3-3.7 3-5.8-.2-3.7-3-7.3-8.3-7.3zm-7.6 1h-.2c-3.3 0-5.9 2.2-6.3 5.4-.3 2.2.3 4.3 1.7 5.9.3.3.6.6.9.8l4.5-12.1h-.6z"/><path fill="#FEF0F9" d="M31 19.7c-1.4 0-2.8-.3-3.9-.8l1.7-4.7c.6.3 1.4.5 2.2.5 1.8 0 3.1-.7 3.7-2l-2.6 7c-.3-.1-.7 0-1.1 0zm4.1-9c0 .5-.1.9-.2 1.3l2.8-7.6-.3-.3c-1.1-1.1-2.5-1.9-4.1-2.2l-1.8 4.8c2.2.2 3.6 1.6 3.6 4zm-11.9 18.8c.1-.9.9-1 1.3-1h.2c1.7-.1 3.4-.3 4.3-.5l2-5.4c-.8.1-1.6.2-2.4.4 0 0-1.5.3-3.3.5l-4.5 12.1c1.2 1 2.7 1.7 4.6 2l1.8-4.8c-3.7-.5-4.1-2.3-4-3.3z"/><path fill="#EF5444" d="M34.9 12l-.2.6c-.6 1.3-1.9 2-3.7 2-.8 0-1.6-.2-2.2-.5l2.8-7.5c2.1.2 3.5 1.6 3.5 4 0 .6-.1 1-.2 1.4zm-3.9 10.5l1.1-2.9-1.1.1c-1.4 0-2.8-.3-3.9-.8l-1.7 4.5c1.7-.1 3.2-.5 3.3-.5.8-.2 1.6-.3 2.3-.4zm-10.5 14.2c-.5 1.3.2 2.7 1.5 3.2.3.1.6.2.9.2 1 0 2-.6 2.3-1.6l.3-.9c-1.9-.4-3.4-1-4.6-2l-.4 1.1zm4-8.3c-.4 0-1.2.1-1.3 1-.1 1 .3 2.8 4.1 3.3l1.8-4.8c-.9.2-2.6.5-4.3.5-.1.1-.2 0-.3 0zm13.2-24l.4-1.1c.5-1.3-.2-2.7-1.5-3.2s-2.7.2-3.2 1.5l-.1.3c1.6.4 3 1.1 4.1 2.2l.3.3zm-21.8 2.2c-1-1-2.6-1-3.5 0l-11.7 11.7c-.4.4-.7 1.1-.7 1.7 0 .7.3 1.3.7 1.8l11.7 11.7c.5.5 1.1.7 1.8.7.6 0 1.3-.2 1.8-.7 1-1 1-2.6 0-3.5l-10-10 9.9-9.9c1-.9 1-2.5 0-3.5zm42.5 11.7l-11.6-11.7c-1-1-2.6-1-3.5 0-1 1-1 2.6 0 3.5l9.9 9.9-9.9 9.9c-1 1-1 2.6 0 3.5.5.5 1.1.7 1.8.7s1.3-.2 1.8-.7l11.7-11.7c.5-.5.7-1.1.7-1.8-.1-.5-.4-1.2-.9-1.6z"/></svg>