<?xml version="1.0" encoding="utf-8"?>
<!-- Generator: Adobe Illustrator 18.1.1, SVG Export Plug-In . SVG Version: 6.00 Build 0)  -->
<!DOCTYPE svg PUBLIC "-//W3C//DTD SVG 1.1//EN" "http://www.w3.org/Graphics/SVG/1.1/DTD/svg11.dtd">
<svg version="1.1" id="Layer_1" xmlns="http://www.w3.org/2000/svg" xmlns:xlink="http://www.w3.org/1999/xlink" x="0px" y="0px"
	 viewBox="0 0 400 300" enable-background="new 0 0 400 300" xml:space="preserve">
<rect fill="#FF8400" width="400" height="300"/>
<path opacity="0.6" d="M98.3,232.2l-0.6,1.5l0.2-1.2L98.3,232.2z M204.5,183.9l-2.6-15.5l-10.7,1.3l-13.9,2.5l-8.8-1.4v7.7l-0.9,4.1
	l-5.7,5l-2.1,4.7l13.6-2.4l4.5,41.1l15.4-0.5l-5.3-43.2L204.5,183.9z M222,166l-15,1.8l5.7,30.2l-4.6,1.2l-2.7-11.9l-13.2,3
	l5.1,40.3l6.7-0.2l9.1-2l-2.7-17.8l4.8-1.2l2.9,17.9l16.4-3.6l-10.8-57.9L222,166z M227,165.2l11.1,57.6l14.1-3.1l-11.1-56.6
	L227,165.2z M271.9,157.6l5.3,23l-11.9-21.7l-10,2l-11,1.7l10.8,56.4l14.5-3.2l-4.3-17.9l9.9,16.6l21.8-4.8l-11.3-55L271.9,157.6z
	 M319,172.1l4.2,14.4l-7.1,1.4l-3.8-19.8l22.2-4.8l-3.9-17.9l-21.7,4.6c-10.8,2.3-17.8,12.9-15.5,23.7l3.3,15.6
	c2.3,10.9,13,17.8,23.8,15.4l21.9-4.8l-6.9-31.6L319,172.1z M139.6,226.4l-5.3-21.9l-2.7,2.7l-1.3,6l-3.2,1.5l6.5,29.5l6.4-2.7
	l17.6-8.8l7.3-0.8l-3.6-11.3L139.6,226.4z M160.4,217.3l-2.4-11.5l-11.2,3.3l-1.7-7c-0.8-0.2-2.1-0.5-3.1-0.5
	c-1.6,0-1.6-2.2-1.6-2.2l-1.3,0.3l-1.6,1.6l4.7,20.4L160.4,217.3z M113.7,224.2l-7.6,2.8l-7.8,5.1l-0.6,1.5l-1,6L95,240l-4.7,11.4
	l9.8-0.7l4.6-0.5l2.4-9.1l4.7-1.4l5,8.9l8.2-1.4l3.2-0.6l3.1-1.3L114,223.9L113.7,224.2z M356.5,199.8l-2.6,0.6l1.5,3L356.5,199.8z
	 M309.6,230l-4.6-7.6c-3.7-6-10.7-8.9-17.5-7.5l-45,9.9l51.9,45.9l1.2,1l10.6-2.6l9.1-0.9l0,0L293,245.9l11.6-3.2
	C310.1,241.2,312.6,234.8,309.6,230z M356.9,226.3h2.5l4.3-6.7l-3.8-7.5l-4.7-2.2l0.3-6.5l-1.5-3l-5.9,1.3l3.4,10.8l-9.3-9.5
	l-12.6,2.8l13.1,24l7.8-3.6l-4.8-8l9.2,7.2l0,0L356.9,226.3z M326.3,229.4l-0.9-2.1l11.1-3.8l-4-7.5l-11,3.9l-0.9-2.1l10.9-3.7
	l-4.1-7.8l-24.6,5.4l20.3,35.2l3.7-5.1l12.6-10.4l1.1-0.5l-2.9-5.4L326.3,229.4z M217.1,237.2l0.6,1.1c1.2,2.3,3.8,3.5,6.3,3.1
	l1.3-0.2l18.6-1.6c3.3-0.3,4.9-4.3,2.7-6.8l-3.5-4c-1.9-2.2-4.9-3.2-7.8-2.6l-14.6,3.2C217.2,230.2,215.4,234.1,217.1,237.2z
	 M355,194.3h-3.8v-1.9l-0.6-2.5l3.2,2.5l2.8,0.3l4.7,0.6l7.2-3.2l2.5-5.7l1.3-4.1l5-2.5l0.1-1.4l-4.5-14.1
	c-1.4-4.3-7.9-7.1-12.3-6.1l9.6-2.4l-5.3-16.7l-21.5,5.2c-4.8,1.2-7.8,6-6.8,10.8l0.2,1l4.5,20.4c1.1,5.1,8.1,7.9,13.2,6.7
	l-11.2,2.6l3.3,15.1l9.5-2.6L355,194.3z"/>
<path fill="#FFFFFF" d="M69.7,52.2c0,3.1-0.8,5.4-2.3,7.1s-3.7,2.5-6.6,2.5s-5-0.8-6.6-2.5s-2.3-4-2.3-7.1s0.8-5.4,2.3-7.1
	c1.5-1.6,3.7-2.4,6.6-2.4s5,0.8,6.5,2.5C68.9,46.7,69.7,49.1,69.7,52.2z M56.1,52.2c0,2.1,0.4,3.6,1.2,4.7s2,1.6,3.5,1.6
	c3.1,0,4.7-2.1,4.7-6.3c0-4.2-1.6-6.3-4.7-6.3c-1.6,0-2.7,0.5-3.5,1.6S56.1,50.1,56.1,52.2z M80.9,61.8c-1.7,0-3-0.6-3.9-1.8h-0.2
	c0.1,1.2,0.2,1.9,0.2,2.1v5.8h-3.9V47.3h3.1l0.5,1.8H77c0.9-1.4,2.2-2.1,4-2.1c1.7,0,3,0.6,3.9,1.9s1.4,3.1,1.4,5.4
	c0,1.5-0.2,2.8-0.7,3.9c-0.4,1.1-1.1,2-1.9,2.6S82,61.8,80.9,61.8z M79.8,50.1c-1,0-1.7,0.3-2.1,0.9S77,52.6,77,53.9v0.4
	c0,1.5,0.2,2.6,0.7,3.3c0.5,0.7,1.2,1,2.2,1c1.7,0,2.6-1.4,2.6-4.3c0-1.4-0.2-2.4-0.6-3.1C81.3,50.5,80.7,50.1,79.8,50.1z M96,61.8
	c-2.3,0-4.1-0.6-5.4-1.9s-1.9-3-1.9-5.4c0-2.4,0.6-4.2,1.8-5.5c1.2-1.3,2.8-1.9,4.9-1.9c2,0,3.6,0.6,4.7,1.7s1.7,2.7,1.7,4.7v1.9
	h-9.2c0,1.1,0.4,2,1,2.6s1.5,0.9,2.6,0.9c0.9,0,1.7-0.1,2.4-0.3s1.6-0.5,2.4-0.9v3c-0.7,0.3-1.4,0.6-2.2,0.8S97.1,61.8,96,61.8z
	 M95.4,49.8c-0.8,0-1.5,0.3-1.9,0.8s-0.7,1.3-0.8,2.2h5.4c0-1-0.3-1.7-0.7-2.2S96.2,49.8,95.4,49.8z M117.9,61.5h-3.9v-8.3
	c0-1-0.2-1.8-0.5-2.3s-0.9-0.8-1.7-0.8c-1.1,0-1.9,0.4-2.3,1.1s-0.7,1.9-0.7,3.6v6.7h-3.9V47.3h3l0.5,1.8h0.2c0.4-0.7,1-1.2,1.8-1.6
	c0.8-0.4,1.6-0.5,2.6-0.5c1.7,0,2.9,0.4,3.8,1.3s1.3,2.2,1.3,3.9V61.5z M139.9,56.3c0,1.7-0.6,3-1.8,4c-1.2,1-2.9,1.4-5,1.4
	c-2,0-3.7-0.4-5.3-1.1V57c1.3,0.6,2.3,1,3.2,1.2c0.9,0.2,1.7,0.3,2.4,0.3c0.9,0,1.5-0.2,2-0.5c0.5-0.3,0.7-0.8,0.7-1.5
	c0-0.4-0.1-0.7-0.3-1s-0.5-0.6-0.9-0.8c-0.4-0.3-1.2-0.7-2.4-1.3c-1.1-0.5-2-1-2.6-1.5s-1-1.1-1.4-1.7s-0.5-1.4-0.5-2.3
	c0-1.6,0.6-2.9,1.7-3.9c1.1-0.9,2.7-1.4,4.6-1.4c1,0,1.9,0.1,2.8,0.3c0.9,0.2,1.8,0.6,2.7,1l-1.3,3.1c-1-0.4-1.8-0.7-2.5-0.9
	c-0.6-0.2-1.3-0.2-1.9-0.2c-0.7,0-1.3,0.2-1.7,0.5s-0.6,0.8-0.6,1.4c0,0.3,0.1,0.6,0.2,0.9s0.4,0.5,0.8,0.7c0.4,0.2,1.2,0.7,2.5,1.3
	c1.7,0.8,2.9,1.7,3.6,2.5S139.9,55.1,139.9,56.3z M156,54.4c0,2.3-0.6,4.1-1.8,5.4s-2.9,2-5.1,2c-1.4,0-2.6-0.3-3.6-0.9
	s-1.8-1.5-2.4-2.6s-0.8-2.4-0.8-3.9c0-2.3,0.6-4.1,1.8-5.4s2.9-1.9,5.1-1.9c1.4,0,2.6,0.3,3.6,0.9s1.8,1.4,2.4,2.6
	S156,52.9,156,54.4z M146.2,54.4c0,1.4,0.2,2.5,0.7,3.2c0.5,0.7,1.2,1.1,2.3,1.1c1,0,1.8-0.4,2.2-1.1c0.5-0.7,0.7-1.8,0.7-3.2
	c0-1.4-0.2-2.5-0.7-3.2s-1.2-1.1-2.2-1.1c-1,0-1.8,0.3-2.2,1S146.2,53,146.2,54.4z M169,61.5l-0.5-1.8h-0.2c-0.4,0.7-1,1.2-1.8,1.5
	s-1.6,0.5-2.6,0.5c-1.7,0-2.9-0.4-3.8-1.3s-1.3-2.2-1.3-3.9v-9.3h3.9v8.3c0,1,0.2,1.8,0.5,2.3s0.9,0.8,1.7,0.8
	c1.1,0,1.9-0.4,2.3-1.1s0.7-1.9,0.7-3.6v-6.7h3.9v14.2H169z M183.7,47c0.5,0,1,0,1.3,0.1l-0.3,3.6c-0.3-0.1-0.7-0.1-1.1-0.1
	c-1.2,0-2.2,0.3-2.9,1c-0.7,0.6-1,1.5-1,2.7v7.2h-3.9V47.3h2.9l0.6,2.4h0.2c0.4-0.8,1-1.4,1.8-1.9C182,47.3,182.8,47,183.7,47z
	 M193.1,61.8c-4.4,0-6.6-2.4-6.6-7.3c0-2.4,0.6-4.3,1.8-5.5s2.9-1.9,5.2-1.9c1.6,0,3.1,0.3,4.4,1l-1.1,3c-0.6-0.2-1.2-0.4-1.7-0.6
	s-1-0.2-1.6-0.2c-2,0-3,1.4-3,4.3c0,2.8,1,4.2,3,4.2c0.7,0,1.4-0.1,2.1-0.3s1.3-0.5,1.9-0.9v3.3c-0.6,0.4-1.3,0.7-1.9,0.8
	C194.9,61.7,194.1,61.8,193.1,61.8z M206.9,61.8c-2.3,0-4.1-0.6-5.4-1.9s-1.9-3-1.9-5.4c0-2.4,0.6-4.2,1.8-5.5
	c1.2-1.3,2.8-1.9,4.9-1.9c2,0,3.6,0.6,4.7,1.7s1.7,2.7,1.7,4.7v1.9h-9.2c0,1.1,0.4,2,1,2.6s1.5,0.9,2.6,0.9c0.9,0,1.7-0.1,2.4-0.3
	s1.6-0.5,2.4-0.9v3c-0.7,0.3-1.4,0.6-2.2,0.8S208,61.8,206.9,61.8z M206.3,49.8c-0.8,0-1.5,0.3-1.9,0.8s-0.7,1.3-0.8,2.2h5.4
	c0-1-0.3-1.7-0.7-2.2S207.1,49.8,206.3,49.8z M69.3,86.5h-5l-8.1-14h-0.1c0.2,2.5,0.2,4.2,0.2,5.3v8.7h-3.5V67.9h5l8.1,13.9h0.1
	c-0.1-2.4-0.2-4.1-0.2-5.1v-8.8h3.5V86.5z M79.9,86.8c-2.3,0-4.1-0.6-5.4-1.9s-1.9-3-1.9-5.4c0-2.4,0.6-4.2,1.8-5.5
	c1.2-1.3,2.8-1.9,4.9-1.9c2,0,3.6,0.6,4.7,1.7s1.7,2.7,1.7,4.7v1.9h-9.2c0,1.1,0.4,2,1,2.6s1.5,0.9,2.6,0.9c0.9,0,1.7-0.1,2.4-0.3
	s1.6-0.5,2.4-0.9v3c-0.7,0.3-1.4,0.6-2.2,0.8S81,86.8,79.9,86.8z M79.4,74.8c-0.8,0-1.5,0.3-1.9,0.8s-0.7,1.3-0.8,2.2h5.4
	c0-1-0.3-1.7-0.7-2.2S80.2,74.8,79.4,74.8z M95.3,86.8c-2.3,0-4.1-0.6-5.4-1.9s-1.9-3-1.9-5.4c0-2.4,0.6-4.2,1.8-5.5
	c1.2-1.3,2.8-1.9,4.9-1.9c2,0,3.6,0.6,4.7,1.7s1.7,2.7,1.7,4.7v1.9h-9.2c0,1.1,0.4,2,1,2.6s1.5,0.9,2.6,0.9c0.9,0,1.7-0.1,2.4-0.3
	s1.6-0.5,2.4-0.9v3c-0.7,0.3-1.4,0.6-2.2,0.8S96.4,86.8,95.3,86.8z M94.7,74.8c-0.8,0-1.5,0.3-1.9,0.8S92,76.8,92,77.8h5.4
	c0-1-0.3-1.7-0.7-2.2S95.5,74.8,94.7,74.8z M108.8,86.8c-1.7,0-3-0.6-3.9-1.9c-1-1.3-1.4-3.1-1.4-5.4c0-2.3,0.5-4.1,1.5-5.4
	c1-1.3,2.3-1.9,4-1.9c1.8,0,3.1,0.7,4.1,2.1h0.1c-0.2-1.1-0.3-2-0.3-2.8v-4.5h3.9v19.8h-3l-0.7-1.8h-0.2
	C111.9,86.1,110.6,86.8,108.8,86.8z M110.1,83.7c1,0,1.7-0.3,2.2-0.9c0.5-0.6,0.7-1.6,0.8-2.9v-0.4c0-1.5-0.2-2.6-0.7-3.3
	c-0.5-0.7-1.2-1-2.3-1c-0.9,0-1.5,0.4-2,1.1c-0.5,0.7-0.7,1.8-0.7,3.2s0.2,2.4,0.7,3.1S109.2,83.7,110.1,83.7z M130.6,82.3
	c0,1.5-0.5,2.6-1.5,3.3c-1,0.8-2.5,1.1-4.5,1.1c-1,0-1.9-0.1-2.6-0.2s-1.4-0.3-2-0.6v-3.2c0.7,0.3,1.5,0.6,2.4,0.9
	c0.9,0.2,1.7,0.3,2.4,0.3c1.4,0,2.1-0.4,2.1-1.2c0-0.3-0.1-0.6-0.3-0.7s-0.5-0.4-1-0.6s-1.1-0.5-1.8-0.8c-1.1-0.5-1.9-0.9-2.4-1.3
	c-0.5-0.4-0.9-0.8-1.1-1.3c-0.2-0.5-0.3-1.1-0.3-1.9c0-1.3,0.5-2.2,1.5-2.9c1-0.7,2.4-1,4.2-1c1.7,0,3.4,0.4,5,1.1l-1.2,2.8
	c-0.7-0.3-1.4-0.6-2-0.7s-1.2-0.3-1.9-0.3c-1.1,0-1.7,0.3-1.7,0.9c0,0.3,0.2,0.6,0.6,0.9c0.4,0.3,1.2,0.6,2.4,1.1
	c1.1,0.4,1.9,0.9,2.4,1.3s0.9,0.8,1.1,1.3S130.6,81.6,130.6,82.3z M156.1,77c0,3.1-0.9,5.4-2.6,7c-1.7,1.6-4.3,2.4-7.5,2.4h-5.3
	V67.9h5.8c3,0,5.4,0.8,7.1,2.4S156.1,74.2,156.1,77z M152,77.1c0-4-1.8-6-5.3-6h-2.1v12.1h1.7C150.1,83.2,152,81.2,152,77.1z
	 M165.9,86.8c-2.3,0-4.1-0.6-5.4-1.9s-1.9-3-1.9-5.4c0-2.4,0.6-4.2,1.8-5.5c1.2-1.3,2.8-1.9,4.9-1.9c2,0,3.6,0.6,4.7,1.7
	s1.7,2.7,1.7,4.7v1.9h-9.2c0,1.1,0.4,2,1,2.6s1.5,0.9,2.6,0.9c0.9,0,1.7-0.1,2.4-0.3s1.6-0.5,2.4-0.9v3c-0.7,0.3-1.4,0.6-2.2,0.8
	S167,86.8,165.9,86.8z M165.4,74.8c-0.8,0-1.5,0.3-1.9,0.8s-0.7,1.3-0.8,2.2h5.4c0-1-0.3-1.7-0.7-2.2S166.2,74.8,165.4,74.8z
	 M184.8,82.3c0,1.5-0.5,2.6-1.5,3.3c-1,0.8-2.5,1.1-4.5,1.1c-1,0-1.9-0.1-2.6-0.2s-1.4-0.3-2-0.6v-3.2c0.7,0.3,1.5,0.6,2.4,0.9
	c0.9,0.2,1.7,0.3,2.4,0.3c1.4,0,2.1-0.4,2.1-1.2c0-0.3-0.1-0.6-0.3-0.7s-0.5-0.4-1-0.6s-1.1-0.5-1.8-0.8c-1.1-0.5-1.9-0.9-2.4-1.3
	c-0.5-0.4-0.9-0.8-1.1-1.3c-0.2-0.5-0.3-1.1-0.3-1.9c0-1.3,0.5-2.2,1.5-2.9c1-0.7,2.4-1,4.2-1c1.7,0,3.4,0.4,5,1.1l-1.2,2.8
	c-0.7-0.3-1.4-0.6-2-0.7s-1.2-0.3-1.9-0.3c-1.1,0-1.7,0.3-1.7,0.9c0,0.3,0.2,0.6,0.6,0.9c0.4,0.3,1.2,0.6,2.4,1.1
	c1.1,0.4,1.9,0.9,2.4,1.3s0.9,0.8,1.1,1.3S184.8,81.6,184.8,82.3z M187.5,68.6c0-1.3,0.7-1.9,2.1-1.9s2.1,0.6,2.1,1.9
	c0,0.6-0.2,1.1-0.5,1.4c-0.4,0.3-0.9,0.5-1.6,0.5C188.2,70.5,187.5,69.9,187.5,68.6z M191.6,86.5h-3.9V72.3h3.9V86.5z M207.9,72.3v2
	l-2.2,0.6c0.4,0.6,0.6,1.3,0.6,2.1c0,1.5-0.5,2.7-1.6,3.6c-1.1,0.9-2.5,1.3-4.4,1.3l-0.7,0l-0.6-0.1c-0.4,0.3-0.6,0.6-0.6,1
	c0,0.6,0.7,0.8,2.1,0.8h2.4c1.6,0,2.7,0.3,3.6,1c0.8,0.7,1.2,1.7,1.2,2.9c0,1.7-0.7,2.9-2.1,3.9c-1.4,0.9-3.4,1.4-6,1.4
	c-2,0-3.5-0.3-4.5-1c-1-0.7-1.6-1.7-1.6-2.9c0-0.9,0.3-1.6,0.8-2.1s1.3-1,2.3-1.2c-0.4-0.2-0.7-0.4-1-0.8s-0.4-0.8-0.4-1.2
	c0-0.5,0.2-1,0.5-1.4s0.8-0.7,1.4-1.1c-0.7-0.3-1.3-0.8-1.8-1.5c-0.4-0.7-0.7-1.5-0.7-2.5c0-1.5,0.5-2.7,1.5-3.6s2.4-1.3,4.3-1.3
	c0.4,0,0.9,0,1.4,0.1c0.5,0.1,0.9,0.1,1,0.2H207.9z M196.9,88.5c0,0.5,0.3,1,0.8,1.3c0.5,0.3,1.2,0.5,2.2,0.5c1.4,0,2.5-0.2,3.3-0.6
	s1.2-0.9,1.2-1.6c0-0.5-0.2-0.9-0.7-1.1s-1.2-0.3-2.2-0.3h-2c-0.7,0-1.3,0.2-1.8,0.5C197.2,87.5,196.9,88,196.9,88.5z M198.3,77
	c0,0.8,0.2,1.4,0.5,1.8c0.4,0.4,0.9,0.7,1.6,0.7c0.7,0,1.3-0.2,1.6-0.7s0.5-1.1,0.5-1.8c0-1.7-0.7-2.6-2.1-2.6
	C199,74.4,198.3,75.2,198.3,77z M223.2,86.5h-3.9v-8.3c0-1-0.2-1.8-0.5-2.3s-0.9-0.8-1.7-0.8c-1.1,0-1.9,0.4-2.3,1.1
	s-0.7,1.9-0.7,3.6v6.7h-3.9V72.3h3l0.5,1.8h0.2c0.4-0.7,1-1.2,1.8-1.6c0.8-0.4,1.6-0.5,2.6-0.5c1.7,0,2.9,0.4,3.8,1.3
	s1.3,2.2,1.3,3.9V86.5z M60.3,157.5l-1.6-4.1h-5.2l-1.6,4.1h-1.5l5.1-12.9h1.3l5.1,12.9H60.3z M58.3,152l-1.5-4
	c-0.2-0.5-0.4-1.1-0.6-1.9c-0.1,0.6-0.3,1.2-0.6,1.9l-1.5,4H58.3z M65.1,157.5h-1.5v-13.7h1.5V157.5z M69.5,157.5h-1.5v-13.7h1.5
	V157.5z M81.5,157.5H80v-11.5h-4.1v-1.3h9.6v1.3h-4.1V157.5z M94,157.5v-6.2c0-0.8-0.2-1.4-0.5-1.8s-0.9-0.6-1.7-0.6
	c-1,0-1.8,0.3-2.2,0.8c-0.5,0.6-0.7,1.5-0.7,2.7v5h-1.5v-13.7h1.5v4.1c0,0.5,0,0.9-0.1,1.2h0.1c0.3-0.5,0.7-0.8,1.2-1.1
	c0.5-0.3,1.1-0.4,1.8-0.4c1.2,0,2.1,0.3,2.7,0.8c0.6,0.6,0.9,1.4,0.9,2.7v6.3H94z M98.2,145.2c0-0.3,0.1-0.6,0.2-0.7
	s0.4-0.2,0.6-0.2c0.2,0,0.4,0.1,0.6,0.2s0.3,0.4,0.3,0.7s-0.1,0.6-0.3,0.7s-0.4,0.2-0.6,0.2c-0.2,0-0.5-0.1-0.6-0.2
	S98.2,145.5,98.2,145.2z M99.8,157.5h-1.5v-9.6h1.5V157.5z M109.3,157.5v-6.2c0-0.8-0.2-1.4-0.5-1.8s-0.9-0.6-1.7-0.6
	c-1,0-1.7,0.3-2.2,0.8s-0.7,1.4-0.7,2.7v5.1h-1.5v-9.6h1.2l0.2,1.3h0.1c0.3-0.5,0.7-0.8,1.3-1.1s1.1-0.4,1.8-0.4
	c1.2,0,2,0.3,2.6,0.8s0.9,1.5,0.9,2.7v6.3H109.3z M121.5,147.8v0.9l-1.8,0.2c0.2,0.2,0.3,0.5,0.4,0.8s0.2,0.7,0.2,1.1
	c0,0.9-0.3,1.7-1,2.3s-1.5,0.8-2.7,0.8c-0.3,0-0.6,0-0.8-0.1c-0.6,0.3-0.9,0.7-0.9,1.2c0,0.3,0.1,0.5,0.3,0.6s0.6,0.2,1.1,0.2h1.7
	c1,0,1.8,0.2,2.4,0.7c0.6,0.4,0.8,1.1,0.8,1.9c0,1.1-0.4,1.9-1.3,2.4s-2.1,0.8-3.7,0.8c-1.3,0-2.2-0.2-2.9-0.7c-0.7-0.5-1-1.1-1-2
	c0-0.6,0.2-1.1,0.6-1.5s0.9-0.7,1.6-0.9c-0.2-0.1-0.5-0.3-0.6-0.5c-0.2-0.2-0.2-0.5-0.2-0.8c0-0.4,0.1-0.7,0.3-0.9s0.5-0.5,0.9-0.8
	c-0.5-0.2-0.9-0.6-1.2-1s-0.5-1.1-0.5-1.7c0-1.1,0.3-1.9,0.9-2.4s1.5-0.9,2.7-0.9c0.5,0,1,0.1,1.4,0.2H121.5z M113.8,159.1
	c0,0.5,0.2,0.9,0.7,1.2s1.1,0.4,1.9,0.4c1.2,0,2.1-0.2,2.7-0.5c0.6-0.4,0.9-0.9,0.9-1.5c0-0.5-0.2-0.9-0.5-1.1s-0.9-0.3-1.8-0.3
	h-1.7c-0.7,0-1.2,0.2-1.5,0.5S113.8,158.5,113.8,159.1z M114.6,150.9c0,0.7,0.2,1.2,0.6,1.5s0.9,0.5,1.6,0.5c1.4,0,2.1-0.7,2.1-2.1
	c0-1.4-0.7-2.2-2.2-2.2c-0.7,0-1.2,0.2-1.6,0.6S114.6,150.2,114.6,150.9z M129.8,154.8c0,0.9-0.3,1.6-1,2.1s-1.6,0.7-2.8,0.7
	c-1.3,0-2.3-0.2-3-0.6v-1.4c0.5,0.2,1,0.4,1.5,0.6s1,0.2,1.5,0.2c0.8,0,1.3-0.1,1.8-0.4s0.6-0.6,0.6-1.1c0-0.4-0.2-0.7-0.5-1
	c-0.3-0.3-1-0.6-1.9-0.9c-0.9-0.3-1.5-0.6-1.9-0.9c-0.4-0.2-0.7-0.5-0.8-0.8c-0.2-0.3-0.3-0.7-0.3-1.1c0-0.8,0.3-1.4,1-1.9
	s1.5-0.7,2.6-0.7c1,0,2.1,0.2,3,0.6l-0.5,1.2c-1-0.4-1.8-0.6-2.6-0.6c-0.7,0-1.2,0.1-1.6,0.3s-0.5,0.5-0.5,0.9
	c0,0.3,0.1,0.5,0.2,0.7c0.1,0.2,0.3,0.4,0.6,0.5s0.9,0.4,1.7,0.7c1.1,0.4,1.9,0.8,2.3,1.3S129.8,154.2,129.8,154.8z M148.2,151
	c0,2.1-0.5,3.7-1.6,4.9s-2.5,1.8-4.3,1.8c-1.9,0-3.4-0.6-4.4-1.7c-1-1.2-1.5-2.8-1.5-4.9c0-2.1,0.5-3.7,1.5-4.9s2.5-1.7,4.4-1.7
	c1.8,0,3.3,0.6,4.3,1.8S148.2,149,148.2,151z M138,151c0,1.7,0.4,3.1,1.1,4c0.7,0.9,1.8,1.3,3.2,1.3c1.4,0,2.5-0.4,3.2-1.3
	s1.1-2.2,1.1-4c0-1.7-0.4-3-1.1-3.9s-1.8-1.3-3.2-1.3c-1.4,0-2.5,0.4-3.2,1.3C138.3,148,138,149.3,138,151z M155.3,157.6
	c-0.6,0-1.2-0.1-1.7-0.3c-0.5-0.2-1-0.6-1.3-1.1h-0.1c0.1,0.6,0.1,1.1,0.1,1.6v4h-1.5v-14h1.2l0.2,1.3h0.1c0.4-0.5,0.8-0.9,1.3-1.1
	s1.1-0.4,1.7-0.4c1.3,0,2.3,0.4,3,1.3c0.7,0.9,1,2.1,1,3.7c0,1.6-0.4,2.8-1.1,3.7S156.6,157.6,155.3,157.6z M155.1,148.9
	c-1,0-1.7,0.3-2.1,0.8s-0.7,1.4-0.7,2.6v0.3c0,1.4,0.2,2.3,0.7,2.9s1.2,0.9,2.2,0.9c0.8,0,1.5-0.3,2-1s0.7-1.6,0.7-2.8
	c0-1.2-0.2-2.1-0.7-2.8S156,148.9,155.1,148.9z M165.9,157.6c-1.4,0-2.5-0.4-3.4-1.3c-0.8-0.9-1.2-2.1-1.2-3.6
	c0-1.6,0.4-2.8,1.1-3.7c0.8-0.9,1.8-1.4,3.1-1.4c1.2,0,2.2,0.4,2.9,1.2s1.1,1.8,1.1,3.1v0.9h-6.6c0,1.1,0.3,2,0.9,2.6
	s1.3,0.9,2.3,0.9c1,0,2.1-0.2,3.1-0.7v1.3c-0.5,0.2-1,0.4-1.5,0.5S166.6,157.6,165.9,157.6z M165.5,148.9c-0.8,0-1.4,0.3-1.8,0.8
	c-0.5,0.5-0.7,1.2-0.8,2.1h5c0-0.9-0.2-1.6-0.6-2.1S166.3,148.9,165.5,148.9z M178.4,157.5v-6.2c0-0.8-0.2-1.4-0.5-1.8
	s-0.9-0.6-1.7-0.6c-1,0-1.7,0.3-2.2,0.8s-0.7,1.4-0.7,2.7v5.1h-1.5v-9.6h1.2l0.2,1.3h0.1c0.3-0.5,0.7-0.8,1.3-1.1s1.1-0.4,1.8-0.4
	c1.2,0,2,0.3,2.6,0.8s0.9,1.5,0.9,2.7v6.3H178.4z M63.4,169c0,2.1-0.5,3.7-1.6,4.9s-2.5,1.8-4.3,1.8c-1.9,0-3.4-0.6-4.4-1.7
	c-1-1.2-1.5-2.8-1.5-4.9c0-2.1,0.5-3.7,1.5-4.9s2.5-1.7,4.4-1.7c1.8,0,3.3,0.6,4.3,1.8S63.4,167,63.4,169z M53.2,169
	c0,1.7,0.4,3.1,1.1,4c0.7,0.9,1.8,1.3,3.2,1.3c1.4,0,2.5-0.4,3.2-1.3s1.1-2.2,1.1-4c0-1.7-0.4-3-1.1-3.9s-1.8-1.3-3.2-1.3
	c-1.4,0-2.5,0.4-3.2,1.3C53.5,166,53.2,167.3,53.2,169z M69.9,175.6c-1.4,0-2.5-0.4-3.2-1.3c-0.8-0.9-1.1-2.1-1.1-3.6
	c0-1.6,0.4-2.9,1.2-3.7c0.8-0.9,1.9-1.3,3.3-1.3c0.5,0,0.9,0,1.4,0.1s0.8,0.2,1.1,0.4l-0.4,1.2c-0.3-0.1-0.7-0.2-1.1-0.3
	s-0.7-0.1-1-0.1c-2,0-2.9,1.2-2.9,3.7c0,1.2,0.2,2.1,0.7,2.7s1.2,0.9,2.1,0.9c0.8,0,1.6-0.2,2.5-0.5v1.3
	C71.7,175.5,70.9,175.6,69.9,175.6z M78.3,174.4c0.3,0,0.5,0,0.7-0.1s0.4-0.1,0.6-0.1v1.1c-0.2,0.1-0.4,0.1-0.7,0.2
	c-0.3,0-0.6,0.1-0.8,0.1c-1.9,0-2.8-1-2.8-2.9V167h-1.4v-0.7l1.4-0.6l0.6-2.1h0.8v2.2h2.8v1.1h-2.8v5.7c0,0.6,0.1,1,0.4,1.3
	S77.8,174.4,78.3,174.4z M89.6,170.6c0,1.6-0.4,2.8-1.2,3.7s-1.9,1.3-3.3,1.3c-0.9,0-1.6-0.2-2.3-0.6s-1.2-1-1.5-1.7
	s-0.5-1.6-0.5-2.7c0-1.6,0.4-2.8,1.2-3.7s1.9-1.3,3.3-1.3c1.3,0,2.4,0.4,3.2,1.3S89.6,169.1,89.6,170.6z M82.3,170.6
	c0,1.2,0.2,2.2,0.7,2.8s1.2,1,2.2,1s1.7-0.3,2.2-1c0.5-0.6,0.7-1.6,0.7-2.8c0-1.2-0.2-2.2-0.7-2.8c-0.5-0.6-1.2-1-2.2-1
	c-1,0-1.7,0.3-2.2,0.9S82.3,169.4,82.3,170.6z M96.6,165.7c1.3,0,2.2,0.4,2.9,1.3c0.7,0.9,1,2.1,1,3.7s-0.4,2.8-1.1,3.7
	s-1.7,1.3-2.9,1.3c-0.6,0-1.2-0.1-1.7-0.3c-0.5-0.2-1-0.6-1.3-1.1h-0.1l-0.3,1.2h-1v-13.7h1.5v3.3c0,0.7,0,1.4-0.1,2h0.1
	C94.2,166.1,95.2,165.7,96.6,165.7z M96.4,166.9c-1,0-1.7,0.3-2.2,0.9s-0.7,1.5-0.7,2.9s0.2,2.3,0.7,2.9s1.2,0.9,2.2,0.9
	c0.9,0,1.6-0.3,2-1s0.7-1.6,0.7-2.8c0-1.3-0.2-2.2-0.7-2.8S97.3,166.9,96.4,166.9z M107.2,175.6c-1.4,0-2.5-0.4-3.4-1.3
	c-0.8-0.9-1.2-2.1-1.2-3.6c0-1.6,0.4-2.8,1.1-3.7c0.8-0.9,1.8-1.4,3.1-1.4c1.2,0,2.2,0.4,2.9,1.2s1.1,1.8,1.1,3.1v0.9h-6.6
	c0,1.1,0.3,2,0.9,2.6s1.3,0.9,2.3,0.9c1,0,2.1-0.2,3.1-0.7v1.3c-0.5,0.2-1,0.4-1.5,0.5S107.8,175.6,107.2,175.6z M106.8,166.9
	c-0.8,0-1.4,0.3-1.8,0.8c-0.5,0.5-0.7,1.2-0.8,2.1h5c0-0.9-0.2-1.6-0.6-2.1S107.5,166.9,106.8,166.9z M117.5,165.6
	c0.4,0,0.8,0,1.2,0.1l-0.2,1.4c-0.4-0.1-0.8-0.1-1.1-0.1c-0.8,0-1.4,0.3-2,0.9c-0.6,0.6-0.8,1.4-0.8,2.4v5.2h-1.5v-9.6h1.2l0.2,1.8
	h0.1c0.4-0.6,0.8-1.1,1.3-1.5S116.9,165.6,117.5,165.6z M132.9,175.5h-8.4v-1.3l3.4-3.4c1-1,1.7-1.8,2-2.2s0.6-0.9,0.7-1.3
	s0.2-0.9,0.2-1.4c0-0.7-0.2-1.2-0.6-1.6s-1-0.6-1.7-0.6c-0.5,0-1,0.1-1.5,0.3s-1,0.5-1.6,1l-0.8-1c1.2-1,2.5-1.5,3.9-1.5
	c1.2,0,2.2,0.3,2.8,0.9s1,1.4,1,2.5c0,0.8-0.2,1.6-0.7,2.4s-1.3,1.8-2.6,3l-2.8,2.8v0.1h6.6V175.5z M143,169c0,2.2-0.4,3.9-1,5
	c-0.7,1.1-1.8,1.6-3.2,1.6c-1.4,0-2.4-0.6-3.2-1.7s-1.1-2.8-1.1-4.9c0-2.2,0.3-3.9,1-5s1.8-1.6,3.2-1.6c1.4,0,2.5,0.6,3.2,1.7
	C142.6,165.2,143,166.9,143,169z M136,169c0,1.9,0.2,3.2,0.7,4.1s1.1,1.3,2.1,1.3c1,0,1.7-0.4,2.1-1.3s0.7-2.2,0.7-4.1
	s-0.2-3.2-0.7-4.1s-1.1-1.3-2.1-1.3c-1,0-1.7,0.4-2.1,1.3S136,167.1,136,169z M149.8,175.5h-1.4v-9.2c0-0.8,0-1.5,0.1-2.2
	c-0.1,0.1-0.3,0.3-0.4,0.4s-0.8,0.7-2.1,1.7l-0.8-1l3.4-2.6h1.2V175.5z M162.6,172.5h-1.9v3h-1.4v-3H153v-1.3l6.1-8.7h1.5v8.6h1.9
	V172.5z M159.3,171.2v-4.3c0-0.8,0-1.8,0.1-2.8h-0.1c-0.3,0.6-0.5,1-0.8,1.4l-4,5.7H159.3z M53.8,188.1v5.3h-1.5v-12.8h3.5
	c1.6,0,2.7,0.3,3.5,0.9c0.8,0.6,1.1,1.5,1.1,2.7c0,1.7-0.9,2.8-2.6,3.4l3.5,5.8h-1.8l-3.1-5.3H53.8z M53.8,186.8h2
	c1.1,0,1.8-0.2,2.3-0.6s0.7-1,0.7-1.9c0-0.8-0.2-1.5-0.8-1.8c-0.5-0.4-1.3-0.6-2.4-0.6h-1.9V186.8z M69.1,193.5l-0.3-1.4h-0.1
	c-0.5,0.6-1,1-1.4,1.2c-0.5,0.2-1.1,0.3-1.8,0.3c-1,0-1.7-0.2-2.2-0.7s-0.8-1.2-0.8-2.1c0-1.9,1.6-3,4.7-3.1l1.6-0.1v-0.6
	c0-0.8-0.2-1.3-0.5-1.7c-0.3-0.4-0.8-0.5-1.6-0.5c-0.8,0-1.7,0.2-2.7,0.7l-0.4-1.1c0.5-0.3,1-0.5,1.6-0.6s1.1-0.2,1.7-0.2
	c1.1,0,2,0.3,2.6,0.8c0.6,0.5,0.8,1.3,0.8,2.5v6.6H69.1z M65.8,192.4c0.9,0,1.6-0.2,2.1-0.7c0.5-0.5,0.8-1.2,0.8-2.1v-0.9l-1.5,0.1
	c-1.2,0-2,0.2-2.5,0.5c-0.5,0.3-0.8,0.8-0.8,1.5c0,0.5,0.2,0.9,0.5,1.2S65.3,192.4,65.8,192.4z M74.5,193.5h-1.5v-13.7h1.5V193.5z
	 M81.6,193.6c-1.4,0-2.5-0.4-3.4-1.3c-0.8-0.9-1.2-2.1-1.2-3.6c0-1.6,0.4-2.8,1.1-3.7c0.8-0.9,1.8-1.4,3.1-1.4
	c1.2,0,2.2,0.4,2.9,1.2s1.1,1.8,1.1,3.1v0.9h-6.6c0,1.1,0.3,2,0.9,2.6s1.3,0.9,2.3,0.9c1,0,2.1-0.2,3.1-0.7v1.3
	c-0.5,0.2-1,0.4-1.5,0.5S82.3,193.6,81.6,193.6z M81.2,184.9c-0.8,0-1.4,0.3-1.8,0.8c-0.5,0.5-0.7,1.2-0.8,2.1h5
	c0-0.9-0.2-1.6-0.6-2.1S82,184.9,81.2,184.9z M87.4,181.2c0-0.3,0.1-0.6,0.2-0.7s0.4-0.2,0.6-0.2c0.2,0,0.4,0.1,0.6,0.2
	s0.3,0.4,0.3,0.7s-0.1,0.6-0.3,0.7s-0.4,0.2-0.6,0.2c-0.2,0-0.5-0.1-0.6-0.2S87.4,181.5,87.4,181.2z M89,193.5h-1.5v-9.6H89V193.5z
	 M99.8,183.8v0.9L98,185c0.2,0.2,0.3,0.5,0.4,0.8s0.2,0.7,0.2,1.1c0,0.9-0.3,1.7-1,2.3S96.1,190,95,190c-0.3,0-0.6,0-0.8-0.1
	c-0.6,0.3-0.9,0.7-0.9,1.2c0,0.3,0.1,0.5,0.3,0.6s0.6,0.2,1.1,0.2h1.7c1,0,1.8,0.2,2.4,0.7c0.6,0.4,0.8,1.1,0.8,1.9
	c0,1.1-0.4,1.9-1.3,2.4s-2.1,0.8-3.7,0.8c-1.3,0-2.2-0.2-2.9-0.7c-0.7-0.5-1-1.1-1-2c0-0.6,0.2-1.1,0.6-1.5s0.9-0.7,1.6-0.9
	c-0.2-0.1-0.5-0.3-0.6-0.5c-0.2-0.2-0.2-0.5-0.2-0.8c0-0.4,0.1-0.7,0.3-0.9s0.5-0.5,0.9-0.8c-0.5-0.2-0.9-0.6-1.2-1
	s-0.5-1.1-0.5-1.7c0-1.1,0.3-1.9,0.9-2.4s1.5-0.9,2.7-0.9c0.5,0,1,0.1,1.4,0.2H99.8z M92.1,195.1c0,0.5,0.2,0.9,0.7,1.2
	s1.1,0.4,1.9,0.4c1.2,0,2.1-0.2,2.7-0.5c0.6-0.4,0.9-0.9,0.9-1.5c0-0.5-0.2-0.9-0.5-1.1s-0.9-0.3-1.8-0.3h-1.7
	c-0.7,0-1.2,0.2-1.5,0.5S92.1,194.5,92.1,195.1z M92.9,186.9c0,0.7,0.2,1.2,0.6,1.5s0.9,0.5,1.6,0.5c1.4,0,2.1-0.7,2.1-2.1
	c0-1.4-0.7-2.2-2.2-2.2c-0.7,0-1.2,0.2-1.6,0.6S92.9,186.2,92.9,186.9z M108.4,193.5v-6.2c0-0.8-0.2-1.4-0.5-1.8s-0.9-0.6-1.7-0.6
	c-1,0-1.8,0.3-2.2,0.8c-0.5,0.6-0.7,1.5-0.7,2.7v5h-1.5v-13.7h1.5v4.1c0,0.5,0,0.9-0.1,1.2h0.1c0.3-0.5,0.7-0.8,1.2-1.1
	c0.5-0.3,1.1-0.4,1.8-0.4c1.2,0,2.1,0.3,2.7,0.8c0.6,0.6,0.9,1.4,0.9,2.7v6.3H108.4z M114.4,191.4l0.1,0.2c-0.2,0.6-0.4,1.3-0.7,2
	s-0.6,1.5-0.9,2.2h-1.1c0.2-0.6,0.3-1.4,0.5-2.3s0.3-1.6,0.4-2.2H114.4z M132.2,193.5h-1.7l-7-10.8h-0.1c0.1,1.3,0.1,2.4,0.1,3.5
	v7.3h-1.4v-12.8h1.7l7,10.7h0.1c0-0.2,0-0.7-0.1-1.5s-0.1-1.5,0-1.8v-7.4h1.4V193.5z M141.1,181.8c-1.4,0-2.5,0.5-3.3,1.4
	c-0.8,0.9-1.2,2.2-1.2,3.9c0,1.7,0.4,3,1.2,3.9c0.8,0.9,1.9,1.4,3.4,1.4c0.9,0,1.9-0.2,3.1-0.5v1.3c-0.9,0.3-2,0.5-3.3,0.5
	c-1.9,0-3.4-0.6-4.4-1.7c-1-1.1-1.5-2.8-1.5-4.9c0-1.3,0.2-2.5,0.7-3.5c0.5-1,1.2-1.8,2.1-2.3c0.9-0.5,2-0.8,3.3-0.8
	c1.3,0,2.5,0.2,3.5,0.7l-0.6,1.3C143.1,182,142.1,181.8,141.1,181.8z M60.3,112.7l-1.6-4.1h-5.2l-1.6,4.1h-1.5l5.1-12.9h1.3
	l5.1,12.9H60.3z M58.3,107.2l-1.5-4c-0.2-0.5-0.4-1.1-0.6-1.9c-0.1,0.6-0.3,1.2-0.6,1.9l-1.5,4H58.3z M71.2,111.6
	c0.3,0,0.5,0,0.7-0.1s0.4-0.1,0.6-0.1v1.1c-0.2,0.1-0.4,0.1-0.7,0.2c-0.3,0-0.6,0.1-0.8,0.1c-1.9,0-2.8-1-2.8-2.9v-5.7h-1.4v-0.7
	l1.4-0.6l0.6-2.1h0.8v2.2h2.8v1.1h-2.8v5.7c0,0.6,0.1,1,0.4,1.3S70.7,111.6,71.2,111.6z M80.7,112.7l-0.3-1.4h-0.1
	c-0.5,0.6-1,1-1.4,1.2c-0.5,0.2-1.1,0.3-1.8,0.3c-1,0-1.7-0.2-2.2-0.7S74,110.9,74,110c0-1.9,1.6-3,4.7-3.1l1.6-0.1v-0.6
	c0-0.8-0.2-1.3-0.5-1.7c-0.3-0.4-0.8-0.5-1.6-0.5c-0.8,0-1.7,0.2-2.7,0.7l-0.4-1.1c0.5-0.3,1-0.5,1.6-0.6s1.1-0.2,1.7-0.2
	c1.1,0,2,0.3,2.6,0.8c0.6,0.5,0.8,1.3,0.8,2.5v6.6H80.7z M77.4,111.6c0.9,0,1.6-0.2,2.1-0.7c0.5-0.5,0.8-1.2,0.8-2.1v-0.9l-1.5,0.1
	c-1.2,0-2,0.2-2.5,0.5c-0.5,0.3-0.8,0.8-0.8,1.5c0,0.5,0.2,0.9,0.5,1.2S76.8,111.6,77.4,111.6z M86.1,112.7h-1.5V99h1.5V112.7z
	 M90.4,107.7c0.3-0.4,0.6-0.8,1.2-1.4l3.1-3.3h1.7l-3.9,4.1l4.2,5.5h-1.8l-3.4-4.6l-1.1,0.9v3.6H89V99h1.4v7.3
	C90.4,106.6,90.4,107.1,90.4,107.7L90.4,107.7z M107.6,102.9c1.3,0,2.2,0.4,2.9,1.3c0.7,0.9,1,2.1,1,3.7s-0.4,2.8-1.1,3.7
	s-1.7,1.3-2.9,1.3c-0.6,0-1.2-0.1-1.7-0.3c-0.5-0.2-1-0.6-1.3-1.1h-0.1l-0.3,1.2h-1V99h1.5v3.3c0,0.7,0,1.4-0.1,2h0.1
	C105.2,103.3,106.3,102.9,107.6,102.9z M107.4,104.1c-1,0-1.7,0.3-2.2,0.9s-0.7,1.5-0.7,2.9s0.2,2.3,0.7,2.9s1.2,0.9,2.2,0.9
	c0.9,0,1.6-0.3,2-1s0.7-1.6,0.7-2.8c0-1.3-0.2-2.2-0.7-2.8S108.3,104.1,107.4,104.1z M112.5,103h1.6l2.1,5.5
	c0.5,1.3,0.8,2.2,0.9,2.7h0.1c0.1-0.3,0.2-0.8,0.5-1.5s1-2.9,2.4-6.7h1.6l-4.1,11c-0.4,1.1-0.9,1.9-1.4,2.3c-0.5,0.5-1.2,0.7-2,0.7
	c-0.4,0-0.9,0-1.3-0.1v-1.2c0.3,0.1,0.7,0.1,1.1,0.1c1,0,1.7-0.6,2.1-1.7l0.5-1.4L112.5,103z M133.6,105.9h4.4v6.2
	c-0.7,0.2-1.4,0.4-2.1,0.5s-1.5,0.2-2.4,0.2c-1.9,0-3.5-0.6-4.5-1.7s-1.6-2.8-1.6-4.9c0-1.3,0.3-2.5,0.8-3.5c0.5-1,1.3-1.8,2.3-2.3
	s2.2-0.8,3.5-0.8c1.4,0,2.6,0.3,3.8,0.8l-0.6,1.3c-1.2-0.5-2.3-0.7-3.3-0.7c-1.6,0-2.8,0.5-3.7,1.4s-1.3,2.2-1.3,3.9
	c0,1.7,0.4,3,1.3,3.9c0.8,0.9,2.1,1.3,3.7,1.3c0.9,0,1.8-0.1,2.6-0.3v-4h-2.9V105.9z M146.7,112.7l-0.3-1.4h-0.1
	c-0.5,0.6-1,1-1.4,1.2c-0.5,0.2-1.1,0.3-1.8,0.3c-1,0-1.7-0.2-2.2-0.7s-0.8-1.2-0.8-2.1c0-1.9,1.6-3,4.7-3.1l1.6-0.1v-0.6
	c0-0.8-0.2-1.3-0.5-1.7c-0.3-0.4-0.8-0.5-1.6-0.5c-0.8,0-1.7,0.2-2.7,0.7l-0.4-1.1c0.5-0.3,1-0.5,1.6-0.6s1.1-0.2,1.7-0.2
	c1.1,0,2,0.3,2.6,0.8c0.6,0.5,0.8,1.3,0.8,2.5v6.6H146.7z M143.4,111.6c0.9,0,1.6-0.2,2.1-0.7c0.5-0.5,0.8-1.2,0.8-2.1v-0.9
	l-1.5,0.1c-1.2,0-2,0.2-2.5,0.5c-0.5,0.3-0.8,0.8-0.8,1.5c0,0.5,0.2,0.9,0.5,1.2S142.9,111.6,143.4,111.6z M155.1,102.8
	c0.4,0,0.8,0,1.2,0.1l-0.2,1.4c-0.4-0.1-0.8-0.1-1.1-0.1c-0.8,0-1.4,0.3-2,0.9c-0.6,0.6-0.8,1.4-0.8,2.4v5.2h-1.5V103h1.2l0.2,1.8
	h0.1c0.4-0.6,0.8-1.1,1.3-1.5S154.5,102.8,155.1,102.8z M161.9,111.6c0.3,0,0.5,0,0.7-0.1s0.4-0.1,0.6-0.1v1.1
	c-0.2,0.1-0.4,0.1-0.7,0.2c-0.3,0-0.6,0.1-0.8,0.1c-1.9,0-2.8-1-2.8-2.9v-5.7h-1.4v-0.7l1.4-0.6l0.6-2.1h0.8v2.2h2.8v1.1h-2.8v5.7
	c0,0.6,0.1,1,0.4,1.3S161.4,111.6,161.9,111.6z M171.7,112.7v-6.2c0-0.8-0.2-1.4-0.5-1.8s-0.9-0.6-1.7-0.6c-1,0-1.8,0.3-2.2,0.8
	c-0.5,0.6-0.7,1.5-0.7,2.7v5h-1.5V99h1.5v4.1c0,0.5,0,0.9-0.1,1.2h0.1c0.3-0.5,0.7-0.8,1.2-1.1c0.5-0.3,1.1-0.4,1.8-0.4
	c1.2,0,2.1,0.3,2.7,0.8c0.6,0.6,0.9,1.4,0.9,2.7v6.3H171.7z M181.1,99.8h3.6c1.7,0,2.9,0.3,3.7,0.8s1.1,1.3,1.1,2.4
	c0,0.8-0.2,1.4-0.6,1.9s-1,0.8-1.9,1v0.1c2,0.3,2.9,1.4,2.9,3.1c0,1.1-0.4,2-1.2,2.7c-0.8,0.6-1.9,1-3.3,1h-4.5V99.8z M182.6,105.3
	h2.5c1.1,0,1.8-0.2,2.3-0.5s0.7-0.9,0.7-1.7c0-0.7-0.3-1.2-0.8-1.6s-1.3-0.5-2.5-0.5h-2.2V105.3z M182.6,106.6v4.8h2.7
	c1,0,1.8-0.2,2.3-0.6s0.8-1,0.8-1.9c0-0.8-0.3-1.4-0.8-1.8c-0.5-0.4-1.4-0.6-2.4-0.6H182.6z M196.9,102.8c0.4,0,0.8,0,1.2,0.1
	l-0.2,1.4c-0.4-0.1-0.8-0.1-1.1-0.1c-0.8,0-1.4,0.3-2,0.9c-0.6,0.6-0.8,1.4-0.8,2.4v5.2h-1.5V103h1.2l0.2,1.8h0.1
	c0.4-0.6,0.8-1.1,1.3-1.5S196.3,102.8,196.9,102.8z M205.6,112.7l-0.3-1.4h-0.1c-0.5,0.6-1,1-1.4,1.2c-0.5,0.2-1.1,0.3-1.8,0.3
	c-1,0-1.7-0.2-2.2-0.7s-0.8-1.2-0.8-2.1c0-1.9,1.6-3,4.7-3.1l1.6-0.1v-0.6c0-0.8-0.2-1.3-0.5-1.7c-0.3-0.4-0.8-0.5-1.6-0.5
	c-0.8,0-1.7,0.2-2.7,0.7l-0.4-1.1c0.5-0.3,1-0.5,1.6-0.6s1.1-0.2,1.7-0.2c1.1,0,2,0.3,2.6,0.8c0.6,0.5,0.8,1.3,0.8,2.5v6.6H205.6z
	 M202.3,111.6c0.9,0,1.6-0.2,2.1-0.7c0.5-0.5,0.8-1.2,0.8-2.1v-0.9l-1.5,0.1c-1.2,0-2,0.2-2.5,0.5c-0.5,0.3-0.8,0.8-0.8,1.5
	c0,0.5,0.2,0.9,0.5,1.2S201.8,111.6,202.3,111.6z M209.5,100.4c0-0.3,0.1-0.6,0.2-0.7s0.4-0.2,0.6-0.2c0.2,0,0.4,0.1,0.6,0.2
	s0.3,0.4,0.3,0.7s-0.1,0.6-0.3,0.7s-0.4,0.2-0.6,0.2c-0.2,0-0.5-0.1-0.6-0.2S209.5,100.7,209.5,100.4z M211,112.7h-1.5V103h1.5
	V112.7z M217.3,111.6c0.3,0,0.5,0,0.7-0.1s0.4-0.1,0.6-0.1v1.1c-0.2,0.1-0.4,0.1-0.7,0.2c-0.3,0-0.6,0.1-0.8,0.1
	c-1.9,0-2.8-1-2.8-2.9v-5.7h-1.4v-0.7l1.4-0.6l0.6-2.1h0.8v2.2h2.8v1.1h-2.8v5.7c0,0.6,0.1,1,0.4,1.3S216.8,111.6,217.3,111.6z
	 M227.2,112.7v-6.2c0-0.8-0.2-1.4-0.5-1.8s-0.9-0.6-1.7-0.6c-1,0-1.8,0.3-2.2,0.8c-0.5,0.6-0.7,1.5-0.7,2.7v5h-1.5V99h1.5v4.1
	c0,0.5,0,0.9-0.1,1.2h0.1c0.3-0.5,0.7-0.8,1.2-1.1c0.5-0.3,1.1-0.4,1.8-0.4c1.2,0,2.1,0.3,2.7,0.8c0.6,0.6,0.9,1.4,0.9,2.7v6.3
	H227.2z M239.4,112.7l-1.8-5.7c-0.1-0.3-0.3-1.1-0.6-2.4h-0.1c-0.2,1-0.4,1.8-0.6,2.4l-1.8,5.6h-1.7l-2.6-9.6h1.5
	c0.6,2.4,1.1,4.3,1.4,5.5c0.3,1.3,0.5,2.1,0.6,2.6h0.1c0.1-0.3,0.2-0.8,0.3-1.3c0.1-0.5,0.3-1,0.4-1.3l1.8-5.5h1.6l1.7,5.5
	c0.3,1,0.6,1.9,0.7,2.5h0.1c0-0.2,0.1-0.5,0.2-1s0.7-2.8,1.8-7.1h1.5l-2.7,9.6H239.4z M251.3,112.7l-0.3-1.4H251
	c-0.5,0.6-1,1-1.4,1.2c-0.5,0.2-1.1,0.3-1.8,0.3c-1,0-1.7-0.2-2.2-0.7s-0.8-1.2-0.8-2.1c0-1.9,1.6-3,4.7-3.1l1.6-0.1v-0.6
	c0-0.8-0.2-1.3-0.5-1.7c-0.3-0.4-0.8-0.5-1.6-0.5c-0.8,0-1.7,0.2-2.7,0.7l-0.4-1.1c0.5-0.3,1-0.5,1.6-0.6s1.1-0.2,1.7-0.2
	c1.1,0,2,0.3,2.6,0.8c0.6,0.5,0.8,1.3,0.8,2.5v6.6H251.3z M248,111.6c0.9,0,1.6-0.2,2.1-0.7c0.5-0.5,0.8-1.2,0.8-2.1v-0.9l-1.5,0.1
	c-1.2,0-2,0.2-2.5,0.5c-0.5,0.3-0.8,0.8-0.8,1.5c0,0.5,0.2,0.9,0.5,1.2S247.4,111.6,248,111.6z M255.1,100.4c0-0.3,0.1-0.6,0.2-0.7
	s0.4-0.2,0.6-0.2c0.2,0,0.4,0.1,0.6,0.2s0.3,0.4,0.3,0.7s-0.1,0.6-0.3,0.7s-0.4,0.2-0.6,0.2c-0.2,0-0.5-0.1-0.6-0.2
	S255.1,100.7,255.1,100.4z M256.7,112.7h-1.5V103h1.5V112.7z M263,111.6c0.3,0,0.5,0,0.7-0.1s0.4-0.1,0.6-0.1v1.1
	c-0.2,0.1-0.4,0.1-0.7,0.2c-0.3,0-0.6,0.1-0.8,0.1c-1.9,0-2.8-1-2.8-2.9v-5.7h-1.4v-0.7l1.4-0.6l0.6-2.1h0.8v2.2h2.8v1.1h-2.8v5.7
	c0,0.6,0.1,1,0.4,1.3S262.5,111.6,263,111.6z M270.1,112.8c-1.4,0-2.5-0.4-3.4-1.3c-0.8-0.9-1.2-2.1-1.2-3.6c0-1.6,0.4-2.8,1.1-3.7
	c0.8-0.9,1.8-1.4,3.1-1.4c1.2,0,2.2,0.4,2.9,1.2s1.1,1.8,1.1,3.1v0.9H267c0,1.1,0.3,2,0.9,2.6s1.3,0.9,2.3,0.9c1,0,2.1-0.2,3.1-0.7
	v1.3c-0.5,0.2-1,0.4-1.5,0.5S270.8,112.8,270.1,112.8z M269.7,104.1c-0.8,0-1.4,0.3-1.8,0.8c-0.5,0.5-0.7,1.2-0.8,2.1h5
	c0-0.9-0.2-1.6-0.6-2.1S270.5,104.1,269.7,104.1z"/>
</svg>
