<svg xmlns="http://www.w3.org/2000/svg" viewBox="0 0 1920 1080"><defs><radialGradient id="b" cx="191.83" cy="243.91" fx="191.83" fy="243.91" r="2073.01" gradientUnits="userSpaceOnUse"><stop offset="0" stop-color="#eb1000"/><stop offset="1" stop-color="#eb1000" stop-opacity="0"/></radialGradient><radialGradient id="c" cx="1589.65" cy="186.52" fx="1589.65" fy="186.52" r="972.22" gradientUnits="userSpaceOnUse"><stop offset=".17" stop-color="#8480fe"/><stop offset="1" stop-color="#8480fe" stop-opacity="0"/></radialGradient><linearGradient id="d" x1="-921.43" y1="-121" x2="2156.28" y2="-121" gradientUnits="userSpaceOnUse"><stop offset=".4" stop-color="#8480fe" stop-opacity="0"/><stop offset=".84" stop-color="#8480fe"/></linearGradient><clipPath id="a"><path style="fill:none" d="M0 0h1920v1080H0z"/></clipPath></defs><g style="clip-path:url(#a)"><path style="fill:#292929" d="M0 0h1920v1080H0z"/><circle cx="191.83" cy="243.91" r="2073.01" style="fill:url(#b)"/><circle cx="1589.65" cy="186.52" r="972.22" style="fill:url(#c)"/><path d="M831.55 805.79c-124.78 77.22-282.88 77.69-408.13 1.22L-829.29 42.15c-122.69-74.91-122.89-251.72-.37-326.92l1244.43-763.78c125.06-76.74 283.16-76.65 408.11.27l1241.86 764.49c121.87 75.03 122.09 250.86.37 326.18L831.55 805.79z" style="fill:url(#d)"/><path d="M70.01 1033.8c.66.41.65 1.36 0 1.77l-18.9 11.73c-.67.42-1.53.42-2.2 0l-18.9-11.73c-.66-.41-.66-1.36 0-1.77l5.11-3.19 13.8 8.5c.67.41 1.52.41 2.19 0l13.8-8.5 5.11 3.19z" style="opacity:.3;fill:#fff"/><path d="m59.24 1022.28-8.14 5.04c-.67.42-1.52.42-2.2 0l-8.15-5.04-4.2 2.59c-.66.41-.66 1.37 0 1.78l12.35 7.6c.67.41 1.52.41 2.19 0l12.29-7.61c.66-.41.66-1.36 0-1.77l-4.15-2.58z" style="opacity:.58;fill:#fff"/><path d="M51.1 1012.47c-.67-.42-1.52-.42-2.2 0l-6.75 4.15c-.66.41-.66 1.37 0 1.78l6.7 4.15c.67.42 1.53.42 2.2 0l6.69-4.15c.66-.41.66-1.36 0-1.77l-6.65-4.15z" style="opacity:.85;fill:#fff"/><path style="fill:#fff;opacity:.17" d="M98 0h2v1080h-2z"/><path d="M1245.63 693.94c-5.94-3.06-15.12-5.22-23.22-5.22s-11.16 3.06-11.16 6.12 2.34 5.4 12.78 9.36c21.78 7.92 28.62 16.38 28.62 29.16 0 17.1-13.32 28.44-37.08 28.44-10.98 0-20.52-1.98-26.1-5.04-.9-.54-1.26-1.08-1.26-1.98v-19.44c0-1.08.72-1.62 1.44-1.08 8.28 5.22 18.36 7.2 26.46 7.2s12.24-2.34 12.24-6.12c0-3.42-3.06-5.94-13.68-9.9-20.34-7.56-27-16.2-27-29.16 0-14.04 11.34-27.54 35.1-27.54 10.62 0 18.9 1.44 23.4 3.6 1.08.54 1.26 1.44 1.26 2.34v18c0 1.08-.72 1.8-1.8 1.26zm-153.44 64.44v-66.96c0-6.12-.36-15.48-.72-19.44-.18-.9.18-1.44 1.26-1.44h18.9c1.44 0 1.98.54 2.34 1.44.72 1.62 1.08 3.42 1.44 5.94 7.56-6.12 16.02-9.18 25.56-9.18 13.86 0 30.24 7.2 30.24 36.18v53.46c0 1.08-.36 1.62-1.62 1.62h-21.6c-1.26 0-1.8-.54-1.8-1.62v-51.3c0-10.8-4.68-16.56-14.04-16.56-6.12 0-11.16 2.16-14.94 5.58v62.46c0 .9-.54 1.44-1.62 1.44h-21.78c-1.26 0-1.62-.54-1.62-1.62zm-61.15-68.76c-10.44 0-18.36 9.36-18.36 25.38s7.38 25.92 19.44 25.92c10.44 0 18.36-9 18.36-25.56 0-14.04-5.76-25.74-19.44-25.74zm1.08-20.88c28.98 0 43.92 21.78 43.92 46.08 0 28.26-18.36 46.98-44.28 46.98-30.78 0-44.46-23.22-44.46-46.44 0-25.56 17.1-46.62 44.82-46.62zm-73.4-7.74c-8.46 0-13.86-5.58-13.86-14.04s5.94-13.86 14.04-13.86c8.64 0 13.86 5.76 13.86 13.86S967.18 661 958.72 661zm-12.6 97.38v-86.4c0-.9.36-1.44 1.44-1.44h22.14c1.08 0 1.44.36 1.44 1.44v86.4c0 1.08-.18 1.62-1.62 1.62h-21.6c-1.26 0-1.8-.54-1.8-1.62zm-22.17-64.44c-5.94-3.06-15.12-5.22-23.22-5.22s-11.16 3.06-11.16 6.12 2.34 5.4 12.78 9.36c21.78 7.92 28.62 16.38 28.62 29.16 0 17.1-13.32 28.44-37.08 28.44-10.98 0-20.52-1.98-26.1-5.04-.9-.54-1.26-1.08-1.26-1.98v-19.44c0-1.08.72-1.62 1.44-1.08 8.28 5.22 18.36 7.2 26.46 7.2s12.24-2.34 12.24-6.12c0-3.42-3.06-5.94-13.68-9.9-20.34-7.56-27-16.2-27-29.16 0-14.04 11.34-27.54 35.1-27.54 10.62 0 18.9 1.44 23.4 3.6 1.08.54 1.26 1.44 1.26 2.34v18c0 1.08-.72 1.8-1.8 1.26zM836.2 661c-8.46 0-13.86-5.58-13.86-14.04s5.94-13.86 14.04-13.86c8.64 0 13.86 5.76 13.86 13.86S844.66 661 836.2 661zm-12.6 97.38v-86.4c0-.9.36-1.44 1.44-1.44h22.14c1.08 0 1.44.36 1.44 1.44v86.4c0 1.08-.18 1.62-1.62 1.62h-21.6c-1.26 0-1.8-.54-1.8-1.62zm-15.75-19.62v18.72c0 .9-.18 1.26-.9 1.44-5.76 2.34-13.14 2.88-20.16 2.88-29.16 0-47.52-19.62-47.52-46.08s20.34-46.98 50.94-46.98c8.82 0 13.68.9 16.56 1.98.9.36 1.08.9 1.08 1.98l-.18 18.54c0 1.26-.72 1.44-1.44 1.26-3.42-1.26-8.46-2.16-15.12-2.16-15.12 0-26.1 8.28-26.1 24.48 0 18.72 13.86 24.84 26.46 24.84 6.3 0 11.88-.72 14.94-1.62 1.08-.36 1.44 0 1.44.72zm-136.36-34.38h23.58c5.76 0 8.28-.18 9-.36v-1.26c0-4.32-3.42-14.22-15.3-14.22s-16.2 8.46-17.28 15.84zm35.28 17.46h-35.1c.9 10.26 8.1 18.72 25.74 18.72 8.1 0 15.3-1.26 22.14-4.14.54-.36 1.08-.18 1.08.9v17.1c0 1.26-.36 1.8-1.26 2.16-7.2 3.42-15.12 5.22-27.54 5.22-33.84 0-45.72-23.22-45.72-45.54 0-24.84 15.3-47.52 43.56-47.52s37.98 21.06 37.98 38.88c0 5.58-.36 10.08-.9 12.06-.18.9-.54 1.26-1.44 1.44-2.34.36-9.18.72-18.54.72zM558.98 663.7v74.7c3.6.18 6.48.36 10.62.36 23.58 0 39.06-14.22 39.06-39.24s-15.48-36-38.52-36c-4.32 0-7.2 0-11.16.18zm-25.02 94.5V643.72c0-.9.18-1.26 1.26-1.44 5.4-.18 19.08-.54 35.1-.54 43.02 0 64.08 24.12 64.08 57.42 0 43.02-33.12 61.2-63.72 61.2-11.88 0-29.88 0-35.64-.36-.72 0-1.08-.54-1.08-1.8zm424.46-149.82v-66.96c0-6.12-.36-15.48-.72-19.44-.18-.9.18-1.44 1.26-1.44h18.9c1.44 0 1.98.54 2.34 1.44.72 1.62 1.08 3.42 1.44 5.94 7.56-6.12 16.02-9.18 25.56-9.18 13.86 0 30.24 7.2 30.24 36.18v53.46c0 1.08-.36 1.62-1.62 1.62h-21.6c-1.26 0-1.8-.54-1.8-1.62v-51.3c0-10.8-4.68-16.56-14.04-16.56-6.12 0-11.16 2.16-14.94 5.58v62.46c0 .9-.54 1.44-1.62 1.44h-21.78c-1.26 0-1.62-.54-1.62-1.62zm-65.04-19.98 18.54.72c25.74 1.26 35.28 11.7 35.28 25.92 0 18.72-18.36 33.84-47.34 33.84s-43.2-14.94-43.2-27.9c0-5.76 4.68-12.96 16.56-22.86-2.7-3.96-3.96-8.82-3.78-13.5 0-4.14 1.26-8.28 3.24-11.88-7.38-4.68-12.42-12.06-12.42-23.22 0-17.28 13.5-30.78 36.9-30.78 6.66 0 12.96.72 17.1 1.44 1.62.36 3.06.36 4.32.36h24.66c.9 0 1.26.36 1.26 1.26v16.74c0 .9-.36 1.26-1.26 1.26-2.7 0-8.64-.54-12.42-.9 1.44 2.52 2.7 6.3 2.7 11.7 0 19.08-15.66 28.62-35.64 28.62-1.98 0-4.14-.18-6.12-.36-.54 1.44-.72 3.24-.36 4.86.18 1.62.9 3.24 1.98 4.68zm3.78-51.66c-7.74 0-12.6 4.5-12.6 12.42 0 7.02 4.5 12.24 12.78 12.24s12.42-4.32 12.42-11.7-3.6-12.96-12.6-12.96zm9.18 73.26-19.98-.72c-3.96 2.88-6.84 7.74-6.84 9.54 0 5.58 7.92 11.7 21.96 11.7 16.02 0 22.86-5.58 22.86-11.52 0-6.66-7.92-8.46-18-9zm-74.19-99c-8.46 0-13.86-5.58-13.86-14.04s5.94-13.86 14.04-13.86c8.64 0 13.86 5.76 13.86 13.86S840.61 511 832.15 511zm-12.6 97.38v-86.4c0-.9.36-1.44 1.44-1.44h22.14c1.08 0 1.44.36 1.44 1.44v86.4c0 1.08-.18 1.62-1.62 1.62h-21.6c-1.26 0-1.8-.54-1.8-1.62zm-22.16-64.44c-5.94-3.06-15.12-5.22-23.22-5.22s-11.16 3.06-11.16 6.12 2.34 5.4 12.78 9.36c21.78 7.92 28.62 16.38 28.62 29.16 0 17.1-13.32 28.44-37.08 28.44-10.98 0-20.52-1.98-26.1-5.04-.9-.54-1.26-1.08-1.26-1.98v-19.44c0-1.08.72-1.62 1.44-1.08 8.28 5.22 18.36 7.2 26.46 7.2s12.24-2.34 12.24-6.12c0-3.42-3.06-5.94-13.68-9.9-20.34-7.56-27-16.2-27-29.16 0-14.04 11.34-27.54 35.1-27.54 10.62 0 18.9 1.44 23.4 3.6 1.08.54 1.26 1.44 1.26 2.34v18c0 1.08-.72 1.8-1.8 1.26zm-125.9 10.44h23.58c5.76 0 8.28-.18 9-.36v-1.26c0-4.32-3.42-14.22-15.3-14.22s-16.2 8.46-17.28 15.84zm35.28 17.46h-35.1c.9 10.26 8.1 18.72 25.74 18.72 8.1 0 15.3-1.26 22.14-4.14.54-.36 1.08-.18 1.08.9v17.1c0 1.26-.36 1.8-1.26 2.16-7.2 3.42-15.12 5.22-27.54 5.22-33.84 0-45.72-23.22-45.72-45.54 0-24.84 15.3-47.52 43.56-47.52s37.98 21.06 37.98 38.88c0 5.58-.36 10.08-.9 12.06-.18.9-.54 1.26-1.44 1.44-2.34.36-9.18.72-18.54.72zM558.98 513.7v74.7c3.6.18 6.48.36 10.62.36 23.58 0 39.06-14.22 39.06-39.24s-15.48-36-38.52-36c-4.32 0-7.2 0-11.16.18zm-25.02 94.5V493.72c0-.9.18-1.26 1.26-1.44 5.4-.18 19.08-.54 35.1-.54 43.02 0 64.08 24.12 64.08 57.42 0 43.02-33.12 61.2-63.72 61.2-11.88 0-29.88 0-35.64-.36-.72 0-1.08-.54-1.08-1.8zm669.49-169.8 18.54.72c25.74 1.26 35.28 11.7 35.28 25.92 0 18.72-18.36 33.84-47.34 33.84s-43.2-14.94-43.2-27.9c0-5.76 4.68-12.96 16.56-22.86-2.7-3.96-3.96-8.82-3.78-13.5 0-4.14 1.26-8.28 3.24-11.88-7.38-4.68-12.42-12.06-12.42-23.22 0-17.28 13.5-30.78 36.9-30.78 6.66 0 12.96.72 17.1 1.44 1.62.36 3.06.36 4.32.36h24.66c.9 0 1.26.36 1.26 1.26v16.74c0 .9-.36 1.26-1.26 1.26-2.7 0-8.64-.54-12.42-.9 1.44 2.52 2.7 6.3 2.7 11.7 0 19.08-15.66 28.62-35.64 28.62-1.98 0-4.14-.18-6.12-.36-.54 1.44-.72 3.24-.36 4.86.18 1.62.9 3.24 1.98 4.68zm3.78-51.66c-7.74 0-12.6 4.5-12.6 12.42 0 7.02 4.5 12.24 12.78 12.24s12.42-4.32 12.42-11.7-3.6-12.96-12.6-12.96zm9.18 73.26-19.98-.72c-3.96 2.88-6.84 7.74-6.84 9.54 0 5.58 7.92 11.7 21.96 11.7 16.02 0 22.86-5.58 22.86-11.52 0-6.66-7.92-8.46-18-9zm-140.57-1.62v-66.96c0-6.12-.36-15.48-.72-19.44-.18-.9.18-1.44 1.26-1.44h18.9c1.44 0 1.98.54 2.34 1.44.72 1.62 1.08 3.42 1.44 5.94 7.56-6.12 16.02-9.18 25.56-9.18 13.86 0 30.24 7.2 30.24 36.18v53.46c0 1.08-.36 1.62-1.62 1.62h-21.6c-1.26 0-1.8-.54-1.8-1.62v-51.3c0-10.8-4.68-16.56-14.04-16.56-6.12 0-11.16 2.16-14.94 5.58v62.46c0 .9-.54 1.44-1.62 1.44h-21.78c-1.26 0-1.62-.54-1.62-1.62zM1042.56 361c-8.46 0-13.86-5.58-13.86-14.04s5.94-13.86 14.04-13.86c8.64 0 13.86 5.76 13.86 13.86s-5.58 14.04-14.04 14.04zm-12.6 97.38v-86.4c0-.9.36-1.44 1.44-1.44h22.14c1.08 0 1.44.36 1.44 1.44v86.4c0 1.08-.18 1.62-1.62 1.62h-21.6c-1.26 0-1.8-.54-1.8-1.62zm-99.72-87.84h24.3c.72 0 1.44.36 1.8 1.26 10.26 30.78 15.66 49.5 18.18 58.86 5.76-19.08 11.34-36.36 18.36-58.86.18-.72.9-1.26 1.98-1.26h21.42c1.26 0 1.44.72 1.26 1.62-12.96 40.32-32.94 90-46.26 120.78-.36.72-.9 1.26-2.52 1.26l-22.68 1.8c-1.08 0-1.44-.54-.9-1.62 5.22-10.8 10.62-22.68 16.38-36.18.54-1.26.72-1.8.18-3.06-5.04-12.42-21.96-54.9-32.58-83.16-.54-.9.18-1.44 1.08-1.44zm-50 20.88h-10.62c-.9-.18-1.26-.54-1.26-1.44V371.8c0-.9.54-1.26 1.26-1.26h10.62v-2.88c0-8.46 1.44-14.76 3.96-20.16 4.68-10.08 13.14-16.92 27.9-16.92 3.78 0 7.02.36 9.36 1.26.9.36 1.08.9 1.08 1.8v17.82c0 .72-.36 1.26-1.26 1.08-1.8-.36-3.96-.36-5.4-.36-6.66 0-10.62 3.42-10.62 13.5v4.86h15.3c1.26 0 1.44.54 1.44 1.26v18.18c0 1.08-.18 1.26-1.44 1.44h-15.3v66.96c0 .9-.18 1.62-1.62 1.62h-21.78c-1.08 0-1.62-.54-1.62-1.62v-66.96zM842.88 361c-8.46 0-13.86-5.58-13.86-14.04s5.94-13.86 14.04-13.86c8.64 0 13.86 5.76 13.86 13.86S851.34 361 842.88 361zm-12.6 97.38v-86.4c0-.9.36-1.44 1.44-1.44h22.14c1.08 0 1.44.36 1.44 1.44v86.4c0 1.08-.18 1.62-1.62 1.62h-21.6c-1.26 0-1.8-.54-1.8-1.62zM784.4 439.3v-48.78c-1.8-.72-4.14-.9-6.66-.9-13.86 0-25.74 8.46-25.74 25.2 0 17.82 10.26 25.56 23.94 25.56 3.06 0 5.94-.18 8.46-1.08zm-10.98 22.5c-26.64 0-47.16-15.12-47.16-45.72 0-25.74 19.26-47.34 52.2-47.34 1.44 0 3.24.18 5.94.36v-35.46c0-.9.54-1.26 1.26-1.26h22.68c.9 0 1.08.36 1.08 1.08v106.38c0 4.14.18 9.54.72 13.14 0 .9-.18 1.26-1.26 1.62-12.42 5.22-24.3 7.2-35.46 7.2zm-103.79-72.18c-10.44 0-18.36 9.36-18.36 25.38s7.38 25.92 19.44 25.92c10.44 0 18.36-9 18.36-25.56 0-14.04-5.76-25.74-19.44-25.74zm1.08-20.88c28.98 0 43.92 21.78 43.92 46.08 0 28.26-18.36 46.98-44.28 46.98-30.78 0-44.46-23.22-44.46-46.44 0-25.56 17.1-46.62 44.82-46.62zm-54.85 68.76v18.54c0 1.26-.36 2.16-1.44 2.52-5.94 2.16-14.94 3.24-25.02 3.24-34.92 0-62.1-20.7-62.1-60.12 0-36.54 25.2-61.38 64.98-61.38 11.34 0 18.72.9 23.4 3.06.9.36 1.26 1.08 1.26 2.16v19.62c0 1.62-.9 1.62-1.62 1.26-5.94-2.88-14.4-3.96-23.4-3.96-24.12 0-38.88 14.94-38.88 38.34 0 28.08 20.52 38.7 39.42 38.7 8.82 0 15.48-.72 21.96-2.88.9-.36 1.44-.18 1.44.9z" style="fill:#fff"/></g></svg>