<?xml version="1.0" encoding="utf-8"?>
<!-- Generator: Adobe Illustrator 18.1.1, SVG Export Plug-In . SVG Version: 6.00 Build 0)  -->
<!DOCTYPE svg PUBLIC "-//W3C//DTD SVG 1.1//EN" "http://www.w3.org/Graphics/SVG/1.1/DTD/svg11.dtd">
<svg version="1.1" id="Layer_1" xmlns="http://www.w3.org/2000/svg" xmlns:xlink="http://www.w3.org/1999/xlink" x="0px" y="0px"
	 viewBox="0 0 400 300" enable-background="new 0 0 400 300" xml:space="preserve">
<rect fill="#00B3B5" width="400" height="300"/>
<path opacity="0.6" d="M361.1,171.7l-0.7,7.9l0.8,5.8l-3.1,8.6l-3.7,3.3l-2.5-8l0.8-9.4l2.7-7.2l1.3-5.3l-0.2-3.4l11.1-4.4l-1.3,5.5
	L361.1,171.7z M360.5,216.2l-6.2-10.4l-10,2.9l-2.7-2.6l4.4-2.4l-0.8-4.3l-3.1-3.1l-0.2-2.4l-3.9-2.7l-0.2-2.8l4.6,0.2l0.4-2.4
	l-2.1-1.4l0.8-3.3l-2.4-1.9l0.6-5.9l-19.1,3.9l10,45L360.5,216.2z M169.1,248.7c0.8,0.7,1.6,1.3,2.6,1.8l8.9,0.5
	c3.1-1.1,5.5-3.6,6.6-6.7l-2-11c-2.1-2.4-5.1-4-8.6-4c-0.1,0-0.1,0-0.2,0l-4.2,1.9l-1.3-0.3c-2.2,1.3-3.8,3.3-4.7,5.6L169.1,248.7z
	 M200.9,247.9l14.4-2l-8-30.3l-0.6-0.2l-4.9,3.7l-2.2-0.5l2.9,9.2l-5.2-9.6L194,226l-6.7,2.5l-0.3-0.2l3.7,21.1l7.3-1l-2.2-10.4
	L200.9,247.9z M296.5,229.9l-11.7-17.2c2.9-2.7,4.8-6.5,4.8-10.8c0-1.1-0.1-2.2-0.4-3.2c-1.5-6.6-7.3-11.5-14.3-11.5
	c-0.9,0-1.8,0.1-2.7,0.3c0,0,0,0-0.1,0l-13.6,2.8l7.3,46.3L296.5,229.9L296.5,229.9z M322.7,198.9l-9.2,2.2l1.9,10.7l-4,0.7
	l-2.7-14.4l13.2-3l-3.7-16.8l-14.1,2.9c-9,1.8-14.7,10.8-12.7,19.7l3.1,13.2c2,8.7,10.6,14.1,19.4,12.3l14.2-3.1L322.7,198.9z
	 M231.7,196.4l-9.3,1.9l1,34.2l-6.3-23.8l-0.1,0.3l-4.9,6.3l-2.5-0.7l8,30.3l15.3-2.2L231.7,196.4z M260.4,218.1l-14.8,3l-0.2-2.3
	l14.6-3l-1.6-9.9l-13.8,2.8l-0.2-2.3l13.6-2.8l-2-12.6l-22,4.5l1.4,46.5l18.3-2.6l9.7-2.1L260.4,218.1z M133.1,247.9l0,2.5
	l-14.6,8.5l15.4-1.6l6.3-0.7C137,254.5,134.6,251.5,133.1,247.9z M163.5,254.5l3.6-2.7l-2-8.6l-8.3-2l6.6-5.7l-1.6-7l-5.3-6
	l-18.2,19.8l-2.6,3.7l0,1.1c1.4,3.6,3.9,6.6,7.1,8.7l8.1-0.9L163.5,254.5z M296.6,156.9l1.6-0.2l4.5,22.8l21.1-4.3l-7.8-14.4
	l-1.3-0.4l-6.8-2.5l-3.4-9.4l2.2-2.3l0.4-1.7l-4.9-9.1l-10.2-3.7l0.8-4.5l-7-2.4c0,0,0,7.9-1,8.3l-5,35.4l-2.3,16.2
	c4.6,0.7,8.7,3.3,11.5,7c0.5-1.6,1.2-3.1,2.1-4.6c1-1.6,2.3-3,3.7-4.2L296.6,156.9z M281.7,133l-12.5-4.9l-4.5,36.1l-7.1-17.2
	l-2.2,2l-1.8,4.7l-4.8,1l-1.2,4.8l16.5,27.3l10.4-2.1l7.3-51.6C281.8,133,281.7,133,281.7,133z M261.6,187.5l-13.7,2.8l-17.6,3.6
	v-28.1l2.1-0.9l2.7,3l1.1,1.2l6.8-0.5l1-3.9c4.3,0.8,7.6,4.6,7.6,9.1c0,1.9-0.6,3.6-1.5,5.1L261.6,187.5z"/>
<path fill="#FFFFFF" d="M68.2,60c0,3.1-0.9,5.4-2.6,7c-1.7,1.6-4.3,2.4-7.5,2.4h-5.3V50.9h5.8c3,0,5.4,0.8,7.1,2.4
	S68.2,57.2,68.2,60z M64.1,60.1c0-4-1.8-6-5.3-6h-2.1v12.1h1.7C62.2,66.2,64.1,64.2,64.1,60.1z M78,69.8c-2.3,0-4.1-0.6-5.4-1.9
	s-1.9-3-1.9-5.4c0-2.4,0.6-4.2,1.8-5.5c1.2-1.3,2.8-1.9,4.9-1.9c2,0,3.6,0.6,4.7,1.7s1.7,2.7,1.7,4.7v1.9h-9.2c0,1.1,0.4,2,1,2.6
	s1.5,0.9,2.6,0.9c0.9,0,1.7-0.1,2.4-0.3s1.6-0.5,2.4-0.9v3c-0.7,0.3-1.4,0.6-2.2,0.8S79.1,69.8,78,69.8z M77.5,57.8
	c-0.8,0-1.5,0.3-1.9,0.8s-0.7,1.3-0.8,2.2h5.4c0-1-0.3-1.7-0.7-2.2S78.3,57.8,77.5,57.8z M96.9,65.3c0,1.5-0.5,2.6-1.5,3.3
	c-1,0.8-2.5,1.1-4.5,1.1c-1,0-1.9-0.1-2.6-0.2s-1.4-0.3-2-0.6v-3.2c0.7,0.3,1.5,0.6,2.4,0.9c0.9,0.2,1.7,0.3,2.4,0.3
	c1.4,0,2.1-0.4,2.1-1.2c0-0.3-0.1-0.6-0.3-0.7s-0.5-0.4-1-0.6s-1.1-0.5-1.8-0.8c-1.1-0.5-1.9-0.9-2.4-1.3c-0.5-0.4-0.9-0.8-1.1-1.3
	c-0.2-0.5-0.3-1.1-0.3-1.9c0-1.3,0.5-2.2,1.5-2.9c1-0.7,2.4-1,4.2-1c1.7,0,3.4,0.4,5,1.1l-1.2,2.8c-0.7-0.3-1.4-0.6-2-0.7
	s-1.2-0.3-1.9-0.3c-1.1,0-1.7,0.3-1.7,0.9c0,0.3,0.2,0.6,0.6,0.9c0.4,0.3,1.2,0.6,2.4,1.1c1.1,0.4,1.9,0.9,2.4,1.3s0.9,0.8,1.1,1.3
	S96.9,64.6,96.9,65.3z M99.7,51.6c0-1.3,0.7-1.9,2.1-1.9s2.1,0.6,2.1,1.9c0,0.6-0.2,1.1-0.5,1.4c-0.4,0.3-0.9,0.5-1.6,0.5
	C100.4,53.5,99.7,52.9,99.7,51.6z M103.7,69.5h-3.9V55.3h3.9V69.5z M120,55.3v2l-2.2,0.6c0.4,0.6,0.6,1.3,0.6,2.1
	c0,1.5-0.5,2.7-1.6,3.6c-1.1,0.9-2.5,1.3-4.4,1.3l-0.7,0l-0.6-0.1c-0.4,0.3-0.6,0.6-0.6,1c0,0.6,0.7,0.8,2.1,0.8h2.4
	c1.6,0,2.7,0.3,3.6,1c0.8,0.7,1.2,1.7,1.2,2.9c0,1.7-0.7,2.9-2.1,3.9c-1.4,0.9-3.4,1.4-6,1.4c-2,0-3.5-0.3-4.5-1
	c-1-0.7-1.6-1.7-1.6-2.9c0-0.9,0.3-1.6,0.8-2.1s1.3-1,2.3-1.2c-0.4-0.2-0.7-0.4-1-0.8s-0.4-0.8-0.4-1.2c0-0.5,0.2-1,0.5-1.4
	s0.8-0.7,1.4-1.1c-0.7-0.3-1.3-0.8-1.8-1.5c-0.4-0.7-0.7-1.5-0.7-2.5c0-1.5,0.5-2.7,1.5-3.6s2.4-1.3,4.3-1.3c0.4,0,0.9,0,1.4,0.1
	c0.5,0.1,0.9,0.1,1,0.2H120z M109.1,71.5c0,0.5,0.3,1,0.8,1.3c0.5,0.3,1.2,0.5,2.2,0.5c1.4,0,2.5-0.2,3.3-0.6s1.2-0.9,1.2-1.6
	c0-0.5-0.2-0.9-0.7-1.1s-1.2-0.3-2.2-0.3h-2c-0.7,0-1.3,0.2-1.8,0.5C109.3,70.5,109.1,71,109.1,71.5z M110.5,60
	c0,0.8,0.2,1.4,0.5,1.8c0.4,0.4,0.9,0.7,1.6,0.7c0.7,0,1.3-0.2,1.6-0.7s0.5-1.1,0.5-1.8c0-1.7-0.7-2.6-2.1-2.6
	C111.2,57.4,110.5,58.2,110.5,60z M135.3,69.5h-3.9v-8.3c0-1-0.2-1.8-0.5-2.3s-0.9-0.8-1.7-0.8c-1.1,0-1.9,0.4-2.3,1.1
	s-0.7,1.9-0.7,3.6v6.7h-3.9V55.3h3l0.5,1.8h0.2c0.4-0.7,1-1.2,1.8-1.6c0.8-0.4,1.6-0.5,2.6-0.5c1.7,0,2.9,0.4,3.8,1.3
	s1.3,2.2,1.3,3.9V69.5z M145.5,69.8c-2.3,0-4.1-0.6-5.4-1.9s-1.9-3-1.9-5.4c0-2.4,0.6-4.2,1.8-5.5c1.2-1.3,2.8-1.9,4.9-1.9
	c2,0,3.6,0.6,4.7,1.7s1.7,2.7,1.7,4.7v1.9h-9.2c0,1.1,0.4,2,1,2.6s1.5,0.9,2.6,0.9c0.9,0,1.7-0.1,2.4-0.3s1.6-0.5,2.4-0.9v3
	c-0.7,0.3-1.4,0.6-2.2,0.8S146.6,69.8,145.5,69.8z M145,57.8c-0.8,0-1.5,0.3-1.9,0.8s-0.7,1.3-0.8,2.2h5.4c0-1-0.3-1.7-0.7-2.2
	S145.8,57.8,145,57.8z M162.3,55c0.5,0,1,0,1.3,0.1l-0.3,3.6c-0.3-0.1-0.7-0.1-1.1-0.1c-1.2,0-2.2,0.3-2.9,1c-0.7,0.6-1,1.5-1,2.7
	v7.2h-3.9V55.3h2.9l0.6,2.4h0.2c0.4-0.8,1-1.4,1.8-1.9C160.6,55.3,161.4,55,162.3,55z M176.2,65.3c0,1.5-0.5,2.6-1.5,3.3
	c-1,0.8-2.5,1.1-4.5,1.1c-1,0-1.9-0.1-2.6-0.2s-1.4-0.3-2-0.6v-3.2c0.7,0.3,1.5,0.6,2.4,0.9c0.9,0.2,1.7,0.3,2.4,0.3
	c1.4,0,2.1-0.4,2.1-1.2c0-0.3-0.1-0.6-0.3-0.7s-0.5-0.4-1-0.6s-1.1-0.5-1.8-0.8c-1.1-0.5-1.9-0.9-2.4-1.3c-0.5-0.4-0.9-0.8-1.1-1.3
	c-0.2-0.5-0.3-1.1-0.3-1.9c0-1.3,0.5-2.2,1.5-2.9c1-0.7,2.4-1,4.2-1c1.7,0,3.4,0.4,5,1.1l-1.2,2.8c-0.7-0.3-1.4-0.6-2-0.7
	s-1.2-0.3-1.9-0.3c-1.1,0-1.7,0.3-1.7,0.9c0,0.3,0.2,0.6,0.6,0.9c0.4,0.3,1.2,0.6,2.4,1.1c1.1,0.4,1.9,0.9,2.4,1.3s0.9,0.8,1.1,1.3
	S176.2,64.6,176.2,65.3z M194.1,53.9c-1.5,0-2.6,0.6-3.4,1.7s-1.2,2.7-1.2,4.7c0,4.1,1.6,6.2,4.7,6.2c1.3,0,2.9-0.3,4.7-1v3.3
	c-1.5,0.6-3.2,1-5.1,1c-2.7,0-4.8-0.8-6.2-2.5s-2.1-4-2.1-7.1c0-1.9,0.4-3.6,1.1-5.1s1.7-2.6,3-3.3c1.3-0.8,2.9-1.2,4.6-1.2
	c1.8,0,3.6,0.4,5.4,1.3l-1.3,3.2c-0.7-0.3-1.4-0.6-2.1-0.9S194.8,53.9,194.1,53.9z M211.4,69.5l-0.7-1.9h-0.1
	c-0.7,0.8-1.3,1.4-2,1.7c-0.7,0.3-1.6,0.5-2.7,0.5c-1.4,0-2.4-0.4-3.2-1.2c-0.8-0.8-1.2-1.9-1.2-3.3c0-1.5,0.5-2.6,1.6-3.3
	c1.1-0.7,2.6-1.1,4.8-1.2l2.5-0.1V60c0-1.4-0.7-2.2-2.2-2.2c-1.1,0-2.5,0.3-4,1l-1.3-2.6c1.6-0.9,3.4-1.3,5.4-1.3
	c1.9,0,3.4,0.4,4.4,1.2s1.5,2.1,1.5,3.8v9.5H211.4z M210.3,62.9l-1.5,0.1c-1.1,0-2,0.2-2.5,0.6s-0.8,0.9-0.8,1.7
	c0,1.1,0.6,1.6,1.9,1.6c0.9,0,1.6-0.3,2.2-0.8c0.5-0.5,0.8-1.2,0.8-2.1V62.9z M230.9,69.5H227v-8.3c0-1-0.2-1.8-0.5-2.3
	s-0.9-0.8-1.7-0.8c-1.1,0-1.9,0.4-2.3,1.1s-0.7,1.9-0.7,3.6v6.7h-3.9V55.3h3l0.5,1.8h0.2c0.4-0.7,1-1.2,1.8-1.6
	c0.8-0.4,1.6-0.5,2.6-0.5c1.7,0,2.9,0.4,3.8,1.3s1.3,2.2,1.3,3.9V69.5z M69.7,85.2c0,3.1-0.8,5.4-2.3,7.1s-3.7,2.5-6.6,2.5
	s-5-0.8-6.6-2.5s-2.3-4-2.3-7.1s0.8-5.4,2.3-7.1c1.5-1.6,3.7-2.4,6.6-2.4s5,0.8,6.5,2.5C68.9,79.7,69.7,82.1,69.7,85.2z M56.1,85.2
	c0,2.1,0.4,3.6,1.2,4.7s2,1.6,3.5,1.6c3.1,0,4.7-2.1,4.7-6.3c0-4.2-1.6-6.3-4.7-6.3c-1.6,0-2.7,0.5-3.5,1.6S56.1,83.1,56.1,85.2z
	 M80.9,94.8c-1.7,0-3-0.6-3.9-1.8h-0.2c0.1,1.2,0.2,1.9,0.2,2.1v5.8h-3.9V80.3h3.1l0.5,1.8H77c0.9-1.4,2.2-2.1,4-2.1
	c1.7,0,3,0.6,3.9,1.9s1.4,3.1,1.4,5.4c0,1.5-0.2,2.8-0.7,3.9c-0.4,1.1-1.1,2-1.9,2.6S82,94.8,80.9,94.8z M79.8,83.1
	c-1,0-1.7,0.3-2.1,0.9S77,85.6,77,86.9v0.4c0,1.5,0.2,2.6,0.7,3.3c0.5,0.7,1.2,1,2.2,1c1.7,0,2.6-1.4,2.6-4.3c0-1.4-0.2-2.4-0.6-3.1
	C81.3,83.5,80.7,83.1,79.8,83.1z M96,94.8c-2.3,0-4.1-0.6-5.4-1.9s-1.9-3-1.9-5.4c0-2.4,0.6-4.2,1.8-5.5c1.2-1.3,2.8-1.9,4.9-1.9
	c2,0,3.6,0.6,4.7,1.7s1.7,2.7,1.7,4.7v1.9h-9.2c0,1.1,0.4,2,1,2.6s1.5,0.9,2.6,0.9c0.9,0,1.7-0.1,2.4-0.3s1.6-0.5,2.4-0.9v3
	c-0.7,0.3-1.4,0.6-2.2,0.8S97.1,94.8,96,94.8z M95.4,82.8c-0.8,0-1.5,0.3-1.9,0.8s-0.7,1.3-0.8,2.2h5.4c0-1-0.3-1.7-0.7-2.2
	S96.2,82.8,95.4,82.8z M117.9,94.5h-3.9v-8.3c0-1-0.2-1.8-0.5-2.3s-0.9-0.8-1.7-0.8c-1.1,0-1.9,0.4-2.3,1.1s-0.7,1.9-0.7,3.6v6.7
	h-3.9V80.3h3l0.5,1.8h0.2c0.4-0.7,1-1.2,1.8-1.6c0.8-0.4,1.6-0.5,2.6-0.5c1.7,0,2.9,0.4,3.8,1.3s1.3,2.2,1.3,3.9V94.5z M139.9,89.3
	c0,1.7-0.6,3-1.8,4c-1.2,1-2.9,1.4-5,1.4c-2,0-3.7-0.4-5.3-1.1V90c1.3,0.6,2.3,1,3.2,1.2c0.9,0.2,1.7,0.3,2.4,0.3
	c0.9,0,1.5-0.2,2-0.5c0.5-0.3,0.7-0.8,0.7-1.5c0-0.4-0.1-0.7-0.3-1s-0.5-0.6-0.9-0.8c-0.4-0.3-1.2-0.7-2.4-1.3c-1.1-0.5-2-1-2.6-1.5
	s-1-1.1-1.4-1.7s-0.5-1.4-0.5-2.3c0-1.6,0.6-2.9,1.7-3.9c1.1-0.9,2.7-1.4,4.6-1.4c1,0,1.9,0.1,2.8,0.3c0.9,0.2,1.8,0.6,2.7,1
	l-1.3,3.1c-1-0.4-1.8-0.7-2.5-0.9c-0.6-0.2-1.3-0.2-1.9-0.2c-0.7,0-1.3,0.2-1.7,0.5s-0.6,0.8-0.6,1.4c0,0.3,0.1,0.6,0.2,0.9
	s0.4,0.5,0.8,0.7c0.4,0.2,1.2,0.7,2.5,1.3c1.7,0.8,2.9,1.7,3.6,2.5S139.9,88.1,139.9,89.3z M156,87.4c0,2.3-0.6,4.1-1.8,5.4
	s-2.9,2-5.1,2c-1.4,0-2.6-0.3-3.6-0.9s-1.8-1.5-2.4-2.6s-0.8-2.4-0.8-3.9c0-2.3,0.6-4.1,1.8-5.4s2.9-1.9,5.1-1.9
	c1.4,0,2.6,0.3,3.6,0.9s1.8,1.4,2.4,2.6S156,85.9,156,87.4z M146.2,87.4c0,1.4,0.2,2.5,0.7,3.2c0.5,0.7,1.2,1.1,2.3,1.1
	c1,0,1.8-0.4,2.2-1.1c0.5-0.7,0.7-1.8,0.7-3.2c0-1.4-0.2-2.5-0.7-3.2s-1.2-1.1-2.2-1.1c-1,0-1.8,0.3-2.2,1S146.2,86,146.2,87.4z
	 M169,94.5l-0.5-1.8h-0.2c-0.4,0.7-1,1.2-1.8,1.5s-1.6,0.5-2.6,0.5c-1.7,0-2.9-0.4-3.8-1.3s-1.3-2.2-1.3-3.9v-9.3h3.9v8.3
	c0,1,0.2,1.8,0.5,2.3s0.9,0.8,1.7,0.8c1.1,0,1.9-0.4,2.3-1.1s0.7-1.9,0.7-3.6v-6.7h3.9v14.2H169z M183.7,80c0.5,0,1,0,1.3,0.1
	l-0.3,3.6c-0.3-0.1-0.7-0.1-1.1-0.1c-1.2,0-2.2,0.3-2.9,1c-0.7,0.6-1,1.5-1,2.7v7.2h-3.9V80.3h2.9l0.6,2.4h0.2
	c0.4-0.8,1-1.4,1.8-1.9C182,80.3,182.8,80,183.7,80z M193.1,94.8c-4.4,0-6.6-2.4-6.6-7.3c0-2.4,0.6-4.3,1.8-5.5s2.9-1.9,5.2-1.9
	c1.6,0,3.1,0.3,4.4,1l-1.1,3c-0.6-0.2-1.2-0.4-1.7-0.6s-1-0.2-1.6-0.2c-2,0-3,1.4-3,4.3c0,2.8,1,4.2,3,4.2c0.7,0,1.4-0.1,2.1-0.3
	s1.3-0.5,1.9-0.9v3.3c-0.6,0.4-1.3,0.7-1.9,0.8C194.9,94.7,194.1,94.8,193.1,94.8z M206.9,94.8c-2.3,0-4.1-0.6-5.4-1.9
	s-1.9-3-1.9-5.4c0-2.4,0.6-4.2,1.8-5.5c1.2-1.3,2.8-1.9,4.9-1.9c2,0,3.6,0.6,4.7,1.7s1.7,2.7,1.7,4.7v1.9h-9.2c0,1.1,0.4,2,1,2.6
	s1.5,0.9,2.6,0.9c0.9,0,1.7-0.1,2.4-0.3s1.6-0.5,2.4-0.9v3c-0.7,0.3-1.4,0.6-2.2,0.8S208,94.8,206.9,94.8z M206.3,82.8
	c-0.8,0-1.5,0.3-1.9,0.8s-0.7,1.3-0.8,2.2h5.4c0-1-0.3-1.7-0.7-2.2S207.1,82.8,206.3,82.8z M57.8,150.8c-1.4,0-2.5,0.5-3.3,1.4
	c-0.8,0.9-1.2,2.2-1.2,3.9c0,1.7,0.4,3,1.2,3.9c0.8,0.9,1.9,1.4,3.4,1.4c0.9,0,1.9-0.2,3.1-0.5v1.3c-0.9,0.3-2,0.5-3.3,0.5
	c-1.9,0-3.4-0.6-4.4-1.7c-1-1.1-1.5-2.8-1.5-4.9c0-1.3,0.2-2.5,0.7-3.5c0.5-1,1.2-1.8,2.1-2.3c0.9-0.5,2-0.8,3.3-0.8
	c1.3,0,2.5,0.2,3.5,0.7l-0.6,1.3C59.7,151,58.7,150.8,57.8,150.8z M71.4,157.6c0,1.6-0.4,2.8-1.2,3.7s-1.9,1.3-3.3,1.3
	c-0.9,0-1.6-0.2-2.3-0.6s-1.2-1-1.5-1.7s-0.5-1.6-0.5-2.7c0-1.6,0.4-2.8,1.2-3.7s1.9-1.3,3.3-1.3c1.3,0,2.4,0.4,3.2,1.3
	S71.4,156.1,71.4,157.6z M64,157.6c0,1.2,0.2,2.2,0.7,2.8s1.2,1,2.2,1s1.7-0.3,2.2-1c0.5-0.6,0.7-1.6,0.7-2.8c0-1.2-0.2-2.2-0.7-2.8
	c-0.5-0.6-1.2-1-2.2-1c-1,0-1.7,0.3-2.2,0.9S64,156.4,64,157.6z M80.4,162.5v-6.2c0-0.8-0.2-1.4-0.5-1.8s-0.9-0.6-1.7-0.6
	c-1,0-1.7,0.3-2.2,0.8s-0.7,1.4-0.7,2.7v5.1h-1.5v-9.6H75l0.2,1.3h0.1c0.3-0.5,0.7-0.8,1.3-1.1s1.1-0.4,1.8-0.4c1.2,0,2,0.3,2.6,0.8
	s0.9,1.5,0.9,2.7v6.3H80.4z M86.9,162.5l-3.7-9.6h1.6l2.1,5.7c0.5,1.3,0.7,2.2,0.8,2.6h0.1c0.1-0.3,0.3-1,0.6-1.9
	c0.3-1,1.1-3.1,2.3-6.4h1.6l-3.7,9.6H86.9z M97.7,162.6c-1.4,0-2.5-0.4-3.4-1.3c-0.8-0.9-1.2-2.1-1.2-3.6c0-1.6,0.4-2.8,1.1-3.7
	c0.8-0.9,1.8-1.4,3.1-1.4c1.2,0,2.2,0.4,2.9,1.2s1.1,1.8,1.1,3.1v0.9h-6.6c0,1.1,0.3,2,0.9,2.6s1.3,0.9,2.3,0.9c1,0,2.1-0.2,3.1-0.7
	v1.3c-0.5,0.2-1,0.4-1.5,0.5S98.4,162.6,97.7,162.6z M97.3,153.9c-0.8,0-1.4,0.3-1.8,0.8c-0.5,0.5-0.7,1.2-0.8,2.1h5
	c0-0.9-0.2-1.6-0.6-2.1S98.1,153.9,97.3,153.9z M108,152.6c0.4,0,0.8,0,1.2,0.1l-0.2,1.4c-0.4-0.1-0.8-0.1-1.1-0.1
	c-0.8,0-1.4,0.3-2,0.9c-0.6,0.6-0.8,1.4-0.8,2.4v5.2h-1.5v-9.6h1.2l0.2,1.8h0.1c0.4-0.6,0.8-1.1,1.3-1.5S107.4,152.6,108,152.6z
	 M118.9,152.8v0.9l-1.8,0.2c0.2,0.2,0.3,0.5,0.4,0.8s0.2,0.7,0.2,1.1c0,0.9-0.3,1.7-1,2.3s-1.5,0.8-2.7,0.8c-0.3,0-0.6,0-0.8-0.1
	c-0.6,0.3-0.9,0.7-0.9,1.2c0,0.3,0.1,0.5,0.3,0.6s0.6,0.2,1.1,0.2h1.7c1,0,1.8,0.2,2.4,0.7c0.6,0.4,0.8,1.1,0.8,1.9
	c0,1.1-0.4,1.9-1.3,2.4s-2.1,0.8-3.7,0.8c-1.3,0-2.2-0.2-2.9-0.7c-0.7-0.5-1-1.1-1-2c0-0.6,0.2-1.1,0.6-1.5s0.9-0.7,1.6-0.9
	c-0.2-0.1-0.5-0.3-0.6-0.5c-0.2-0.2-0.2-0.5-0.2-0.8c0-0.4,0.1-0.7,0.3-0.9s0.5-0.5,0.9-0.8c-0.5-0.2-0.9-0.6-1.2-1
	s-0.5-1.1-0.5-1.7c0-1.1,0.3-1.9,0.9-2.4s1.5-0.9,2.7-0.9c0.5,0,1,0.1,1.4,0.2H118.9z M111.2,164.1c0,0.5,0.2,0.9,0.7,1.2
	s1.1,0.4,1.9,0.4c1.2,0,2.1-0.2,2.7-0.5c0.6-0.4,0.9-0.9,0.9-1.5c0-0.5-0.2-0.9-0.5-1.1s-0.9-0.3-1.8-0.3h-1.7
	c-0.7,0-1.2,0.2-1.5,0.5S111.2,163.5,111.2,164.1z M112,155.9c0,0.7,0.2,1.2,0.6,1.5s0.9,0.5,1.6,0.5c1.4,0,2.1-0.7,2.1-2.1
	c0-1.4-0.7-2.2-2.2-2.2c-0.7,0-1.2,0.2-1.6,0.6S112,155.2,112,155.9z M124.6,162.6c-1.4,0-2.5-0.4-3.4-1.3c-0.8-0.9-1.2-2.1-1.2-3.6
	c0-1.6,0.4-2.8,1.1-3.7c0.8-0.9,1.8-1.4,3.1-1.4c1.2,0,2.2,0.4,2.9,1.2s1.1,1.8,1.1,3.1v0.9h-6.6c0,1.1,0.3,2,0.9,2.6
	s1.3,0.9,2.3,0.9c1,0,2.1-0.2,3.1-0.7v1.3c-0.5,0.2-1,0.4-1.5,0.5S125.3,162.6,124.6,162.6z M124.2,153.9c-0.8,0-1.4,0.3-1.8,0.8
	c-0.5,0.5-0.7,1.2-0.8,2.1h5c0-0.9-0.2-1.6-0.6-2.1S125,153.9,124.2,153.9z M132.3,157.1v5.3h-1.5v-12.8h3.5c1.6,0,2.7,0.3,3.5,0.9
	c0.8,0.6,1.1,1.5,1.1,2.7c0,1.7-0.9,2.8-2.6,3.4l3.5,5.8h-1.8l-3.1-5.3H132.3z M132.3,155.8h2c1.1,0,1.8-0.2,2.3-0.6s0.7-1,0.7-1.9
	c0-0.8-0.2-1.5-0.8-1.8c-0.5-0.4-1.3-0.6-2.4-0.6h-1.9V155.8z M149.3,149.6h1.6l-4.6,12.8h-1.5l-4.6-12.8h1.6l3,8.3
	c0.3,1,0.6,1.9,0.8,2.8c0.2-0.9,0.5-1.9,0.8-2.8L149.3,149.6z M160,162.5l-1.6-4.1h-5.2l-1.6,4.1h-1.5l5.1-12.9h1.3l5.1,12.9H160z
	 M157.9,157l-1.5-4c-0.2-0.5-0.4-1.1-0.6-1.9c-0.1,0.6-0.3,1.2-0.6,1.9l-1.5,4H157.9z M63.4,174c0,2.1-0.5,3.7-1.6,4.9
	s-2.5,1.8-4.3,1.8c-1.9,0-3.4-0.6-4.4-1.7c-1-1.2-1.5-2.8-1.5-4.9c0-2.1,0.5-3.7,1.5-4.9s2.5-1.7,4.4-1.7c1.8,0,3.3,0.6,4.3,1.8
	S63.4,172,63.4,174z M53.2,174c0,1.7,0.4,3.1,1.1,4c0.7,0.9,1.8,1.3,3.2,1.3c1.4,0,2.5-0.4,3.2-1.3s1.1-2.2,1.1-4
	c0-1.7-0.4-3-1.1-3.9s-1.8-1.3-3.2-1.3c-1.4,0-2.5,0.4-3.2,1.3C53.5,171,53.2,172.3,53.2,174z M69.9,180.6c-1.4,0-2.5-0.4-3.2-1.3
	c-0.8-0.9-1.1-2.1-1.1-3.6c0-1.6,0.4-2.9,1.2-3.7c0.8-0.9,1.9-1.3,3.3-1.3c0.5,0,0.9,0,1.4,0.1s0.8,0.2,1.1,0.4l-0.4,1.2
	c-0.3-0.1-0.7-0.2-1.1-0.3s-0.7-0.1-1-0.1c-2,0-2.9,1.2-2.9,3.7c0,1.2,0.2,2.1,0.7,2.7s1.2,0.9,2.1,0.9c0.8,0,1.6-0.2,2.5-0.5v1.3
	C71.7,180.5,70.9,180.6,69.9,180.6z M78.3,179.4c0.3,0,0.5,0,0.7-0.1s0.4-0.1,0.6-0.1v1.1c-0.2,0.1-0.4,0.1-0.7,0.2
	c-0.3,0-0.6,0.1-0.8,0.1c-1.9,0-2.8-1-2.8-2.9V172h-1.4v-0.7l1.4-0.6l0.6-2.1h0.8v2.2h2.8v1.1h-2.8v5.7c0,0.6,0.1,1,0.4,1.3
	S77.8,179.4,78.3,179.4z M89.6,175.6c0,1.6-0.4,2.8-1.2,3.7s-1.9,1.3-3.3,1.3c-0.9,0-1.6-0.2-2.3-0.6s-1.2-1-1.5-1.7
	s-0.5-1.6-0.5-2.7c0-1.6,0.4-2.8,1.2-3.7s1.9-1.3,3.3-1.3c1.3,0,2.4,0.4,3.2,1.3S89.6,174.1,89.6,175.6z M82.3,175.6
	c0,1.2,0.2,2.2,0.7,2.8s1.2,1,2.2,1s1.7-0.3,2.2-1c0.5-0.6,0.7-1.6,0.7-2.8c0-1.2-0.2-2.2-0.7-2.8c-0.5-0.6-1.2-1-2.2-1
	c-1,0-1.7,0.3-2.2,0.9S82.3,174.4,82.3,175.6z M96.6,170.7c1.3,0,2.2,0.4,2.9,1.3c0.7,0.9,1,2.1,1,3.7s-0.4,2.8-1.1,3.7
	s-1.7,1.3-2.9,1.3c-0.6,0-1.2-0.1-1.7-0.3c-0.5-0.2-1-0.6-1.3-1.1h-0.1l-0.3,1.2h-1v-13.7h1.5v3.3c0,0.7,0,1.4-0.1,2h0.1
	C94.2,171.1,95.2,170.7,96.6,170.7z M96.4,171.9c-1,0-1.7,0.3-2.2,0.9s-0.7,1.5-0.7,2.9s0.2,2.3,0.7,2.9s1.2,0.9,2.2,0.9
	c0.9,0,1.6-0.3,2-1s0.7-1.6,0.7-2.8c0-1.3-0.2-2.2-0.7-2.8S97.3,171.9,96.4,171.9z M107.2,180.6c-1.4,0-2.5-0.4-3.4-1.3
	c-0.8-0.9-1.2-2.1-1.2-3.6c0-1.6,0.4-2.8,1.1-3.7c0.8-0.9,1.8-1.4,3.1-1.4c1.2,0,2.2,0.4,2.9,1.2s1.1,1.8,1.1,3.1v0.9h-6.6
	c0,1.1,0.3,2,0.9,2.6s1.3,0.9,2.3,0.9c1,0,2.1-0.2,3.1-0.7v1.3c-0.5,0.2-1,0.4-1.5,0.5S107.8,180.6,107.2,180.6z M106.8,171.9
	c-0.8,0-1.4,0.3-1.8,0.8c-0.5,0.5-0.7,1.2-0.8,2.1h5c0-0.9-0.2-1.6-0.6-2.1S107.5,171.9,106.8,171.9z M117.5,170.6
	c0.4,0,0.8,0,1.2,0.1l-0.2,1.4c-0.4-0.1-0.8-0.1-1.1-0.1c-0.8,0-1.4,0.3-2,0.9c-0.6,0.6-0.8,1.4-0.8,2.4v5.2h-1.5v-9.6h1.2l0.2,1.8
	h0.1c0.4-0.6,0.8-1.1,1.3-1.5S116.9,170.6,117.5,170.6z M132.9,180.5h-8.4v-1.3l3.4-3.4c1-1,1.7-1.8,2-2.2s0.6-0.9,0.7-1.3
	s0.2-0.9,0.2-1.4c0-0.7-0.2-1.2-0.6-1.6s-1-0.6-1.7-0.6c-0.5,0-1,0.1-1.5,0.3s-1,0.5-1.6,1l-0.8-1c1.2-1,2.5-1.5,3.9-1.5
	c1.2,0,2.2,0.3,2.8,0.9s1,1.4,1,2.5c0,0.8-0.2,1.6-0.7,2.4s-1.3,1.8-2.6,3l-2.8,2.8v0.1h6.6V180.5z M143,174c0,2.2-0.4,3.9-1,5
	c-0.7,1.1-1.8,1.6-3.2,1.6c-1.4,0-2.4-0.6-3.2-1.7s-1.1-2.8-1.1-4.9c0-2.2,0.3-3.9,1-5s1.8-1.6,3.2-1.6c1.4,0,2.5,0.6,3.2,1.7
	C142.6,170.2,143,171.9,143,174z M136,174c0,1.9,0.2,3.2,0.7,4.1s1.1,1.3,2.1,1.3c1,0,1.7-0.4,2.1-1.3s0.7-2.2,0.7-4.1
	s-0.2-3.2-0.7-4.1s-1.1-1.3-2.1-1.3c-1,0-1.7,0.4-2.1,1.3S136,172.1,136,174z M149.8,180.5h-1.4v-9.2c0-0.8,0-1.5,0.1-2.2
	c-0.1,0.1-0.3,0.3-0.4,0.4s-0.8,0.7-2.1,1.7l-0.8-1l3.4-2.6h1.2V180.5z M162.6,177.5h-1.9v3h-1.4v-3H153v-1.3l6.1-8.7h1.5v8.6h1.9
	V177.5z M159.3,176.2v-4.3c0-0.8,0-1.8,0.1-2.8h-0.1c-0.3,0.6-0.5,1-0.8,1.4l-4,5.7H159.3z M53.8,193.1v5.3h-1.5v-12.8h3.5
	c1.6,0,2.7,0.3,3.5,0.9c0.8,0.6,1.1,1.5,1.1,2.7c0,1.7-0.9,2.8-2.6,3.4l3.5,5.8h-1.8l-3.1-5.3H53.8z M53.8,191.8h2
	c1.1,0,1.8-0.2,2.3-0.6s0.7-1,0.7-1.9c0-0.8-0.2-1.5-0.8-1.8c-0.5-0.4-1.3-0.6-2.4-0.6h-1.9V191.8z M63.1,186.2
	c0-0.3,0.1-0.6,0.2-0.7s0.4-0.2,0.6-0.2c0.2,0,0.4,0.1,0.6,0.2s0.3,0.4,0.3,0.7s-0.1,0.6-0.3,0.7s-0.4,0.2-0.6,0.2
	c-0.2,0-0.5-0.1-0.6-0.2S63.1,186.5,63.1,186.2z M64.7,198.5h-1.5v-9.6h1.5V198.5z M71.5,198.6c-1.4,0-2.5-0.4-3.2-1.3
	c-0.8-0.9-1.1-2.1-1.1-3.6c0-1.6,0.4-2.9,1.2-3.7c0.8-0.9,1.9-1.3,3.3-1.3c0.5,0,0.9,0,1.4,0.1s0.8,0.2,1.1,0.4l-0.4,1.2
	c-0.3-0.1-0.7-0.2-1.1-0.3s-0.7-0.1-1-0.1c-2,0-2.9,1.2-2.9,3.7c0,1.2,0.2,2.1,0.7,2.7s1.2,0.9,2.1,0.9c0.8,0,1.6-0.2,2.5-0.5v1.3
	C73.3,198.5,72.5,198.6,71.5,198.6z M82.8,198.5v-6.2c0-0.8-0.2-1.4-0.5-1.8s-0.9-0.6-1.7-0.6c-1,0-1.8,0.3-2.2,0.8
	c-0.5,0.6-0.7,1.5-0.7,2.7v5h-1.5v-13.7h1.5v4.1c0,0.5,0,0.9-0.1,1.2h0.1c0.3-0.5,0.7-0.8,1.2-1.1c0.5-0.3,1.1-0.4,1.8-0.4
	c1.2,0,2.1,0.3,2.7,0.8c0.6,0.6,0.9,1.4,0.9,2.7v6.3H82.8z M99.4,198.5v-6.3c0-0.8-0.2-1.3-0.5-1.7s-0.8-0.6-1.5-0.6
	c-0.9,0-1.6,0.3-2,0.8s-0.7,1.3-0.7,2.4v5.4h-1.5v-6.3c0-0.8-0.2-1.3-0.5-1.7s-0.8-0.6-1.5-0.6c-0.9,0-1.6,0.3-2,0.8
	s-0.6,1.4-0.6,2.7v5.1h-1.5v-9.6h1.2l0.2,1.3h0.1c0.3-0.5,0.7-0.8,1.2-1.1c0.5-0.3,1.1-0.4,1.7-0.4c1.5,0,2.5,0.5,3,1.6h0.1
	c0.3-0.5,0.7-0.9,1.2-1.2s1.2-0.4,1.9-0.4c1.1,0,1.9,0.3,2.4,0.8s0.8,1.5,0.8,2.7v6.3H99.4z M112,193.6c0,1.6-0.4,2.8-1.2,3.7
	s-1.9,1.3-3.3,1.3c-0.9,0-1.6-0.2-2.3-0.6s-1.2-1-1.5-1.7s-0.5-1.6-0.5-2.7c0-1.6,0.4-2.8,1.2-3.7s1.9-1.3,3.3-1.3
	c1.3,0,2.4,0.4,3.2,1.3S112,192.1,112,193.6z M104.7,193.6c0,1.2,0.2,2.2,0.7,2.8s1.2,1,2.2,1s1.7-0.3,2.2-1
	c0.5-0.6,0.7-1.6,0.7-2.8c0-1.2-0.2-2.2-0.7-2.8c-0.5-0.6-1.2-1-2.2-1c-1,0-1.7,0.3-2.2,0.9S104.7,192.4,104.7,193.6z M121.1,198.5
	v-6.2c0-0.8-0.2-1.4-0.5-1.8s-0.9-0.6-1.7-0.6c-1,0-1.7,0.3-2.2,0.8s-0.7,1.4-0.7,2.7v5.1h-1.5v-9.6h1.2l0.2,1.3h0.1
	c0.3-0.5,0.7-0.8,1.3-1.1s1.1-0.4,1.8-0.4c1.2,0,2,0.3,2.6,0.8s0.9,1.5,0.9,2.7v6.3H121.1z M132,197.2L132,197.2
	c-0.8,1-1.8,1.5-3.1,1.5c-1.3,0-2.2-0.4-2.9-1.3s-1-2.1-1-3.7s0.4-2.8,1.1-3.7s1.7-1.3,2.9-1.3c1.3,0,2.3,0.5,3,1.4h0.1l-0.1-0.7
	l0-0.7v-3.9h1.5v13.7h-1.2L132,197.2z M129.1,197.4c1,0,1.7-0.3,2.2-0.8c0.4-0.5,0.7-1.4,0.7-2.6v-0.3c0-1.4-0.2-2.3-0.7-2.9
	c-0.5-0.6-1.2-0.9-2.2-0.9c-0.9,0-1.5,0.3-2,1s-0.7,1.6-0.7,2.8c0,1.2,0.2,2.2,0.7,2.8S128.2,197.4,129.1,197.4z M138,196.4l0.1,0.2
	c-0.2,0.6-0.4,1.3-0.7,2s-0.6,1.5-0.9,2.2h-1.1c0.2-0.6,0.3-1.4,0.5-2.3s0.3-1.6,0.4-2.2H138z M153.1,185.6h1.6l-4.6,12.8h-1.5
	l-4.6-12.8h1.6l3,8.3c0.3,1,0.6,1.9,0.8,2.8c0.2-0.9,0.5-1.9,0.8-2.8L153.1,185.6z M163.9,198.5l-1.6-4.1h-5.2l-1.6,4.1H154
	l5.1-12.9h1.3l5.1,12.9H163.9z M161.8,193l-1.5-4c-0.2-0.5-0.4-1.1-0.6-1.9c-0.1,0.6-0.3,1.2-0.6,1.9l-1.5,4H161.8z M60.3,120.7
	l-1.6-4.1h-5.2l-1.6,4.1h-1.5l5.1-12.9h1.3l5.1,12.9H60.3z M58.3,115.2l-1.5-4c-0.2-0.5-0.4-1.1-0.6-1.9c-0.1,0.6-0.3,1.2-0.6,1.9
	l-1.5,4H58.3z M71.2,119.6c0.3,0,0.5,0,0.7-0.1s0.4-0.1,0.6-0.1v1.1c-0.2,0.1-0.4,0.1-0.7,0.2c-0.3,0-0.6,0.1-0.8,0.1
	c-1.9,0-2.8-1-2.8-2.9v-5.7h-1.4v-0.7l1.4-0.6l0.6-2.1h0.8v2.2h2.8v1.1h-2.8v5.7c0,0.6,0.1,1,0.4,1.3S70.7,119.6,71.2,119.6z
	 M80.7,120.7l-0.3-1.4h-0.1c-0.5,0.6-1,1-1.4,1.2c-0.5,0.2-1.1,0.3-1.8,0.3c-1,0-1.7-0.2-2.2-0.7S74,118.9,74,118
	c0-1.9,1.6-3,4.7-3.1l1.6-0.1v-0.6c0-0.8-0.2-1.3-0.5-1.7c-0.3-0.4-0.8-0.5-1.6-0.5c-0.8,0-1.7,0.2-2.7,0.7l-0.4-1.1
	c0.5-0.3,1-0.5,1.6-0.6s1.1-0.2,1.7-0.2c1.1,0,2,0.3,2.6,0.8c0.6,0.5,0.8,1.3,0.8,2.5v6.6H80.7z M77.4,119.6c0.9,0,1.6-0.2,2.1-0.7
	c0.5-0.5,0.8-1.2,0.8-2.1v-0.9l-1.5,0.1c-1.2,0-2,0.2-2.5,0.5c-0.5,0.3-0.8,0.8-0.8,1.5c0,0.5,0.2,0.9,0.5,1.2
	S76.8,119.6,77.4,119.6z M86.1,120.7h-1.5V107h1.5V120.7z M90.4,115.7c0.3-0.4,0.6-0.8,1.2-1.4l3.1-3.3h1.7l-3.9,4.1l4.2,5.5h-1.8
	l-3.4-4.6l-1.1,0.9v3.6H89V107h1.4v7.3C90.4,114.6,90.4,115.1,90.4,115.7L90.4,115.7z M107.6,110.9c1.3,0,2.2,0.4,2.9,1.3
	c0.7,0.9,1,2.1,1,3.7s-0.4,2.8-1.1,3.7s-1.7,1.3-2.9,1.3c-0.6,0-1.2-0.1-1.7-0.3c-0.5-0.2-1-0.6-1.3-1.1h-0.1l-0.3,1.2h-1V107h1.5
	v3.3c0,0.7,0,1.4-0.1,2h0.1C105.2,111.3,106.3,110.9,107.6,110.9z M107.4,112.1c-1,0-1.7,0.3-2.2,0.9s-0.7,1.5-0.7,2.9
	s0.2,2.3,0.7,2.9s1.2,0.9,2.2,0.9c0.9,0,1.6-0.3,2-1s0.7-1.6,0.7-2.8c0-1.3-0.2-2.2-0.7-2.8S108.3,112.1,107.4,112.1z M112.5,111
	h1.6l2.1,5.5c0.5,1.3,0.8,2.2,0.9,2.7h0.1c0.1-0.3,0.2-0.8,0.5-1.5s1-2.9,2.4-6.7h1.6l-4.1,11c-0.4,1.1-0.9,1.9-1.4,2.3
	c-0.5,0.5-1.2,0.7-2,0.7c-0.4,0-0.9,0-1.3-0.1v-1.2c0.3,0.1,0.7,0.1,1.1,0.1c1,0,1.7-0.6,2.1-1.7l0.5-1.4L112.5,111z M133.6,113.9
	h4.4v6.2c-0.7,0.2-1.4,0.4-2.1,0.5s-1.5,0.2-2.4,0.2c-1.9,0-3.5-0.6-4.5-1.7s-1.6-2.8-1.6-4.9c0-1.3,0.3-2.5,0.8-3.5
	c0.5-1,1.3-1.8,2.3-2.3s2.2-0.8,3.5-0.8c1.4,0,2.6,0.3,3.8,0.8l-0.6,1.3c-1.2-0.5-2.3-0.7-3.3-0.7c-1.6,0-2.8,0.5-3.7,1.4
	s-1.3,2.2-1.3,3.9c0,1.7,0.4,3,1.3,3.9c0.8,0.9,2.1,1.3,3.7,1.3c0.9,0,1.8-0.1,2.6-0.3v-4h-2.9V113.9z M146.7,120.7l-0.3-1.4h-0.1
	c-0.5,0.6-1,1-1.4,1.2c-0.5,0.2-1.1,0.3-1.8,0.3c-1,0-1.7-0.2-2.2-0.7s-0.8-1.2-0.8-2.1c0-1.9,1.6-3,4.7-3.1l1.6-0.1v-0.6
	c0-0.8-0.2-1.3-0.5-1.7c-0.3-0.4-0.8-0.5-1.6-0.5c-0.8,0-1.7,0.2-2.7,0.7l-0.4-1.1c0.5-0.3,1-0.5,1.6-0.6s1.1-0.2,1.7-0.2
	c1.1,0,2,0.3,2.6,0.8c0.6,0.5,0.8,1.3,0.8,2.5v6.6H146.7z M143.4,119.6c0.9,0,1.6-0.2,2.1-0.7c0.5-0.5,0.8-1.2,0.8-2.1v-0.9
	l-1.5,0.1c-1.2,0-2,0.2-2.5,0.5c-0.5,0.3-0.8,0.8-0.8,1.5c0,0.5,0.2,0.9,0.5,1.2S142.9,119.6,143.4,119.6z M155.1,110.8
	c0.4,0,0.8,0,1.2,0.1l-0.2,1.4c-0.4-0.1-0.8-0.1-1.1-0.1c-0.8,0-1.4,0.3-2,0.9c-0.6,0.6-0.8,1.4-0.8,2.4v5.2h-1.5V111h1.2l0.2,1.8
	h0.1c0.4-0.6,0.8-1.1,1.3-1.5S154.5,110.8,155.1,110.8z M161.9,119.6c0.3,0,0.5,0,0.7-0.1s0.4-0.1,0.6-0.1v1.1
	c-0.2,0.1-0.4,0.1-0.7,0.2c-0.3,0-0.6,0.1-0.8,0.1c-1.9,0-2.8-1-2.8-2.9v-5.7h-1.4v-0.7l1.4-0.6l0.6-2.1h0.8v2.2h2.8v1.1h-2.8v5.7
	c0,0.6,0.1,1,0.4,1.3S161.4,119.6,161.9,119.6z M171.7,120.7v-6.2c0-0.8-0.2-1.4-0.5-1.8s-0.9-0.6-1.7-0.6c-1,0-1.8,0.3-2.2,0.8
	c-0.5,0.6-0.7,1.5-0.7,2.7v5h-1.5V107h1.5v4.1c0,0.5,0,0.9-0.1,1.2h0.1c0.3-0.5,0.7-0.8,1.2-1.1c0.5-0.3,1.1-0.4,1.8-0.4
	c1.2,0,2.1,0.3,2.7,0.8c0.6,0.6,0.9,1.4,0.9,2.7v6.3H171.7z M181.1,107.8h3.6c1.7,0,2.9,0.3,3.7,0.8s1.1,1.3,1.1,2.4
	c0,0.8-0.2,1.4-0.6,1.9s-1,0.8-1.9,1v0.1c2,0.3,2.9,1.4,2.9,3.1c0,1.1-0.4,2-1.2,2.7c-0.8,0.6-1.9,1-3.3,1h-4.5V107.8z M182.6,113.3
	h2.5c1.1,0,1.8-0.2,2.3-0.5s0.7-0.9,0.7-1.7c0-0.7-0.3-1.2-0.8-1.6s-1.3-0.5-2.5-0.5h-2.2V113.3z M182.6,114.6v4.8h2.7
	c1,0,1.8-0.2,2.3-0.6s0.8-1,0.8-1.9c0-0.8-0.3-1.4-0.8-1.8c-0.5-0.4-1.4-0.6-2.4-0.6H182.6z M196.9,110.8c0.4,0,0.8,0,1.2,0.1
	l-0.2,1.4c-0.4-0.1-0.8-0.1-1.1-0.1c-0.8,0-1.4,0.3-2,0.9c-0.6,0.6-0.8,1.4-0.8,2.4v5.2h-1.5V111h1.2l0.2,1.8h0.1
	c0.4-0.6,0.8-1.1,1.3-1.5S196.3,110.8,196.9,110.8z M205.6,120.7l-0.3-1.4h-0.1c-0.5,0.6-1,1-1.4,1.2c-0.5,0.2-1.1,0.3-1.8,0.3
	c-1,0-1.7-0.2-2.2-0.7s-0.8-1.2-0.8-2.1c0-1.9,1.6-3,4.7-3.1l1.6-0.1v-0.6c0-0.8-0.2-1.3-0.5-1.7c-0.3-0.4-0.8-0.5-1.6-0.5
	c-0.8,0-1.7,0.2-2.7,0.7l-0.4-1.1c0.5-0.3,1-0.5,1.6-0.6s1.1-0.2,1.7-0.2c1.1,0,2,0.3,2.6,0.8c0.6,0.5,0.8,1.3,0.8,2.5v6.6H205.6z
	 M202.3,119.6c0.9,0,1.6-0.2,2.1-0.7c0.5-0.5,0.8-1.2,0.8-2.1v-0.9l-1.5,0.1c-1.2,0-2,0.2-2.5,0.5c-0.5,0.3-0.8,0.8-0.8,1.5
	c0,0.5,0.2,0.9,0.5,1.2S201.8,119.6,202.3,119.6z M209.5,108.4c0-0.3,0.1-0.6,0.2-0.7s0.4-0.2,0.6-0.2c0.2,0,0.4,0.1,0.6,0.2
	s0.3,0.4,0.3,0.7s-0.1,0.6-0.3,0.7s-0.4,0.2-0.6,0.2c-0.2,0-0.5-0.1-0.6-0.2S209.5,108.7,209.5,108.4z M211,120.7h-1.5V111h1.5
	V120.7z M217.3,119.6c0.3,0,0.5,0,0.7-0.1s0.4-0.1,0.6-0.1v1.1c-0.2,0.1-0.4,0.1-0.7,0.2c-0.3,0-0.6,0.1-0.8,0.1
	c-1.9,0-2.8-1-2.8-2.9v-5.7h-1.4v-0.7l1.4-0.6l0.6-2.1h0.8v2.2h2.8v1.1h-2.8v5.7c0,0.6,0.1,1,0.4,1.3S216.8,119.6,217.3,119.6z
	 M227.2,120.7v-6.2c0-0.8-0.2-1.4-0.5-1.8s-0.9-0.6-1.7-0.6c-1,0-1.8,0.3-2.2,0.8c-0.5,0.6-0.7,1.5-0.7,2.7v5h-1.5V107h1.5v4.1
	c0,0.5,0,0.9-0.1,1.2h0.1c0.3-0.5,0.7-0.8,1.2-1.1c0.5-0.3,1.1-0.4,1.8-0.4c1.2,0,2.1,0.3,2.7,0.8c0.6,0.6,0.9,1.4,0.9,2.7v6.3
	H227.2z M239.4,120.7l-1.8-5.7c-0.1-0.3-0.3-1.1-0.6-2.4h-0.1c-0.2,1-0.4,1.8-0.6,2.4l-1.8,5.6h-1.7l-2.6-9.6h1.5
	c0.6,2.4,1.1,4.3,1.4,5.5c0.3,1.3,0.5,2.1,0.6,2.6h0.1c0.1-0.3,0.2-0.8,0.3-1.3c0.1-0.5,0.3-1,0.4-1.3l1.8-5.5h1.6l1.7,5.5
	c0.3,1,0.6,1.9,0.7,2.5h0.1c0-0.2,0.1-0.5,0.2-1s0.7-2.8,1.8-7.1h1.5l-2.7,9.6H239.4z M251.3,120.7l-0.3-1.4H251
	c-0.5,0.6-1,1-1.4,1.2c-0.5,0.2-1.1,0.3-1.8,0.3c-1,0-1.7-0.2-2.2-0.7s-0.8-1.2-0.8-2.1c0-1.9,1.6-3,4.7-3.1l1.6-0.1v-0.6
	c0-0.8-0.2-1.3-0.5-1.7c-0.3-0.4-0.8-0.5-1.6-0.5c-0.8,0-1.7,0.2-2.7,0.7l-0.4-1.1c0.5-0.3,1-0.5,1.6-0.6s1.1-0.2,1.7-0.2
	c1.1,0,2,0.3,2.6,0.8c0.6,0.5,0.8,1.3,0.8,2.5v6.6H251.3z M248,119.6c0.9,0,1.6-0.2,2.1-0.7c0.5-0.5,0.8-1.2,0.8-2.1v-0.9l-1.5,0.1
	c-1.2,0-2,0.2-2.5,0.5c-0.5,0.3-0.8,0.8-0.8,1.5c0,0.5,0.2,0.9,0.5,1.2S247.4,119.6,248,119.6z M255.1,108.4c0-0.3,0.1-0.6,0.2-0.7
	s0.4-0.2,0.6-0.2c0.2,0,0.4,0.1,0.6,0.2s0.3,0.4,0.3,0.7s-0.1,0.6-0.3,0.7s-0.4,0.2-0.6,0.2c-0.2,0-0.5-0.1-0.6-0.2
	S255.1,108.7,255.1,108.4z M256.7,120.7h-1.5V111h1.5V120.7z M263,119.6c0.3,0,0.5,0,0.7-0.1s0.4-0.1,0.6-0.1v1.1
	c-0.2,0.1-0.4,0.1-0.7,0.2c-0.3,0-0.6,0.1-0.8,0.1c-1.9,0-2.8-1-2.8-2.9v-5.7h-1.4v-0.7l1.4-0.6l0.6-2.1h0.8v2.2h2.8v1.1h-2.8v5.7
	c0,0.6,0.1,1,0.4,1.3S262.5,119.6,263,119.6z M270.1,120.8c-1.4,0-2.5-0.4-3.4-1.3c-0.8-0.9-1.2-2.1-1.2-3.6c0-1.6,0.4-2.8,1.1-3.7
	c0.8-0.9,1.8-1.4,3.1-1.4c1.2,0,2.2,0.4,2.9,1.2s1.1,1.8,1.1,3.1v0.9H267c0,1.1,0.3,2,0.9,2.6s1.3,0.9,2.3,0.9c1,0,2.1-0.2,3.1-0.7
	v1.3c-0.5,0.2-1,0.4-1.5,0.5S270.8,120.8,270.1,120.8z M269.7,112.1c-0.8,0-1.4,0.3-1.8,0.8c-0.5,0.5-0.7,1.2-0.8,2.1h5
	c0-0.9-0.2-1.6-0.6-2.1S270.5,112.1,269.7,112.1z"/>
</svg>
