<?xml version="1.0" encoding="utf-8"?>
<!-- Generator: Adobe Illustrator 26.2.1, SVG Export Plug-In . SVG Version: 6.00 Build 0)  -->
<svg version="1.1" id="Layer_1" xmlns="http://www.w3.org/2000/svg" xmlns:xlink="http://www.w3.org/1999/xlink" x="0px" y="0px"
	 viewBox="0 0 1920 900" style="enable-background:new 0 0 1920 900;" xml:space="preserve">
<style type="text/css">
	.st0{fill:#252525;}
	.st1{fill:#FFFFFF;}
</style>
<g>
	<rect class="st0" width="1920" height="900"/>
</g>
<g>
	<g>
		<path class="st1" d="M572.6,395.4v-2.1c1.2-0.2,2.6-0.4,3.6-0.4v-23.6c-0.7-0.1-1.7-0.1-3.6-0.4v-2.1H585v2.1
			c-1,0.2-2,0.4-2.9,0.4v9.7h11.8v-9.8c-0.5-0.1-1.7-0.2-2.9-0.4v-2.1h12.4v2.1c-1.1,0.2-2.4,0.4-3.6,0.4v23.6
			c1.2,0.1,2.2,0.2,3.6,0.4v2.1h-12.5v-2.2c0.9-0.2,2.2-0.3,3-0.4v-11.5h-11.8v11.4c0.7,0.1,1.9,0.3,2.9,0.4v2.1H572.6z"/>
		<path class="st1" d="M626.8,385c0,6.7-4.6,11-10.8,11c-6.5,0-10.6-4.7-10.6-10.7c0-5.9,4.3-10.6,10.9-10.6
			C622.4,374.7,626.8,379,626.8,385z M620.8,385.6c0-5-1.5-8.9-4.9-8.9c-3.3,0-4.5,3.8-4.5,8.1c0,4.5,1.5,9.2,5.1,9.2
			C619.7,394,620.8,390.1,620.8,385.6z"/>
		<path class="st1" d="M649.5,395.7c-0.8-2.5-4.3-11.6-5.3-14.7c-0.8,3.3-3.8,11.1-4.8,14.7h-2.9c-0.8-2.9-4.9-14.4-6.2-17.9
			c-0.6,0-1.4-0.2-2.5-0.4v-2.1h10.8v2.1c-0.9,0.2-1.9,0.3-2.6,0.4c0.4,1.5,2.8,8.5,3.6,11.2c0.8-2.8,3.9-11.8,4.4-13.7h3.4
			c0.9,2.6,4.2,11.4,5.1,14.1c0.7-2.2,3-9.1,3.6-11.5c-0.9-0.1-2.7-0.3-3.6-0.5v-2.1h8.7v2.1c-0.7,0.2-2,0.4-2.5,0.4
			c-1.1,3.2-4.8,13.6-6.2,17.9H649.5z"/>
		<path class="st1" d="M685.1,394.6c-1.8,1-3.4,1.3-4.8,1.3c-3.4,0-5.5-1.6-5.5-5.9v-12.3c-0.7,0-2.4-0.3-3-0.4v-2.1h3.1
			c0.4-1.3,1.5-3.9,2.5-5.7h3.6c-0.3,1.6-0.7,4.9-0.7,5.7h4.9v2.1c-0.9,0.1-3.5,0.4-5,0.4v13.4c0,1.1,0.4,2.1,2.4,2.1
			c0.7,0,1.5-0.2,2.5-0.6V394.6z"/>
		<path class="st1" d="M708,385c0,6.7-4.6,11-10.8,11c-6.5,0-10.6-4.7-10.6-10.7c0-5.9,4.3-10.6,10.9-10.6
			C703.5,374.7,708,379,708,385z M702,385.6c0-5-1.5-8.9-4.9-8.9c-3.3,0-4.5,3.8-4.5,8.1c0,4.5,1.5,9.2,5.1,9.2
			C700.9,394,702,390.1,702,385.6z"/>
		<path class="st1" d="M739,393.6c-2.7,2.1-5.7,2.3-7.5,2.3c-6.2,0-10-4.5-10-10.5c0-5.5,3.7-10.7,10.2-10.7c6.4,0,8.4,4.6,8.4,8.3
			c0,0.4,0,0.9-0.1,1.4c-0.7,0.2-2.3,0.3-7,0.3h-5.7c-0.1,5.9,3,8.2,6.5,8.2c1.7,0,3.3-0.3,5.3-1.4V393.6z M731.8,382.7
			c1.5,0,2.5,0,2.9-0.1c0-0.4,0-0.7,0-0.9c0-2.3-0.6-5.1-3.3-5.1c-2.2,0-3.7,2.2-4.1,6.1H731.8z"/>
		<path class="st1" d="M757,379.8h-2.8c-0.1-0.2-1-1.7-1.5-3c-0.3-0.2-0.9-0.3-1.5-0.3c-2.3,0-3.3,1.3-3.3,2.7
			c0,1.3,0.5,2.2,4.1,3.6c4.8,1.8,6.2,3.7,6.2,6.4c0,4.3-4.1,6.6-8.8,6.6c-2.3,0-4.2-0.4-6.1-0.9c0-1.1-0.3-3.9-0.4-4.8h3
			c0.2,0.3,1.2,2.4,1.7,3.5c0.5,0.3,1.2,0.4,1.8,0.4c2.6,0,3.8-1.3,3.8-2.9c0-1.4-0.4-2.4-3.7-3.7c-4.1-1.7-6.2-3.4-6.2-6.7
			c0-2.5,1.5-6.1,8.2-6.1c2.4,0,4.8,0.4,5.5,0.5V379.8z"/>
		<path class="st1" d="M773,394.6c-1.8,1-3.4,1.3-4.8,1.3c-3.4,0-5.5-1.6-5.5-5.9v-12.3c-0.7,0-2.4-0.3-3-0.4v-2.1h3.1
			c0.4-1.3,1.5-3.9,2.5-5.7h3.6c-0.3,1.6-0.7,4.9-0.7,5.7h4.9v2.1c-0.9,0.1-3.5,0.4-5,0.4v13.4c0,1.1,0.4,2.1,2.4,2.1
			c0.7,0,1.5-0.2,2.5-0.6V394.6z"/>
		<path class="st1" d="M791.7,392.2c0,0.3,0.5,0.9,1.5,0.9c0.3,0,0.5,0,0.9,0v2c-0.9,0.4-2.2,0.7-3.5,0.7s-2.9-0.5-3.7-2.1
			c-2.8,1.8-4.9,2.2-6.2,2.2c-2.6,0-5.8-2.3-5.8-5.9c0-5.2,5.8-6.4,11-6.4h0.4v-3c0-1.9-0.8-3.8-3.8-3.8c-0.5,0-0.9,0-1.3,0.1
			c-0.4,1.2-1,3.1-1.2,3.5h-3.7v-4.2c2.6-0.8,5.8-1.6,8.1-1.6c5.1,0,7.1,2.8,7.1,6.1V392.2z M785.8,385.4c-3.7,0-5.5,1.3-5.5,3.8
			c0,2.3,1.5,3.5,3.6,3.5c0.8,0,1.6-0.1,2.6-0.6c0-0.3,0-0.5,0-0.8v-5.9H785.8z"/>
		<path class="st1" d="M795.4,364h0.6c3.7,0,6.7-0.1,7.8-0.3c-0.1,0.9-0.3,1.8-0.3,2.6v9.5c2.8-1.1,4.3-1.3,5.4-1.3
			c4.8,0,9,3.8,9,9.6c0,7.7-6.5,11.7-12.2,11.7c-2.7,0-5.6-0.6-7.7-1.1V367c-0.5-0.4-1.8-0.9-2.6-1.1V364z M803.5,393.1
			c0.7,0.4,1.8,0.6,2.9,0.6c3.2,0,5.7-2.9,5.7-8.5c0-4.8-2-7.9-6.1-7.9c-0.7,0-1.7,0.1-2.6,0.4V393.1z"/>
		<path class="st1" d="M820.5,395.4v-2.1c0.6-0.1,1.5-0.3,2.3-0.4v-26c-0.7-0.4-2.1-1-2.6-1.1V364h1.6c4.3,0,6-0.1,6.8-0.2
			c-0.1,0.9-0.3,2.2-0.3,2.6V393c1,0.1,1.7,0.2,2.3,0.3v2.1H820.5z"/>
		<path class="st1" d="M833.1,395.4v-2.1c0.8-0.2,2-0.3,2.6-0.4v-14.7c-0.5-0.4-1.6-1-2.4-1.2v-1.9h2.8c2.4,0,4.5-0.1,5-0.1V393
			c0.6,0,1.5,0.2,2.2,0.3v2.1H833.1z M838,365.6c1.9,0,3,1.4,3,3c0,1.7-1.2,3-3.1,3c-2.1,0-3.1-1.5-3.1-3
			C834.8,367.3,835.8,365.6,838,365.6z"/>
		<path class="st1" d="M860,379.8h-2.8c-0.1-0.2-1-1.7-1.5-3c-0.3-0.2-0.9-0.3-1.5-0.3c-2.3,0-3.3,1.3-3.3,2.7
			c0,1.3,0.5,2.2,4.1,3.6c4.8,1.8,6.2,3.7,6.2,6.4c0,4.3-4.1,6.6-8.8,6.6c-2.3,0-4.2-0.4-6.1-0.9c0-1.1-0.3-3.9-0.4-4.8h3
			c0.2,0.3,1.2,2.4,1.7,3.5c0.5,0.3,1.2,0.4,1.8,0.4c2.6,0,3.8-1.3,3.8-2.9c0-1.4-0.4-2.4-3.7-3.7c-4.1-1.7-6.2-3.4-6.2-6.7
			c0-2.5,1.5-6.1,8.2-6.1c2.4,0,4.8,0.4,5.5,0.5V379.8z"/>
		<path class="st1" d="M863.5,395.4v-2.1c0.8-0.2,1.5-0.3,2.4-0.4V367c-0.6-0.4-2-0.9-2.7-1.1V364h1.6c3.2,0,5.5-0.1,6.8-0.2
			c-0.1,0.7-0.3,2.1-0.3,2.7v10.3c2.6-1.8,4.8-2.2,6.3-2.2c4.5,0,6.4,3.5,6.4,7.3V393c0.8,0.1,1.7,0.2,2.3,0.4v2.1h-10.2v-2.1
			c0.8-0.2,1.7-0.3,2.4-0.4v-11c0-2.2-1.1-4-3.9-4c-1.1,0-2.3,0.3-3.4,0.9V393c0.6,0.1,1.5,0.2,2.4,0.3v2.2H863.5z"/>
		<path class="st1" d="M916.7,392.2c0,0.3,0.5,0.9,1.5,0.9c0.3,0,0.5,0,0.9,0v2c-0.9,0.4-2.2,0.7-3.5,0.7s-2.9-0.5-3.7-2.1
			c-2.8,1.8-4.9,2.2-6.2,2.2c-2.6,0-5.8-2.3-5.8-5.9c0-5.2,5.8-6.4,11-6.4h0.4v-3c0-1.9-0.8-3.8-3.8-3.8c-0.5,0-0.9,0-1.3,0.1
			c-0.4,1.2-1,3.1-1.2,3.5h-3.7v-4.2c2.6-0.8,5.8-1.6,8.1-1.6c5.1,0,7.1,2.8,7.1,6.1V392.2z M910.8,385.4c-3.7,0-5.5,1.3-5.5,3.8
			c0,2.3,1.5,3.5,3.6,3.5c0.8,0,1.6-0.1,2.6-0.6c0-0.3,0-0.5,0-0.8v-5.9H910.8z"/>
		<path class="st1" d="M921.3,395.4v-2.1c0.8-0.1,1.9-0.3,2.6-0.4v-14.7c-0.5-0.4-1.8-1-2.4-1.2v-1.9h2.7c1.8,0,3.9,0,4.8-0.1
			c0.1,0.3,0.2,1.7,0.2,2.3c2.6-1.9,4.6-2.7,6.6-2.7c4.3,0,6.3,3.4,6.3,7.1V393c0.8,0.1,1.7,0.2,2.4,0.4v2.1h-10.3v-2.2
			c0.9-0.1,1.7-0.3,2.5-0.4v-11.1c0-2.2-1-3.9-3.6-3.9c-1.1,0-2.5,0.4-3.7,1.1v14c0.6,0,1.8,0.2,2.4,0.4v2.1H921.3z"/>
		<path class="st1" d="M966.8,392.2c0.4,0.1,1.5,0.2,2.5,0.3v2.1c-1.2,0.2-5.8,1-7.5,1.4c-0.2-0.7-0.3-1.5-0.3-2.2
			c-2.9,1.7-4.8,2.1-5.9,2.1c-3.9,0-8.6-3.7-8.6-10.3c0-6.3,5.3-11,12.1-11c1.1,0,1.7,0.1,2.2,0.2V367c-0.6-0.3-2.2-0.9-3-1.1V364
			h2.1c4,0,5.8-0.1,6.7-0.2c-0.1,0.9-0.3,2.1-0.3,2.8V392.2z M961.3,377.6c-0.8-0.7-1.7-0.9-3.1-0.9c-2.9,0-5.5,2.7-5.5,7.7
			c0,5.6,2.7,8.3,5.9,8.3c0.7,0,1.6-0.1,2.7-0.7V377.6z"/>
		<path class="st1" d="M982.4,395.4v-2.1c0.8-0.2,1.8-0.3,2.6-0.4v-14.7c-0.5-0.4-1.8-1.1-2.4-1.2v-1.9h2.7c1.9,0,3.9,0,4.8-0.1
			c0.1,0.4,0.1,1.4,0.2,2.2c2.9-2.1,4.8-2.6,6.6-2.6c2.6,0,4.3,1.5,5.1,2.8c3.5-2.4,5.3-2.8,7-2.8c4.7,0,6.5,3.5,6.5,7.3v11
			c0.8,0.1,1.6,0.2,2.3,0.4v2.1h-10.2v-2.2c0.9-0.1,1.7-0.2,2.4-0.3V382c0-2.8-1.4-4.2-3.7-4.2c-1.3,0-2.4,0.3-3.7,1.1
			c0.2,0.7,0.4,1.9,0.4,3.4V393c0.8,0.1,1.7,0.3,2.3,0.4v2.1H995v-2.2c0.8-0.1,1.7-0.2,2.5-0.4v-11.1c0-2.4-1-4-3.4-4
			c-1.3,0-2.4,0.3-3.7,1.1V393c0.5,0.1,1.5,0.2,2.4,0.4v2.1H982.4z"/>
		<path class="st1" d="M1036.7,392.2c0,0.3,0.5,0.9,1.5,0.9c0.3,0,0.5,0,0.9,0v2c-0.9,0.4-2.2,0.7-3.5,0.7c-1.3,0-2.9-0.5-3.7-2.1
			c-2.8,1.8-4.9,2.2-6.2,2.2c-2.6,0-5.8-2.3-5.8-5.9c0-5.2,5.8-6.4,11-6.4h0.4v-3c0-1.9-0.8-3.8-3.8-3.8c-0.5,0-0.9,0-1.3,0.1
			c-0.4,1.2-1,3.1-1.2,3.5h-3.7v-4.2c2.6-0.8,5.8-1.6,8.1-1.6c5.1,0,7.1,2.8,7.1,6.1V392.2z M1030.8,385.4c-3.7,0-5.5,1.3-5.5,3.8
			c0,2.3,1.5,3.5,3.6,3.5c0.8,0,1.6-0.1,2.6-0.6c0-0.3,0-0.5,0-0.8v-5.9H1030.8z"/>
		<path class="st1" d="M1041.6,395.4v-2.1c0.8-0.2,2-0.3,2.6-0.4v-14.7c-0.5-0.4-1.6-1-2.4-1.2v-1.9h2.8c2.4,0,4.5-0.1,5-0.1V393
			c0.6,0,1.5,0.2,2.2,0.3v2.1H1041.6z M1046.5,365.6c1.9,0,3,1.4,3,3c0,1.7-1.2,3-3.1,3c-2.1,0-3.1-1.5-3.1-3
			C1043.3,367.3,1044.3,365.6,1046.5,365.6z"/>
		<path class="st1" d="M1054.4,395.4v-2.1c0.8-0.1,1.9-0.3,2.6-0.4v-14.7c-0.5-0.4-1.8-1-2.4-1.2v-1.9h2.7c1.8,0,3.9,0,4.8-0.1
			c0.1,0.3,0.2,1.7,0.2,2.3c2.6-1.9,4.6-2.7,6.6-2.7c4.3,0,6.3,3.4,6.3,7.1V393c0.8,0.1,1.7,0.2,2.4,0.4v2.1h-10.3v-2.2
			c0.9-0.1,1.7-0.3,2.5-0.4v-11.1c0-2.2-1-3.9-3.6-3.9c-1.1,0-2.5,0.4-3.7,1.1v14c0.6,0,1.8,0.2,2.4,0.4v2.1H1054.4z"/>
		<path class="st1" d="M1092,394.6c-1.8,1-3.4,1.3-4.8,1.3c-3.4,0-5.5-1.6-5.5-5.9v-12.3c-0.7,0-2.4-0.3-3-0.4v-2.1h3.1
			c0.4-1.3,1.5-3.9,2.5-5.7h3.6c-0.3,1.6-0.7,4.9-0.7,5.7h4.9v2.1c-0.9,0.1-3.5,0.4-5,0.4v13.4c0,1.1,0.4,2.1,2.4,2.1
			c0.7,0,1.5-0.2,2.5-0.6V394.6z"/>
		<path class="st1" d="M1110.7,392.2c0,0.3,0.5,0.9,1.5,0.9c0.3,0,0.5,0,0.9,0v2c-0.9,0.4-2.2,0.7-3.5,0.7c-1.3,0-2.9-0.5-3.7-2.1
			c-2.8,1.8-4.9,2.2-6.2,2.2c-2.6,0-5.8-2.3-5.8-5.9c0-5.2,5.8-6.4,11-6.4h0.4v-3c0-1.9-0.8-3.8-3.8-3.8c-0.5,0-0.9,0-1.3,0.1
			c-0.4,1.2-1,3.1-1.2,3.5h-3.7v-4.2c2.6-0.8,5.8-1.6,8.1-1.6c5.1,0,7.1,2.8,7.1,6.1V392.2z M1104.8,385.4c-3.7,0-5.5,1.3-5.5,3.8
			c0,2.3,1.5,3.5,3.6,3.5c0.8,0,1.6-0.1,2.6-0.6c0-0.3,0-0.5,0-0.8v-5.9H1104.8z"/>
		<path class="st1" d="M1115.5,395.4v-2.1c0.8-0.2,2-0.3,2.6-0.4v-14.7c-0.5-0.4-1.6-1-2.4-1.2v-1.9h2.8c2.4,0,4.5-0.1,5-0.1V393
			c0.6,0,1.5,0.2,2.2,0.3v2.1H1115.5z M1120.4,365.6c1.9,0,3,1.4,3,3c0,1.7-1.2,3-3.1,3c-2.1,0-3.1-1.5-3.1-3
			C1117.3,367.3,1118.3,365.6,1120.4,365.6z"/>
		<path class="st1" d="M1128.3,395.4v-2.1c0.8-0.1,1.9-0.3,2.6-0.4v-14.7c-0.5-0.4-1.8-1-2.4-1.2v-1.9h2.7c1.8,0,3.9,0,4.8-0.1
			c0.1,0.3,0.2,1.7,0.2,2.3c2.6-1.9,4.6-2.7,6.6-2.7c4.3,0,6.3,3.4,6.3,7.1V393c0.8,0.1,1.7,0.2,2.4,0.4v2.1h-10.3v-2.2
			c0.9-0.1,1.7-0.3,2.5-0.4v-11.1c0-2.2-1-3.9-3.6-3.9c-1.1,0-2.5,0.4-3.7,1.1v14c0.6,0,1.8,0.2,2.4,0.4v2.1H1128.3z"/>
		<path class="st1" d="M1181.7,392.2c0,0.3,0.5,0.9,1.5,0.9c0.3,0,0.5,0,0.9,0v2c-0.9,0.4-2.2,0.7-3.5,0.7c-1.3,0-2.9-0.5-3.7-2.1
			c-2.8,1.8-4.9,2.2-6.2,2.2c-2.6,0-5.8-2.3-5.8-5.9c0-5.2,5.8-6.4,11-6.4h0.4v-3c0-1.9-0.8-3.8-3.8-3.8c-0.5,0-0.9,0-1.3,0.1
			c-0.4,1.2-1,3.1-1.2,3.5h-3.7v-4.2c2.6-0.8,5.8-1.6,8.1-1.6c5.1,0,7.1,2.8,7.1,6.1V392.2z M1175.8,385.4c-3.7,0-5.5,1.3-5.5,3.8
			c0,2.3,1.5,3.5,3.6,3.5c0.8,0,1.6-0.1,2.6-0.6c0-0.3,0-0.5,0-0.8v-5.9H1175.8z"/>
	</g>
	<g>
		<path class="st1" d="M613.7,424.6c25.5,0,41.4,15,41.4,38.1c0,29.1-23.3,42.8-45.3,42.8H574v-6c3.1-0.6,8.3-1.1,10-1.2v-66.5
			c-2.2-0.2-6.7-0.7-10-1.2v-6H613.7z M600.8,431.2v67.7h10.2c12.5,0,25.8-10.2,25.8-34.6c0-24.1-12.4-33.1-26-33.1H600.8z"/>
		<path class="st1" d="M713.1,500.4c-7.7,5.8-16,6.6-21.1,6.6c-17.5,0-28.3-12.6-28.3-29.6c0.1-15.4,10.4-30.3,28.6-30.3
			c18.1,0,23.7,13,23.7,23.4c0,1.2,0,2.5-0.2,4c-2.1,0.6-6.4,0.9-19.8,0.9h-16.1c-0.2,16.6,8.6,23.2,18.4,23.2c4.7,0,9.3-0.7,14.9-4
			V500.4z M692.8,469.6c4.2,0,6.9-0.1,8.1-0.2c0.1-1.2,0.1-2.1,0.1-2.6c0-6.4-1.7-14.4-9.4-14.4c-6.3,0-10.5,6.1-11.5,17.2H692.8z"
			/>
		<path class="st1" d="M763.8,461.4h-7.9c-0.4-0.5-2.9-4.7-4.3-8.4c-0.9-0.5-2.5-0.7-4.1-0.7c-6.4,0-9.4,3.6-9.4,7.7
			c0,3.6,1.5,6.3,11.7,10.2c13.4,5.1,17.5,10.3,17.5,18.1c0,12.2-11.5,18.7-24.8,18.7c-6.4,0-11.8-1.2-17.1-2.6
			c-0.1-3-0.9-11-1.1-13.6h8.4c0.6,0.9,3.3,6.7,4.8,9.9c1.5,0.7,3.5,1,5.1,1c7.3,0,10.7-3.6,10.7-8.1c0-3.8-1.2-6.7-10.5-10.4
			c-11.7-4.8-17.5-9.7-17.5-18.8c0-7.1,4.1-17.2,23.1-17.2c6.7,0,13.4,1.1,15.6,1.5V461.4z"/>
		<path class="st1" d="M774.4,505.5v-6c2.4-0.5,5.6-0.9,7.2-1v-41.3c-1.4-1-4.6-2.7-6.7-3.3v-5.3h7.9c6.8-0.1,12.8-0.2,14.1-0.4
			v50.5c1.6,0,4.1,0.5,6.2,0.9v6H774.4z M788.1,421.4c5.5,0,8.6,4,8.6,8.4c0,4.8-3.3,8.4-8.7,8.4c-6,0-8.8-4.3-8.8-8.4
			C779.2,426.2,782.1,421.4,788.1,421.4z"/>
		<path class="st1" d="M866.6,457.2c-2.9-0.2-8.3-0.6-11.4-0.6c1.1,1.6,2.7,5.2,2.7,9.8c0,12.5-10.2,19.6-23.6,19.6
			c-3.1,0-6.2-0.4-9.1-1.2c-1,2-1.6,3.6-1.6,4.6c0,3.6,4.1,4.8,6.2,5c7.6,0.7,14.9,0.9,20.8,1.5c5.6,0.6,15.6,4.5,15.6,15.7
			c0,14-14.5,24.6-31.7,24.6c-19.6,0-27.4-10.4-27.4-17.1c0-2.5,4.1-7.6,12-14.1c-4-2.5-6.1-6.2-6.1-9.8c0-1.7,3.3-6.8,7.6-11.9
			c-6.1-3-10.4-8.3-10.4-16.5c0-9.2,7.2-19.6,23.9-19.6c7.3,0,11.8,1.7,14.8,2.9c0.7,0.2,1.5,0.5,2,0.4c3.5-0.5,12.2-1.5,16.4-1.7
			L866.6,457.2z M827.3,507.6c-1.2-0.1-2.5-0.4-3.6-0.7c-3,4.1-3.8,7.3-3.8,9.5c0,6.9,6.7,13.5,18.4,13.5c11.9,0,16-6.1,16-12.3
			c0-5.6-4.3-7.9-10-8.6C839.6,508.7,833,508.3,827.3,507.6z M842.8,466.9c0-7.8-2.2-14.8-9.2-14.8c-6.1,0-8.4,6.2-8.4,13.8
			c0,7.9,2.7,15.1,9.4,15.1C840.3,481,842.8,475.1,842.8,466.9z"/>
		<path class="st1" d="M871.5,505.5v-6c2.4-0.4,5.3-0.9,7.2-1v-41.3c-1.4-1-5.2-2.9-6.7-3.3v-5.3h7.7c5.2,0,11-0.1,13.4-0.4
			c0.2,0.9,0.5,4.7,0.6,6.4c7.3-5.5,12.9-7.6,18.5-7.6c12,0,17.7,9.5,17.7,20.1v31.4c2.2,0.2,4.7,0.6,6.7,1v6h-28.9v-6.1
			c2.5-0.4,4.8-0.7,6.9-1V467c0-6.2-2.7-11-10.2-11c-3.2,0-7.1,1.2-10.4,3.2v39.3c1.7,0.1,5.1,0.6,6.8,1v6H871.5z"/>
		<path class="st1" d="M976.4,486.9h8.3c0.7,0.9,4.2,7.9,6.4,12.6c1.4,0.7,5.1,1.6,9.2,1.6c9.8,0,15.9-5.3,15.9-12.8
			c0-6.8-3.1-10.9-17.9-17.1c-16.5-7.1-20.7-15.7-20.7-25.5c0-11.4,8.6-22.3,30-22.3c8.7,0,14.9,1.1,20.3,1.4v16.9h-7.8
			c-0.7-0.7-3.5-6.2-5.7-11.2c-2-1-5-1.4-7.4-1.4c-10.7,0-14.8,5.3-14.8,11.7c0,5.7,2.6,10.5,15.4,15.7c18.8,7.7,24.7,14.9,24.7,26
			c0,15.6-14.3,24.4-32.4,24.4c-10.7,0-16.7-2.1-22.2-3.7L976.4,486.9z"/>
		<path class="st1" d="M1032.4,454.5v-6h31v6c-1.9,0.4-6,0.9-7.3,1c2.5,6.6,11.9,29.1,13.1,32.5c4.3-9.9,11.5-28.4,12.6-32.2
			c-2.5-0.1-7.3-0.7-10.5-1.2v-6h25.4v6c-2.5,0.6-5.5,1-7.1,1.1c-4.5,11-11.5,27-20.8,48.6c-2.9,6.6-8.7,21.7-12.6,32
			c-2.9,0.1-11.4-1.5-13.5-3V532c5.6-6.9,13.6-18.7,18-26.4c0.2-0.4,0.4-0.9,0.1-1.4c-3.3-7.7-17.9-40.3-21.6-48.4
			C1038.1,455.7,1035.1,455.1,1032.4,454.5z"/>
		<path class="st1" d="M1139.8,461.4h-7.9c-0.4-0.5-2.9-4.7-4.3-8.4c-0.9-0.5-2.5-0.7-4.1-0.7c-6.4,0-9.4,3.6-9.4,7.7
			c0,3.6,1.5,6.3,11.7,10.2c13.4,5.1,17.5,10.3,17.5,18.1c0,12.2-11.5,18.7-24.8,18.7c-6.4,0-11.8-1.2-17.1-2.6
			c-0.1-3-0.9-11-1.1-13.6h8.4c0.6,0.9,3.3,6.7,4.8,9.9c1.5,0.7,3.5,1,5.1,1c7.3,0,10.7-3.6,10.7-8.1c0-3.8-1.2-6.7-10.5-10.4
			c-11.7-4.8-17.5-9.7-17.5-18.8c0-7.1,4.1-17.2,23.1-17.2c6.7,0,13.4,1.1,15.6,1.5V461.4z"/>
		<path class="st1" d="M1184.8,503.2c-5.1,2.9-9.5,3.7-13.5,3.7c-9.7,0-15.5-4.6-15.5-16.7v-34.7c-2.1-0.1-6.7-0.7-8.4-1v-6h8.8
			c1.1-3.7,4.2-11,7.1-16h10.2c-0.9,4.5-1.9,13.8-1.9,16h13.8v6c-2.6,0.4-9.9,1-14.1,1v37.8c0,3,1.2,6,6.7,6c2.1,0,4.3-0.5,6.9-1.6
			V503.2z"/>
		<path class="st1" d="M1238.1,500.4c-7.7,5.8-16,6.6-21.1,6.6c-17.5,0-28.3-12.6-28.3-29.6c0.1-15.4,10.4-30.3,28.6-30.3
			c18.1,0,23.7,13,23.7,23.4c0,1.2,0,2.5-0.2,4c-2.1,0.6-6.4,0.9-19.8,0.9h-16.1c-0.2,16.6,8.6,23.2,18.4,23.2c4.7,0,9.3-0.7,14.9-4
			V500.4z M1217.8,469.6c4.2,0,6.9-0.1,8.1-0.2c0.1-1.2,0.1-2.1,0.1-2.6c0-6.4-1.7-14.4-9.4-14.4c-6.3,0-10.5,6.1-11.5,17.2H1217.8z
			"/>
		<path class="st1" d="M1247.7,505.5v-6c2.4-0.5,5.2-0.7,7.2-1v-41.3c-1.5-1.2-5.2-3-6.7-3.3v-5.3h7.7c5.3,0,11-0.1,13.4-0.4
			c0.2,1.1,0.4,3.8,0.6,6.1c8.3-6,13.4-7.2,18.5-7.2c7.3,0,12,4.1,14.4,7.9c9.9-6.8,15-7.9,19.8-7.9c13.1,0,18.4,9.9,18.4,20.6v30.9
			c2.2,0.2,4.5,0.6,6.4,1v6h-28.6v-6.1c2.6-0.4,4.7-0.6,6.8-0.9v-30.8c0-7.9-3.8-11.9-10.5-11.9c-3.6,0-6.8,0.9-10.5,3.1
			c0.6,2.1,1.1,5.3,1.1,9.5v30c2.2,0.2,4.8,0.7,6.4,1v6h-28.8v-6.1c2.2-0.4,4.8-0.6,6.9-1V467c0-6.7-2.9-11.2-9.7-11.2
			c-3.6,0-6.7,0.9-10.3,3v39.7c1.5,0.2,4.3,0.5,6.7,1v6H1247.7z"/>
	</g>
</g>
</svg>
