<svg version="1.1" id="Layer_1" xmlns="http://www.w3.org/2000/svg" x="0" y="0" viewBox="0 0 1920 900" style="enable-background:new 0 0 1920 900" xml:space="preserve"><style>.st1{fill:#fff}</style><path style="fill:#252525" d="M0 0h1920v900H0z"/><path class="st1" d="M572.6 395.4v-2.1c1.2-.2 2.6-.4 3.6-.4v-23.6c-.7-.1-1.7-.1-3.6-.4v-2.1H585v2.1c-1 .2-2 .4-2.9.4v9.7h11.8v-9.8c-.5-.1-1.7-.2-2.9-.4v-2.1h12.4v2.1c-1.1.2-2.4.4-3.6.4v23.6c1.2.1 2.2.2 3.6.4v2.1h-12.5v-2.2c.9-.2 2.2-.3 3-.4v-11.5h-11.8v11.4c.7.1 1.9.3 2.9.4v2.1h-12.4zM626.8 385c0 6.7-4.6 11-10.8 11-6.5 0-10.6-4.7-10.6-10.7 0-5.9 4.3-10.6 10.9-10.6 6.1 0 10.5 4.3 10.5 10.3zm-6 .6c0-5-1.5-8.9-4.9-8.9-3.3 0-4.5 3.8-4.5 8.1 0 4.5 1.5 9.2 5.1 9.2 3.2 0 4.3-3.9 4.3-8.4zM649.5 395.7c-.8-2.5-4.3-11.6-5.3-14.7-.8 3.3-3.8 11.1-4.8 14.7h-2.9c-.8-2.9-4.9-14.4-6.2-17.9-.6 0-1.4-.2-2.5-.4v-2.1h10.8v2.1c-.9.2-1.9.3-2.6.4.4 1.5 2.8 8.5 3.6 11.2.8-2.8 3.9-11.8 4.4-13.7h3.4c.9 2.6 4.2 11.4 5.1 14.1.7-2.2 3-9.1 3.6-11.5-.9-.1-2.7-.3-3.6-.5v-2.1h8.7v2.1c-.7.2-2 .4-2.5.4-1.1 3.2-4.8 13.6-6.2 17.9h-3zM685.1 394.6c-1.8 1-3.4 1.3-4.8 1.3-3.4 0-5.5-1.6-5.5-5.9v-12.3c-.7 0-2.4-.3-3-.4v-2.1h3.1c.4-1.3 1.5-3.9 2.5-5.7h3.6c-.3 1.6-.7 4.9-.7 5.7h4.9v2.1c-.9.1-3.5.4-5 .4v13.4c0 1.1.4 2.1 2.4 2.1.7 0 1.5-.2 2.5-.6v2zM708 385c0 6.7-4.6 11-10.8 11-6.5 0-10.6-4.7-10.6-10.7 0-5.9 4.3-10.6 10.9-10.6 6 0 10.5 4.3 10.5 10.3zm-6 .6c0-5-1.5-8.9-4.9-8.9-3.3 0-4.5 3.8-4.5 8.1 0 4.5 1.5 9.2 5.1 9.2 3.2 0 4.3-3.9 4.3-8.4zM739 393.6c-2.7 2.1-5.7 2.3-7.5 2.3-6.2 0-10-4.5-10-10.5 0-5.5 3.7-10.7 10.2-10.7 6.4 0 8.4 4.6 8.4 8.3 0 .4 0 .9-.1 1.4-.7.2-2.3.3-7 .3h-5.7c-.1 5.9 3 8.2 6.5 8.2 1.7 0 3.3-.3 5.3-1.4v2.1zm-7.2-10.9c1.5 0 2.5 0 2.9-.1v-.9c0-2.3-.6-5.1-3.3-5.1-2.2 0-3.7 2.2-4.1 6.1h4.5zM757 379.8h-2.8c-.1-.2-1-1.7-1.5-3-.3-.2-.9-.3-1.5-.3-2.3 0-3.3 1.3-3.3 2.7 0 1.3.5 2.2 4.1 3.6 4.8 1.8 6.2 3.7 6.2 6.4 0 4.3-4.1 6.6-8.8 6.6-2.3 0-4.2-.4-6.1-.9 0-1.1-.3-3.9-.4-4.8h3c.2.3 1.2 2.4 1.7 3.5.5.3 1.2.4 1.8.4 2.6 0 3.8-1.3 3.8-2.9 0-1.4-.4-2.4-3.7-3.7-4.1-1.7-6.2-3.4-6.2-6.7 0-2.5 1.5-6.1 8.2-6.1 2.4 0 4.8.4 5.5.5v4.7zM773 394.6c-1.8 1-3.4 1.3-4.8 1.3-3.4 0-5.5-1.6-5.5-5.9v-12.3c-.7 0-2.4-.3-3-.4v-2.1h3.1c.4-1.3 1.5-3.9 2.5-5.7h3.6c-.3 1.6-.7 4.9-.7 5.7h4.9v2.1c-.9.1-3.5.4-5 .4v13.4c0 1.1.4 2.1 2.4 2.1.7 0 1.5-.2 2.5-.6v2zM791.7 392.2c0 .3.5.9 1.5.9h.9v2c-.9.4-2.2.7-3.5.7s-2.9-.5-3.7-2.1c-2.8 1.8-4.9 2.2-6.2 2.2-2.6 0-5.8-2.3-5.8-5.9 0-5.2 5.8-6.4 11-6.4h.4v-3c0-1.9-.8-3.8-3.8-3.8-.5 0-.9 0-1.3.1-.4 1.2-1 3.1-1.2 3.5h-3.7v-4.2c2.6-.8 5.8-1.6 8.1-1.6 5.1 0 7.1 2.8 7.1 6.1v11.5zm-5.9-6.8c-3.7 0-5.5 1.3-5.5 3.8 0 2.3 1.5 3.5 3.6 3.5.8 0 1.6-.1 2.6-.6v-6.7h-.7zM795.4 364h.6c3.7 0 6.7-.1 7.8-.3-.1.9-.3 1.8-.3 2.6v9.5c2.8-1.1 4.3-1.3 5.4-1.3 4.8 0 9 3.8 9 9.6 0 7.7-6.5 11.7-12.2 11.7-2.7 0-5.6-.6-7.7-1.1V367c-.5-.4-1.8-.9-2.6-1.1V364zm8.1 29.1c.7.4 1.8.6 2.9.6 3.2 0 5.7-2.9 5.7-8.5 0-4.8-2-7.9-6.1-7.9-.7 0-1.7.1-2.6.4v15.4zM820.5 395.4v-2.1c.6-.1 1.5-.3 2.3-.4v-26c-.7-.4-2.1-1-2.6-1.1V364h1.6c4.3 0 6-.1 6.8-.2-.1.9-.3 2.2-.3 2.6V393c1 .1 1.7.2 2.3.3v2.1h-10.1zM833.1 395.4v-2.1c.8-.2 2-.3 2.6-.4v-14.7c-.5-.4-1.6-1-2.4-1.2v-1.9h2.8c2.4 0 4.5-.1 5-.1v18c.6 0 1.5.2 2.2.3v2.1h-10.2zm4.9-29.8c1.9 0 3 1.4 3 3 0 1.7-1.2 3-3.1 3-2.1 0-3.1-1.5-3.1-3 0-1.3 1-3 3.2-3zM860 379.8h-2.8c-.1-.2-1-1.7-1.5-3-.3-.2-.9-.3-1.5-.3-2.3 0-3.3 1.3-3.3 2.7 0 1.3.5 2.2 4.1 3.6 4.8 1.8 6.2 3.7 6.2 6.4 0 4.3-4.1 6.6-8.8 6.6-2.3 0-4.2-.4-6.1-.9 0-1.1-.3-3.9-.4-4.8h3c.2.3 1.2 2.4 1.7 3.5.5.3 1.2.4 1.8.4 2.6 0 3.8-1.3 3.8-2.9 0-1.4-.4-2.4-3.7-3.7-4.1-1.7-6.2-3.4-6.2-6.7 0-2.5 1.5-6.1 8.2-6.1 2.4 0 4.8.4 5.5.5v4.7zM863.5 395.4v-2.1c.8-.2 1.5-.3 2.4-.4V367c-.6-.4-2-.9-2.7-1.1V364h1.6c3.2 0 5.5-.1 6.8-.2-.1.7-.3 2.1-.3 2.7v10.3c2.6-1.8 4.8-2.2 6.3-2.2 4.5 0 6.4 3.5 6.4 7.3V393c.8.1 1.7.2 2.3.4v2.1h-10.2v-2.1c.8-.2 1.7-.3 2.4-.4v-11c0-2.2-1.1-4-3.9-4-1.1 0-2.3.3-3.4.9V393c.6.1 1.5.2 2.4.3v2.2h-10.1zM916.7 392.2c0 .3.5.9 1.5.9h.9v2c-.9.4-2.2.7-3.5.7s-2.9-.5-3.7-2.1c-2.8 1.8-4.9 2.2-6.2 2.2-2.6 0-5.8-2.3-5.8-5.9 0-5.2 5.8-6.4 11-6.4h.4v-3c0-1.9-.8-3.8-3.8-3.8-.5 0-.9 0-1.3.1-.4 1.2-1 3.1-1.2 3.5h-3.7v-4.2c2.6-.8 5.8-1.6 8.1-1.6 5.1 0 7.1 2.8 7.1 6.1v11.5zm-5.9-6.8c-3.7 0-5.5 1.3-5.5 3.8 0 2.3 1.5 3.5 3.6 3.5.8 0 1.6-.1 2.6-.6v-6.7h-.7zM921.3 395.4v-2.1c.8-.1 1.9-.3 2.6-.4v-14.7c-.5-.4-1.8-1-2.4-1.2v-1.9h2.7c1.8 0 3.9 0 4.8-.1.1.3.2 1.7.2 2.3 2.6-1.9 4.6-2.7 6.6-2.7 4.3 0 6.3 3.4 6.3 7.1V393c.8.1 1.7.2 2.4.4v2.1h-10.3v-2.2c.9-.1 1.7-.3 2.5-.4v-11.1c0-2.2-1-3.9-3.6-3.9-1.1 0-2.5.4-3.7 1.1v14c.6 0 1.8.2 2.4.4v2.1h-10.5zM966.8 392.2c.4.1 1.5.2 2.5.3v2.1c-1.2.2-5.8 1-7.5 1.4-.2-.7-.3-1.5-.3-2.2-2.9 1.7-4.8 2.1-5.9 2.1-3.9 0-8.6-3.7-8.6-10.3 0-6.3 5.3-11 12.1-11 1.1 0 1.7.1 2.2.2V367c-.6-.3-2.2-.9-3-1.1V364h2.1c4 0 5.8-.1 6.7-.2-.1.9-.3 2.1-.3 2.8v25.6zm-5.5-14.6c-.8-.7-1.7-.9-3.1-.9-2.9 0-5.5 2.7-5.5 7.7 0 5.6 2.7 8.3 5.9 8.3.7 0 1.6-.1 2.7-.7v-14.4zM982.4 395.4v-2.1c.8-.2 1.8-.3 2.6-.4v-14.7c-.5-.4-1.8-1.1-2.4-1.2v-1.9h2.7c1.9 0 3.9 0 4.8-.1.1.4.1 1.4.2 2.2 2.9-2.1 4.8-2.6 6.6-2.6 2.6 0 4.3 1.5 5.1 2.8 3.5-2.4 5.3-2.8 7-2.8 4.7 0 6.5 3.5 6.5 7.3v11c.8.1 1.6.2 2.3.4v2.1h-10.2v-2.2c.9-.1 1.7-.2 2.4-.3V382c0-2.8-1.4-4.2-3.7-4.2-1.3 0-2.4.3-3.7 1.1.2.7.4 1.9.4 3.4V393c.8.1 1.7.3 2.3.4v2.1H995v-2.2c.8-.1 1.7-.2 2.5-.4v-11.1c0-2.4-1-4-3.4-4-1.3 0-2.4.3-3.7 1.1V393c.5.1 1.5.2 2.4.4v2.1h-10.4zM1036.7 392.2c0 .3.5.9 1.5.9h.9v2c-.9.4-2.2.7-3.5.7-1.3 0-2.9-.5-3.7-2.1-2.8 1.8-4.9 2.2-6.2 2.2-2.6 0-5.8-2.3-5.8-5.9 0-5.2 5.8-6.4 11-6.4h.4v-3c0-1.9-.8-3.8-3.8-3.8-.5 0-.9 0-1.3.1-.4 1.2-1 3.1-1.2 3.5h-3.7v-4.2c2.6-.8 5.8-1.6 8.1-1.6 5.1 0 7.1 2.8 7.1 6.1v11.5zm-5.9-6.8c-3.7 0-5.5 1.3-5.5 3.8 0 2.3 1.5 3.5 3.6 3.5.8 0 1.6-.1 2.6-.6v-6.7h-.7zM1041.6 395.4v-2.1c.8-.2 2-.3 2.6-.4v-14.7c-.5-.4-1.6-1-2.4-1.2v-1.9h2.8c2.4 0 4.5-.1 5-.1v18c.6 0 1.5.2 2.2.3v2.1h-10.2zm4.9-29.8c1.9 0 3 1.4 3 3 0 1.7-1.2 3-3.1 3-2.1 0-3.1-1.5-3.1-3 0-1.3 1-3 3.2-3zM1054.4 395.4v-2.1c.8-.1 1.9-.3 2.6-.4v-14.7c-.5-.4-1.8-1-2.4-1.2v-1.9h2.7c1.8 0 3.9 0 4.8-.1.1.3.2 1.7.2 2.3 2.6-1.9 4.6-2.7 6.6-2.7 4.3 0 6.3 3.4 6.3 7.1V393c.8.1 1.7.2 2.4.4v2.1h-10.3v-2.2c.9-.1 1.7-.3 2.5-.4v-11.1c0-2.2-1-3.9-3.6-3.9-1.1 0-2.5.4-3.7 1.1v14c.6 0 1.8.2 2.4.4v2.1h-10.5zM1092 394.6c-1.8 1-3.4 1.3-4.8 1.3-3.4 0-5.5-1.6-5.5-5.9v-12.3c-.7 0-2.4-.3-3-.4v-2.1h3.1c.4-1.3 1.5-3.9 2.5-5.7h3.6c-.3 1.6-.7 4.9-.7 5.7h4.9v2.1c-.9.1-3.5.4-5 .4v13.4c0 1.1.4 2.1 2.4 2.1.7 0 1.5-.2 2.5-.6v2zM1110.7 392.2c0 .3.5.9 1.5.9h.9v2c-.9.4-2.2.7-3.5.7-1.3 0-2.9-.5-3.7-2.1-2.8 1.8-4.9 2.2-6.2 2.2-2.6 0-5.8-2.3-5.8-5.9 0-5.2 5.8-6.4 11-6.4h.4v-3c0-1.9-.8-3.8-3.8-3.8-.5 0-.9 0-1.3.1-.4 1.2-1 3.1-1.2 3.5h-3.7v-4.2c2.6-.8 5.8-1.6 8.1-1.6 5.1 0 7.1 2.8 7.1 6.1v11.5zm-5.9-6.8c-3.7 0-5.5 1.3-5.5 3.8 0 2.3 1.5 3.5 3.6 3.5.8 0 1.6-.1 2.6-.6v-6.7h-.7zM1115.5 395.4v-2.1c.8-.2 2-.3 2.6-.4v-14.7c-.5-.4-1.6-1-2.4-1.2v-1.9h2.8c2.4 0 4.5-.1 5-.1v18c.6 0 1.5.2 2.2.3v2.1h-10.2zm4.9-29.8c1.9 0 3 1.4 3 3 0 1.7-1.2 3-3.1 3-2.1 0-3.1-1.5-3.1-3 .1-1.3 1.1-3 3.2-3zM1128.3 395.4v-2.1c.8-.1 1.9-.3 2.6-.4v-14.7c-.5-.4-1.8-1-2.4-1.2v-1.9h2.7c1.8 0 3.9 0 4.8-.1.1.3.2 1.7.2 2.3 2.6-1.9 4.6-2.7 6.6-2.7 4.3 0 6.3 3.4 6.3 7.1V393c.8.1 1.7.2 2.4.4v2.1h-10.3v-2.2c.9-.1 1.7-.3 2.5-.4v-11.1c0-2.2-1-3.9-3.6-3.9-1.1 0-2.5.4-3.7 1.1v14c.6 0 1.8.2 2.4.4v2.1h-10.5zM1181.7 392.2c0 .3.5.9 1.5.9h.9v2c-.9.4-2.2.7-3.5.7-1.3 0-2.9-.5-3.7-2.1-2.8 1.8-4.9 2.2-6.2 2.2-2.6 0-5.8-2.3-5.8-5.9 0-5.2 5.8-6.4 11-6.4h.4v-3c0-1.9-.8-3.8-3.8-3.8-.5 0-.9 0-1.3.1-.4 1.2-1 3.1-1.2 3.5h-3.7v-4.2c2.6-.8 5.8-1.6 8.1-1.6 5.1 0 7.1 2.8 7.1 6.1v11.5zm-5.9-6.8c-3.7 0-5.5 1.3-5.5 3.8 0 2.3 1.5 3.5 3.6 3.5.8 0 1.6-.1 2.6-.6v-6.7h-.7z"/><g><path class="st1" d="M613.7 424.6c25.5 0 41.4 15 41.4 38.1 0 29.1-23.3 42.8-45.3 42.8H574v-6c3.1-.6 8.3-1.1 10-1.2v-66.5c-2.2-.2-6.7-.7-10-1.2v-6h39.7zm-12.9 6.6v67.7H611c12.5 0 25.8-10.2 25.8-34.6 0-24.1-12.4-33.1-26-33.1h-10zM713.1 500.4c-7.7 5.8-16 6.6-21.1 6.6-17.5 0-28.3-12.6-28.3-29.6.1-15.4 10.4-30.3 28.6-30.3 18.1 0 23.7 13 23.7 23.4 0 1.2 0 2.5-.2 4-2.1.6-6.4.9-19.8.9h-16.1c-.2 16.6 8.6 23.2 18.4 23.2 4.7 0 9.3-.7 14.9-4v5.8zm-20.3-30.8c4.2 0 6.9-.1 8.1-.2.1-1.2.1-2.1.1-2.6 0-6.4-1.7-14.4-9.4-14.4-6.3 0-10.5 6.1-11.5 17.2h12.7zM763.8 461.4h-7.9c-.4-.5-2.9-4.7-4.3-8.4-.9-.5-2.5-.7-4.1-.7-6.4 0-9.4 3.6-9.4 7.7 0 3.6 1.5 6.3 11.7 10.2 13.4 5.1 17.5 10.3 17.5 18.1 0 12.2-11.5 18.7-24.8 18.7-6.4 0-11.8-1.2-17.1-2.6-.1-3-.9-11-1.1-13.6h8.4c.6.9 3.3 6.7 4.8 9.9 1.5.7 3.5 1 5.1 1 7.3 0 10.7-3.6 10.7-8.1 0-3.8-1.2-6.7-10.5-10.4-11.7-4.8-17.5-9.7-17.5-18.8 0-7.1 4.1-17.2 23.1-17.2 6.7 0 13.4 1.1 15.6 1.5v12.7zM774.4 505.5v-6c2.4-.5 5.6-.9 7.2-1v-41.3c-1.4-1-4.6-2.7-6.7-3.3v-5.3h7.9c6.8-.1 12.8-.2 14.1-.4v50.5c1.6 0 4.1.5 6.2.9v6h-28.7zm13.7-84.1c5.5 0 8.6 4 8.6 8.4 0 4.8-3.3 8.4-8.7 8.4-6 0-8.8-4.3-8.8-8.4 0-3.6 2.9-8.4 8.9-8.4zM866.6 457.2c-2.9-.2-8.3-.6-11.4-.6 1.1 1.6 2.7 5.2 2.7 9.8 0 12.5-10.2 19.6-23.6 19.6-3.1 0-6.2-.4-9.1-1.2-1 2-1.6 3.6-1.6 4.6 0 3.6 4.1 4.8 6.2 5 7.6.7 14.9.9 20.8 1.5 5.6.6 15.6 4.5 15.6 15.7 0 14-14.5 24.6-31.7 24.6-19.6 0-27.4-10.4-27.4-17.1 0-2.5 4.1-7.6 12-14.1-4-2.5-6.1-6.2-6.1-9.8 0-1.7 3.3-6.8 7.6-11.9-6.1-3-10.4-8.3-10.4-16.5 0-9.2 7.2-19.6 23.9-19.6 7.3 0 11.8 1.7 14.8 2.9.7.2 1.5.5 2 .4 3.5-.5 12.2-1.5 16.4-1.7l-.7 8.4zm-39.3 50.4c-1.2-.1-2.5-.4-3.6-.7-3 4.1-3.8 7.3-3.8 9.5 0 6.9 6.7 13.5 18.4 13.5 11.9 0 16-6.1 16-12.3 0-5.6-4.3-7.9-10-8.6-4.7-.3-11.3-.7-17-1.4zm15.5-40.7c0-7.8-2.2-14.8-9.2-14.8-6.1 0-8.4 6.2-8.4 13.8 0 7.9 2.7 15.1 9.4 15.1 5.7 0 8.2-5.9 8.2-14.1zM871.5 505.5v-6c2.4-.4 5.3-.9 7.2-1v-41.3c-1.4-1-5.2-2.9-6.7-3.3v-5.3h7.7c5.2 0 11-.1 13.4-.4.2.9.5 4.7.6 6.4 7.3-5.5 12.9-7.6 18.5-7.6 12 0 17.7 9.5 17.7 20.1v31.4c2.2.2 4.7.6 6.7 1v6h-28.9v-6.1c2.5-.4 4.8-.7 6.9-1V467c0-6.2-2.7-11-10.2-11-3.2 0-7.1 1.2-10.4 3.2v39.3c1.7.1 5.1.6 6.8 1v6h-29.3zM976.4 486.9h8.3c.7.9 4.2 7.9 6.4 12.6 1.4.7 5.1 1.6 9.2 1.6 9.8 0 15.9-5.3 15.9-12.8 0-6.8-3.1-10.9-17.9-17.1-16.5-7.1-20.7-15.7-20.7-25.5 0-11.4 8.6-22.3 30-22.3 8.7 0 14.9 1.1 20.3 1.4v16.9h-7.8c-.7-.7-3.5-6.2-5.7-11.2-2-1-5-1.4-7.4-1.4-10.7 0-14.8 5.3-14.8 11.7 0 5.7 2.6 10.5 15.4 15.7 18.8 7.7 24.7 14.9 24.7 26 0 15.6-14.3 24.4-32.4 24.4-10.7 0-16.7-2.1-22.2-3.7l-1.3-16.3zM1032.4 454.5v-6h31v6c-1.9.4-6 .9-7.3 1 2.5 6.6 11.9 29.1 13.1 32.5 4.3-9.9 11.5-28.4 12.6-32.2-2.5-.1-7.3-.7-10.5-1.2v-6h25.4v6c-2.5.6-5.5 1-7.1 1.1-4.5 11-11.5 27-20.8 48.6-2.9 6.6-8.7 21.7-12.6 32-2.9.1-11.4-1.5-13.5-3V532c5.6-6.9 13.6-18.7 18-26.4.2-.4.4-.9.1-1.4-3.3-7.7-17.9-40.3-21.6-48.4-1.1-.1-4.1-.7-6.8-1.3zM1139.8 461.4h-7.9c-.4-.5-2.9-4.7-4.3-8.4-.9-.5-2.5-.7-4.1-.7-6.4 0-9.4 3.6-9.4 7.7 0 3.6 1.5 6.3 11.7 10.2 13.4 5.1 17.5 10.3 17.5 18.1 0 12.2-11.5 18.7-24.8 18.7-6.4 0-11.8-1.2-17.1-2.6-.1-3-.9-11-1.1-13.6h8.4c.6.9 3.3 6.7 4.8 9.9 1.5.7 3.5 1 5.1 1 7.3 0 10.7-3.6 10.7-8.1 0-3.8-1.2-6.7-10.5-10.4-11.7-4.8-17.5-9.7-17.5-18.8 0-7.1 4.1-17.2 23.1-17.2 6.7 0 13.4 1.1 15.6 1.5v12.7zM1184.8 503.2c-5.1 2.9-9.5 3.7-13.5 3.7-9.7 0-15.5-4.6-15.5-16.7v-34.7c-2.1-.1-6.7-.7-8.4-1v-6h8.8c1.1-3.7 4.2-11 7.1-16h10.2c-.9 4.5-1.9 13.8-1.9 16h13.8v6c-2.6.4-9.9 1-14.1 1v37.8c0 3 1.2 6 6.7 6 2.1 0 4.3-.5 6.9-1.6v5.5zM1238.1 500.4c-7.7 5.8-16 6.6-21.1 6.6-17.5 0-28.3-12.6-28.3-29.6.1-15.4 10.4-30.3 28.6-30.3 18.1 0 23.7 13 23.7 23.4 0 1.2 0 2.5-.2 4-2.1.6-6.4.9-19.8.9h-16.1c-.2 16.6 8.6 23.2 18.4 23.2 4.7 0 9.3-.7 14.9-4v5.8zm-20.3-30.8c4.2 0 6.9-.1 8.1-.2.1-1.2.1-2.1.1-2.6 0-6.4-1.7-14.4-9.4-14.4-6.3 0-10.5 6.1-11.5 17.2h12.7zM1247.7 505.5v-6c2.4-.5 5.2-.7 7.2-1v-41.3c-1.5-1.2-5.2-3-6.7-3.3v-5.3h7.7c5.3 0 11-.1 13.4-.4.2 1.1.4 3.8.6 6.1 8.3-6 13.4-7.2 18.5-7.2 7.3 0 12 4.1 14.4 7.9 9.9-6.8 15-7.9 19.8-7.9 13.1 0 18.4 9.9 18.4 20.6v30.9c2.2.2 4.5.6 6.4 1v6h-28.6v-6.1c2.6-.4 4.7-.6 6.8-.9v-30.8c0-7.9-3.8-11.9-10.5-11.9-3.6 0-6.8.9-10.5 3.1.6 2.1 1.1 5.3 1.1 9.5v30c2.2.2 4.8.7 6.4 1v6h-28.8v-6.1c2.2-.4 4.8-.6 6.9-1V467c0-6.7-2.9-11.2-9.7-11.2-3.6 0-6.7.9-10.3 3v39.7c1.5.2 4.3.5 6.7 1v6h-29.2z"/></g></svg>