<!-- Generator: Adobe Illustrator 18.1.1, SVG Export Plug-In  -->
<svg version="1.1"
  xmlns="http://www.w3.org/2000/svg" xmlns:xlink="http://www.w3.org/1999/xlink" xmlns:a="http://ns.adobe.com/AdobeSVGViewerExtensions/3.0/"
  x="0px" y="0px" width="120px" height="82px" viewBox="0 0 120 82" enable-background="new 0 0 120 82" xml:space="preserve">
  <defs>
    <path id="tag" d="M46.3,82c-0.6,0-1.2-0.1-1.8-0.3c-2.6-1-4-3.9-3-6.6L67.8,3.3c1-2.7,3.9-4,6.5-3c2.6,1,4,3.9,3,6.6L51,78.7
      C50.3,80.7,48.3,82,46.3,82z M32.3,68.5c2-2,2-5.2,0-7.2L12.2,41l20.1-20.3c2-2,2-5.2,0-7.2c-2-2-5.2-2-7.2,0L1.5,37.4
      c-1,1-1.5,2.3-1.5,3.6s0.5,2.7,1.5,3.6l23.7,23.9c1,1,2.3,1.5,3.6,1.5S31.3,69.5,32.3,68.5z M94.9,68.5l23.7-23.9
      c1-1,1.5-2.3,1.5-3.6s-0.5-2.7-1.5-3.6L94.9,13.5c-2-2-5.2-2-7.2,0c-2,2-2,5.2,0,7.2L107.8,41L87.7,61.3c-2,2-2,5.2,0,7.2
      c1,1,2.3,1.5,3.6,1.5S93.9,69.5,94.9,68.5z"/>
    <path id="g" d="M62.9,14c5,0,8.3,3,8.3,8.3c0,5.2-3.3,8-8.3,8c-4.8,0-8.3-2.7-8.3-8C54.5,17.1,57.8,14,62.9,14 M62.9,3.7
      c-10.7,0-18.5,7.8-18.5,18.5c0,10.6,7.8,18.3,18.5,18.3c5.1,0,9.6-1.7,12.9-4.8c3.5-3.3,5.5-8.1,5.5-13.4c0-5.3-1.9-10.1-5.3-13.5
      C72.6,5.5,68,3.7,62.9,3.7L62.9,3.7z M65.7,56.5c5.6,0,6.4,3.2,6.4,4.4c0,1.5-1.7,6.7-12.9,6.7c-11.2,0-12.5-4.5-12.2-7
      c0.2-1.9,1.9-2.1,2.7-2.1c0.2,0,0.4,0,0.4,0c5.2-0.2,10.2-1.4,10.2-1.4C62.5,56.7,64.2,56.5,65.7,56.5 M65.7,46.3
      c-2.3,0-4.8,0.3-7.6,1c0,0-3.9,0.9-7.8,1.1c-0.2,0-0.3,0-0.5,0c-6.8,0-12,4.6-12.8,11.1c-0.5,4.3,0.8,8.5,3.7,11.8
      c3.9,4.4,10,6.6,18.6,6.6c7.2,0,12.9-1.7,17-5c3.8-3.1,6-7.5,6-11.9C82.2,53.6,76.5,46.3,65.7,46.3L65.7,46.3z"/>
    <clipPath id="clipPath">
      <use xlink:href="#tag"/>
    </clipPath>
  </defs>
  <use xlink:href="#tag" fill="#EF5444"/>
  <use xlink:href="#g" fill="#11A1B7"/>
  <use xlink:href="#g" fill="#FDF0F9" clip-path="url(#clipPath)"/>
</svg>
