<?xml version="1.0" encoding="utf-8"?>
<!-- Generator: Adobe Illustrator 18.1.1, SVG Export Plug-In . SVG Version: 6.00 Build 0)  -->
<!DOCTYPE svg PUBLIC "-//W3C//DTD SVG 1.1//EN" "http://www.w3.org/Graphics/SVG/1.1/DTD/svg11.dtd">
<svg version="1.1" id="Layer_1" xmlns="http://www.w3.org/2000/svg" xmlns:xlink="http://www.w3.org/1999/xlink" x="0px" y="0px"
	 viewBox="0 0 400 300" enable-background="new 0 0 400 300" xml:space="preserve">
<rect fill="#FB5954" width="400" height="300"/>
<path opacity="0.6" d="M135.3,175.4l-23.7,64.4l-2.3-3.7l-0.7-2l-3.4-3.7l-2.6-4.2l-2.4-0.1l-2.9-0.7l-0.3-0.9l1.3-0.6l-0.6-2.9
	l-1.2-1.8l13.6-31.4l-25.4,21.8l-2-2.1h-2.6l-3.4-1.9l-4-1.6l-3.7-0.4l-2.2-2.4l0.4-1.7l1.6-6.3l0.7-1.7v-2.2l-1.4-0.9l-0.1-0.5
	l49.5-38.8l11,16.2L135.3,175.4z M155.4,255l-1-1.6l0.7-1.5l0-0.7l-2-12.5l9.6-4.7l0.3-0.3l2.9-1.5l1.1-0.6l0.7-1.3l-0.8-0.8
	l-0.9-1.3l-0.8-4.8l-2.6-4.7l0.1-2.5l-1.2-1.7l-10.3,4.9l-2.7-24.9l-1.1-1.8l-10.4-15.4l-7.9,21.5l3.6,26.8l-16.2,7.4l-3.2,8.8v0
	l0.3,2.9v8.3l0.4,1.6l3.9,0.6l20.3-12.1l2.3,15.2l12.3,0.9l3.4-0.4l0,0l-0.6-3.6L155.4,255z M106.7,134.1l-11.3-17.4l1.6-6.4
	l6.1-23.1l7.2-27.9l-11-3l-12-3l-11.2-3.7l-6.7-1.8l-10.2-2.6L53,43l-1.4,4.2l-0.1,6.6l-4.6,10.5l-2.7,2.3l-0.3,1l-1.6,0.7L41,72.1
	l-0.7,2.9l2.4,3.7l1.4,3.7l1,3.2l-0.3,5.7l-1.6,2.7L43,96.3l27,2.9l-24.4,10.4l0.2,0.4l2,4.3l1.1,3.6l-0.3,2.9l-0.3,0.4v1.9l5,5.6
	l-0.4,2.2l-0.6,2l-0.4,1.3l19.4-2.1L55,146.7l0.6,0.8l2.4,0.4l0.9,2.4l-1,3.2l-1.9,1.4h-1l-0.7,3.4l0.4,2.6l2.9,3.9l1.4,4.7l1.3,4.2
	l1.1,2.7l3,5.2l1.3,2.3l0.3,2.1l49.5-38.8L106.7,134.1z"/>
<path fill="#FFFFFF" d="M138.8,64.4c-1.5,0-2.6,0.6-3.4,1.7s-1.2,2.7-1.2,4.7c0,4.1,1.6,6.2,4.7,6.2c1.3,0,2.9-0.3,4.7-1v3.3
	c-1.5,0.6-3.2,1-5.1,1c-2.7,0-4.8-0.8-6.2-2.5s-2.1-4-2.1-7.1c0-1.9,0.4-3.6,1.1-5.1s1.7-2.6,3-3.3c1.3-0.8,2.9-1.2,4.6-1.2
	c1.8,0,3.6,0.4,5.4,1.3l-1.3,3.2c-0.7-0.3-1.4-0.6-2.1-0.9S139.4,64.4,138.8,64.4z M159.7,72.9c0,2.3-0.6,4.1-1.8,5.4s-2.9,2-5.1,2
	c-1.4,0-2.6-0.3-3.6-0.9s-1.8-1.5-2.4-2.6s-0.8-2.4-0.8-3.9c0-2.3,0.6-4.1,1.8-5.4s2.9-1.9,5.1-1.9c1.4,0,2.6,0.3,3.6,0.9
	s1.8,1.4,2.4,2.6S159.7,71.4,159.7,72.9z M149.9,72.9c0,1.4,0.2,2.5,0.7,3.2c0.5,0.7,1.2,1.1,2.3,1.1c1,0,1.8-0.4,2.2-1.1
	c0.5-0.7,0.7-1.8,0.7-3.2c0-1.4-0.2-2.5-0.7-3.2s-1.2-1.1-2.2-1.1c-1,0-1.8,0.3-2.2,1S149.9,71.5,149.9,72.9z M166.6,80h-3.9V60.2
	h3.9V80z M174.2,80h-3.9V60.2h3.9V80z M187,80l-0.7-1.9h-0.1c-0.7,0.8-1.3,1.4-2,1.7c-0.7,0.3-1.6,0.5-2.7,0.5
	c-1.4,0-2.4-0.4-3.2-1.2c-0.8-0.8-1.2-1.9-1.2-3.3c0-1.5,0.5-2.6,1.6-3.3c1.1-0.7,2.6-1.1,4.8-1.2l2.5-0.1v-0.6
	c0-1.4-0.7-2.2-2.2-2.2c-1.1,0-2.5,0.3-4,1l-1.3-2.6c1.6-0.9,3.4-1.3,5.4-1.3c1.9,0,3.4,0.4,4.4,1.2s1.5,2.1,1.5,3.8V80H187z
	 M185.9,73.4l-1.5,0.1c-1.1,0-2,0.2-2.5,0.6S181,75,181,75.8c0,1.1,0.6,1.6,1.9,1.6c0.9,0,1.6-0.3,2.2-0.8c0.5-0.5,0.8-1.2,0.8-2.1
	V73.4z M201.3,65.5c1.7,0,3,0.7,3.9,2s1.4,3.1,1.4,5.4c0,2.3-0.5,4.2-1.5,5.4c-1,1.3-2.3,1.9-4,1.9c-1.7,0-3-0.6-3.9-1.8H197
	l-0.6,1.6h-3V60.2h3.9v4.6c0,0.6-0.1,1.5-0.2,2.8h0.2C198.2,66.2,199.5,65.5,201.3,65.5z M200,68.6c-1,0-1.7,0.3-2.1,0.9
	s-0.7,1.6-0.7,2.9v0.4c0,1.5,0.2,2.6,0.7,3.3c0.5,0.7,1.2,1,2.2,1c0.8,0,1.4-0.4,1.9-1.1c0.5-0.7,0.7-1.8,0.7-3.2s-0.2-2.4-0.7-3.1
	S200.9,68.6,200,68.6z M222.7,72.9c0,2.3-0.6,4.1-1.8,5.4s-2.9,2-5.1,2c-1.4,0-2.6-0.3-3.6-0.9s-1.8-1.5-2.4-2.6s-0.8-2.4-0.8-3.9
	c0-2.3,0.6-4.1,1.8-5.4s2.9-1.9,5.1-1.9c1.4,0,2.6,0.3,3.6,0.9s1.8,1.4,2.4,2.6S222.7,71.4,222.7,72.9z M212.9,72.9
	c0,1.4,0.2,2.5,0.7,3.2c0.5,0.7,1.2,1.1,2.3,1.1c1,0,1.8-0.4,2.2-1.1c0.5-0.7,0.7-1.8,0.7-3.2c0-1.4-0.2-2.5-0.7-3.2
	s-1.2-1.1-2.2-1.1c-1,0-1.8,0.3-2.2,1S212.9,71.5,212.9,72.9z M233.6,65.5c0.5,0,1,0,1.3,0.1l-0.3,3.6c-0.3-0.1-0.7-0.1-1.1-0.1
	c-1.2,0-2.2,0.3-2.9,1c-0.7,0.6-1,1.5-1,2.7V80h-3.9V65.8h2.9l0.6,2.4h0.2c0.4-0.8,1-1.4,1.8-1.9C232,65.8,232.8,65.5,233.6,65.5z
	 M246.1,80l-0.7-1.9h-0.1c-0.7,0.8-1.3,1.4-2,1.7c-0.7,0.3-1.6,0.5-2.7,0.5c-1.4,0-2.4-0.4-3.2-1.2c-0.8-0.8-1.2-1.9-1.2-3.3
	c0-1.5,0.5-2.6,1.6-3.3c1.1-0.7,2.6-1.1,4.8-1.2l2.5-0.1v-0.6c0-1.4-0.7-2.2-2.2-2.2c-1.1,0-2.5,0.3-4,1l-1.3-2.6
	c1.6-0.9,3.4-1.3,5.4-1.3c1.9,0,3.4,0.4,4.4,1.2s1.5,2.1,1.5,3.8V80H246.1z M244.9,73.4l-1.5,0.1c-1.1,0-2,0.2-2.5,0.6
	s-0.8,0.9-0.8,1.7c0,1.1,0.6,1.6,1.9,1.6c0.9,0,1.6-0.3,2.2-0.8c0.5-0.5,0.8-1.2,0.8-2.1V73.4z M258.4,77.2c0.7,0,1.5-0.1,2.4-0.4
	v2.9c-1,0.4-2.1,0.6-3.6,0.6c-1.5,0-2.7-0.4-3.4-1.2c-0.7-0.8-1.1-2-1.1-3.5v-6.8H251v-1.6l2.1-1.3l1.1-3h2.5v3h4v2.9h-4v6.8
	c0,0.6,0.2,1,0.5,1.2C257.5,77,257.9,77.2,258.4,77.2z M263.3,62.1c0-1.3,0.7-1.9,2.1-1.9s2.1,0.6,2.1,1.9c0,0.6-0.2,1.1-0.5,1.4
	c-0.4,0.3-0.9,0.5-1.6,0.5C264,64,263.3,63.4,263.3,62.1z M267.4,80h-3.9V65.8h3.9V80z M274.8,80l-5.4-14.2h4l2.7,8.1
	c0.3,1,0.5,2,0.6,2.9h0.1c0-0.8,0.2-1.8,0.6-2.9l2.7-8.1h4L278.8,80H274.8z M292.2,80.3c-2.3,0-4.1-0.6-5.4-1.9s-1.9-3-1.9-5.4
	c0-2.4,0.6-4.2,1.8-5.5c1.2-1.3,2.8-1.9,4.9-1.9c2,0,3.6,0.6,4.7,1.7S298,70,298,72v1.9h-9.2c0,1.1,0.4,2,1,2.6s1.5,0.9,2.6,0.9
	c0.9,0,1.7-0.1,2.4-0.3s1.6-0.5,2.4-0.9v3c-0.7,0.3-1.4,0.6-2.2,0.8S293.3,80.3,292.2,80.3z M291.7,68.3c-0.8,0-1.5,0.3-1.9,0.8
	s-0.7,1.3-0.8,2.2h5.4c0-1-0.3-1.7-0.7-2.2S292.5,68.3,291.7,68.3z M146.3,95.5c0,3.1-0.9,5.4-2.6,7c-1.7,1.6-4.3,2.4-7.5,2.4h-5.3
	V86.4h5.8c3,0,5.4,0.8,7.1,2.4S146.3,92.7,146.3,95.5z M142.2,95.6c0-4-1.8-6-5.3-6h-2.1v12.1h1.7
	C140.3,101.8,142.2,99.7,142.2,95.6z M156.1,105.3c-2.3,0-4.1-0.6-5.4-1.9s-1.9-3-1.9-5.4c0-2.4,0.6-4.2,1.8-5.5
	c1.2-1.3,2.8-1.9,4.9-1.9c2,0,3.6,0.6,4.7,1.7s1.7,2.7,1.7,4.7v1.9h-9.2c0,1.1,0.4,2,1,2.6s1.5,0.9,2.6,0.9c0.9,0,1.7-0.1,2.4-0.3
	s1.6-0.5,2.4-0.9v3c-0.7,0.3-1.4,0.6-2.2,0.8S157.2,105.3,156.1,105.3z M155.5,93.3c-0.8,0-1.5,0.3-1.9,0.8s-0.7,1.3-0.8,2.2h5.4
	c0-1-0.3-1.7-0.7-2.2S156.4,93.3,155.5,93.3z M175,100.8c0,1.5-0.5,2.6-1.5,3.3c-1,0.8-2.5,1.1-4.5,1.1c-1,0-1.9-0.1-2.6-0.2
	s-1.4-0.3-2-0.6v-3.2c0.7,0.3,1.5,0.6,2.4,0.9c0.9,0.2,1.7,0.3,2.4,0.3c1.4,0,2.1-0.4,2.1-1.2c0-0.3-0.1-0.6-0.3-0.7s-0.5-0.4-1-0.6
	s-1.1-0.5-1.8-0.8c-1.1-0.5-1.9-0.9-2.4-1.3c-0.5-0.4-0.9-0.8-1.1-1.3c-0.2-0.5-0.3-1.1-0.3-1.9c0-1.3,0.5-2.2,1.5-2.9
	c1-0.7,2.4-1,4.2-1c1.7,0,3.4,0.4,5,1.1l-1.2,2.8c-0.7-0.3-1.4-0.6-2-0.7s-1.2-0.3-1.9-0.3c-1.1,0-1.7,0.3-1.7,0.9
	c0,0.3,0.2,0.6,0.6,0.9c0.4,0.3,1.2,0.6,2.4,1.1c1.1,0.4,1.9,0.9,2.4,1.3s0.9,0.8,1.1,1.3S175,100.1,175,100.8z M177.7,87.1
	c0-1.3,0.7-1.9,2.1-1.9s2.1,0.6,2.1,1.9c0,0.6-0.2,1.1-0.5,1.4c-0.4,0.3-0.9,0.5-1.6,0.5C178.4,89,177.7,88.4,177.7,87.1z
	 M181.8,105h-3.9V90.8h3.9V105z M198.1,90.8v2l-2.2,0.6c0.4,0.6,0.6,1.3,0.6,2.1c0,1.5-0.5,2.7-1.6,3.6c-1.1,0.9-2.5,1.3-4.4,1.3
	l-0.7,0l-0.6-0.1c-0.4,0.3-0.6,0.6-0.6,1c0,0.6,0.7,0.8,2.1,0.8h2.4c1.6,0,2.7,0.3,3.6,1c0.8,0.7,1.2,1.7,1.2,2.9
	c0,1.7-0.7,2.9-2.1,3.9c-1.4,0.9-3.4,1.4-6,1.4c-2,0-3.5-0.3-4.5-1c-1-0.7-1.6-1.7-1.6-2.9c0-0.9,0.3-1.6,0.8-2.1s1.3-1,2.3-1.2
	c-0.4-0.2-0.7-0.4-1-0.8s-0.4-0.8-0.4-1.2c0-0.5,0.2-1,0.5-1.4s0.8-0.7,1.4-1.1c-0.7-0.3-1.3-0.8-1.8-1.5c-0.4-0.7-0.7-1.5-0.7-2.5
	c0-1.5,0.5-2.7,1.5-3.6s2.4-1.3,4.3-1.3c0.4,0,0.9,0,1.4,0.1c0.5,0.1,0.9,0.1,1,0.2H198.1z M187.1,107c0,0.5,0.3,1,0.8,1.3
	c0.5,0.3,1.2,0.5,2.2,0.5c1.4,0,2.5-0.2,3.3-0.6s1.2-0.9,1.2-1.6c0-0.5-0.2-0.9-0.7-1.1s-1.2-0.3-2.2-0.3h-2c-0.7,0-1.3,0.2-1.8,0.5
	C187.3,106,187.1,106.5,187.1,107z M188.5,95.5c0,0.8,0.2,1.4,0.5,1.8c0.4,0.4,0.9,0.7,1.6,0.7c0.7,0,1.3-0.2,1.6-0.7
	s0.5-1.1,0.5-1.8c0-1.7-0.7-2.6-2.1-2.6C189.2,92.9,188.5,93.7,188.5,95.5z M213.4,105h-3.9v-8.3c0-1-0.2-1.8-0.5-2.3
	s-0.9-0.8-1.7-0.8c-1.1,0-1.9,0.4-2.3,1.1s-0.7,1.9-0.7,3.6v6.7h-3.9V90.8h3l0.5,1.8h0.2c0.4-0.7,1-1.2,1.8-1.6
	c0.8-0.4,1.6-0.5,2.6-0.5c1.7,0,2.9,0.4,3.8,1.3s1.3,2.2,1.3,3.9V105z M223.9,87.1c0-1.3,0.7-1.9,2.1-1.9s2.1,0.6,2.1,1.9
	c0,0.6-0.2,1.1-0.5,1.4c-0.4,0.3-0.9,0.5-1.6,0.5C224.6,89,223.9,88.4,223.9,87.1z M228,105h-3.9V90.8h3.9V105z M244.9,105H241v-8.3
	c0-1-0.2-1.8-0.5-2.3s-0.9-0.8-1.7-0.8c-1.1,0-1.9,0.4-2.3,1.1s-0.7,1.9-0.7,3.6v6.7h-3.9V90.8h3l0.5,1.8h0.2c0.4-0.7,1-1.2,1.8-1.6
	c0.8-0.4,1.6-0.5,2.6-0.5c1.7,0,2.9,0.4,3.8,1.3s1.3,2.2,1.3,3.9V105z M261.6,102.2c0.7,0,1.5-0.1,2.4-0.4v2.9
	c-1,0.4-2.1,0.6-3.6,0.6c-1.5,0-2.7-0.4-3.4-1.2c-0.7-0.8-1.1-2-1.1-3.5v-6.8h-1.9v-1.6l2.1-1.3l1.1-3h2.5v3h4v2.9h-4v6.8
	c0,0.6,0.2,1,0.5,1.2C260.7,102,261.1,102.2,261.6,102.2z M279.8,105h-3.9v-8.3c0-2-0.8-3.1-2.3-3.1c-1.1,0-1.9,0.4-2.3,1.1
	s-0.7,1.9-0.7,3.6v6.7h-3.9V85.2h3.9v4c0,0.3,0,1-0.1,2.2l-0.1,1.1h0.2c0.9-1.4,2.2-2.1,4.1-2.1c1.7,0,2.9,0.4,3.8,1.3
	s1.3,2.2,1.3,3.9V105z M290,105.3c-2.3,0-4.1-0.6-5.4-1.9s-1.9-3-1.9-5.4c0-2.4,0.6-4.2,1.8-5.5c1.2-1.3,2.8-1.9,4.9-1.9
	c2,0,3.6,0.6,4.7,1.7s1.7,2.7,1.7,4.7v1.9h-9.2c0,1.1,0.4,2,1,2.6s1.5,0.9,2.6,0.9c0.9,0,1.7-0.1,2.4-0.3s1.6-0.5,2.4-0.9v3
	c-0.7,0.3-1.4,0.6-2.2,0.8S291.1,105.3,290,105.3z M289.5,93.3c-0.8,0-1.5,0.3-1.9,0.8s-0.7,1.3-0.8,2.2h5.4c0-1-0.3-1.7-0.7-2.2
	S290.3,93.3,289.5,93.3z M322.8,95.7c0,3.1-0.8,5.4-2.3,7.1s-3.7,2.5-6.6,2.5s-5-0.8-6.6-2.5s-2.3-4-2.3-7.1s0.8-5.4,2.3-7.1
	c1.5-1.6,3.7-2.4,6.6-2.4s5,0.8,6.5,2.5C322.1,90.3,322.8,92.6,322.8,95.7z M309.3,95.7c0,2.1,0.4,3.6,1.2,4.7s2,1.6,3.5,1.6
	c3.1,0,4.7-2.1,4.7-6.3c0-4.2-1.6-6.3-4.7-6.3c-1.6,0-2.7,0.5-3.5,1.6S309.3,93.6,309.3,95.7z M334.1,105.3c-1.7,0-3-0.6-3.9-1.8
	H330c0.1,1.2,0.2,1.9,0.2,2.1v5.8h-3.9V90.8h3.1l0.5,1.8h0.2c0.9-1.4,2.2-2.1,4-2.1c1.7,0,3,0.6,3.9,1.9s1.4,3.1,1.4,5.4
	c0,1.5-0.2,2.8-0.7,3.9c-0.4,1.1-1.1,2-1.9,2.6S335.2,105.3,334.1,105.3z M332.9,93.6c-1,0-1.7,0.3-2.1,0.9s-0.7,1.6-0.7,2.9v0.4
	c0,1.5,0.2,2.6,0.7,3.3c0.5,0.7,1.2,1,2.2,1c1.7,0,2.6-1.4,2.6-4.3c0-1.4-0.2-2.4-0.6-3.1C334.5,94,333.8,93.6,332.9,93.6z
	 M349.1,105.3c-2.3,0-4.1-0.6-5.4-1.9s-1.9-3-1.9-5.4c0-2.4,0.6-4.2,1.8-5.5c1.2-1.3,2.8-1.9,4.9-1.9c2,0,3.6,0.6,4.7,1.7
	s1.7,2.7,1.7,4.7v1.9h-9.2c0,1.1,0.4,2,1,2.6s1.5,0.9,2.6,0.9c0.9,0,1.7-0.1,2.4-0.3s1.6-0.5,2.4-0.9v3c-0.7,0.3-1.4,0.6-2.2,0.8
	S350.3,105.3,349.1,105.3z M348.6,93.3c-0.8,0-1.5,0.3-1.9,0.8s-0.7,1.3-0.8,2.2h5.4c0-1-0.3-1.7-0.7-2.2S349.4,93.3,348.6,93.3z
	 M371.1,105h-3.9v-8.3c0-1-0.2-1.8-0.5-2.3s-0.9-0.8-1.7-0.8c-1.1,0-1.9,0.4-2.3,1.1s-0.7,1.9-0.7,3.6v6.7H358V90.8h3l0.5,1.8h0.2
	c0.4-0.7,1-1.2,1.8-1.6c0.8-0.4,1.6-0.5,2.6-0.5c1.7,0,2.9,0.4,3.8,1.3s1.3,2.2,1.3,3.9V105z M138.4,173l-1.6-4.1h-5.2L130,173h-1.5
	l5.1-12.9h1.3l5.1,12.9H138.4z M136.3,167.5l-1.5-4c-0.2-0.5-0.4-1.1-0.6-1.9c-0.1,0.6-0.3,1.2-0.6,1.9l-1.5,4H136.3z M148,171.7
	L148,171.7c-0.8,1-1.8,1.5-3.1,1.5c-1.3,0-2.2-0.4-2.9-1.3s-1-2.1-1-3.7s0.4-2.8,1.1-3.7s1.7-1.3,2.9-1.3c1.3,0,2.3,0.5,3,1.4h0.1
	l-0.1-0.7l0-0.7v-3.9h1.5V173h-1.2L148,171.7z M145.1,171.9c1,0,1.7-0.3,2.2-0.8c0.4-0.5,0.7-1.4,0.7-2.6v-0.3
	c0-1.4-0.2-2.3-0.7-2.9c-0.5-0.6-1.2-0.9-2.2-0.9c-0.9,0-1.5,0.3-2,1s-0.7,1.6-0.7,2.8c0,1.2,0.2,2.2,0.7,2.8
	S144.2,171.9,145.1,171.9z M160.6,168.1c0,1.6-0.4,2.8-1.2,3.7s-1.9,1.3-3.3,1.3c-0.9,0-1.6-0.2-2.3-0.6s-1.2-1-1.5-1.7
	s-0.5-1.6-0.5-2.7c0-1.6,0.4-2.8,1.2-3.7s1.9-1.3,3.3-1.3c1.3,0,2.4,0.4,3.2,1.3S160.6,166.6,160.6,168.1z M153.3,168.1
	c0,1.2,0.2,2.2,0.7,2.8s1.2,1,2.2,1s1.7-0.3,2.2-1c0.5-0.6,0.7-1.6,0.7-2.8c0-1.2-0.2-2.2-0.7-2.8c-0.5-0.6-1.2-1-2.2-1
	c-1,0-1.7,0.3-2.2,0.9S153.3,166.9,153.3,168.1z M167.6,163.2c1.3,0,2.2,0.4,2.9,1.3c0.7,0.9,1,2.1,1,3.7s-0.4,2.8-1.1,3.7
	s-1.7,1.3-2.9,1.3c-0.6,0-1.2-0.1-1.7-0.3c-0.5-0.2-1-0.6-1.3-1.1h-0.1l-0.3,1.2h-1v-13.7h1.5v3.3c0,0.7,0,1.4-0.1,2h0.1
	C165.2,163.6,166.2,163.2,167.6,163.2z M167.4,164.4c-1,0-1.7,0.3-2.2,0.9s-0.7,1.5-0.7,2.9s0.2,2.3,0.7,2.9s1.2,0.9,2.2,0.9
	c0.9,0,1.6-0.3,2-1s0.7-1.6,0.7-2.8c0-1.3-0.2-2.2-0.7-2.8S168.3,164.4,167.4,164.4z M178.2,173.1c-1.4,0-2.5-0.4-3.4-1.3
	c-0.8-0.9-1.2-2.1-1.2-3.6c0-1.6,0.4-2.8,1.1-3.7c0.8-0.9,1.8-1.4,3.1-1.4c1.2,0,2.2,0.4,2.9,1.2s1.1,1.8,1.1,3.1v0.9h-6.6
	c0,1.1,0.3,2,0.9,2.6s1.3,0.9,2.3,0.9c1,0,2.1-0.2,3.1-0.7v1.3c-0.5,0.2-1,0.4-1.5,0.5S178.8,173.1,178.2,173.1z M177.8,164.4
	c-0.8,0-1.4,0.3-1.8,0.8c-0.5,0.5-0.7,1.2-0.8,2.1h5c0-0.9-0.2-1.6-0.6-2.1S178.5,164.4,177.8,164.4z M194.8,173l-4.4-11.4h-0.1
	c0.1,0.9,0.1,2,0.1,3.2v8.2h-1.4v-12.8h2.2l4.1,10.6h0.1l4.1-10.6h2.2V173h-1.5v-8.3c0-0.9,0-2,0.1-3.1h-0.1L196,173H194.8z
	 M213.6,173l-1.6-4.1h-5.2l-1.6,4.1h-1.5l5.1-12.9h1.3l5.1,12.9H213.6z M211.5,167.5l-1.5-4c-0.2-0.5-0.4-1.1-0.6-1.9
	c-0.1,0.6-0.3,1.2-0.6,1.9l-1.5,4H211.5z M226.5,173h-1.7l-3.5-5.7l-3.5,5.7h-1.6l4.3-6.7l-4-6.1h1.7l3.2,5.1l3.2-5.1h1.6l-4,6.1
	L226.5,173z M141.5,184.5c0,2.1-0.5,3.7-1.6,4.9s-2.5,1.8-4.3,1.8c-1.9,0-3.4-0.6-4.4-1.7c-1-1.2-1.5-2.8-1.5-4.9
	c0-2.1,0.5-3.7,1.5-4.9s2.5-1.7,4.4-1.7c1.8,0,3.3,0.6,4.3,1.8S141.5,182.5,141.5,184.5z M131.2,184.5c0,1.7,0.4,3.1,1.1,4
	c0.7,0.9,1.8,1.3,3.2,1.3c1.4,0,2.5-0.4,3.2-1.3s1.1-2.2,1.1-4c0-1.7-0.4-3-1.1-3.9s-1.8-1.3-3.2-1.3c-1.4,0-2.5,0.4-3.2,1.3
	C131.6,181.5,131.2,182.8,131.2,184.5z M148,191.1c-1.4,0-2.5-0.4-3.2-1.3c-0.8-0.9-1.1-2.1-1.1-3.6c0-1.6,0.4-2.9,1.2-3.7
	c0.8-0.9,1.9-1.3,3.3-1.3c0.5,0,0.9,0,1.4,0.1s0.8,0.2,1.1,0.4l-0.4,1.2c-0.3-0.1-0.7-0.2-1.1-0.3s-0.7-0.1-1-0.1
	c-2,0-2.9,1.2-2.9,3.7c0,1.2,0.2,2.1,0.7,2.7s1.2,0.9,2.1,0.9c0.8,0,1.6-0.2,2.5-0.5v1.3C149.7,191,148.9,191.1,148,191.1z
	 M156.3,189.9c0.3,0,0.5,0,0.7-0.1s0.4-0.1,0.6-0.1v1.1c-0.2,0.1-0.4,0.1-0.7,0.2c-0.3,0-0.6,0.1-0.8,0.1c-1.9,0-2.8-1-2.8-2.9v-5.7
	h-1.4v-0.7l1.4-0.6l0.6-2.1h0.8v2.2h2.8v1.1h-2.8v5.7c0,0.6,0.1,1,0.4,1.3S155.8,189.9,156.3,189.9z M167.7,186.1
	c0,1.6-0.4,2.8-1.2,3.7s-1.9,1.3-3.3,1.3c-0.9,0-1.6-0.2-2.3-0.6s-1.2-1-1.5-1.7s-0.5-1.6-0.5-2.7c0-1.6,0.4-2.8,1.2-3.7
	s1.9-1.3,3.3-1.3c1.3,0,2.4,0.4,3.2,1.3S167.7,184.6,167.7,186.1z M160.3,186.1c0,1.2,0.2,2.2,0.7,2.8s1.2,1,2.2,1s1.7-0.3,2.2-1
	c0.5-0.6,0.7-1.6,0.7-2.8c0-1.2-0.2-2.2-0.7-2.8c-0.5-0.6-1.2-1-2.2-1c-1,0-1.7,0.3-2.2,0.9S160.3,184.9,160.3,186.1z M174.6,181.2
	c1.3,0,2.2,0.4,2.9,1.3c0.7,0.9,1,2.1,1,3.7s-0.4,2.8-1.1,3.7s-1.7,1.3-2.9,1.3c-0.6,0-1.2-0.1-1.7-0.3c-0.5-0.2-1-0.6-1.3-1.1h-0.1
	l-0.3,1.2h-1v-13.7h1.5v3.3c0,0.7,0,1.4-0.1,2h0.1C172.3,181.6,173.3,181.2,174.6,181.2z M174.4,182.4c-1,0-1.7,0.3-2.2,0.9
	s-0.7,1.5-0.7,2.9s0.2,2.3,0.7,2.9s1.2,0.9,2.2,0.9c0.9,0,1.6-0.3,2-1s0.7-1.6,0.7-2.8c0-1.3-0.2-2.2-0.7-2.8
	S175.3,182.4,174.4,182.4z M185.2,191.1c-1.4,0-2.5-0.4-3.4-1.3c-0.8-0.9-1.2-2.1-1.2-3.6c0-1.6,0.4-2.8,1.1-3.7
	c0.8-0.9,1.8-1.4,3.1-1.4c1.2,0,2.2,0.4,2.9,1.2s1.1,1.8,1.1,3.1v0.9h-6.6c0,1.1,0.3,2,0.9,2.6s1.3,0.9,2.3,0.9c1,0,2.1-0.2,3.1-0.7
	v1.3c-0.5,0.2-1,0.4-1.5,0.5S185.8,191.1,185.2,191.1z M184.8,182.4c-0.8,0-1.4,0.3-1.8,0.8c-0.5,0.5-0.7,1.2-0.8,2.1h5
	c0-0.9-0.2-1.6-0.6-2.1S185.6,182.4,184.8,182.4z M195.5,181.1c0.4,0,0.8,0,1.2,0.1l-0.2,1.4c-0.4-0.1-0.8-0.1-1.1-0.1
	c-0.8,0-1.4,0.3-2,0.9c-0.6,0.6-0.8,1.4-0.8,2.4v5.2h-1.5v-9.6h1.2l0.2,1.8h0.1c0.4-0.6,0.8-1.1,1.3-1.5S194.9,181.1,195.5,181.1z
	 M210.9,191h-8.4v-1.3l3.4-3.4c1-1,1.7-1.8,2-2.2s0.6-0.9,0.7-1.3s0.2-0.9,0.2-1.4c0-0.7-0.2-1.2-0.6-1.6s-1-0.6-1.7-0.6
	c-0.5,0-1,0.1-1.5,0.3s-1,0.5-1.6,1l-0.8-1c1.2-1,2.5-1.5,3.9-1.5c1.2,0,2.2,0.3,2.8,0.9s1,1.4,1,2.5c0,0.8-0.2,1.6-0.7,2.4
	s-1.3,1.8-2.6,3l-2.8,2.8v0.1h6.6V191z M221.1,184.5c0,2.2-0.4,3.9-1,5c-0.7,1.1-1.8,1.6-3.2,1.6c-1.4,0-2.4-0.6-3.2-1.7
	s-1.1-2.8-1.1-4.9c0-2.2,0.3-3.9,1-5s1.8-1.6,3.2-1.6c1.4,0,2.5,0.6,3.2,1.7C220.7,180.7,221.1,182.4,221.1,184.5z M214,184.5
	c0,1.9,0.2,3.2,0.7,4.1s1.1,1.3,2.1,1.3c1,0,1.7-0.4,2.1-1.3s0.7-2.2,0.7-4.1s-0.2-3.2-0.7-4.1s-1.1-1.3-2.1-1.3
	c-1,0-1.7,0.4-2.1,1.3S214,182.6,214,184.5z M227.8,191h-1.4v-9.2c0-0.8,0-1.5,0.1-2.2c-0.1,0.1-0.3,0.3-0.4,0.4s-0.8,0.7-2.1,1.7
	l-0.8-1l3.4-2.6h1.2V191z M240.6,188h-1.9v3h-1.4v-3h-6.2v-1.3l6.1-8.7h1.5v8.6h1.9V188z M237.3,186.7v-4.3c0-0.8,0-1.8,0.1-2.8
	h-0.1c-0.3,0.6-0.5,1-0.8,1.4l-4,5.7H237.3z M130.3,209v-12.8h1.5v11.5h5.7v1.4H130.3z M147.6,204.1c0,1.6-0.4,2.8-1.2,3.7
	s-1.9,1.3-3.3,1.3c-0.9,0-1.6-0.2-2.3-0.6s-1.2-1-1.5-1.7s-0.5-1.6-0.5-2.7c0-1.6,0.4-2.8,1.2-3.7s1.9-1.3,3.3-1.3
	c1.3,0,2.4,0.4,3.2,1.3S147.6,202.6,147.6,204.1z M140.3,204.1c0,1.2,0.2,2.2,0.7,2.8s1.2,1,2.2,1s1.7-0.3,2.2-1
	c0.5-0.6,0.7-1.6,0.7-2.8c0-1.2-0.2-2.2-0.7-2.8c-0.5-0.6-1.2-1-2.2-1c-1,0-1.7,0.3-2.2,0.9S140.3,202.9,140.3,204.1z M156.3,206.3
	c0,0.9-0.3,1.6-1,2.1s-1.6,0.7-2.8,0.7c-1.3,0-2.3-0.2-3-0.6v-1.4c0.5,0.2,1,0.4,1.5,0.6s1,0.2,1.5,0.2c0.8,0,1.3-0.1,1.8-0.4
	s0.6-0.6,0.6-1.1c0-0.4-0.2-0.7-0.5-1c-0.3-0.3-1-0.6-1.9-0.9c-0.9-0.3-1.5-0.6-1.9-0.9c-0.4-0.2-0.7-0.5-0.8-0.8
	c-0.2-0.3-0.3-0.7-0.3-1.1c0-0.8,0.3-1.4,1-1.9s1.5-0.7,2.6-0.7c1,0,2.1,0.2,3,0.6l-0.5,1.2c-1-0.4-1.8-0.6-2.6-0.6
	c-0.7,0-1.2,0.1-1.6,0.3s-0.5,0.5-0.5,0.9c0,0.3,0.1,0.5,0.2,0.7c0.1,0.2,0.3,0.4,0.6,0.5s0.9,0.4,1.7,0.7c1.1,0.4,1.9,0.8,2.3,1.3
	S156.3,205.7,156.3,206.3z M171.6,209l-1.6-4.1h-5.2l-1.6,4.1h-1.5l5.1-12.9h1.3l5.1,12.9H171.6z M169.6,203.5l-1.5-4
	c-0.2-0.5-0.4-1.1-0.6-1.9c-0.1,0.6-0.3,1.2-0.6,1.9l-1.5,4H169.6z M181.6,209v-6.2c0-0.8-0.2-1.4-0.5-1.8s-0.9-0.6-1.7-0.6
	c-1,0-1.7,0.3-2.2,0.8s-0.7,1.4-0.7,2.7v5.1H175v-9.6h1.2l0.2,1.3h0.1c0.3-0.5,0.7-0.8,1.3-1.1s1.1-0.4,1.8-0.4c1.2,0,2,0.3,2.6,0.8
	s0.9,1.5,0.9,2.7v6.3H181.6z M193.8,199.3v0.9l-1.8,0.2c0.2,0.2,0.3,0.5,0.4,0.8s0.2,0.7,0.2,1.1c0,0.9-0.3,1.7-1,2.3
	s-1.5,0.8-2.7,0.8c-0.3,0-0.6,0-0.8-0.1c-0.6,0.3-0.9,0.7-0.9,1.2c0,0.3,0.1,0.5,0.3,0.6s0.6,0.2,1.1,0.2h1.7c1,0,1.8,0.2,2.4,0.7
	c0.6,0.4,0.8,1.1,0.8,1.9c0,1.1-0.4,1.9-1.3,2.4s-2.1,0.8-3.7,0.8c-1.3,0-2.2-0.2-2.9-0.7c-0.7-0.5-1-1.1-1-2c0-0.6,0.2-1.1,0.6-1.5
	s0.9-0.7,1.6-0.9c-0.2-0.1-0.5-0.3-0.6-0.5c-0.2-0.2-0.2-0.5-0.2-0.8c0-0.4,0.1-0.7,0.3-0.9s0.5-0.5,0.9-0.8c-0.5-0.2-0.9-0.6-1.2-1
	s-0.5-1.1-0.5-1.7c0-1.1,0.3-1.9,0.9-2.4s1.5-0.9,2.7-0.9c0.5,0,1,0.1,1.4,0.2H193.8z M186.1,210.6c0,0.5,0.2,0.9,0.7,1.2
	s1.1,0.4,1.9,0.4c1.2,0,2.1-0.2,2.7-0.5c0.6-0.4,0.9-0.9,0.9-1.5c0-0.5-0.2-0.9-0.5-1.1s-0.9-0.3-1.8-0.3h-1.7
	c-0.7,0-1.2,0.2-1.5,0.5S186.1,210,186.1,210.6z M186.9,202.4c0,0.7,0.2,1.2,0.6,1.5s0.9,0.5,1.6,0.5c1.4,0,2.1-0.7,2.1-2.1
	c0-1.4-0.7-2.2-2.2-2.2c-0.7,0-1.2,0.2-1.6,0.6S186.9,201.7,186.9,202.4z M199.5,209.1c-1.4,0-2.5-0.4-3.4-1.3
	c-0.8-0.9-1.2-2.1-1.2-3.6c0-1.6,0.4-2.8,1.1-3.7c0.8-0.9,1.8-1.4,3.1-1.4c1.2,0,2.2,0.4,2.9,1.2s1.1,1.8,1.1,3.1v0.9h-6.6
	c0,1.1,0.3,2,0.9,2.6s1.3,0.9,2.3,0.9c1,0,2.1-0.2,3.1-0.7v1.3c-0.5,0.2-1,0.4-1.5,0.5S200.1,209.1,199.5,209.1z M199.1,200.4
	c-0.8,0-1.4,0.3-1.8,0.8c-0.5,0.5-0.7,1.2-0.8,2.1h5c0-0.9-0.2-1.6-0.6-2.1S199.9,200.4,199.1,200.4z M206.9,209h-1.5v-13.7h1.5V209
	z M214,209.1c-1.4,0-2.5-0.4-3.4-1.3c-0.8-0.9-1.2-2.1-1.2-3.6c0-1.6,0.4-2.8,1.1-3.7c0.8-0.9,1.8-1.4,3.1-1.4
	c1.2,0,2.2,0.4,2.9,1.2s1.1,1.8,1.1,3.1v0.9h-6.6c0,1.1,0.3,2,0.9,2.6s1.3,0.9,2.3,0.9c1,0,2.1-0.2,3.1-0.7v1.3
	c-0.5,0.2-1,0.4-1.5,0.5S214.6,209.1,214,209.1z M213.6,200.4c-0.8,0-1.4,0.3-1.8,0.8c-0.5,0.5-0.7,1.2-0.8,2.1h5
	c0-0.9-0.2-1.6-0.6-2.1S214.3,200.4,213.6,200.4z M226.2,206.3c0,0.9-0.3,1.6-1,2.1s-1.6,0.7-2.8,0.7c-1.3,0-2.3-0.2-3-0.6v-1.4
	c0.5,0.2,1,0.4,1.5,0.6s1,0.2,1.5,0.2c0.8,0,1.3-0.1,1.8-0.4s0.6-0.6,0.6-1.1c0-0.4-0.2-0.7-0.5-1c-0.3-0.3-1-0.6-1.9-0.9
	c-0.9-0.3-1.5-0.6-1.9-0.9c-0.4-0.2-0.7-0.5-0.8-0.8c-0.2-0.3-0.3-0.7-0.3-1.1c0-0.8,0.3-1.4,1-1.9s1.5-0.7,2.6-0.7
	c1,0,2.1,0.2,3,0.6l-0.5,1.2c-1-0.4-1.8-0.6-2.6-0.6c-0.7,0-1.2,0.1-1.6,0.3s-0.5,0.5-0.5,0.9c0,0.3,0.1,0.5,0.2,0.7
	c0.1,0.2,0.3,0.4,0.6,0.5s0.9,0.4,1.7,0.7c1.1,0.4,1.9,0.8,2.3,1.3S226.2,205.7,226.2,206.3z M230.3,206.9l0.1,0.2
	c-0.2,0.6-0.4,1.3-0.7,2s-0.6,1.5-0.9,2.2h-1.1c0.2-0.6,0.3-1.4,0.5-2.3s0.3-1.6,0.4-2.2H230.3z M243.6,197.3
	c-1.4,0-2.5,0.5-3.3,1.4c-0.8,0.9-1.2,2.2-1.2,3.9c0,1.7,0.4,3,1.2,3.9c0.8,0.9,1.9,1.4,3.4,1.4c0.9,0,1.9-0.2,3.1-0.5v1.3
	c-0.9,0.3-2,0.5-3.3,0.5c-1.9,0-3.4-0.6-4.4-1.7c-1-1.1-1.5-2.8-1.5-4.9c0-1.3,0.2-2.5,0.7-3.5c0.5-1,1.2-1.8,2.1-2.3
	c0.9-0.5,2-0.8,3.3-0.8c1.3,0,2.5,0.2,3.5,0.7l-0.6,1.3C245.5,197.5,244.5,197.3,243.6,197.3z M258,209l-1.6-4.1h-5.2l-1.6,4.1h-1.5
	l5.1-12.9h1.3l5.1,12.9H258z M256,203.5l-1.5-4c-0.2-0.5-0.4-1.1-0.6-1.9c-0.1,0.6-0.3,1.2-0.6,1.9l-1.5,4H256z M138.4,131.2
	l-1.6-4.1h-5.2l-1.6,4.1h-1.5l5.1-12.9h1.3l5.1,12.9H138.4z M136.3,125.7l-1.5-4c-0.2-0.5-0.4-1.1-0.6-1.9c-0.1,0.6-0.3,1.2-0.6,1.9
	l-1.5,4H136.3z M149.3,130.1c0.3,0,0.5,0,0.7-0.1s0.4-0.1,0.6-0.1v1.1c-0.2,0.1-0.4,0.1-0.7,0.2c-0.3,0-0.6,0.1-0.8,0.1
	c-1.9,0-2.8-1-2.8-2.9v-5.7h-1.4V122l1.4-0.6l0.6-2.1h0.8v2.2h2.8v1.1h-2.8v5.7c0,0.6,0.1,1,0.4,1.3S148.8,130.1,149.3,130.1z
	 M158.7,131.2l-0.3-1.4h-0.1c-0.5,0.6-1,1-1.4,1.2c-0.5,0.2-1.1,0.3-1.8,0.3c-1,0-1.7-0.2-2.2-0.7s-0.8-1.2-0.8-2.1
	c0-1.9,1.6-3,4.7-3.1l1.6-0.1v-0.6c0-0.8-0.2-1.3-0.5-1.7c-0.3-0.4-0.8-0.5-1.6-0.5c-0.8,0-1.7,0.2-2.7,0.7l-0.4-1.1
	c0.5-0.3,1-0.5,1.6-0.6s1.1-0.2,1.7-0.2c1.1,0,2,0.3,2.6,0.8c0.6,0.5,0.8,1.3,0.8,2.5v6.6H158.7z M155.4,130.1
	c0.9,0,1.6-0.2,2.1-0.7c0.5-0.5,0.8-1.2,0.8-2.1v-0.9l-1.5,0.1c-1.2,0-2,0.2-2.5,0.5c-0.5,0.3-0.8,0.8-0.8,1.5
	c0,0.5,0.2,0.9,0.5,1.2S154.8,130.1,155.4,130.1z M164.1,131.2h-1.5v-13.7h1.5V131.2z M168.5,126.2c0.3-0.4,0.6-0.8,1.2-1.4l3.1-3.3
	h1.7l-3.9,4.1l4.2,5.5H173l-3.4-4.6l-1.1,0.9v3.6H167v-13.7h1.4v7.3C168.5,125.1,168.4,125.6,168.5,126.2L168.5,126.2z M185.6,121.4
	c1.3,0,2.2,0.4,2.9,1.3c0.7,0.9,1,2.1,1,3.7s-0.4,2.8-1.1,3.7s-1.7,1.3-2.9,1.3c-0.6,0-1.2-0.1-1.7-0.3c-0.5-0.2-1-0.6-1.3-1.1h-0.1
	l-0.3,1.2h-1v-13.7h1.5v3.3c0,0.7,0,1.4-0.1,2h0.1C183.3,121.8,184.3,121.4,185.6,121.4z M185.4,122.6c-1,0-1.7,0.3-2.2,0.9
	s-0.7,1.5-0.7,2.9s0.2,2.3,0.7,2.9s1.2,0.9,2.2,0.9c0.9,0,1.6-0.3,2-1s0.7-1.6,0.7-2.8c0-1.3-0.2-2.2-0.7-2.8
	S186.3,122.6,185.4,122.6z M190.5,121.5h1.6l2.1,5.5c0.5,1.3,0.8,2.2,0.9,2.7h0.1c0.1-0.3,0.2-0.8,0.5-1.5s1-2.9,2.4-6.7h1.6
	l-4.1,11c-0.4,1.1-0.9,1.9-1.4,2.3c-0.5,0.5-1.2,0.7-2,0.7c-0.4,0-0.9,0-1.3-0.1v-1.2c0.3,0.1,0.7,0.1,1.1,0.1c1,0,1.7-0.6,2.1-1.7
	l0.5-1.4L190.5,121.5z M211.7,124.4h4.4v6.2c-0.7,0.2-1.4,0.4-2.1,0.5s-1.5,0.2-2.4,0.2c-1.9,0-3.5-0.6-4.5-1.7s-1.6-2.8-1.6-4.9
	c0-1.3,0.3-2.5,0.8-3.5c0.5-1,1.3-1.8,2.3-2.3s2.2-0.8,3.5-0.8c1.4,0,2.6,0.3,3.8,0.8l-0.6,1.3c-1.2-0.5-2.3-0.7-3.3-0.7
	c-1.6,0-2.8,0.5-3.7,1.4s-1.3,2.2-1.3,3.9c0,1.7,0.4,3,1.3,3.9c0.8,0.9,2.1,1.3,3.7,1.3c0.9,0,1.8-0.1,2.6-0.3v-4h-2.9V124.4z
	 M224.8,131.2l-0.3-1.4h-0.1c-0.5,0.6-1,1-1.4,1.2c-0.5,0.2-1.1,0.3-1.8,0.3c-1,0-1.7-0.2-2.2-0.7s-0.8-1.2-0.8-2.1
	c0-1.9,1.6-3,4.7-3.1l1.6-0.1v-0.6c0-0.8-0.2-1.3-0.5-1.7c-0.3-0.4-0.8-0.5-1.6-0.5c-0.8,0-1.7,0.2-2.7,0.7l-0.4-1.1
	c0.5-0.3,1-0.5,1.6-0.6s1.1-0.2,1.7-0.2c1.1,0,2,0.3,2.6,0.8c0.6,0.5,0.8,1.3,0.8,2.5v6.6H224.8z M221.5,130.1
	c0.9,0,1.6-0.2,2.1-0.7c0.5-0.5,0.8-1.2,0.8-2.1v-0.9l-1.5,0.1c-1.2,0-2,0.2-2.5,0.5c-0.5,0.3-0.8,0.8-0.8,1.5
	c0,0.5,0.2,0.9,0.5,1.2S220.9,130.1,221.5,130.1z M233.1,121.4c0.4,0,0.8,0,1.2,0.1l-0.2,1.4c-0.4-0.1-0.8-0.1-1.1-0.1
	c-0.8,0-1.4,0.3-2,0.9c-0.6,0.6-0.8,1.4-0.8,2.4v5.2h-1.5v-9.6h1.2l0.2,1.8h0.1c0.4-0.6,0.8-1.1,1.3-1.5S232.5,121.4,233.1,121.4z
	 M239.9,130.1c0.3,0,0.5,0,0.7-0.1s0.4-0.1,0.6-0.1v1.1c-0.2,0.1-0.4,0.1-0.7,0.2c-0.3,0-0.6,0.1-0.8,0.1c-1.9,0-2.8-1-2.8-2.9v-5.7
	h-1.4V122l1.4-0.6l0.6-2.1h0.8v2.2h2.8v1.1h-2.8v5.7c0,0.6,0.1,1,0.4,1.3S239.4,130.1,239.9,130.1z M249.8,131.2v-6.2
	c0-0.8-0.2-1.4-0.5-1.8s-0.9-0.6-1.7-0.6c-1,0-1.8,0.3-2.2,0.8c-0.5,0.6-0.7,1.5-0.7,2.7v5h-1.5v-13.7h1.5v4.1c0,0.5,0,0.9-0.1,1.2
	h0.1c0.3-0.5,0.7-0.8,1.2-1.1c0.5-0.3,1.1-0.4,1.8-0.4c1.2,0,2.1,0.3,2.7,0.8c0.6,0.6,0.9,1.4,0.9,2.7v6.3H249.8z M259.1,118.3h3.6
	c1.7,0,2.9,0.3,3.7,0.8s1.1,1.3,1.1,2.4c0,0.8-0.2,1.4-0.6,1.9s-1,0.8-1.9,1v0.1c2,0.3,2.9,1.4,2.9,3.1c0,1.1-0.4,2-1.2,2.7
	c-0.8,0.6-1.9,1-3.3,1h-4.5V118.3z M260.6,123.8h2.5c1.1,0,1.8-0.2,2.3-0.5s0.7-0.9,0.7-1.7c0-0.7-0.3-1.2-0.8-1.6s-1.3-0.5-2.5-0.5
	h-2.2V123.8z M260.6,125.1v4.8h2.7c1,0,1.8-0.2,2.3-0.6s0.8-1,0.8-1.9c0-0.8-0.3-1.4-0.8-1.8c-0.5-0.4-1.4-0.6-2.4-0.6H260.6z
	 M275,121.4c0.4,0,0.8,0,1.2,0.1l-0.2,1.4c-0.4-0.1-0.8-0.1-1.1-0.1c-0.8,0-1.4,0.3-2,0.9c-0.6,0.6-0.8,1.4-0.8,2.4v5.2h-1.5v-9.6
	h1.2l0.2,1.8h0.1c0.4-0.6,0.8-1.1,1.3-1.5S274.4,121.4,275,121.4z M283.7,131.2l-0.3-1.4h-0.1c-0.5,0.6-1,1-1.4,1.2
	c-0.5,0.2-1.1,0.3-1.8,0.3c-1,0-1.7-0.2-2.2-0.7s-0.8-1.2-0.8-2.1c0-1.9,1.6-3,4.7-3.1l1.6-0.1v-0.6c0-0.8-0.2-1.3-0.5-1.7
	c-0.3-0.4-0.8-0.5-1.6-0.5c-0.8,0-1.7,0.2-2.7,0.7l-0.4-1.1c0.5-0.3,1-0.5,1.6-0.6s1.1-0.2,1.7-0.2c1.1,0,2,0.3,2.6,0.8
	c0.6,0.5,0.8,1.3,0.8,2.5v6.6H283.7z M280.4,130.1c0.9,0,1.6-0.2,2.1-0.7c0.5-0.5,0.8-1.2,0.8-2.1v-0.9l-1.5,0.1
	c-1.2,0-2,0.2-2.5,0.5c-0.5,0.3-0.8,0.8-0.8,1.5c0,0.5,0.2,0.9,0.5,1.2S279.8,130.1,280.4,130.1z M287.5,118.9
	c0-0.3,0.1-0.6,0.2-0.7s0.4-0.2,0.6-0.2c0.2,0,0.4,0.1,0.6,0.2s0.3,0.4,0.3,0.7s-0.1,0.6-0.3,0.7s-0.4,0.2-0.6,0.2
	c-0.2,0-0.5-0.1-0.6-0.2S287.5,119.2,287.5,118.9z M289.1,131.2h-1.5v-9.6h1.5V131.2z M295.4,130.1c0.3,0,0.5,0,0.7-0.1
	s0.4-0.1,0.6-0.1v1.1c-0.2,0.1-0.4,0.1-0.7,0.2c-0.3,0-0.6,0.1-0.8,0.1c-1.9,0-2.8-1-2.8-2.9v-5.7H291V122l1.4-0.6l0.6-2.1h0.8v2.2
	h2.8v1.1h-2.8v5.7c0,0.6,0.1,1,0.4,1.3S294.9,130.1,295.4,130.1z M305.2,131.2v-6.2c0-0.8-0.2-1.4-0.5-1.8s-0.9-0.6-1.7-0.6
	c-1,0-1.8,0.3-2.2,0.8c-0.5,0.6-0.7,1.5-0.7,2.7v5h-1.5v-13.7h1.5v4.1c0,0.5,0,0.9-0.1,1.2h0.1c0.3-0.5,0.7-0.8,1.2-1.1
	c0.5-0.3,1.1-0.4,1.8-0.4c1.2,0,2.1,0.3,2.7,0.8c0.6,0.6,0.9,1.4,0.9,2.7v6.3H305.2z M317.4,131.2l-1.8-5.7
	c-0.1-0.3-0.3-1.1-0.6-2.4H315c-0.2,1-0.4,1.8-0.6,2.4l-1.8,5.6h-1.7l-2.6-9.6h1.5c0.6,2.4,1.1,4.3,1.4,5.5c0.3,1.3,0.5,2.1,0.6,2.6
	h0.1c0.1-0.3,0.2-0.8,0.3-1.3c0.1-0.5,0.3-1,0.4-1.3l1.8-5.5h1.6l1.7,5.5c0.3,1,0.6,1.9,0.7,2.5h0.1c0-0.2,0.1-0.5,0.2-1
	s0.7-2.8,1.8-7.1h1.5l-2.7,9.6H317.4z M329.4,131.2l-0.3-1.4H329c-0.5,0.6-1,1-1.4,1.2c-0.5,0.2-1.1,0.3-1.8,0.3
	c-1,0-1.7-0.2-2.2-0.7s-0.8-1.2-0.8-2.1c0-1.9,1.6-3,4.7-3.1l1.6-0.1v-0.6c0-0.8-0.2-1.3-0.5-1.7c-0.3-0.4-0.8-0.5-1.6-0.5
	c-0.8,0-1.7,0.2-2.7,0.7l-0.4-1.1c0.5-0.3,1-0.5,1.6-0.6s1.1-0.2,1.7-0.2c1.1,0,2,0.3,2.6,0.8c0.6,0.5,0.8,1.3,0.8,2.5v6.6H329.4z
	 M326.1,130.1c0.9,0,1.6-0.2,2.1-0.7c0.5-0.5,0.8-1.2,0.8-2.1v-0.9l-1.5,0.1c-1.2,0-2,0.2-2.5,0.5c-0.5,0.3-0.8,0.8-0.8,1.5
	c0,0.5,0.2,0.9,0.5,1.2S325.5,130.1,326.1,130.1z M333.2,118.9c0-0.3,0.1-0.6,0.2-0.7s0.4-0.2,0.6-0.2c0.2,0,0.4,0.1,0.6,0.2
	s0.3,0.4,0.3,0.7s-0.1,0.6-0.3,0.7s-0.4,0.2-0.6,0.2c-0.2,0-0.5-0.1-0.6-0.2S333.2,119.2,333.2,118.9z M334.8,131.2h-1.5v-9.6h1.5
	V131.2z M341,130.1c0.3,0,0.5,0,0.7-0.1s0.4-0.1,0.6-0.1v1.1c-0.2,0.1-0.4,0.1-0.7,0.2c-0.3,0-0.6,0.1-0.8,0.1c-1.9,0-2.8-1-2.8-2.9
	v-5.7h-1.4V122l1.4-0.6l0.6-2.1h0.8v2.2h2.8v1.1h-2.8v5.7c0,0.6,0.1,1,0.4,1.3S340.5,130.1,341,130.1z M348.1,131.3
	c-1.4,0-2.5-0.4-3.4-1.3c-0.8-0.9-1.2-2.1-1.2-3.6c0-1.6,0.4-2.8,1.1-3.7c0.8-0.9,1.8-1.4,3.1-1.4c1.2,0,2.2,0.4,2.9,1.2
	s1.1,1.8,1.1,3.1v0.9h-6.6c0,1.1,0.3,2,0.9,2.6s1.3,0.9,2.3,0.9c1,0,2.1-0.2,3.1-0.7v1.3c-0.5,0.2-1,0.4-1.5,0.5
	S348.8,131.3,348.1,131.3z M347.8,122.6c-0.8,0-1.4,0.3-1.8,0.8c-0.5,0.5-0.7,1.2-0.8,2.1h5c0-0.9-0.2-1.6-0.6-2.1
	S348.5,122.6,347.8,122.6z"/>
</svg>
