<?xml version="1.0" encoding="utf-8"?>
<!-- Generator: Adobe Illustrator 18.1.1, SVG Export Plug-In . SVG Version: 6.00 Build 0)  -->
<!DOCTYPE svg PUBLIC "-//W3C//DTD SVG 1.1//EN" "http://www.w3.org/Graphics/SVG/1.1/DTD/svg11.dtd">
<svg version="1.1" id="Layer_1" xmlns="http://www.w3.org/2000/svg" xmlns:xlink="http://www.w3.org/1999/xlink" x="0px" y="0px"
	 width="800px" height="560px" viewBox="0 0 800 560" enable-background="new 0 0 800 560" xml:space="preserve">
<path fill="none" stroke="#CCCCCC" stroke-width="2" stroke-miterlimit="10" d="M255.4,69c40.2-27.3,88.8-43.3,141.1-43.3
	c110.1,0,203.7,70.9,237.7,169.5"/>
<path fill="none" stroke="#CCCCCC" stroke-width="2" stroke-miterlimit="10" d="M145.2,277c0-55.1,17.8-106.1,47.8-147.5"/>
<path fill="none" stroke="#CCCCCC" stroke-width="2" stroke-miterlimit="10" d="M642.2,329.9c-24.3,113.4-125.1,198.4-245.7,198.4
	c-45.7,0-88.5-12.2-125.4-33.5"/>
<g>
	<path fill="#963969" d="M533.7,425c-0.2-0.2-0.2-0.6-0.3-1c-0.3-1.5-0.8-2.9-1.6-4.3c-0.5-0.9-0.7-2.1-0.7-3.1
		c0-1.5-0.8-2.4-1.9-2.8c-1.7-0.6-2.7-1.8-3.6-3.1c-0.7-1-1.5-1.9-2.5-2.5c-0.9-0.6-1.7-1.3-1.7-2.5c-0.1-0.1-0.3-0.2-0.4-0.3
		c-1.7,0.2-2.5-0.7-2.7-2.7c-0.3-0.2-0.7-0.3-1-0.5c-0.4,0-0.9-0.1-1.3-0.1c0.1-0.2,0.1-0.4,0.2-0.7c-0.7-1.1-2.1-1.2-3.1-1.8
		c-1.4-0.8-2.8-1.8-4.3-2.5c-3.4-1.8-7-3.4-10.4-5.2c-2-1.1-4-2.2-5.8-3.5c-2.2-1.5-4.5-3-7.3-3.1c-0.3,0-0.7,0-1-0.2
		c-1.7-1.2-3.8-1-5.5-1.8c-1.2-0.5-2.3-0.6-3.6-0.4c-0.8,0.1-1.3,0-2.1-0.4c-1-0.6-2-1.4-3.3-1.3c-1.3,0.1-2.5,0-3.8,0
		c-0.9,0-1.8,0-2.6,0c-1.5,0-2.9,0.1-4.3-0.1c-2.1-0.3-4.1-1.5-6.4-1.2c-1.1,0.1-2.3-0.2-3.4,0.1c-2.3,0.6-3.9-0.8-5.8-1.5
		c-0.4-0.1-0.7-0.7-0.9-1.1c-0.5-0.8-1-1.6-1.4-2.5c-1.4-2.8-2.8-5.5-4.2-8.3c-1.5-0.5-1.6-0.8-0.9-2.1c-0.2-0.7-0.4-1.3-0.6-2
		c-0.2-0.1-0.6-0.2-0.7-0.3c-0.3-1.6-0.5-3.2-0.8-4.8c0,0,0.2-0.1,0.3-0.1c-0.1-0.3-0.1-0.5-0.2-0.8c-1.8-0.4-1-1.7-1-2.5
		c-0.7-0.9-1.6-1.5-1.7-2.2c-0.1-0.6,0.7-1.4,1.3-2.3c-0.6-1.2-1.1-2.8,0.5-4c-0.4-0.3-0.9-0.6-1.4-0.9c-0.3,1-0.8,1.4-2,1
		c-1.2-0.4-2.4-0.6-3.4-1.5c-0.3-0.3-1-0.2-1.5-0.4c-1.4-0.5-2.7-1-4.6-1.7c-1.5,0.2-3.3,1-4.9,2.6c-1.2,1.2-3.6,0.6-4.7-0.9
		c-0.3,0.1-0.5,0.1-0.8,0.2c-0.7,1-0.9,1-1.8,0.1c-0.4-0.1-0.8-0.1-1.2-0.2c-0.7-0.2-1.5-0.4-2.5-0.6c0.7-1,1.1-1.6,1.6-2.2
		c0.1-1.5-0.7-2.3-1.8-3.1c-0.5-0.3-1-0.7-1.5-1c-0.5,0.6-1,1.3-1.6,1.9c0,0.5,0.1,1-0.1,1.4c-0.2,0.4-0.6,0.6-0.9,0.9
		c-0.3-0.3-0.7-0.6-0.8-1c-0.2-1.6-0.9-2.9-1.9-4.1c-0.4-0.1-0.8-0.1-1.2-0.2c-0.7,0.6-1.4,1.3-2.1,1.9c-1.6,1.7-1.8,4.4-0.5,6.3
		c0.4,0.6,0.5,1.2,0.3,1.9c-0.6,1.8-1.1,3.6-1.8,5.3c-1.5,3.8-3.1,7.5-4.7,11.2c-0.1,0.3-0.4,0.6-0.9,1.3c-0.4-0.9-0.6-1.4-0.8-2
		c-0.7-2.3-1.9-3.9-4.2-4.8c-1.8-0.7-3.4-1.7-5.1-2.5c-2.1-1-3.5-2.8-4.3-4.9c-0.7-2.1-2.3-3.4-3.5-5c-0.8,0.3-1.3,0.6-1.9,0.7
		c-0.9,0.2-1.4,0.7-1.7,1.5c-0.5,1.4-1.4,1.9-3,1.7c-2-0.2-3.5,1.2-4.8,2.6c-0.5,0.6-0.9,1.3-1.3,1.9c-0.3,0-0.5,0-0.5-0.1
		c-1.6-1.6-3.1-5-2-7.4c0.2-0.4,0.7-0.7,1.2-1c0.8-0.5,1.8-0.7,2.2-1.6c0.1-0.2,0.4-0.4,0.7-0.5c2.9-0.8,5.1-2.9,7.8-4.2
		c1-0.5,1.7-1.9,2.5-2.8c0.3-0.4,0.5-0.9,0.8-1.1c2.8-1.1,4.5-3.6,6.6-5.4c0.2-0.2,0.4-0.5,0.6-0.8c0.8-1.1,1.6-2.2,2.3-3.3
		c0.5-0.8,1-1.7,1.5-2.6c1.4-2.9,2.9-5.7,4.3-8.6c0.3-0.7,0.5-1.4,0.7-2.1c0.4-1.4,0.7-2.9,1.1-4.3c0.2-0.7,0.5-1.4,0.7-2.1
		c0.7-2.6,1.5-5.2,2.2-7.8c0.2-0.8,0.4-1.7,0.5-2.5c0.3-0.7,0.5-1.4,0.8-2.1c0.1-0.3,0.2-0.6,0.3-0.8c0.1-0.3,0.1-0.5,0.2-0.8
		c0.4-1.4,0.8-2.9,1.2-4.3c0.1-0.3,0.2-0.6,0.2-0.9c0.1-0.1,0.2-0.3,0.2-0.4c0,0,0-0.1,0-0.1c0.1-0.2,0.2-0.4,0.3-0.7
		c0.1-1.1,0.2-2.2,0.4-3.2c0.1-0.4,0.2-0.8,0.2-1.2c1.2-3.6,0.4-7.4,0.4-11c0-3.8-0.7-7.5-0.9-11.2c-0.1-2.2-0.8-4.4-1.9-6.1
		c-1.3-1.9-2.8-4-5.7-4.1c-0.2,0-0.5-0.2-0.7-0.4c-0.8-0.7-1.6-1.5-2.8-1.6c-0.3,0-0.8-0.4-1-0.7c-1.1-1.9-3.2-2.6-4.6-4.1
		c-0.9-0.9-2.1-1.5-3-2.3c-2-2-3.9-4-6.4-5.4c-0.8-0.4-1.7-0.7-2.3-1.3c-2.5-2.5-5.9-2.9-8.9-4.4c-1.9-0.9-4.1-0.9-5.7-2.5
		c-2.3,0.5-4.3-0.6-6.3-1.2c-0.3-0.1-0.5-0.7-0.7-1.1c-0.4,0-0.8-0.1-1.1-0.1c-0.9,0.7-1.8,0.3-2.7-0.1c-0.8-0.3-1.6-0.6-2.3-0.1
		c-0.7,0.5-1.2,0.1-1.9-0.1c-1.5-0.5-2.9-1-4.5-1.1c-2.6-0.2-5.2-0.1-7.8-0.4c-3.2-0.4-6.2,0.3-9.2,1.4c-1.8,0.6-3.4,1.9-5.5,1.4
		c-0.2,0-0.4,0-0.6,0.1c-1.8,0.3-3.6,0.7-5.3,1c-0.6,0.1-1.4-0.1-1.8,0.2c-1.9,1.6-4.4-0.2-6.3,1.2c-1.7-0.8-3.2,0.2-4.7,0.6
		c-1,0.2-2.1,0.2-3,1c-0.2,0.2-1,0.1-1.3-0.1c-2.1-1.2-3.8,0-5.5,0.8c-0.9,0.4-1.5,0.6-2.4,0.1c-0.5-0.2-1.3-0.4-1.7-0.2
		c-1.2,0.8-2.6,0.4-3.8,0.7c-1.2,0.3-2.9-0.4-3.4,1.4c-1.1,0-2.1-0.2-3.1,0c-2.5,0.3-5.1,0.7-7.6,1.2c-0.7,0.1-1.3,0.2-1.8-0.4
		c-0.8-0.9-1.6-0.7-2.6-0.3c-0.9,0.4-1.9,0.7-2.9,1c-0.8,0.2-1.5,0-2.1-0.8c-0.5-0.7-1.2-1.1-1.8-1.6c-2.8,1.4-5.3,2.7-7.8,4.1
		c-0.8,0.4-1.4,0.6-2.3,0.3c-1.7-0.4-2.2-0.1-2.5,1.7c-0.2,1.3-0.9,2.4-1.9,2.9c-3,1.5-6.1,2.7-9.2,4.2c-1.4,0.6-2.9,1.2-3.6,2.7
		c1.4,0.9,2,0.9,3.4,0.3c2.2-0.8,4.5-1.5,6.7-2.1c0.8-0.2,1.8-0.4,2.2,0.9c-0.3,0.2-0.6,0.5-0.8,0.6c-1.6,0.2-2.6,1.3-3.5,2.5
		c-0.8,1.2-1.9,2.1-3.1,2.8c-1.4,0.8-2.8,1.6-4.2,2.4c-1.6,1-3.5,1.4-4.6,3.1c-1.5,0.3-2.6,1.4-3.8,2.3c-2.2,1.9-4.8,3.5-7.8,4
		c-0.3,0-0.5,0.2-0.7,0.3c-1.2,0.8-2.3,1.6-3.5,2.3c-0.2,0.1-0.5,0.1-1,0.2c0.3-0.6,0.4-1,0.7-1.3c0.9-1,1.7-2.1,2.7-3
		c1.9-1.9,1.9-1.9,0.1-3.8c0.3-0.2,0.6-0.5,0.9-0.7c0.7-0.7,1.5-1.3,2.2-2.1c0.9-1.1,0.6-1.6-0.7-1.9c-0.3-0.1-0.7-0.3-1.1-0.4
		c0.9-0.8,1.7-1.4,2.3-2.2c1.5-1.7,3.3-2.8,5.4-3.8c1.9-0.8,3.7-2,5.4-3c0.4-0.3,0.8-0.8,1-1.2c0.2-0.5,0.3-1.2,0-1.5
		c-0.2-0.3-1-0.4-1.4-0.2c-1.2,0.4-2.4,1-3.5,1.6c-3,1.5-5.6,3.5-8.4,5.2c-1.9,1.1-3.8,2.3-4.7,4.5c-0.2,0.5-0.8,1-1.4,1.1
		c-1.8,0.5-3.3,1.6-4.8,2.6c-1.5,1.1-2.2,2.7-2.5,4.5c-0.3,1.5,0.7,2.5,2,3.2c-1.6,3.1-4.3,5.2-6.7,7.3c-0.4,0.4-1.2,0.3-2.2,0.5
		c0.2-1,0.4-1.6,0.4-2.2c0-0.5,0.1-1.2-0.2-1.4c-0.3-0.3-1.2-0.4-1.5-0.2c-1.8,1.3-4,2-5.5,3.9c-1.3,1.6-2.6,3.3-4.5,4.2
		c-0.5,0.2-0.8,0.9-1.2,1.3c-0.9,1.1-1.7,2.2-2.7,3.2c-2.3,2.2-4.5,4.4-5.9,7.3c-0.5,1.1-1.5,2-2.3,3c-0.3,0.5-0.6,1-0.8,1.6
		c-0.5,1-0.8,2-1.3,2.9c-0.9,1.4-2,2.8-3,4.2c-0.2,0.3-0.2,0.6-0.3,1c-0.2,0.8-0.5,1.5-0.7,2.3c-0.2,0.8-0.4,1.5-0.7,2.3
		c-0.4,1.1-0.6,2.2-1.2,3.2c-1.1,1.9-1.7,3.9-2.4,6c-0.7,2.1-0.8,4.4-2.4,6.2c-0.1,0.1-0.2,0.4-0.2,0.6c-0.6,2.3-1.3,4.5-1.8,6.8
		c-0.7,2.7-1.3,5.4-2,8c-1.1,3.8-1.4,7.7-0.8,11.6c0.1,0.4,0.5,1,0.9,1.1c1.6,0.5,4-0.9,4.3-2.6c0.4-2.6,1.9-4.6,3.3-6.7
		c0.5-0.8,1.2-1.1,2.3-0.6c0,0.5,0.2,1.2,0,1.7c-1.2,2.7-1.1,5.6-1.2,8.4c-0.1,2,0.4,3.9,1.6,5.5c1,1.3,2.3,2.3,3.6,3.3
		c1.5,1.2,3,2.2,4.6,3.2c1.2,0.7,2.6,1.2,3.8,2c1.3,0.8,2.5,1.6,4,2c1.4,0.4,2.7,1.2,3,2.8c0.5,2.2,0.8,4.5,1.1,6.8
		c0.1,0.6-0.3,1.3-0.4,1.9c-0.1,0.6-0.3,1.3-0.1,1.7c1.1,1.6,1.3,3.5,1.8,5.3c0.5,2,1.8,2.8,3.7,3.2c1.9,0.4,3.8,0.7,5.3,2.2
		c1,1,2.1,1.8,3.3,2.6c1.2,0.8,2.4,1.4,3.6,2.2c1.2,0.9,2.4,2,3.6,2.9c1.1,0.8,2.1,1.7,3.3,2.2c1.3,0.6,2.1,1.8,3.3,2.5
		c2.6,1.5,4.6,3.6,6.9,5.4c-0.3,0.4-0.6,0.8-0.8,1.1c1.5-0.1,2-0.2,2-1.1c0,0.8-0.5,1-2,1.1c0,0-0.1,0.1-0.1,0.1
		c-0.1,0.3-0.3,0.7-0.4,1c-0.1,0.1-0.1,0.2-0.2,0.3c-0.7,0.3-1.4,0.7-2.2,1c-0.5,0.2-1,0.2-1.5,0.5c-0.9,0.6-1.7,1.3-2.5,1.9
		c-2,1.7-4.2,3.1-4.9,5.8l0,0c-0.6,0.2-0.9,0.6-0.7,1.2c-0.9,0.8-1.7,1.7-2.1,2.9c-0.8,2.1-2.8,3.1-4,4.8c-0.2,0.3-0.7,0.4-1.1,0.4
		c-0.9,0.1-1.6,0.6-2.1,1.4c-1.4,0.1-2.5,0.7-3.6,1.7c-1.7,1.5-3.6,2.8-5.4,4.2c-2.4,1.9-4.6,3.9-7,5.6c-1.6,1.2-3.3,2.3-4.6,3.9
		c-0.7,0.8-1.5,1.6-2.1,2.5c-1.6,2.3-3.9,4.1-5,6.8c-0.5,1.1-1.2,2.1-1.8,3.2c-0.6,1.1-1.1,2.1-1.7,3.2c-0.3,0.5-0.6,0.9-0.8,1.4
		c-2.1,6.1-4.1,12.2-4.2,18.7c-0.1,5.8,1.3,11,5.8,15c1.7,1.5,3.5,2.6,5.7,3.5c2.6,1,5,2.7,7.8,3.3c2.6,0.6,5.3,0.9,8,1.1
		c1,0.1,2,0.2,2.9,0.6c1.5,0.6,3,1.2,4.6,1.6c2.3,0.6,4.6,1,6.9,1.7c2.2,0.7,4.6,0.8,6.6,2.2c0.2,0.2,0.6,0,1,0
		c1.7,0.2,3.4,0.4,5.1,0.8c1.6,0.4,3,1.6,4.8,0.7c0.1,0,0.3,0,0.4,0.1c3.8,0.9,7.3-0.8,10.9-1.1c0.2,0,0.3-0.2,0.5-0.3
		c0.6-0.2,1.2-0.5,1.9-0.7c2.4-0.5,4.8-0.9,7.1-1.4c3.1-0.8,6.1-2,9-3.4c1.3-0.6,2.4-1.5,3.6-2.2c1.5-0.9,3.1-1.5,4-3.2
		c0.1-0.1,0.2-0.2,0.3-0.2c1.7-0.7,2.5-2.1,3.4-3.6c1.3-2.1,2.7-4.2,4-6.3c1-1.7,2.1-3.5,2.9-5.3c1.3-2.9,2.5-5.8,3.8-8.7
		c0.9-2.2,1.9-4.3,2.7-6.5c0.4-1.1,1-1.9,1.8-2.6c0.4-0.3,1.1-0.5,1.6-0.4c3.7,0.9,7.1,2.5,10.5,4.2c1.7,0.8,3.4,1.6,5.2,2.3
		c0.9,0.4,2.1,0.3,2.9,0.7c2.7,1.4,5.6,1.4,8.5,1.4c1.6,0,3.4,0,4.9-0.9c0.7,0.1,1.4,0.2,2.1,0.2c0.7,0.1,1.4,0.2,2,0.3
		c0.3,0.1,0.6,0.3,1,0.3c2.2,0.3,4.5-0.7,6.7,0c0.1,0,0.3,0,0.4-0.1c1.2-1,2.3-1.9,3.5-2.9c0.7,0,1.6-0.2,2.2,0.1
		c2,0.8,4.1,0.8,6.2,0.8c1.8,0,3.7,0,5.4-0.5c2.5-0.8,4.9-1.9,7.2-3.1c4-2.1,7.7-4.6,10.6-8.3c0.9-1.1,1.8-2.2,2.8-3.2
		c1.1-1.1,1.3-1.1,2.6-0.2c1.3,0.9,2.4,2,3.8,2.7c3.8,1.6,7.6,3,11.4,4.6c1.9,0.7,3.8,1.4,5.6,2.4c0.9,0.5,1.8,0.8,2.9,0.8
		c0.5,0,1-0.1,1.4,0c2.6,0.4,5.1-0.2,7.4-1.3c2.7-1.4,5.4-2.9,7.5-5.3c2.4-2.6,5.3-4.8,7.9-7.2c1.1-1,2.2-1.2,3.5-0.7
		c2.6,1,5.1,2,7.8,2.8c1.4,0.5,2.9,1,4.3,1c2.4,0,4.8-0.3,7.2-0.5c0.7-0.1,1.5-0.2,2.2-0.3c1.6-0.2,3.1-0.4,4.7-0.6
		c0.6-0.2,1.3-0.3,1.9-0.5c0.5-0.7,1.1-1.2,2-1.2c1.7-0.9,3.4-1.7,5.1-2.6c0.1-0.1,0.3-0.3,0.4-0.4c0.9-0.6,1.8-1.2,2.7-1.7
		c0.3-0.7,0.7-1.3,1.5-1.2c0.7-0.7,1.3-1.4,2-2.1c0.3-0.4,0.6-0.8,0.9-1.1c0.3-0.3,0.5-0.6,0.8-0.8c0.1-1,0.6-1.5,1.6-1.7
		c0.2-0.4,0.4-0.7,0.6-1.1c0.2-0.3,0.3-0.7,0.5-1c0-0.1,0-0.2,0.1-0.3c0.5-1.3,0.9-2.7,1.5-3.9c1.9-3.5,3.1-7.2,3.3-11.1
		c0.1-1.9-0.3-3.9-0.4-5.8c-0.1-1.3-0.1-2.7-0.3-4c-0.1-1.5,0.6-2.5,1.9-3c1.5-0.5,3.1-1,4.7-1.4c3.4-0.8,6.7-1.5,9.8-3
		c1.2-0.6,2.4-0.2,3.5,0.2c0.1-0.1,0.2-0.2,0.3-0.2c0.2-0.8,0.6-1,1.3-0.4c0.2,0,0.4-0.1,0.6-0.1c1-0.8,2.1-1.3,3.4-0.6
		c0.5-0.1,1-0.1,1.4-0.2c0.3-0.5,0.6-0.7,1-0.1c0.6,0,1.3-0.1,1.9-0.1c1.8-1.7,6.7-1.6,8.5,0.2c0.9,0.4,1.9,0.7,2.8,1.1
		c3.3,1.5,6.7,2.9,8.2,6.6c0.8,2,1.5,4,0.6,6.2c-0.3,0.8-0.4,1.7-0.7,2.5c-0.6,1.7-0.9,3.7-2,5c-0.9,1.1-1.8,2.2-2.4,3.5
		c-0.9,1.9-2,3.6-3.5,5.1c-1.4,1.4-2.5,3.1-3.9,4.5c-2.4,2.4-5,4.8-7.5,7.1c-0.5,0.5-1.3,0.7-2,0.9c-1.3,0.4-2.7,0.8-4,1.2
		c-0.3,0.1-0.6,0.5-0.7,0.9c-1.3,2.5-1.5,5-0.2,7.6c1,2.1,3.8,2.5,5.1,0.7c0.8-1.2,1.6-2.5,2.3-3.7c0.4-0.6,0.5-1.4,1-1.9
		c2-2,4-3.8,6-5.7c0.8-0.8,1.9-1.5,2.4-2.4c1.6-2.8,4.5-4.6,6.1-7.5c1.1-2.1,2.8-3.9,3.8-6.1c0.2-0.3,0.4-0.6,0.6-0.9
		c0.4-0.5,0.9-1.1,1.3-1.6c0.3-0.2,0.6-0.4,1-0.6c0.1-0.1,0.2-0.1,0.3-0.1c0.3-1.3,0.6-2.6,1.1-3.8c0.6-1.4,1.5-2.7,2.5-4.3
		c0.3,0.7,0.5,1,0.6,1.4c0.4,2.3,0.3,4.6-0.8,6.8c-0.5,1-0.8,2.2-1.2,3.2c-0.3,0.7-0.7,1.2-1.1,1.9c-0.3,1.2-0.7,2.5-1,3.7
		c-0.1,1.1-0.5,1.9-1.6,2.4c0,0.1-0.1,0.3-0.1,0.4c0.1,0.7,0.2,1.4-0.7,1.6c-0.3,0.3-0.6,0.5-0.9,0.8c-0.6,2.2-1.7,4-3.8,5.1
		c0,0-0.1,0-0.1,0c-0.9,2-2.8,2.3-4.6,2.9c-0.1,0.1-0.2,0.2-0.3,0.3c-0.4,1.7-0.4,1.7-1.8,1.7c-0.1,0.1-0.3,0.2-0.4,0.3
		c-0.8,0.9-1.6,1.7-2.8,2c-0.2,0.2-0.3,0.5-0.5,0.7c-0.3,1.6,0.1,3.4-0.9,4.8c0,0.5,0.4,0.9,0.4,1.4c0,0.2,0,0.5,0,0.7
		c0,0.7-0.2,1.4-0.1,2.1c0.6,0.3,0.4,0.7,0,1.1c0,0.3-0.1,0.6-0.2,1c0,0.2,0,0.4,0,0.7c0,0.4,0,0.9,0,1.3c0.4,0.9,0.8,1.7,1.2,2.6
		c0.1,0,0.2,0.1,0.2,0.2c0.6,0.7,1.2,1.5,1.8,2.2c0.9,0.9,1.8,1.7,2.7,2.6c0.2,0.1,0.4,0.1,0.6,0.2c1.8-0.5,3.4-0.1,4.8,1.4
		c0.3,0.2,0.7,0.5,1.1,0.6c0.5,0.1,1,0.2,1.5,0.3c0.3,0.1,0.6,0.1,0.9,0.2c0.3,0,0.5-0.1,0.8-0.1c0.2-0.6,0.5-1.1,1.3-0.9
		c0.5-0.2,1.1-0.5,1.6-0.7c0.1-0.1,0.3-0.2,0.4-0.3c0,0,0,0,0,0c0.2-0.9,0.9-1,1.6-1.1c0.6-0.4,1.3-0.8,1.9-1.2
		c0.6-1.3,1.3-2.6,1.8-4c0.2-0.4,0.4-0.9,0.4-1.3c0-1.7,1-2.9,2.3-3.9c0.8-0.7,1.7-1.4,2.5-2c0.8-0.6,1.6-1.1,2.1-2.1
		c0.1-0.3,0.7-0.3,1-0.5c0,0,0,0,0,0c0.1-0.1,0.3-0.2,0.4-0.3c0,0,0,0,0,0c0.8-1.7,1.6-3.4,3.6-4.1c0,0,0,0,0,0
		c0.5-0.6,0.9-1.3,1.4-1.9c1.8-2.4,3.6-4.8,4.8-7.6c0.3-0.7,1-1.2,1.5-1.7c0.2-0.5,0.3-0.9,0.5-1.4c-0.5-1.5,0.3-2.5,1.3-3.4
		c0.1-0.1,0.2-0.2,0.2-0.3c0.6-2.1,0.5-4.2,1-6.3C534.5,428.6,535.3,426.6,533.7,425z M269.4,242.9c-0.1-0.1-0.2-0.2-0.3-0.2
		C269.2,242.7,269.3,242.9,269.4,242.9C269.4,242.9,269.4,242.9,269.4,242.9z M232,255c-0.1,0.1-0.2,0.1-0.2,0.2l0,0
		C231.8,255.2,231.9,255.1,232,255z M244.7,262.4c-0.1-0.6-0.1-1.2-0.2-1.7l0,0l0,0c0.8,0,1.7,0,2.5-0.1c-0.9,0-1.7,0-2.5,0.1
		C244.6,261.3,244.6,261.8,244.7,262.4z M219.4,274.7c-0.1,0-0.2,0.1-0.3,0.1l0,0C219.3,274.8,219.4,274.7,219.4,274.7z
		 M180.8,302.1c0,0-0.1-0.1-0.1-0.1c0,0,0.1,0,0.1-0.1c0,0-0.1,0-0.1,0.1C180.8,302,180.8,302.1,180.8,302.1z M181,301.8L181,301.8
		C181,301.9,181,301.9,181,301.8C181,301.9,181,301.9,181,301.8z M178.8,284.8L178.8,284.8C178.8,284.9,178.8,284.8,178.8,284.8z
		 M185.1,273.6c1.5-1.3,3.1-2.5,4.9-3.4c1.8-0.9,3.4-2.1,5-3.2c0.4-0.3,0.8-0.5,1.2-0.7c0.1,0.2,0.2,0.3,0.3,0.5
		c-0.7,1.7-1.6,3.1-3.4,4c-0.3,0.2-0.5,0.5-0.8,0.8c-0.3,0.3-0.6,0.8-1,1c-0.7,0.2-1.4,0.5-1.8,1.2c-0.2,0.3-0.7,0.4-1.1,0.4
		c-1.1,0.1-1.9,0.6-2.4,1.5c-0.2,0.3-0.9,0.4-1.3,0.5c-0.2-0.5-0.5-1-0.5-1.4C184.4,274.4,184.7,273.9,185.1,273.6z M181.4,282.4
		C181.4,282.4,181.4,282.4,181.4,282.4c-0.1-0.1-0.2-0.2-0.3-0.2C181.2,282.2,181.3,282.3,181.4,282.4z M223.5,405.5
		c1.3,0,2.4,0.1,3.6,0.1c0,0,0,0,0,0C225.8,405.6,224.8,405.6,223.5,405.5C223.5,405.5,223.5,405.5,223.5,405.5z M167.4,455.1
		c-0.3,0.3-0.7,0.6-0.7,0.9c-0.5,2.2-1.6,4.2-2.6,6.2c-1.8,3.8-3.5,7.6-2.8,12c0.1,0.5,0.1,1.2-0.2,1.6c-1.2,1.9-1.3,3.9-0.7,6
		c0.1,0.3,0.2,0.7,0.1,1c-0.2,0.5-0.4,1-0.8,1.3c-0.3,0.2-1,0-1.3-0.3c-1.2-1.3-2.5-2.4-3-4.2c-0.6-2-1.5-3.9-1.1-6.1
		c0.4-2.2,0.5-4.5,1.7-6.6c1.3-2.2,2.4-4.6,3.6-7c0.2-0.5,0.7-0.8,1-1.3c0.5-0.8,0.9-1.6,1.4-2.4c0.9-1.3,1.8-2.7,2.9-3.8
		c1.3-1.3,2.7-2.5,3.6-4.3c0.9-1.6,2.5-2.7,3.9-4.1c0.2-0.2,0.6-0.1,1-0.2c-0.6,1.1-1.1,2.1-1.7,3.2c0,0,0,0,0,0
		c-0.8,0.9-1.5,1.9-2.3,2.8c-1.5,0.6-1.7,1.9-1.9,3.3c0,0,0,0,0,0c0.1,0.3,0.1,0.5,0.2,0.8C167.6,454.4,167.5,454.7,167.4,455.1
		c0.8,0.5,0.9,1.2,0.9,2C168.4,456.3,168.2,455.6,167.4,455.1z M240,450.2c-0.6,2.3-1,4.6-1.5,6.9c-0.4,1.9-1,3.8-2.3,5.3
		c-0.2,0.3-0.3,0.7-0.5,1.1c-1,2.1-2,4.2-2.9,6.4c-0.4,0.9-0.6,1.9-0.8,2.9c-0.2,0.7-0.2,1.5-0.6,2.1c-2,3.2-4.1,6.5-7.5,8.4
		c-1.8,1-3.6,2.2-6.1,2.2c0.7-1.6,1.4-3,1.9-4.4c0.3-0.7,0.4-1.6,0.5-2.4c0.1-1.5-0.8-2.1-2.2-1.6c-0.7,0.3-1.4,0.7-1.8,1.2
		c-1.5,1.7-3.3,2.9-5.2,4c-2.7,1.6-5.6,2.6-8.5,3.5c-3.5,1.1-7.1,1.6-10.5,2.7c-2.1,0.7-3.9-0.3-4.7-2.3c-0.4-1.2-0.9-2.4-1.1-3.6
		c-0.3-2.1,0.5-4,1.4-5.8c0.2-0.4,0.6-0.8,0.6-1.3c0.4-3.1,2.6-5.1,4.5-7.4c0.1-0.2,0.3-0.3,0.3-0.5c0.3-1.9,1.6-3.2,2.7-4.5
		c1.1-1.4,2.4-2.7,3.6-4.1c0.6-0.7,0.9-1.6,1.5-2.4c1.8-2.2,3.5-4.5,5.5-6.4c3.4-3.3,7-6.3,10.5-9.4c3.3-3,7.2-5.3,10.6-8.2
		c0.1,0,0.1-0.1,0.1-0.1c1.8-0.9,3.7-1.7,5.8-2.7c1.6,2.5,3.1,4.8,4.6,7.1c0.2,0.3,0.3,0.6,0.3,0.9c-0.2,2,1,3.7,1.3,5.6
		C239.9,445.7,240.6,447.9,240,450.2z M260.2,416.4c-0.2,1-0.4,2.1-0.6,3.1c-1,0-1.2-0.7-1.5-1.4c-0.3-0.7-0.6-1.5-0.9-2.4
		c0.9-1.1,1.8-2.3,3.8-3C260.7,414.1,260.5,415.3,260.2,416.4z M271.8,411.1c-1.4,1.4-1.7,3.2-2,5c-0.1,0.5-0.3,1-0.4,1.6
		c-0.1,0.9-0.2,1.8-0.2,2.8c0,0.7,0.1,1.5,0.1,2.2c0,1.8-0.5,3.4-1.2,5.1c-0.8,2-1.3,4.1-1.9,6.2c-0.2,0.7-0.5,1.3-0.9,2.1
		c-0.3-0.3-0.5-0.4-0.6-0.6c-0.2-0.3-0.3-0.6-0.4-0.9c-1.8-5.9-1.9-6.3,0.3-12c1.2-3.1,2.4-6.1,3.7-9.1c0.5-1.1,1.1-2.1,1.8-3.1
		c0.7-1,1.4-0.3,2,0.2C272,410.6,272,410.9,271.8,411.1z M316.8,387.6c-0.7-0.1-1.2-0.1-1.6-0.2c0,0,0,0,0,0
		C315.7,387.5,316.2,387.5,316.8,387.6C316.8,387.6,316.8,387.6,316.8,387.6z M317.4,392.9c-0.8,0.5-1.2,1.5-1.2,2.5
		C316.3,394.4,316.7,393.4,317.4,392.9c0.6-0.4,0.9-0.6,0.8-0.9C318.3,392.3,318,392.5,317.4,392.9z M327.7,417.5
		c0-0.1,0-0.3-0.1-0.3C327.7,417.3,327.7,417.4,327.7,417.5C327.7,417.5,327.7,417.5,327.7,417.5z M318.7,402.1
		c0,0.1-0.1,0.2-0.1,0.3C318.6,402.3,318.6,402.2,318.7,402.1c0.5-0.9,0.8-1.5,0.9-2C319.5,400.6,319.2,401.2,318.7,402.1z
		 M316.7,383.9c0.1-0.1,0.1-0.3,0.1-0.4C316.8,383.6,316.8,383.8,316.7,383.9c-0.3,0.5-0.4,0.9-0.4,1.3
		C316.3,384.8,316.5,384.4,316.7,383.9z M305.7,380c0.7,0,1.4,0,2.1,0c0.1,0,0.1-0.1,0.2,0c-0.8,0-1.4,0-2.1,0
		C305.8,379.9,305.7,380,305.7,380z M303.6,377c0-0.6,0-1.1,0.1-1.5C303.6,376,303.6,376.4,303.6,377C303.6,377,303.6,377,303.6,377
		z M325,438.8L325,438.8c0.1,0.1,0.2,0.2,0.3,0.3C325.3,439,325.2,438.9,325,438.8z M325.6,438.9c-0.1-0.1-0.2-0.2-0.3-0.2
		C325.4,438.7,325.5,438.8,325.6,438.9C325.6,438.9,325.6,438.9,325.6,438.9z M351.9,361.1c-0.5,1.7-1.2,3.4-1.8,5.1
		c-0.1,0.4-0.3,0.8-0.6,1.1c-1.5,1.4-2.4,3.2-2.6,5.2c-1.2,0-1.8-0.6-1.5-1.5c0.3-1.2-0.1-2.1-0.4-3.1c-0.4-1.3-0.4-2.5,0-3.8
		c0.9-3.2,1.7-6.3,4-8.9c0.4-0.5,0.6-1.1,0.9-1.8c1,0.3,1,1.1,1.2,1.8c0.3,1.2,0.6,2.5,0.9,3.7C352,359.6,352.1,360.4,351.9,361.1z
		 M353.8,288.4c-0.6,3.6-2.1,6.8-4,9.9c-0.1,0.1-0.1,0.3-0.2,0.3c-2.4,1-3.4,3.6-5.6,4.9c-0.7,0.4-1.5,0.8-2.4,1.3
		c-0.7-1.5-0.6-2.8,0.4-4c0.7-0.8,1.3-1.7,1.9-2.6c0.4-0.7,0.7-1.5-0.2-2.2c-1.1-0.8-2.3-1.1-3.2-0.5c-0.9,0.6-1.6,1.4-2.5,2.1
		c-0.9,0.6-1.9,1.2-3,1.7c-1.9,0.8-3.4,2.2-5,3.3c-1.7,1.1-2.9,2.8-5,3.5c-0.9,0.3-1.8,1-2.5,1.7c-1.1,1.2-2.3,2-3.8,2.5
		c-0.8,0.3-1.7,0.9-2.3,1.5c-1,1.2-2,2-3.5,2.2c-0.2,0-0.3,0.3-0.4,0.4h0c-1.7-0.1-3.4,0.3-5.1-0.1c-1-0.2-2.3,0.9-3.4,0.7
		c-1.2-0.2-1.9,0.2-2.7,0.8c-0.5,0.3-1.1,0.6-1.6,0.8c-1.9,0.6-3.8,1.4-5.1,3.1c-0.8,1.1-1.9,1.1-3.1,0.7c-0.5-0.2-1.2-0.3-1.7-0.3
		c-0.9,0-1.7,0.2-2.6,0.3c-2.4-0.1-4.8-0.2-7.2-0.3c-1.1,0-2.1-0.1-3.2,0.5c-0.4,0.2-1,0-1.5,0c-0.4,0-0.8-0.2-1.1-0.2
		c-1.2-0.1-2.4-0.2-3.6-0.2c-1.6,0-3-1.1-4.7-0.7c-1.3,0.3-2.6,0-3.9-0.8c-0.8-0.5-1.8-0.7-2.7-0.8c-1.3-0.2-2.1-0.6-2.4-2
		c-0.3-1.2-3-2.8-4.2-2.7c-1.8,0.1-3.9,2.2-4.3,4c-0.3,1.4-0.5,2.7-0.9,4.3c-1-0.5-1.8-0.7-2.5-1.3c-1.2-0.9-2.4-1.1-3.8-0.6
		c-1.9,0.6-1.9,0.6-2.9-1.3c-0.5-1-1-2.1-2.2-2.5c-0.4-0.1-0.7-0.8-0.9-1.2c-0.3-0.7-0.4-1.4-0.5-2.2c-0.4-1.7-1.6-2.7-4.1-1.7
		c-0.5,0.2-1,0.6-1.5,1c-1.5,1.3-2.7,2.8-3.9,4.4c-1.8,2.5-2.1,5-0.9,7.6c0.6,1.4,1.6,2.7,2.2,4.1c0.4,1,1.1,1.6,2.1,2.1
		c2.8,1.5,5,3.8,7.3,6c1.4,1.4,2.5,3.3,4.2,4.3c2.9,1.8,5,4.5,8,6.1c0.4,0.2,0.7,0.6,1.1,0.9c1.3,1.2,2.5,2.4,3.9,3.5
		c2.1,1.7,4.3,3.2,6.5,4.8c0.7,0.5,1.2,1.3,2,1.7c2,1,4,1.9,6.1,2.8c3.2,1.3,6.7,1.3,10.1,1.8c1.6,0.2,3.3,0,5-0.1
		c0.7,0,1.4-0.1,2.1-0.2c1.9-0.3,3.7-0.5,5.5,0.2c-0.1,1.3-1,1.7-1.7,2.3c-1.3,1.1-1.7,2.6-1.1,4.2c0.4,0.8,0.9,1,1.6,0.4
		c0.6-0.5,1.1-1.2,1.8-1.6c2.2-1.5,4.4-3,6.6-4.6c1.6-1.1,3.4-1.9,5.4-2c0.6,0,1.3,0.2,1.9,0.5c2.8,1.6,4.7,0.7,5.1-2.4
		c0-0.1,0-0.3,0-0.4c0.8,0,1.6-0.1,2.4-0.1c0.6,0.9,1.3,0.2,2,0.1c0.1,0.1,0.1,0.1,0.2,0.1c2,2,2.1,2,4.3,1.1
		c3.1,1.9,6.3,1.5,9.5,0.3c0.5-0.2,1-0.5,1.5-0.5c1.7,0.1,3-0.9,4.2-1.9c2.2-1.8,4.5-3.6,7-5c0.3-0.2,0.5-0.5,0.7-0.7
		c0.3-0.3,0.6-0.8,1-1c1.3-0.7,2.6-1.3,3.9-2c0.6,0.3,0.6,0.8,0.3,1.4c-1.3,2-2.6,3.9-3.9,5.9c-0.9,1.3-1.7,2.7-2.6,4.1
		c-0.7,1.1-1.7,1.7-3,1.6c-1.2-0.1-2.2,0.4-3.2,1c-1.2,0.6-2.5,1.2-3.8,1.4c-1.1,0.2-2.2-0.3-3.3-0.4c-2.2-0.1-4.4-0.2-6.7-0.2
		c-0.3,0-0.5,0.1-0.8,0.2c-1.2,0.7-2.4,0.4-3.4-0.4c-0.6-0.5-1.3-0.7-2.1-0.5c-0.5,0.1-1,0.1-1.4-0.1c-1.2-0.4-2.2,0.1-3.2,0.6
		c-1.7,0.9-3.5,1.6-5.4,2.3c-0.8,0.3-1.3,0.7-1.8,1.4c-0.8,1-1.7,2.2-3.2,2.4c-0.2,0-0.4,0.1-0.6,0.1c-1.5,0.7-2.5,2.2-4.5,2.2
		c-1.7,0.1-3.3,1.1-5,1.7c-0.4,0.1-0.9,0.2-1.1,0.4c-2.1,2.7-5.2,2.7-8.1,3.2c-1.4,0.2-2.7,0.6-4.2,0.4c-0.6-0.1-1.5,0.6-2,1.1
		c-0.8,0.7-1.6,1-2.6,0.5c-1.1-0.5-2.1-0.1-2.9,0.4c-1.4,1-3,1.1-4.6,1.2c-1,0.1-2.1-0.2-2.8,0.8c-1.8-0.1-3.3,1.4-5.2,1.1
		c-1.1-0.2-2.1,0.3-3,1c-0.5,0.4-1.2,0.6-1.8,0.8c-1.8,0.5-3.6,0.9-5.4,1.4c-0.4,0.1-0.8,0.5-1.1,0.4c-2.3-0.5-4.2,0.7-6.2,1.5
		c-1.2,0.5-2.2,1.2-3.4,1.6c-0.5,0.2-1.4,0-1.9-0.3c-1.2-0.9-2.2-2-3.2-3c-2.7-2.5-5.5-4.7-8.7-6.5c-2.5-1.4-5.1-2-7.9-2.2
		c-0.9-0.1-1.9-0.5-2.6-1c-2.7-2.4-4.8-5.3-6.5-8.4c-1-1.8-2.3-3.5-3.3-5.2c-0.5-0.8-1.1-1.7-1.1-2.6c-0.1-0.9-0.3-1.7-0.7-2.4
		c-1.1-2-0.8-4.2-0.9-6.3c0-0.7,0.7-1.5,0.8-2.3c0.5-2.7,0.7-5.4-0.2-8c-0.8-2.3-0.2-4.4,1-6.2c1.5-2.2,2.4-4.5,3.2-6.9
		c-1.8-2.3-1.6-2.5,0-5.1c1.3-2.1,3.2-3.6,5.1-5.1c1.9-1.5,3.5-3.3,5.2-5c1.3-1.3,2.7-1.6,4.3-0.9c1.9,0.8,3.7,0.2,5.5-0.1
		c0.5-0.1,1.1-0.3,1.5-0.2c0.7,0.2,1.1-0.1,1.7-0.4c0.5-0.3,1.2-0.3,2-0.5c0.3-0.2,0.9-0.6,1.4-1.1c0.5-0.4,1-0.7,1.3-1.3
		c0.5-1.3,1.6-2,2.8-2.5c0.7-0.3,1.1-0.4,1.3-1.1c0.3-1.1,0.6-2,0.8-3c0,0,0,0,0,0c0.1-1,0.2-1.7,0.3-2.4c0.1-0.3,0.2-0.8,0.2-1.1
		c0,0,0-0.1,0-0.1c0.7-0.3,0.6-0.9,0.3-1.4c0.1-0.5,0.2-1.1,0.3-1.6l0,0c0.2-0.1,0.5-0.2,0.5-0.3c0.6-2,2.6-2.5,4-3.7
		c0.6-0.5,1.4-0.6,2.2-0.9c0.5-0.2,1-0.4,1.4-0.7c1.8-1.3,3.4-2.8,5.2-4c1.4-1,3-1.7,4.6-2.5c3.1-1.4,6-3.3,8.9-5.1
		c0.7-0.4,1.5-0.7,2.2-1c0.7-0.4,1.4-0.8,2.1-1.2c0.4-0.2,0.8-0.5,1.3-0.6c2.6-0.4,4.8-1.8,7.1-2.9c2.2-1.1,4.6-1.9,7-2.7
		c1.8-0.6,3.6-1.1,5.4-1.6c0.4-0.1,0.9-0.3,1.2-0.1c2.1,1,4,0.3,5.8-0.5c1.1-0.5,2.1-0.9,3.2-0.4c0.4-1.2,0.6-2.3,1.2-3.3
		c0.8-1.4,1.7-2.7,2.6-4c0.7-0.9,1.7-1.2,2.9-1.1c2.1,0.1,4.3,0.1,6.4,0c0.3,0,0.5-0.1,0.8-0.2c0.3-0.1,0.5-0.3,0.7-0.3
		c2.2-0.3,4.5-0.7,6.8-0.9c1-0.1,2-0.1,3-0.3c2.3-0.4,4.5-0.5,6.9-0.1c1.5,0.2,3.1,0.2,4.6-0.1c1.5-0.3,2.9-0.2,4.4,0
		c1.7,0.2,3.5,0.7,5.2,0.1c0.2-0.1,0.4-0.1,0.6,0c3.5,0.8,7.1,0.1,10.6,0.7c1.8,0.3,2.7,0.9,3.1,2.6c0.1,0.5,0.2,0.9,0.2,1.4
		c0.2,3.4,0.9,6.7,2.1,9.8c1.6,4.4,2,8.9,1.1,13.5c-0.3,1.4-0.2,2.8-0.1,4.2c0.1,2.3-1.2,3.7-3,4.8c-0.3,0.2-0.6,0.3-0.9,0.5
		c-0.9-0.6-0.7-1.4-0.7-2.2c0.1-1.9,0.3-3.8,0.3-5.6c0-0.9-0.1-1.9-1.5-2.4C354.7,285.1,354.1,286.7,353.8,288.4z M330,316
		c0,0.1-0.2,0.1-0.3,0.2c0,0,0,0,0,0C329.8,316.1,330,316,330,316z M400.1,356.6c-0.7,1.3-1.1,2.7-1.6,4.1c-0.1,0.4-0.2,0.9-0.4,1.1
		c-1.2,1.1-1.6,2.6-2.1,4.1c-0.3,1-1.2,1.7-1.9,2.5c-0.7,0.9-1.5,1.7-2.3,2.8c-0.2-0.4-0.4-0.6-0.4-0.7c0.4-1.4,1-2.8,0.2-4.3
		c-0.1-0.1,0.1-0.4,0.2-0.6c1.6-2.6,2.3-5.6,3-8.5c0.6-2.6,1.5-5.2,2.2-7.8c0.4-1.4,0.6-2.9,0.9-4.4c0.2-0.8,0.4-1.6,1.4-1.6
		c0.2,0.2,0.3,0.2,0.3,0.3c0.1,2.1,0,4.2,0.2,6.2c0.1,1.4,0.5,2.8,0.8,4.2C400.8,355.1,400.6,355.8,400.1,356.6z M425.1,425.5
		c-1.3,1.6-2.7,3-4.1,4.5c-0.5,0.6-1.1,1.2-1.5,1.8c-0.9,1.3-2,2.3-4,2.6c0.2-0.8,0.2-1.6,0.5-2c1.8-2.4,3-5.3,5.5-7.2
		c0.7-0.5,1.1-1.4,1.7-2c0.4-0.4,1.1-0.5,1.6-0.8C425.8,423.6,426,424.4,425.1,425.5z"/>
	<path fill="#7A275C" d="M297.5,471c-0.5-0.2-1-0.5-1.6-0.6c-2.4-0.4-4.8-0.7-7.2-1c-1-0.1-1.7-0.6-2.2-1.6c-0.5-1-1.1-1.9-1.7-2.9
		c-0.1-0.1-0.2-0.3-0.3-0.3c-1.7-0.2-2.3-1.5-2.7-2.9c-0.1-0.3-0.3-0.6-0.6-0.8c-1.3-0.8-1.4-1.8-0.5-3.3c-1.7-0.2-3.1-0.3-4.6-0.5
		c0-0.6,0-1,0-1.4c0.1-0.9-0.3-1.5-1-2c-1.3-0.8-1.7-2.2-0.8-3.4c0.9-1.2,1.8-2.1,1.5-3.8c-0.1-0.3,0.6-0.8,1-1
		c1.5-0.7,3.1-1.4,4.6-2c0.5-0.2,1.2-0.3,1.8-0.3c1.2,0.1,2.4-0.2,3.2-1c1.4-1.4,2.7-1.2,4.4,0c0.4-1.3,0.7-2.4,1-3.5
		c0.1-0.3,0.2-0.7,0.1-0.8c-1.2-1.4-0.4-2.8-0.2-4.2c0-0.2-0.1-0.4-0.2-0.7c-1.2,0.5-2.3,0.8-3.5,0.1c-0.3-0.2-1,0.1-1.4,0.4
		c-0.5,0.3-0.7,0.9-1.3,1.6c-0.1-0.6-0.3-0.9-0.2-1.2c0.8-2.8,0-3.2-2.5-4.3c-0.3,0.5-0.5,1-0.8,1.5c-3-2.1-2.8-3.2,0.6-5.6
		c-2.6-2.1-2.6-2.1-2.4-5.3c-0.4-0.3-0.9-0.6-1.3-0.9c1-1.6,3.6-3.2,5.2-3.5c-0.2-0.8-0.8-1-1.5-0.9c-0.5,0.1-0.9,0.2-1.4,0.4
		c-1.3,0.3-2,0-2.7-1.1c-1.1-1.7-1.1-1.7-2.9-1c-0.1,0-0.3,0-0.5,0c-0.3-0.5-0.6-1.1-0.9-1.7c-0.9-1.6-0.9-1.8,0.4-2.9
		c1.3-1.2,1.1-2.1-0.6-3c-0.2-0.1-0.3-0.2-0.6-0.4c0.3-0.3,0.5-0.5,0.7-0.8c0.2-0.2,0.3-0.4,0.6-0.7c-0.3-0.5-0.5-1.1-0.8-1.7
		c0.1-0.1,0.2-0.3,0.3-0.5c0.3-0.3,0.7-0.5,0.8-0.9c0.8-1.7,0.8-3.6,0.9-5.5c0-0.6-0.4-1.3-0.8-1.7c-0.7-0.7-0.8-1.3-0.3-2
		c0.4-0.7,1-1.3,2-1c0.2,0.1,0.5,0.1,0.7,0.1c0.9-1.2,0.3-2.1-0.4-2.8c0.2-1.6,1.4-2.6,1.1-4.2c-0.1-0.3,0.7-0.9,1.2-1.1
		c0.7-0.3,1.4-0.5,2.1-0.6c1.2,0,2.1-0.4,3-1.3c0.9-0.9,1.7-0.1,2.7,0.6c0-1.7,2.3-3.1,0.3-4.7c0.5-1.9,2.2-1.1,3.2-1.7
		c1.2-0.6,2.4-0.9,3.7,0.1c0.5-0.4,0.9-0.8,1.3-1.1c0.7-0.5,1.2-0.4,1.7,0.4c0.9,1.5,1,1.4,2.3,0.3c0.1-0.1,0.2-0.1,0.3-0.2
		c1.9,0.5,1.9,0.5,2.8-1.6c1.1,0.8,1.1,0.8,1,4.1c1.3,1.1,3.5,0.7,4.5,2.7c-0.9,0-1.6,0-2.3-0.1c1.5,2.5,3.3,0.7,4.8,0.6
		c0.2,0.2,0.4,0.2,0.5,0.3c1.1,2.3,1.1,2.3,3.9,2.1c0.4,0,0.8,0,1.2,0.1c0.6,0.1,1,0.6,0.7,1.2c-0.7,1.2-0.4,2.3,0.1,3.7
		c-0.7-0.1-1.2-0.1-1.6-0.2c0,2.3,0.2,3.3,1.1,4.7c0.3-0.4,0.7-0.8,1-1.2c1.3,1.1,1.3,1.2,0.1,2c-1.6,1-1.5,4,0.1,4.9
		c2.4,1.4,2.5,1.9,1.2,4.3c-0.1,0.2-0.1,0.4-0.1,0.6c1.5,0.1,1.8,0,3.5-1.9c0.6,1,1.3,1.9,1.7,2.9c0.3,0.6,0.5,1.4,0.6,2.1
		c0,0.5-0.1,1.2-0.4,1.4c-0.4,0.3-1.2,0.3-1.7,0.1c-0.5-0.2-0.8-0.7-1.2-1.1c-0.1-0.1-0.3-0.1-0.4,0c-0.6,0.3-1.2,0.6-1.9,0.9
		c0.2,0.7,0.4,1.3,0.7,2c-0.4,0.3-0.8,0.7-1.2,1c0.1,0.2,0.2,0.5,0.3,0.5c0.4,0,1.1,0,1.3-0.2c0.7-1.1,1.9-1.2,3-1.6
		c1.6-0.6,2.1-0.3,2.6,1.4c0.2,0.7,0.2,1.5,1.3,1.5c-0.2-1.1-0.4-2.1-0.4-3.1c0-0.2,0.3-0.6,0.6-0.7c0.2,0,0.7,0.2,0.8,0.5
		c0.3,1,0.6,2.1,0.9,3.1c0.5,1.8-0.2,3.1-1.7,3.9c-0.9,0.5-1.2,1.2-1.4,2.1c0,0.3-0.1,0.7,0.1,0.8c1.6,0.7,1.4,2.9,3,3.6
		c0.7,0.3,0.9,0.9,0.7,1.7c-0.2,0.7-0.3,1.3-0.4,2c-0.1,0.4-0.3,1-0.1,1.2c1.3,1.6,0.3,3.2,0.1,4.8c-0.1,1.4-0.4,1.5-1.7,1.7
		c-0.8,0.2-1.5,0.6-2.4,1c0.4,0.7,0.6,1.2,0.9,1.7c-1.4,1.1-1.5,3.8-4.5,3.1c0.1,1,0.1,1.7,0.2,2.4c-1.5,1.7-3.7,1.2-5.7,1.6
		c0.5,1.2,0.3,2.1-0.7,2.8c-0.7,0.6-0.5,1.4,0.1,2c0.6,0.6,1.3,1.2,2,1.7c1.4,1.1,1.4,1.1,0.6,2.6c-0.1,0.2-0.2,0.4-0.2,0.5
		c0,0.1,0,0.1,0,0.3c0.7,0.8,1.6,0.3,2.4,0.3c1-0.1,1.2,0.2,0.8,1.6c-0.2,0-0.5,0-0.7-0.1c-1.3-0.3-1.8-0.1-2,1.1
		c-0.4,1.9-0.6,3.9-1,5.8c-0.2,0.8-0.4,1.6-0.8,2.3c-0.9,1.7-2,3.3-3,5c-1.2,1-2.3,1.9-3.5,2.9c-0.1,0.1-0.3,0.1-0.4,0.1
		c-2.2-0.7-4.5,0.3-6.7,0c-0.3,0-0.6-0.2-1-0.3c-0.6-0.8-1.3-0.7-2-0.3C298.9,471.1,298.2,471.1,297.5,471z M171.7,447.2
		c0.9,1,0.1,1.7-0.4,2.5c-0.5,0.8-1.2,0.8-1.9,0.4c-1.5,0.6-1.7,1.9-1.9,3.3c0.2,0.1,0.4,0.3,0.5,0.4c-0.1,0.1-0.3,0.2-0.4,0.4
		c-0.1,0.3-0.2,0.7-0.2,1c1.3,0.8,0.8,2.2,0.9,3.3c0,0.7,0.1,1.5,0.9,1.6c0.5,0,1.1-0.4,1.4-0.8c1.2-1.3,2.2-1.1,2.8,0.5
		c0.1,0.3,0.1,0.5,0.2,0.8c0.1,0.2,0.2,0.3,0.4,0.5c0.5-0.1,1-0.2,1.3-0.3c1.1,2.3,2.1,4.5,3.2,7c1.3-0.7,2-2.1,3-3.2
		c-0.4-0.7-0.8-1.2-1.3-1.9c1.1-0.4,2.1-0.9,3.1-1.1c1.7-0.4,3.5-0.7,5.2,0.9c0.4-1.5,1.1-2.7,1-3.7c-0.2-1-0.2-2,0-2.9
		c0.5-2.6-0.1-4.6-2.4-6.1c-0.2-0.1-0.5-0.3-0.6-0.5c-0.2-0.4-0.2-0.8-0.3-1.2c1.4,0.5,2.6,1.1,3.8,1.3c1.1,0.2,1.9,0.5,2.6,1.3
		c0.8,0.8,3.5,1.1,4.4,0.5c0.4-0.3,0.6-1,0.8-1.5c0.3-0.9,0.4-2,0.8-2.9c0.4-1,1-1.9,1.6-2.9c-0.3-0.1-0.7-0.1-0.9-0.2
		c-0.8-0.3-1-1.3-0.2-1.5c1.7-0.4,2.1-1.7,2.6-3c0.4-1.2,1.3-1.8,2.4-1.8c1.5,0,2.3-0.8,3-2c1.3-2.4,1.4-2.4-0.5-4.4
		c0.2-0.5,0.4-1.1,0.7-2c1.4,1.2,2.4,2.1,3.9,3.5c-0.4-2.2,0.8-3.2,2.1-4.1c0,0,0.1-0.1,0.1-0.2c0.4-1.1,1.1-1.4,2.2-1.2
		c1.1,0.2,1.9-0.4,1.7-1.2c-0.4-1.5,0.6-2,1.6-2.5c-0.3-2.4-0.4-2.4-2.2-1.3c-0.6,0.3-1.2,0.6-1.8,1c0.2,0.2,0.3,0.4,0.4,0.5
		c0.1,0.2,0.2,0.3,0.4,0.6c-0.4,0.2-0.7,0.3-0.9,0.4c-1.4,0.6-1.4,0.6-2-0.9c-0.5-1.2-1.7-1.6-2.9-1c-0.5,0.2-1,0.5-1.4,0.7
		c0,0.5,0.1,1,0.1,1.7c-1.3-1.4-1.4-2-0.3-2.8c1.2-0.9,2.3-1.9,2.9-3.3c0.1-0.3,0.6-0.6,0.9-0.7c1-0.2,2-0.4,2.9-0.2
		c0.7,0.1,1.4,0.7,2.1,1.1c0.9-0.5,1.8-1.1,2.7-1.7c0.5-0.4,1.2-0.7,1.6-0.2c0.2,0.3,0,0.9,0.1,1.4c0,0.1,0.1,0.2,0.1,0.4
		c1.7,0.6,1.3-1.6,2.7-1.9c0.2,0.5,0.5,0.9,0.5,1.4c0.1,1.4,1,2.1,2.2,2.7c0.6,0.3,1.2,0.3,1.6-0.3c0.4-0.6,0.4-1.3-0.1-1.9
		c-0.3-0.3-0.6-0.6-1-0.7c-1.4-0.4-1.8-1.5-2.2-2.7c-0.3-0.8-0.6-1.6-1-2.4c-0.1-0.1-0.3-0.2-0.6-0.3c-0.2,0.4-0.3,0.7-0.5,1.2
		c-0.5-0.4-0.8-0.7-1.3-1c0.6-0.5,1.1-1,1.7-1.5c-0.6-0.3-1.1-0.5-1.8-0.8c0.4-0.4,0.6-0.7,0.9-0.8c0.8-0.3,1.3,0.3,1.9,0.8
		c0.7,0.7,1.2,1.9,2.7,1.7c0.1-0.5,0.2-1.1,0.2-1.6c-0.2-1-0.4-1.9,0.5-2.6c0.1-0.1,0.2-0.4,0.1-0.6c-0.5-1.4,0.4-2.3,1.1-3.3
		c1-1.5,1.1-1.6-0.1-2.9c-0.8-0.8-1.1-1.8-1.3-2.8c1.1-0.5,2.1-0.9,3-1.4c-0.5-2-0.5-2-2.1-2c-0.1,0.4-0.1,0.8-0.2,1.3
		c-0.4-0.1-0.8,0-0.9-0.1c-0.7-1.1-1.9-1.4-2.9-2c-1.3-0.7-3.2-0.7-4.5,0.1c-1.2,0.6-2.4,1.2-3.7,1.4c-1.2,0.2-1.9,0.6-2.3,1.7
		c-0.4,1.2-1.2,1.7-2.3,2c-0.5,0.1-1,0.5-1.3,0.9c-0.9,1.1-1.7,2.2-2.5,3.4c0.3,1.8,0.1,2-1.8,2.2c0,0-0.1,0.1-0.1,0.1
		c-0.1,0.3-0.3,0.7-0.4,1c-0.1,0.1-0.1,0.2-0.2,0.3c-0.6,1.7-1.4,3.2-3.4,3.7c-0.9,0.2-1.8,0.5-2.3,1.5c-0.3,0.5-0.8,0.9-1.3,1.2
		c-0.9,0.6-2.3,0.7-2.6,2.2c-0.1,0.3-1,0.4-1.6,0.6c0,0,0,0,0,0c-0.2,0.4-0.5,0.8-0.7,1.2c-0.9,0.8-1.7,1.7-2.1,2.9
		c-0.8,2.1-2.8,3.1-4,4.8c-0.2,0.3-0.7,0.4-1.1,0.4c-0.9,0.1-1.6,0.6-2.1,1.4c-0.4,0.6-0.8,1.2-1.2,1.8c-0.3,0.4-1.1,0.7-1.1,1.1
		c-0.1,1.3-1.1,1.5-1.9,1.9c-0.4,2.9-0.5,3-2.9,3.2c-0.4,0.5-0.7,1.1-1.1,1.4c-1.2,0.9-1.4,2-1.3,3.4c0.1,1.4-0.2,2.8-1.5,3.7
		C172.8,445,172.2,446.1,171.7,447.2z M227,405.5c-0.1,0.2-0.2,0.6-0.4,0.9c-0.5,0.7-1,1.8-2.1,1.4c-1-0.4-0.9-1.5-1-2.4
		C224.8,405.4,225.8,405.5,227,405.5z M218.8,409.3c0.9-0.2,1.2,0.2,1.6,0.9C219.5,410.5,219,410.3,218.8,409.3z M319.3,356.5
		c-0.6-1.5-1.1-2.8-1.7-4.1c0.4,0,0.6,0,0.8,0c1,0.3,1.4-0.3,1.5-1.1c0.1-0.8-0.4-1.3-1.1-1.5c-0.8-0.2-1.6-0.1-2.1,0.7
		c-0.3,0.5-0.6,1.1-1.5,0.9c-0.2-0.9-0.2-1.8,0.7-2.5c0.4-0.3,0.7-0.8,1-1.2c0.8-1,1.4-1.9,0.8-3.3c-0.2-0.5,0-1.3,0.2-2
		c0.4-1.6,1.4-2,2.8-1.1c0.6,0.4,1.2,0.7,2,1.1c0.3-0.6,0.4-1,0.6-1.5c1.1,0.2,2,0.4,2.8-0.6c1.2-1.5,1.6-1.5,3-0.1
		c0.1-1.2,0.3-2.2,0.4-3.4c-0.4-0.3-0.9-0.6-1.2-0.8c0.7-1.3,1.7-1.4,2.6-1.6c0.9-0.2,1.5,0.1,1.5,1c0,0.8,0.4,1.2,0.9,1.6
		c0.5,0.4,0.8,1,1.3,1.6c1.3-1.2,2.5-1.9,4.1-1.9c1.3,0,1.9-0.6,1.5-1.8c-0.4-1.2-1.1-2.3-1.7-3.4c-0.1-0.2-0.1-0.4-0.1-0.5
		c0.4-0.1,0.7-0.3,1.6-0.6c-0.7-0.5-1.3-0.7-1.6-1.2c-1.3-1.8-2.5-3.6-5-3.9c-0.3,0-0.5-0.4-0.7-0.7c-1.1-1-2.2-2-3.2-3.1
		c-0.4-0.4-0.5-1.1-0.6-1.6c-0.2-1-0.3-2-0.7-2.9c-0.6-1.7-1.5-2-3.1-1.3c-1,0.5-2,1-3,1.6c-0.2-0.1-0.4-0.3-0.7-0.4
		c-1.8-0.1-3.4-1.5-5.3-1c-0.4,0.1-0.9-0.2-1.3-0.4c-0.8-0.4-1.6-0.9-2.5-1.4c-1.7-0.1-3.4,0.3-5.1-0.1c-1-0.2-2.3,0.9-3.4,0.7
		c-1.2-0.2-1.9,0.2-2.7,0.8c-0.5,0.3-1.1,0.6-1.6,0.8c-1.9,0.6-3.8,1.4-5.1,3.1c-0.8,1.1-1.9,1.1-3.1,0.7c-0.5-0.2-1.2-0.3-1.7-0.3
		c-0.9,0-1.7,0.2-2.6,0.3c-0.1,0.1-0.1,0.3-0.2,0.3c-1.5,0.2-2.3,1-2.5,2.2c-1.1,0.4-2,0.8-2.9,1.1c-0.1,0-0.2,0.1-0.4,0.1
		c-2,0.3-4,0.6-6,0.8c-1.4,0.2-2.8,0.1-4,1.2c0.9,1.2,1.8,2.3,2.7,3.4c-0.7,2-0.9,2.1-2.8,1.7c-1.2-0.3-1.9,0.4-2.6,1.2
		c-1.3-0.4-2.7-0.6-2.5-2.6c-0.1,0-0.3,0.1-0.4,0.1c-0.3,1-0.6,2-1,3.1c-0.4-0.1-0.8-0.2-1.4-0.3c0.1-0.4,0.1-0.7,0.3-0.8
		c0.8-0.8,0.4-1.3-0.5-1.8c-0.2,0.3-0.5,0.5-0.7,0.8c-0.6,0.7-1.1,0.6-1.7,0c-0.4-0.5-0.9-1-1.5-1.3c-1.7-1-3-0.5-3.7,1.3
		c-0.1,0.4,0.1,1,0.4,1.4c0.1,0.2,0.8,0,1.2-0.1c0.4-0.2,0.7-0.5,1.2-0.9c0.4,0.7,0.7,1.3,1,1.9c0.7,0,1.5-0.1,1.9-0.1
		c0.9,0.6,1.6,1.1,2.2,1.7c0.3,0.2,0.5,0.6,0.6,1c0.6,1.7,1.4,2.1,3.6,1.8c-0.6-1.4-1.1-2.7-1.7-4.2c1.7-0.4,3.6,0.7,5-0.9
		c0.5,0.7,1,1.3,1.5,2.1c-0.9,1.1-1.8,2.3-2.7,3.4c-0.4,0.5-1,0.8-0.5,1.5c0.5,0.7,1.2,0.6,1.8,0.3c0.5-0.2,1-0.6,1.6-0.9
		c0.9,0.8,1,2.5,2.8,2c0.4-1.3,0.3-2.9,1.8-3.8c0.5,0.2,1.1,0.5,1.6,0.5c0.6-0.1,1.3-0.5,1.6-1c0.2-0.4,0.1-1.2-0.2-1.6
		c-0.4-0.7-1.3-0.6-1.9,0.1c-0.2,0.2-0.3,0.6-0.4,0.8c-1.7,0.2-3.3,0.3-4.9,0.5c-0.1-0.1-0.1-0.3-0.2-0.4c0.3-0.3,0.5-0.7,0.9-0.8
		c1.7-0.6,1.8-0.7,1.5-2.3c-0.1-0.3-0.1-0.7-0.3-1.2c1.8,0.3,3.4,0.6,5.3,1c-0.3-0.7-0.5-1.1-0.8-1.7c0.4-0.4,0.7-0.8,1.1-1.2
		c0.9,0.3,1.6,0.6,2.6,1c-0.3,0.8-0.6,1.6-0.9,2.4c0.7,0.5,1.2,0.4,1.6-0.4c0.3-0.5,0.5-1.1,0.9-1.5c0.2-0.2,0.8-0.3,1-0.2
		c0.2,0.2,0.5,0.9,0.3,1c-0.8,1-1.1,2-1.1,3.4c0,0.4-0.7,0.9-1.2,1.4c-0.3-0.1-0.6-0.2-0.9-0.3c-0.7-0.3-1.2-0.1-1.6,0.5
		c-0.3,0.5-0.2,1,0.2,1.5c0.8,0.9,1.3,2.1,2.2,2.9c0.9,0.9,0,1.8,0.2,2.6c0.8,0.1,1.5,0.3,2.3,0.4c0-0.6,0.1-1.3,0.1-2.1
		c1,0.4,1.8,0.7,2.8,1c0.1,1,0,2.1,0.7,3.1c0.3,0.4-0.1,1.4-0.2,2.3c2.2,0.6,2.7-2,4.5-2.3c0.2,0.3,0.5,0.8,0.9,1.2
		c0.5,0.6,1,0.8,1.8,0.6c1.7-0.5,1.7-0.4,2.2,1.2c0.1,0.3,0.2,0.5,0.3,0.8c0.4,0,0.8-0.1,1.2,0c0.9,0.3,1.6,0.8,1.5,1.9
		c-0.1,1.1,0,2.1,0.8,3.3c0.3-0.8,0.5-1.3,0.7-1.8c1.2-0.6,2.3-0.7,3.2,0.6c0.2,0.2,0.5,0.4,0.9,0.5c0.7,0.2,0.9,0.6,1.1,1.3
		c0.2,0.8,0.6,1.5,0.9,2.2c0.8,0,1.6-0.1,2.4-0.1c0-0.3,0-0.6,0.1-0.8c0.5-0.9,1-1,1.6-0.1c0.2,0.3,0.2,0.6,0.3,0.9
		c0.1,0.1,0.1,0.1,0.2,0.1C315.9,357.5,317.7,357,319.3,356.5z M244.1,260.4c0.1,0.1,0.3,0.2,0.4,0.3c0.8,0,1.7,0,2.5-0.1
		c-0.1,0.9-0.2,1.6-0.3,2.2c0.6-0.2,0.9-0.4,1.1-0.7c0.9-1.3,1.3-1.5,2.8-1.2c0.5,0.1,1,0.5,1.5,0.5c0.7,0.1,1.5,0.1,2.1-0.1
		c0.9-0.4,0.9-1.1,0.1-1.8c-0.4,0.3-0.6,0.6-1,0.7c-0.7,0.3-1.6,0-1.5-0.8c0.3-1.6-0.4-3.5,1.2-4.7c0.6-0.4,0.8-0.9,0.4-1.6
		c-0.4-0.7-1.1-0.8-1.8-0.5c-0.8,0.3-1.6,0.7-2.5,1.1c-0.6-1.1-1.1-2.2-1.6-3.2c1.2-0.2,2.3-0.3,3.4-0.5c0-0.1,0-0.2,0-0.4
		c0.6,0.3,1.1,0.6,1.9,1c0.2-0.6,0.4-1,0.6-1.5c-0.8-0.3-1.4-0.6-2.3-1c2.1-1.1,3.8-1.9,5.7-0.4c1.1,0.9,2.2,0.6,2.7-0.4
		c0.2-0.5,0.1-1.2,0.1-2.1c1.2,0.8,2.3,1.6,3.4,2.4c0,0.8-1.4,1.8,0.3,2.7c0.7-0.9,1.5-1.8,2.1-2.7c0.2-0.3,0.1-1-0.1-1.3
		c-0.8-0.8-0.5-1.6-0.4-2.4c0.7,0,1.3-0.1,1.9-0.1c0.3-1.4-1.2-1.4-1.6-2.4c0-1.2,1.1-2.6-0.2-4c1-0.1,1.9,0,2.9,0
		c0.5,0,1.1,0.2,1.6,0c0.4-0.2,0.9-0.6,1.1-1c0.1-0.3-0.4-0.9-0.7-1.1c-0.8-0.5-1.7-0.9-2.6-1.4c0.2-0.8,1.5-1.1,0.9-2.2
		c-0.9-0.4-1.9-0.4-2.8,0.2c-1,0.7-1.7,2-3.2,1.8c-0.7,1.4-2,1.1-3.2,1.4c-0.9,0.2-1.6,0-2-0.9c-0.1-0.3-0.4-0.5-0.7-0.8
		c-0.5,0.5-0.9,0.9-1.2,1.1c-2-0.2-3.8-0.4-5.6-0.5c-0.4,0-0.9,0.2-1.3,0.4c-2.2,1.2-4.1,2.8-5.5,4.9c-0.3,0.5-1.1,0.7-1.7,0.9
		c-0.4,0.1-0.9,0-1.4,0c-1.5,0.1-1.8,0.3-2.3,1.8c-0.2,0.5-0.5,1.2-0.8,1.2c-2.1,0.2-3.6,1.3-5.1,2.6c-0.1,0.1-0.4,0.2-0.5,0.3
		c-1.6,0.3-2.4,1.4-3.1,2.7c-0.7,1.3-1.5,2.3-3.2,2.4c-1.1,0-1.5,1-1.2,2.5c0.7-0.3,1.4-0.6,2.1-0.9c0.8,0.5,1.2,0.9,1.2,1.8
		c0,1.7,0.2,1.9,1.8,1.4c0.3-0.1,0.6-0.1,1-0.2c-0.2,0.7-0.5,1.1-0.6,1.5c-0.1,0.7,0.1,1.3,0.9,1.3c1.5,0.1,2.5,0.8,3.4,2
		c0.2,0.3,0.9,0.5,1,0.4c0.3-0.3,0.6-0.8,0.6-1.1c-0.2-0.8-0.6-1.6-0.9-2.4c-0.1-0.3-0.2-0.7-0.2-1.1c0.4,0,0.9-0.1,1.2,0.1
		c1.1,0.5,2.1,1.2,3.1,1.8c0.6,0.3,1.3,0.6,1.1,1.5c-0.2,1,0.4,1.3,1.2,1.6c0.5,0.2,1,0.5,1.6,0.8c0.8,0.4,1.6,0.8,2.7,1.3
		c-0.1-1.2-0.2-2-0.3-2.9C244.3,260.6,244.2,260.5,244.1,260.4z M246.7,259.2c0.1-0.4,0.1-0.9,0.3-1.2c0.1-0.2,0.7,0,1,0.2
		c0.5,0.2,0.9,0.6,1.3,0.9c0,0.1,0,0.2-0.1,0.3C248.5,259.3,247.8,259.3,246.7,259.2z M246.1,249.6c-0.2,0.6-0.3,1-0.5,1.6
		C244.9,250,244.9,250,246.1,249.6z M232.1,254.9c0,0.1-0.2,0.2-0.3,0.3c-0.1-0.1-0.3-0.3-0.4-0.5c0-0.1,0.1-0.3,0.2-0.7
		C231.9,254.4,232,254.6,232.1,254.9z M178.8,284.9c-0.4,1.6,0.7,3.2-0.1,4.9c-0.1,0.2,0.3,0.7,0.6,1c0.3,0.3,0.8,0.5,1.1,0.8
		c0.7,0.6,0.7,1.1,0,1.6c-0.2,0.1-0.5,0.2-0.7,0.3c-2,1.1-2.3,3-0.7,4.6c0.4,0.4,1,0.7,1.5,1c0.6,0.4,1.2,0.6,1.7,1
		c0.7,0.5,0.8,1.1,0.3,1.7c-0.6,0.8-1.3,1.6-2.5,1.4c-0.3-0.1-0.6,0.1-1.1,0.2c0.3,0.6,0.5,0.9,0.7,1.3c0.5,0.9,0.2,1.4-0.8,1.4
		c-0.3,0-0.5-0.1-0.8-0.1c-0.3,0-0.8,0.2-0.8,0.3c0,0.3,0.1,0.8,0.3,1c0.2,0.2,0.6,0.4,0.9,0.4c1,0,1.7,0.6,2.4,1.3
		c1.3,1.2,3.5,1.3,4.8,0.1c0.8-0.7,1.5-0.7,2.3-0.1c0.5,0.4,1.3,0.6,2,0.8c0.5-1.3,0.8-2.3,1.2-3.4c0.9,0.6,1.5,1,2.3,1.5
		c-0.3-2.3-0.3-2.3,0.8-2.8c0.4,1.6,0.5,3.6,3.1,2.8c0.2-0.1,0.7,0.6,0.8,1c0.1,0.2-0.1,0.7-0.3,0.8c-0.3,0.1-0.8,0.1-1.1-0.1
		c-0.4-0.1-0.8-0.4-1.2-0.7c-0.3,0.6-0.5,1-0.6,1.4c-0.2,0.8,0.9,2.7,1.6,3.1c1,0.5,1.7-0.1,2.3-0.7c1.1-0.9,2.2-1.9,3.2-2.8
		c-0.6-0.4-1.6-0.8-1.8-1.4c-0.5-1.7-2.2-2.4-3-3.9c-0.1-0.1,0-0.3-0.1-0.5c0.3-0.6,0.7-1.4,1.1-2.2c1.8,0.6,3.5,0.8,5.3,0.6
		c-0.3-0.8-0.6-1.5-0.7-2.2c-0.1-0.7,0-1.4,0-2.3c-1.7,0.4-3.3,0.5-4,2.7c-0.7-1.4-2.4-1.9-1.8-3.3c0.9-0.2,1.7-0.1,2.1-0.4
		c0.6-0.6,0.3-1.4-0.2-2c-0.3-0.3-0.5-0.6-0.7-1c0.1-0.3,0.3-0.6,0.4-1c0.3-1.9,1-3.9-1.1-5.4c-0.7-0.5-0.7-1.3-0.3-2
		c0.2-0.4,0.5-0.8,0.8-1.1c-1.1-1.3-1.5-1.4-2.8-0.7c-0.8,0.5-1.6,1-2.7,1.7c1-2.6,1-2.6,0.4-4.3c0.8,0,1.7,0.2,2.4,0
		c0.7-0.3,1.2-1,1.8-1.5c0.1-0.1,0.4-0.1,0.6-0.1c0.1,0.6,0.3,1.1,0.4,1.8c1.7,0.1,3.3,0.3,4.1,2.1c0.1,0.2,0.9,0.3,1.2,0.1
		c0.4-0.2,0.7-0.8,1.1-1.3c-1.5-0.8-2.9-1.5-4.3-2.1c-1.5-0.7-1.7-1.1-1-2.6c0.8-1.6,0.7-1.9-0.8-3.2c-0.6,0.3-1.2,0.5-1.8,0.8
		c-0.4-0.8-0.8-1.5-1.1-2.2c-1.6,0.4-2.4,1.2-2.7,2.4c-0.2,0.6-0.1,1.5-0.5,1.8c-0.4,0.3-1.3,0.1-1.9,0.1c-0.1,0-0.2,0.1-0.3,0.2
		c0.1,1.3,2.3,0.5,2.2,2.3c-0.7-0.2-1.2-0.5-1.8-0.5c-1,0-1.8-0.1-2.5-1c-0.4-0.6-1.1-0.5-1.5,0.1c-0.3,0.4-0.5,0.7-0.8,1.2
		c-0.4-0.2-0.7-0.4-1-0.4c-0.3,0-0.8,0.2-0.9,0.4c-0.1,0.3,0.1,0.8,0.2,1.1c0.1,0.2,0.5,0.2,0.7,0.3c1.8,0.5,3.7,1.9,4.9,3.6
		c-1.9,0.9-3.8,0.8-5.9,0.6c0,0.3,0.1,0.5,0.1,0.8c0,0.2,0.1,0.4,0.1,1.1c-1-0.7-1.8-1.1-2.2-1.7C180.9,285,180,284.7,178.8,284.9
		L178.8,284.9z M193,301.5c-0.7-0.3-1-0.8-0.6-1.8C193.2,300.6,193.2,300.6,193,301.5z M180.8,307.2c0,0,0,0.1-0.1,0.1
		c0,0-0.1,0-0.1-0.1c0,0,0-0.1,0.1-0.1C180.7,307.1,180.8,307.1,180.8,307.2z M234.6,297.8c0.2-0.2,0.5-0.3,0.7-0.5c0,0,0-0.1,0-0.1
		c0.1-0.5,0.2-0.9,0.3-1.4c0.1-0.5,0.2-1.1,0.3-1.6c-0.4-2.9-0.8-5.8-3.8-7.5c-0.3-0.2-0.5-0.6-0.8-0.9c-0.4-0.6-1-0.7-1.6-0.4
		c-0.4,0.2-0.8,0.4-1.2,0.6c-1.3-1.8,1.8-1.6,1.2-3.1c-1-0.4-2.4,1.2-3.2-0.6c0.3-0.5,0.6-1.1,0.9-1.6c-0.7-1.1-1.7-0.9-2.6-1
		c-1.5-0.1-1.7-0.4-1.8-1.8c-0.1-0.7-0.2-1.4-0.4-2.1c-1.8,0.5-1.8,0.5-3.9,0.2c-0.3,0-0.7,0-1,0.1c-2.5,1.8-5.1,3.5-6.3,6.6
		c-0.6,1.6-1.8,2.7-3.7,2.7c-0.4,0-0.9,0.3-1.7,0.7c0.8,0.5,1.3,0.8,1.7,1.1c0.6,0.3,0.8,0.9,0.7,1.5c-0.3,1.8-0.6,3.6-0.9,5.3
		c0,0.3,0,0.7,0.1,1c0.8,1.2,0.7,2.4,0.7,3.7c-0.1,1.9,0.4,3.5,2.1,4.6c-0.7,0.9-0.5,1.6,0.4,2.2c0.3,0.2,0.5,0.6,0.7,1
		c1.2,2.2,3.2,2.7,5.6,1.2c-0.5-0.5-0.9-0.9-1.4-1.4c-0.8-0.8-1.9-1.5-1.8-2.8c0-1.1-0.4-1.7-1.3-2.3c-0.4-0.2-0.8-0.8-0.8-1.3
		c-0.1-1.3-0.1-2.6-0.1-4.1c0.5-0.6,1.2-1.5,1.9-2.3c-0.1-0.3-0.2-0.6-0.3-0.8c-0.4-1.3-0.1-1.6,1.2-1.6c0.3,0,0.6,0.2,0.8,0.1
		c1.2-0.3,2.5-0.3,3-1.7c0.5-1.7,1.7-2.6,3.2-3.7c1.3,1.3,2.5,2.4,4.1,3.9c0.2,0.1,1.6-0.4,1.4,0.8c-0.3,1.4,0.5,2.2,0.9,3.2
		c0.5,1.3,1.3,1.4,2.2,0.4c0.4-0.5,0.8-1,1.3-1.6c1.1,2.1,1.3,2.9,0.9,4.2c-0.7,2.2-0.1,3.2,2.2,3.7c0.1-0.7,0.2-1.4,0.3-2.2
		C234.9,298.1,234.8,297.9,234.6,297.8z M225.9,286.2c0-0.1,0.4-0.5,0.6-0.4c0.7,0.2,0.9,0.7,0.8,1.5
		C226.3,287.3,225.9,286.9,225.9,286.2z M319.5,394.3c-0.4,0.7-0.8,1.3-1.4,2.3c1,0.2,1.7,0.7,2.2,0.4c1.4-0.7,2.3-0.1,3.3,1
		c0.5-0.9,0.8-1.8,1.3-2.4c0.6-0.7,1.1-1.4,0.6-2.1c-0.5-0.7-1.3-1.2-2.5-1.1c0.4,0.7,0.7,1.3,1.1,2.2
		C322.4,394.5,321,394.4,319.5,394.3z M183.3,312.3c-1-1.4-1.9-1.7-3-1.3c-1.1,0.4-0.4,1.3-0.5,1.9c-0.9,0.5-1.9,1-2.8,1.5
		C179.1,316.8,181.3,316,183.3,312.3z M193.2,460.8c1.3-0.4,2.7-0.8,3.4-2.3c-1.8-1.1-2.9-1-5,0.6
		C191.8,460.1,192.3,461.1,193.2,460.8z M202.2,448.4c-1.2-0.3-2.3,0.6-2.6,2.2c-0.1,0.3,0,1,0.2,1.1c0.4,0.1,0.9,0.1,1.2-0.2
		c0.7-0.5,1.2-1.2,1.8-1.8c0.1-0.1,0.1-0.4,0.3-0.7C202.8,448.7,202.5,448.4,202.2,448.4z M203,287.1c-0.5,1.4-2.5,1-2.8,2.6
		c0.8,0.6,1.3-0.1,2-0.2c0.7-0.1,1.4-0.3,2.4-0.5c-0.4-0.7-0.6-1.3-0.9-1.9C203.4,287.1,203.2,287.1,203,287.1z M331.1,415.2
		c-0.1,1.1,0.5,1.4,1.5,1.3c0.2-0.8,0.4-1.6,0.6-2.3C331.8,413.9,331.2,414.2,331.1,415.2z M308.2,373.2c-0.7,1.5,0.9,2.4,0.7,4
		C310.4,375.7,310.2,374.7,308.2,373.2z M325.4,403.8c-0.2,1.6,0.3,2.4,1.7,2.2C326.6,404.3,326.6,404.3,325.4,403.8z M272.4,402.7
		c-0.1-1.2-0.3-2-1.2-2.3c-0.4-0.1-0.8,0.3-1.7,0.7C270.7,401.8,271.4,402.2,272.4,402.7z M193.3,452c-1.3,0.2-1.4,1.1-1.5,2.4
		C193.7,453.5,193.7,453.5,193.3,452z M202.2,277c-0.6-0.3-1.1-0.2-1.4,0.5C201.8,277.9,201.8,277.9,202.2,277z M213.2,394.1
		c-0.3,0.6-0.1,1.1,1,1.5c-0.2-0.7-0.4-1.1-0.5-1.6C213.5,394,213.3,394.1,213.2,394.1z M319.4,357.7c0,0,0.3,0.4,0.4,0.3
		c0.3-0.1,0.5-0.3,0.7-0.5c-0.1-0.1-0.2-0.3-0.5-0.5C319.8,357.3,319.6,357.5,319.4,357.7z M337.8,338.7c0.3,0.1,0.6,0.2,1,0.3
		c0-0.1,0.1-0.3,0.1-0.3c-0.3-0.2-0.6-0.3-0.9-0.5C338,338.3,337.9,338.5,337.8,338.7z M310.2,372.7c-0.1-0.3-0.3-0.6-0.4-0.9
		c0,0-0.2,0-0.3,0.1c0.1,0.3,0.2,0.7,0.2,1C309.9,372.8,310,372.7,310.2,372.7z M307.1,376.1c-0.1,0-0.2,0.2-0.4,0.4
		c0.2,0.1,0.3,0.3,0.5,0.3c0.1,0,0.2-0.2,0.3-0.4C307.4,376.2,307.2,376.1,307.1,376.1z M330.3,419.3c0-0.1-0.2-0.3-0.3-0.4
		c-0.2,0.1-0.3,0.3-0.5,0.4c0.1,0.1,0.2,0.3,0.4,0.5C330.1,419.6,330.3,419.4,330.3,419.3z M330,316c0-0.1-0.1-0.2-0.1-0.3
		c-0.1,0.1-0.3,0.2-0.4,0.2c0.1,0.1,0.2,0.2,0.2,0.2C329.8,316.1,330,316,330,316z M269.1,242.7c-0.1,0-0.2,0.1-0.3,0.2
		c0.1,0.1,0.3,0.2,0.4,0.3c0.1-0.1,0.1-0.2,0.2-0.3C269.3,242.9,269.2,242.7,269.1,242.7z M181.1,282.2c-0.1,0-0.2,0.1-0.3,0.2
		c0.1,0.1,0.3,0.2,0.4,0.3c0.1-0.1,0.1-0.2,0.2-0.3C181.3,282.3,181.2,282.2,181.1,282.2z M325.3,438.7c-0.1,0-0.2,0.1-0.3,0.2
		c0.1,0.1,0.2,0.2,0.3,0.3c0.1-0.1,0.1-0.2,0.2-0.3C325.5,438.8,325.4,438.7,325.3,438.7z M327.6,417.2c-0.1,0-0.2,0-0.3,0
		c0,0.1,0.1,0.3,0.1,0.4c0.1,0,0.2-0.1,0.3-0.1C327.7,417.4,327.7,417.3,327.6,417.2z M194.7,272.5c-0.1,0-0.2,0.1-0.3,0.1
		c0,0,0.1,0.1,0.1,0.1c0,0,0.1,0,0.2,0C194.7,272.6,194.7,272.5,194.7,272.5z M181,302c0,0,0-0.1,0-0.2c-0.1,0-0.2,0.1-0.2,0.1
		c0,0,0.1,0.1,0.1,0.1C180.9,302.1,181,302.1,181,302z M219.5,274.8c0,0,0-0.1,0-0.2c-0.1,0-0.2,0.1-0.3,0.1c0,0,0.1,0.1,0.1,0.1
		C219.4,274.9,219.5,274.9,219.5,274.8z M207.4,436.7c0.1,0,0.2-0.1,0.3-0.1c0,0-0.1-0.1-0.1-0.1c0,0-0.1,0-0.2,0
		C207.4,436.6,207.4,436.7,207.4,436.7z M178.9,284.8c0,0-0.1-0.1-0.1-0.1L178.9,284.8C178.8,284.9,178.9,284.8,178.9,284.8z
		 M269.8,326.9c-0.5,0.2-1.1,0.9-1,1.2c0.2,0.9,1,1.1,1.9,0.8C270.8,327.4,270.5,326.6,269.8,326.9z"/>
</g>
<g>
	<path fill="#333333" d="M196.9,110c5,0,10.1-0.1,15.1-0.7c4.9-0.6,7.2,0.3,7.3,4.3c0.1,18.6,0,37.2,0,55.8c0.2,0,0.5,0,0.7,0
		c-0.2,4.5-0.4,9.1-0.8,13.6c-0.1,0.7-1.2,1.9-1.8,1.9c-5.2,0.2-10.5,0.4-15.8,0.3c-4-0.1-4.5,0.1-4.6,4.1c-0.1,6.5,0,13,0.1,19.5
		c0.1,2.9,2.6,4.8,5.6,4.5c2.9-0.3,5.7-0.7,8.6-0.8c8.5-0.2,17-0.3,25.4-0.4c1.3,0,2.6,0.3,3.9,0.4c3.6,0.1,7.3,0.7,10.8,0.2
		c6-0.8,6.1-1.1,6-5.6c-0.2-6.7-0.4-13.4-0.8-20c-0.1-1.2-1.2-3.2-2.2-3.4c-2.9-0.6-5.9-0.8-8.8-0.7c-2.8,0.1-4.7-0.3-4.5-3.7
		c0.1-1.4-0.1-2.8-0.1-4.2c-0.1-7.8-0.1-15.5-0.2-23.3c-0.1-4.8-0.3-9.6-0.3-14.4c0-0.7,0.5-1.5,0.8-2.2c0.6,0.4,1.3,0.7,1.6,1.2
		c2.6,4.2,5.1,8.6,7.8,12.8c4.3,6.5,8.7,12.8,13.1,19.2c2.8,4.1,5.7,8.1,8.5,12.1c2.6,3.7,6,7.1,6.4,12c0.4,4.3,1.1,8.5,1.2,12.8
		c0,2.8,1,3.5,3.5,3.3c7.7-0.6,15.5-1.2,23.2-1.5c6.7-0.3,13.5-0.2,20.3-0.2c2.2,0,3-0.9,2.9-3c-0.2-6.9-0.4-13.9-0.6-20.8
		c-0.1-2.7-1.4-4.5-4-4.8c-4-0.4-8.1-0.4-12.1-0.7c-5-0.4-5-0.6-5-5.8c0.1-11.4,0-22.9,0.2-34.3c0.1-8.7,0.4-17.3,0.5-26
		c0-2.6,1.3-3.7,3.7-3.9c3.3-0.3,6.6-0.4,9.8-0.9c6.7-1,6.8-0.7,6.3-6.6c-0.4-5.7-0.9-11.5-1.3-17.2c-0.2-2.1-1.1-3.4-3.3-3.7
		c-2.7-0.3-5.4-0.9-8.1-0.7c-8.7,0.6-17.3,1.5-26,2.3c-4.9,0.5-6.2,2.1-5.9,7.1c0.2,3.3,0.2,6.6,0.3,9.9c0.4,9.2,0.8,18.3,1.2,27.5
		c0.6,10.2,1.3,20.4,1.8,30.6c0,0.7-0.4,1.5-0.6,2.2c-0.6-0.5-1.5-0.8-1.9-1.4c-8.5-12.1-17-24.2-25.2-36.5
		c-3.9-5.9-7.3-12.1-10.6-18.4c-2.6-4.9-4.5-10.1-6.8-15.1c-0.6-1.3-1.6-3.3-2.7-3.5c-5.9-0.9-11.8-2.1-17.8-1.9
		c-8.1,0.2-16.2,1.7-24.3,2.2c-2.8,0.2-3.6,1.1-3.5,3.7c0.3,6.8,0.3,13.7,0.7,20.5C194.8,108.5,196.2,110,196.9,110z"/>
	<path fill="#333333" d="M357,130.5c5.9,0.1,11.9,0.1,17.8,0.1c0.7,0,1.8-0.6,1.9-1.1c0.7-3.1,1.7-6.3,1.5-9.3
		c-0.1-2.4,0.6-2.5,2.4-2.5c5,0,10-0.1,15-0.1c0.6,0,1.7,0.7,1.7,1.1c0.2,4.1,0.2,8.2,0.1,12.3c-0.1,5.1-0.7,10.2-0.6,15.3
		c0.1,7.6,0.8,15.2,1,22.8c0,1-0.8,2.8-1.5,3c-2.6,0.7-5.4,0.8-8,1.2c-4.8,0.6-7.3,2.3-7.2,7c0.2,6.2,0.6,12.4,1.3,18.5
		c0.4,4,2.1,4.8,6.2,4.3c3.8-0.5,7.7-0.9,11.5-0.8c8.7,0.2,17.5,0.7,26.2,1c1.3,0.1,2.8-0.3,3.9,0.2c2.8,1.2,5.2,0.3,5.6-2.7
		c0.3-2.1,0.3-4.3,0.3-6.4c0.1-6,0.2-12,0-18c0-1.2-1-3.2-1.8-3.4c-2.7-0.6-5.6-1-8.3-0.7c-4.6,0.5-5,0.4-5.1-4.2
		c-0.1-7.3-0.6-14.6-0.7-22c-0.2-9-0.2-18-0.3-27c0-0.5,0.5-1.4,0.8-1.4c4.3-0.3,8.5-0.4,12.8-0.5c2.5-0.1,3.2,1.4,3.3,3.7
		c0.2,3.1,0.5,6.2,1.1,9.3c0.2,0.8,1.5,1.9,2.3,1.9c5.8,0,11.7,0,17.5-0.5c1.6-0.1,4.2-1.8,4.4-3c0.5-4.3,0.1-8.6,0-12.9
		c-0.1-5.8-0.4-11.5-0.1-17.3c0.1-3-1-4-3.6-4.1c-7.7-0.2-15.5-0.5-23.2-0.4c-7.8,0.1-15.7,0.5-23.5,0.9c-6.8,0.4-13.6,1.2-20.4,1.4
		c-9.1,0.2-18.3,0.1-27.4,0.1c0,0,0,0.1,0,0.1c-1.8,0.2-3.6,0.3-5.4,0.5c-2.7,0.2-4.3,1.5-4.5,4.3c-0.1,1.9-0.3,3.8-0.4,5.7
		c-0.3,6.5-0.6,13-0.7,19.5C353,128.7,354.4,130.5,357,130.5z"/>
	<path fill="#333333" d="M560.2,282.7c-2.2,0-4.5-0.1-6.7,0.1c-1.9,0.2-2.8-0.5-2.8-2.4c-0.1-7.1-0.3-14.2-0.3-21.3
		c0-4.2,0.5-8.4,0.5-12.6c0-2.3,0.1-3.8,3-3.8c1.9,0,3.7-0.6,5.6-0.7c2.4-0.2,3.7-1.5,3.6-3.8c-0.1-4.5-0.4-9-0.4-13.5
		c0-2.4-0.9-3.8-3.2-3.9c-8-0.4-15.9-0.7-23.9-0.8c-1,0-2.8,1.4-3,2.4c-0.4,2.9-0.2,5.8-0.2,8.7c0,2.1,0.2,4.2,0.2,6.4
		c0,2.6-0.4,5.1-0.3,7.6c0.3,5.1,1,10.1,1.4,15.1c0.1,0.8-0.2,1.6-0.3,2.4c-0.8-0.3-1.8-0.4-2.4-1c-4.4-4.4-8.9-8.8-13-13.5
		c-3.6-4.1-6.8-8.5-10-12.9c-3.1-4.4-6-9-9-13.4c-0.3-0.5-1-1.2-1.4-1.2c-2.3,0.1-4.7,0.5-7,0.7c-1.5,0.1-2.9,0.4-4.4,0.3
		c-3.7-0.2-7.4-0.6-11.1-0.8c-2.2-0.1-4,0.2-4.1,3.2c-0.1,4.4-0.7,8.7-0.9,13.1c-0.1,2.7,0.8,5.1,3.8,5.6c3.6,0.6,7.3,0.9,11,1.1
		c1.6,0.1,2.1,0.6,3,2.1c1.9,3.3,1.1,6.6,1.1,9.8c-0.1,9.6-0.3,19.3-0.7,28.9c0,1.2-0.8,3.3-1.6,3.4c-1.7,0.4-3.8,0.1-5.4-0.5
		c-1.7-0.7-6.9-0.8-7.8,0.9c-1.2,2.5-2,5.2-2.6,7.9c-0.1,0.6,1.2,1.5,1.9,2.3c0.2,0.2,0.2,0.6,0.2,0.9c0.3,1.8,0.8,3.6,0.9,5.4
		c0.2,3.2,1.9,5.2,5,5.5c5.2,0.4,10.5,0.4,15.7,0.7c2.7,0.1,5.4,0.4,8.1,0.7c2.4,0.2,5.1-2.1,7.1,0.9c0.1,0.2,0.6,0.1,1,0.1
		c4.7-0.1,7.2-3,7.9-7.4c0.4-2.7,0.2-5.5-0.2-8.3c-1.2-9.3-1.7-9.6-11.3-9.5c-1.1,0-2.9-1.5-3.1-2.5c-0.5-3.1-0.4-6.4-0.6-10.6
		c0.2-3.4,0.4-7.8,0.6-12.1c0-0.5,0.4-1.1,0.5-1.6c0.3,0.2,0.8,0.3,1,0.5c3.4,3.9,6.7,8,10.1,11.8c4.3,4.8,8.6,9.7,13.2,14.2
		c1.8,1.8,2.9,3.4,3.1,5.8c0.4,4.3,0.9,8.5,1.4,12.8c0.2,1.8,1,2.4,3,2.2c3.7-0.4,7.6-1,11.2-0.5c3.8,0.6,7.3,1.5,11.2,0.8
		c4.1-0.8,4.8-1,4.9-5.3c0.1-5.6,0.1-11.2,0.1-16.8C564,284.2,562.8,282.7,560.2,282.7z M532.6,273.9c-0.1-0.1-0.1-0.2-0.2-0.3
		c0,0,0.1-0.1,0.1-0.2c0.1,0.1,0.1,0.2,0.2,0.3C532.7,273.8,532.6,273.9,532.6,273.9z M533.2,279c-0.1-0.1-0.2-0.1-0.4-0.3
		c0.1-0.1,0.2-0.2,0.3-0.2c0.1,0.1,0.2,0.2,0.2,0.4C533.3,278.9,533.2,279,533.2,279z M533.8,284.3c-0.1,0-0.1-0.1-0.1-0.1
		c0.1,0,0.2-0.1,0.3-0.1c0,0.1,0,0.1,0,0.2C533.9,284.3,533.9,284.3,533.8,284.3z M534.6,264.2c0.1,0.1,0.2,0.2,0.2,0.4
		c0,0-0.1,0.2-0.1,0.2c-0.1-0.1-0.2-0.1-0.3-0.2C534.4,264.4,534.5,264.3,534.6,264.2z M535.5,283.8c-0.1,0-0.3-0.1-0.4-0.2
		c0.1-0.1,0.1-0.3,0.2-0.4c0.1,0,0.3,0.1,0.4,0.1C535.6,283.5,535.6,283.7,535.5,283.8z M536.1,268.5c-0.5-0.6-1.1-1.2-1.6-1.8
		c0,0,0.2-0.3,0.4-0.5c0.5,0.6,1.1,1.2,1.6,1.8C536.4,268.2,536.3,268.4,536.1,268.5z M536.3,265.1c0.1-0.1,0.2-0.3,0.3-0.3
		c0.2,0,0.4,0.2,0.6,0.3c-0.1,0.2-0.3,0.4-0.3,0.4C536.7,265.3,536.5,265.2,536.3,265.1z M537.1,287c-0.1-0.3-0.2-0.5-0.3-0.7
		c0.2-0.1,0.4-0.2,0.5-0.2c0.1,0,0.3,0.3,0.2,0.3C537.5,286.6,537.3,286.7,537.1,287z M537.9,294.6c0-0.1-0.1-0.1-0.1-0.2
		c0-0.1,0.1-0.1,0.1-0.1c0,0.1,0,0.1,0.1,0.2C538,294.5,538,294.5,537.9,294.6z M538.3,280.5c-0.6-1-1.1-2-1.5-3.1
		c-0.1-0.3,0.6-0.8,0.9-1.1c0.6,1.1,1.2,2.3,1.9,3.7C539.2,280.2,538.4,280.6,538.3,280.5z"/>
	<path fill="#333333" d="M603.8,229.5c-0.3-2.5-0.3-4.7-0.8-6.8c-0.3-1-1.4-2.5-2.3-2.6c-2.9-0.4-5.9-0.4-8.9-0.4
		c-5.9,0.1-9.6,2-15.6,0.2c-3-0.9-6.3,2.1-6.2,5.3c0,3.5,0.4,6.9,0.4,10.4c0,3.1,1.8,4.5,4.5,4.8c1.6,0.2,3.4,0.3,4.9,0
		c2-0.4,2.5,0.3,2.6,2.1c0.5,9.9,0.6,19.5,1.3,29.4c0.4,5.9-0.4,12.2,0,18.1c0.3,4.9,0.3,9.9,0.5,14.9c0.1,2.5,0.6,4.7,3.8,4.7
		c5.6-0.1,11.2-0.1,16.8-0.3c10.9-0.4,21.7-0.8,32.6-1.2c3.8-0.1,7.7-0.3,11.5-0.3c1.1,0,2.2,0.4,3.3,0.7c1.5,0.4,3,0.8,4.5,1.2
		c0.2-1.5,0.8-3.1,0.6-4.5c-1.3-8.5-3.3-17-1.9-25.8c0.1-0.8-1.2-2.4-2-2.5c-5.4-0.5-10.8-0.9-16.2-0.9c-2.4,0-3.8,1.7-3,4.5
		c0.5,2,1,4,1.1,6.1c0.1,0.8-0.8,2.3-1.3,2.3c-3.3,0.2-6.5,0.1-9.8,0.1l-11.2,0.5c-3.8,0.6-7.5,1.2-11.3,1.6c-0.6,0.1-2-1.5-2-2.2
		c-0.1-10.7,0.1-21.5,0-32.2c0-4-0.2-8.1-0.6-12.1c-0.2-2.1-0.2-3.5,2.4-4.2c1-0.3,1.5-2.4,2-3.8c0.1-0.1,0.1-0.3,0.2-0.4
		L603.8,229.5z"/>
	<path fill="#333333" d="M451.9,228.9c-7.8-4.5-16.1-7.4-25.3-7.2c-13.6,0.3-20.1,7.3-24.4,19.5c-0.3,0.8-0.7,1.6-1,2.4
		c-1.6,4.2-3.7,8.3-4.6,12.7c-0.8,4-0.4,8.4-0.4,12.6c0,0.9,0.6,1.7,0.6,2.6c-0.3,6.8,2.1,12.7,5.5,18.3c0.9,1.4,2.4,2.5,3.7,3.7
		c0.1-1.5-0.3-2.4-0.8-3.5c0,0,0.6-0.3,0.9-0.5c0,0,0,0,0,0c0,0,0,0,0,0c0.5,0,1.1,0,1.6,0.1c-0.4-0.7-0.7-1.3-1.5-2.8
		c1.2,0.8,2.3,1.2,2.4,1.7c0.5,2.5,0.7,5,1,7.6c0.1,1,0.2,2.4,0.8,2.8c2.4,1.7,4.9,3.5,7.6,4.5c11,3.8,21.9,2.5,32.3-2
		c4.1-1.8,8.5-4.5,11.2-8c3.9-5,6.6-11,7.4-17.5c1-8.2,1.9-16.4-1-24.4c-0.9-2.4-2.3-4.7-3.6-7C461,238.5,457.9,232.3,451.9,228.9z
		 M400.4,255.6c0.1,0,0.3,0.2,0.5,0.4c-0.2,0.3-0.3,0.5-0.5,0.6c-0.2-0.2-0.4-0.4-0.5-0.6C399.9,255.9,400.3,255.6,400.4,255.6z
		 M399.8,253.6c0.1,0.2,0.1,0.3,0.2,0.5c-0.1,0-0.3,0.1-0.4,0.1c0-0.1-0.1-0.3-0.1-0.4C399.5,253.7,399.7,253.6,399.8,253.6z
		 M399.7,257.2c0.2,0.4,0.4,0.6,0.4,0.9c0,0.1-0.3,0.3-0.4,0.4c-0.2-0.2-0.4-0.5-0.6-0.7C399.1,257.7,399.4,257.4,399.7,257.2z
		 M399.2,265.7c0.1,0.1,0.2,0.2,0.3,0.4c-0.1,0.1-0.2,0.2-0.3,0.3c-0.1-0.2-0.2-0.3-0.3-0.5C398.9,265.9,399.1,265.7,399.2,265.7z
		 M398.4,268.2c0.2,0.4,0.3,0.8,0.5,1.1c-0.3-0.2-0.7-0.5-1-0.7C398,268.4,398.2,268.3,398.4,268.2z M399.4,274.6
		c-0.1,0-0.2-0.2-0.2-0.3c0.2,0,0.5-0.1,0.7,0c0.1,0,0.2,0.2,0.3,0.3C399.8,274.6,399.6,274.6,399.4,274.6z M398.9,269.3
		c0.3-0.4,0.6-0.8,1-1.2c0.1,0.2,0.2,0.3,0.4,0.5C399.8,268.9,399.3,269.1,398.9,269.3z M401.6,276.6c-0.1,0-0.3,0-0.4,0
		c-0.1-0.5-0.1-0.9-0.2-1.4c0,0,0.4-0.1,0.6-0.2C401.6,275.6,401.6,276.1,401.6,276.6z M401.2,272.7c-0.6-0.9-0.8-1.2-0.8-1.4
		c0-0.2,0.3-0.5,0.5-0.7c0.2,0.3,0.6,0.5,0.7,0.9C401.7,271.7,401.5,272.1,401.2,272.7z M400.9,252c0.4,0,0.7-0.1,1.1-0.1
		c0,0,0.1,0.3,0.1,0.4C401.6,252.3,401.3,252.2,400.9,252z M404.9,255.6c-0.1-0.1-0.2-0.2-0.3-0.3c0,0,0.1-0.2,0.1-0.3
		c0.1,0,0.2,0.1,0.2,0.1C404.9,255.3,404.9,255.5,404.9,255.6z M409.3,276.6c-0.3,0-0.5-0.2-0.8-0.4c0.2-0.3,0.4-0.6,0.4-0.6
		c0.3,0.2,0.6,0.4,0.9,0.6C409.6,276.3,409.4,276.6,409.3,276.6z M426.9,223.5c0,0.2,0.1,0.3,0.1,0.5c-0.7,0.1-1.4,0.3-2,0.4
		c0-0.2-0.1-0.4-0.1-0.6C425.6,223.7,426.2,223.6,426.9,223.5z M421.9,248.3c0,0,0.1,0,0.2,0.1c0,0.1-0.1,0.1-0.1,0.2
		c-0.1,0-0.1-0.1-0.2-0.1C421.8,248.4,421.8,248.3,421.9,248.3z M418.5,225.6c0,0.1,0.1,0.1,0.1,0.2c-0.1,0.1-0.2,0.1-0.3,0.2
		c0,0-0.1-0.1-0.1-0.1C418.3,225.7,418.4,225.6,418.5,225.6z M411.7,276.7c0-0.1,0.1-0.3,0.2-0.3c0.1,0,0.2,0.1,0.3,0.2
		c-0.1,0.1-0.1,0.3-0.3,0.3C411.9,276.9,411.7,276.7,411.7,276.7z M412.2,298.6l0-0.2l0.2,0.1L412.2,298.6z M414.4,284.4
		c-0.6-1-1.2-2-1.6-3.1c-0.1-0.4,0.5-1.1,0.9-2c1.1,1.2,2.2,1.9,2.5,2.9C416.3,282.7,415,283.6,414.4,284.4z M416.3,275.4
		c-0.1-0.2-0.3-0.3-0.3-0.4c0.1-0.2,0.2-0.4,0.3-0.5c0.1,0.1,0.3,0.2,0.2,0.3C416.6,275,416.4,275.2,416.3,275.4z M417.3,289.6
		c-0.1-0.5-0.3-1-0.4-1.5c0.2,0,0.3-0.1,0.5-0.1c0.1,0.5,0.3,1,0.4,1.5C417.6,289.5,417.5,289.5,417.3,289.6z M417.6,276.8
		c-0.2-0.3-0.4-0.6-0.4-0.7c0.1-0.2,0.4-0.4,0.7-0.5c0.1,0.2,0.2,0.5,0.2,0.7C418.1,276.4,417.8,276.5,417.6,276.8z M428.4,303.4
		c0,0-0.1,0-0.2,0c0-0.1,0.1-0.2,0.1-0.3c0,0,0.1,0.1,0.1,0.1C428.5,303.3,428.5,303.3,428.4,303.4z M430,285.2l0-0.2l0.1,0.1
		L430,285.2z M431.2,283.4c-0.2,0-0.5-0.5-0.7-0.8c0-0.1,0.2-0.5,0.4-0.5c2.2,0,4.3,0,6.5,0c0,0.2,0.1,0.4,0.1,0.6
		C435.3,282.9,433.3,283.2,431.2,283.4z M439.4,282l-0.2-0.1l0.2-0.1L439.4,282z M442.5,278.7c0.2-0.3,0.3-0.5,0.5-0.8
		c0.3,0.2,0.6,0.5,0.9,0.7C443.4,278.7,442.9,278.7,442.5,278.7z M445,278.9c-0.3-0.1-0.5-0.1-0.8-0.2c0.3,0,0.6,0,0.8,0
		C445,278.8,445,278.8,445,278.9z M448.7,262.4c-1.7,5.1-1.8,10.9-6.6,14.6c-0.2,0.2,0.2,1.1,0.4,1.8c0,0,0,0,0,0
		c-0.2,2.4-1.3,1.8-3.3,1.7c-3.2-0.2-6.9,0.2-9.6,1.8c-2.3,1.4-3.3,1-4.7-0.6c0.3,0.1,0.6,0.2,1,0.3c0.7,0.1,1.3,0.2,2,0.3
		c-0.5-0.4-0.9-0.8-1.4-1.1c-1-0.5-2-3.2-3.3-0.2c-0.9-0.7-1.9-1.5-2.8-2.2c-0.1-0.1-0.1-0.3-0.1-0.4c0.3,0,0.7,0,1,0
		c0-0.4,0.1-0.9,0-1.1c-1.1-1.7-3-3.3-3.2-5c-0.4-3.3-0.3-6.9,0.4-10.2c1.3-6.5,5-11.9,9.8-16.4c1-0.9,3.3-1.3,4.6-0.9
		c6.8,2.1,12,6.6,15.6,12.7C449,258.7,449.2,260.9,448.7,262.4z M450.1,257.9c-0.4-0.6-0.8-1.2-1.1-1.9c0.2-0.1,0.3-0.2,0.5-0.3
		c0.3,0.6,0.6,1.3,0.9,1.9C450.3,257.8,450.2,257.9,450.1,257.9z M452,258.9c-0.1,0-0.2-0.1-0.4-0.1c0.1-0.1,0.2-0.2,0.3-0.3
		c0.1,0.1,0.2,0.2,0.2,0.3C452.1,258.8,452,258.9,452,258.9z"/>
	<path fill="#333333" d="M340.4,198.7c8.6,7,20.5,5.9,29.3-1.9c6.3-5.5,8.6-12.3,8.2-19.4c0.9-11.3-8.5-23.5-19-26.2
		c-3-0.8-6.7-0.8-9.6,0.2c-8.3,2.7-12.6,9.7-15.4,17.3c-3,8-1.3,16,1.9,23.6C336.8,194.8,338.4,197.1,340.4,198.7z M351.1,171.8
		c0.7-2.9,3.4-3,5.5-3.1c0.7,0,1.7,1.8,2.2,3c1.7,4.6,0.8,9.2-0.7,13.6c-0.4,1-2.4,1.9-3.7,2c-0.9,0.1-2.4-1.1-2.8-2.1
		c-0.9-2.3-1.2-4.7-1.8-7C350.3,175.8,350.7,173.8,351.1,171.8z"/>
	<path fill="#333333" d="M407.5,290.7c-0.4-0.4-0.9-0.8-1.3-1.2c0.2,0.5,0.5,1.1,0.7,1.6C407.1,290.9,407.3,290.8,407.5,290.7z"/>
</g>
<polygon points="642.4,238.5 642.4,238.3 642.5,238.4 "/>
<path d="M659.2,238.1c-0.2,0.1-0.4,0.3-0.7,0.4c0.4,0.1,0.8,0.2,1.1,0.2C659.5,238.5,659.3,238.3,659.2,238.1z"/>
<path d="M639.5,240.2c-0.1-0.1-0.2-0.2-0.3-0.3c-0.1,0.1-0.2,0.2-0.2,0.3c0.1,0,0.1,0.1,0.2,0.1
	C639.3,240.3,639.4,240.2,639.5,240.2z"/>
<path fill="#333333" d="M624.2,285.9c1.6-0.8,3.5-0.6,4.9-1.3c2.9-1.4,3.7-4,3.5-7.3c-0.2-3.2-1.8-6.6,0.7-9.7
	c6.9-8.6,13.7-17.4,20.8-25.9c1.1-1.4,2.9-2.2,4.5-3.1c-0.4-0.1-0.8-0.2-1.3-0.3c0-0.2,0-0.5,0-0.7c1.4-0.1,2.8-0.4,4.2-0.1
	c2.4,0.4,3.2-0.6,3.2-2.8c-0.1-3.3-0.2-6.6-0.2-9.9c0-3.3-2.2-5.8-5.5-5.5c-5.6,0.4-11.3,0.9-16.9,1.6c-0.9,0.1-2.4,1.8-2.4,2.6
	c0.3,5.1,1.7,10.2,1.3,15.2c-0.2,2.5-3.1,4.8-4.8,7.1c0,0.1-0.6-0.1-0.8-0.3c-1.9-1.9-3.7-3.8-5.5-5.7c-0.2-0.2,0.1-1.4,0.3-1.4
	c2.5-0.5,2.5-2.3,2.5-4.2c-0.1-3.7-0.3-7.4-0.3-11.1c0-4.4-0.6-5.2-5-5.1c-4.7,0.2-9.4,0.7-14.1,0.7c-6.4-0.1-7.5,0-8.3,4.5
	c0,0,0.7,7.2,1.3,10.3c1,4.8,1.1,5.3,5.9,5.8c3.2,0.3,5.6,1.5,7.6,4.2c2,2.7,4.5,5,6.9,7.4c1.8,1.7,2.5,3.3,0.7,5.5
	c-2.4,3-4.8,6.1-6.9,9.3c-1.5,2.3-3.4,2.8-5.9,2.7c-1.5-0.1-3.1-0.2-4.6,0.1c-2.6,0.6-4.2,2.1-3.7,5.1c0.2,1,0.3,2,0.3,2.9
	c0.1,4.5,0.4,8.9,6.3,9.9L624.2,285.9z"/>
<path opacity="0.8" d="M522,416.2c-1.2-10.1-7.5-16.7-15.3-21.9c-7.5-4.9-15.9-7.9-24.7-9.6c-8.1-1.6-15.9,0.7-23.8,1
	c-0.3,0-0.6,0.2-0.9,0.3c-5.5,1.8-11.1,3.6-16.7,5.3c-0.6,0.2-1.8-0.4-2.2-1c-4.2-5.5-6.3-11.9-7.7-18.5c-0.7-3.3-0.5-6.9-0.1-10.3
	c0.4-3.4,1.3-7,2.7-10.1c1.2-2.6,2.2-4.6,0.7-7.4c-1.4-2.6-3.5-3.2-6.1-3.2c-2.2,0-4.4-0.4-6.6-0.2c-2.7,0.2-6.5-0.2-7.8,1.4
	c-2.6,3-4.1,7.1-5.6,10.9c-1.1,2.7-1.1,5.8-2,8.6c-1.9,5.7-4.1,11.2-6.1,16.8c-2.3,6.5-7.6,10.8-11.6,16.1c-0.3,0.4-2.3,0.1-2.6-0.4
	c-0.8-1.5-0.9-3.4-1.8-4.9c-3-5.4-1.7-11.2-1.6-16.9c0,0,0,0,0,0c0.3-2.1,0.5-4.2,0.9-6.3c0.8-3.8,2-7.6,2.4-11.4
	c0.2-1.9,0.8-4.9-2.4-5.4c-1.6-0.3-3.3,0.2-5,0.4c0,0.3,0,0.5,0,0.8c1.5,0.4,2.9,0.8,5.2,1.4c-2.9,0-4.9,0.2-6.9,0
	c-3-0.3-5.9-1.2-8.9-1.3c-1.1,0-2.8,1.2-3.3,2.3c-1.8,3.9-3.1,7.9-4.6,11.9c0,0,0,0,0,0c-0.4,0.5-1,1-1.2,1.5
	c-2.3,6.2-4.1,12.5-6.7,18.6c-3.9,9-8.1,17.7-12.4,26.5c-1.9,3.9-4,7.6-6.1,11.3c-0.9,1.6-2.1,3.1-3.2,4.7c0-1.8-0.2-3.7,0-5.5
	c0.6-4.6,1.2-9.3,1.9-13.9c0.8-5.1,1.8-10.2,2.4-15.3c0.4-3.5-1.4-6.5-3.4-6.5c-2.3,0-4.6,0.2-6.7,0.3c0.2-1,0.6-1.9,0.4-2.7
	c-1-4.3-1.6-8.7-3.3-12.7c-2.4-5.5-7.6-7.4-13.3-6.1c-9.5,2.1-16.3,8.2-23,14.5c-5,4.9-9.6,10.1-16.1,13.2c-8.3,4-16.3,8.7-24.5,13
	c-0.9,0.4-2.8,0.1-3.5-0.6c-2.5-2.5-4.5-5.4-6.9-7.9c-2.8-2.8-5.9-5.3-8.8-8c-4-3.7-7.8-7.6-11.9-11.2c-3.3-2.9-7.2-5.3-10.5-8.2
	c-7.1-6.1-12.8-13.1-14.7-22.7c-1.7-8.8-1-17.3,5-24.1c6.1-6.9,12.8-13.5,20.1-19.1c12.7-9.7,25.9-18.7,39.3-27.5
	c6.1-4,12.8-7.5,19.7-9.6c11.5-3.4,23.3-5.7,35-7.9c8.8-1.7,17.7-2.5,26.6-3.7c0.1,0,0.3,0.3,0.5,0.4c0.8,0.5,1.5,1.3,2.3,1.4
	c6,0.5,11.9,0.8,17.9,1.2c0.1,0,0.2,0.3,0.3,0.4c0.4,0.9,0.8,1.8,1.3,2.6c2.2,3.3,5.3,6.2,6.5,9.8c3.6,10.2,0.2,20-4.5,28.8
	c-4.1,7.8-10.5,14.4-18.1,19.2c-10.8,7-22.3,12.7-34.8,16.2c-13.8,3.8-27.7,2.3-41.5-0.3c-4.5-0.8-10.1-3-10.1-3
	c-0.3-0.1-0.7-0.3-1-0.5c-1.3-0.8-2.4-2.1-3.8-2.8c-0.7-0.3-1.9-0.1-2.6,0.4c-0.4,0.3-0.7,1.5-0.5,2.1c0.6,1.9,1.1,3.2,1.3,4.2
	c0,0,2.1,4.3,5,6.9c4.7,4.9,11.1,6.6,17.1,9.2c2.2,1,4.7,1.8,7.1,2c3.3,0.3,6.8,0.2,10.1-0.2c6.1-0.7,12.2,0.8,18.3-1.2
	c8.3-2.7,17.3-3.2,25-7.8c0,0,0,0,0,0c0,0,0,0,0,0c0,0,0.1,0,0.1,0c0,0,0,0,0,0c0.2-0.3,0.5-0.6,0.8-0.7c4.6-2.6,9.2-5.1,13.8-7.6
	c0.2-0.1,0.5-0.4,0.7-0.4c1.4-0.4,2.9-0.5,4.2-1.1c2.4-1.2,4.8-2.6,7-4.1c3.6-2.5,7.3-5.1,10.7-7.9c2.3-2,4.4-4.4,6.3-6.8
	c3.8-4.9,7.3-9.9,11-14.9c0,0,0,0,0,0c1.6-3.7,3.2-7.4,4.7-11.1c0.3-0.7,0.5-1.5,0.7-2.3c-1,0.1-1.9,0.2-2.9,0.4
	c0.1-0.2,0-1,0.3-1.2c2.8-1.8,2.6-4.7,2.7-7.5c0.3-5.2-0.7-10.2-2.4-15.2c-3.8-11.3-11-19.9-21.1-25.9c-5.3-3.1-10.8-6.4-16.7-7.8
	c-6.3-1.5-13.1-1.3-19.6-1.2c-6.4,0.1-12.8,0.8-19.2,1.7c-6.2,0.9-12.5,2.1-18.5,3.9c-11.2,3.4-22.3,7.3-33.4,11.2
	c-4,1.4-8.1,3-11.7,5.2c-19.4,11.9-39.2,23.4-56.4,38.4c-8.1,7-16.4,13.8-20.6,24.3c-2,5.1-5.7,9.9-6.5,15.1
	c-1,6.8,0.1,13.9,0.4,20.9c0.2,4.7,2.8,8.3,6,11.3c5,4.6,10.1,9,15.4,13.3c6.6,5.4,13.6,10.4,20.1,16.1c5.1,4.4,9.6,9.5,14.4,14.2
	c2.6,2.6,5.2,5.3,7.8,8c1.2,1.2,1.2,2-0.5,2.9c-7.9,4.1-15.9,8.1-23.6,12.6c-7.1,4.2-14.2,8.5-20.7,13.5c-6.9,5.4-12.3,12.6-16,20.6
	c-4.6,9.9-3.2,20.2,0.4,30c3.5,9.4,12.6,14.4,22.6,13.2c6-0.7,12-1.4,18-1.8c4.5-0.3,8.8-1.2,12.7-3.6c7.6-4.5,15.7-8.2,20.8-16.3
	c6.4-10.3,12.4-20.5,13.1-33.1c0.6-10.6-0.3-20.9-3.9-30.9c-0.7-1.9,0-2.8,1.5-3.5c4.7-2.2,9.4-4.3,14.1-6.6
	c2.2-1.1,2.9-0.1,2.5,1.7c-0.4,1.9-1.3,3.7-2,5.5c-2,5.5-2.4,11.2-1.9,17.1c0.8,9,1.2,17.9,6.5,25.8c6.5,9.6,13.3,10.1,22.1,2.6
	c5.1-4.4,9.2-10.1,13.8-15.3c0.6,1.8,1.3,3.7,1.8,5.6c2.3,8.3,9.6,12.4,17.9,9.9c0.8-0.3,1.7-0.8,2.2-1.5c1.2-1.7,2.2-3.5,3.2-5.3
	c3.3-5.6,6.6-11.2,9.8-16.9c3.1-5.5,6.1-11.1,9-16.7c3.9-7.6,7.7-15.2,11.6-22.8c0.3-0.5,2-0.9,2.4-0.5c3.3,2.9,6.5,6.1,9.7,9.1
	c1.7,1.5,1.3,2.9,0.1,4.5c-3.7,5.1-7.5,10.1-11,15.3c-4.5,6.8-9,13.6-13.1,20.6c-2.3,3.8-0.9,7.3,3.4,8.7c2.7,0.9,5.8,0.9,8.7,1.4
	c9.7,1.7,17.6-1.4,24.6-8.2c6.5-6.3,8.8-14.2,10-22.5c1-6.4,1-12.8-1.3-19c-0.2-0.4,0-1.2,0.3-1.6c5.5-7.5,11-15.1,16.4-22.6
	c0.9-1.2,1.4-1.3,2.2,0.1c2.5,4.2,5.3,8.3,7.9,12.5c0.3,0.6,0.2,1.9-0.3,2.3c-1.5,1.6-3.4,2.9-4.9,4.4c-7.6,7.9-13.3,16.8-15.4,27.8
	c-1,5.3-0.7,10.3,3.7,13.7c4.2,3.3,9.6,4,14.2,1.2c5.9-3.7,11.3-8.2,16.7-12.6c3.5-2.8,6.3-6.4,7.2-11c1.2-6.1,2.9-12.1,1.6-18.4
	c-0.1-0.5,0.4-1.5,1-1.8c4.8-2.6,9.9-1.7,15-1.1c4.6,0.5,9.3,1,13.9,1.4c0.1,0,0.1,0,0.2,0c9.5,0.9,16.4,3.4,16.4,3.4
	c0.6,0.2,1.3,0.7,1.9,0.7c10.2,0.5,16.3,6.8,17.7,16.8c1.6,11.1-4.2,19-9.9,27.1c-0.4,0.5-0.5,1.2-0.7,1.8c0.7,0.3,1.6,0.9,2.2,0.8
	c2.4-0.7,4.9-1.3,6.9-2.7c2.5-1.8,4.5-4.2,6.6-6.4c4.5-4.7,8.1-9.9,7-16.9C523.4,423.2,522.5,419.7,522,416.2z M384,356.8
	c0,0,0.1,0,0.1,0c0,0.1,0,0.1,0,0.2c0,0-0.1,0-0.1,0C383.9,356.9,384,356.8,384,356.8z M383.8,355c0,0.1,0.1,0.1,0.1,0.2
	c-0.1,0-0.1,0-0.2,0.1C383.7,355.2,383.8,355.2,383.8,355z M324.1,344.9c-0.1,0-0.1,0-0.1-0.1c0,0,0-0.1,0.1-0.2
	c0.1,0,0.1,0.1,0.2,0.1C324.2,344.8,324.1,344.9,324.1,344.9z M328.6,342.7c0.2-0.1,0.6-0.2,0.6-0.2c0.2,0.3,0.3,0.7,0.4,1
	C329.3,343.3,329,343,328.6,342.7z M329.7,327.7c0,0-0.1-0.2-0.1-0.2c0-0.1,0.1-0.1,0.2-0.1c0,0.1,0,0.1,0.1,0.2
	C329.8,327.6,329.7,327.7,329.7,327.7z M330.6,341.6c0-0.1,0-0.3,0-0.4c0-0.1,0.1-0.1,0.2-0.1c0.1,0.1,0.1,0.2,0.2,0.3
	C330.8,341.4,330.7,341.5,330.6,341.6z M332.7,326.1c0-0.1-0.1-0.2,0-0.2c0.1-0.1,0.2-0.1,0.3-0.2c0,0.1,0,0.1,0.1,0.2
	C332.9,326,332.8,326,332.7,326.1z M339.5,322c-0.1-0.1-0.2-0.1-0.2-0.2c0-0.1,0.1-0.3,0.2-0.4c0.1,0.1,0.1,0.1,0.2,0.2
	C339.6,321.7,339.6,321.8,339.5,322z M340.9,320.9c0-0.1-0.1-0.2-0.1-0.4c0-0.1,0.1-0.1,0.1-0.2c0.1,0.1,0.2,0.2,0.3,0.3
	C341.1,320.8,341,320.8,340.9,320.9z M353.2,328.9c-0.1,0-0.1,0-0.2-0.1c0,0,0-0.1,0.1-0.2c0.1,0,0.1,0,0.2,0.1
	C353.2,328.8,353.2,328.9,353.2,328.9z M357.5,318.1c-0.1-0.1-0.3-0.2-0.5-0.3c0.1-0.1,0.2-0.3,0.3-0.2c0.2,0,0.4,0.2,0.5,0.3
	C357.8,317.8,357.7,317.9,357.5,318.1z M358,304.9c-0.1,0-0.2-0.1-0.3-0.1c0-0.1,0.1-0.2,0.1-0.2c0.1,0,0.1,0,0.2,0.1
	C358,304.7,358,304.8,358,304.9z M362.1,317.5c-0.2-0.1-0.5-0.4-0.5-0.7c0-0.2,0.3-0.5,0.5-0.7c0.4,0.3,0.7,0.6,1.3,1.1
	C362.8,317.4,362.4,317.6,362.1,317.5z M387.5,268.9l0.1,0.2l-0.1,0L387.5,268.9z M387.1,282.8c0.1,0,0.2,0,0.4,0c0,0.1,0,0.1,0,0.2
	c-0.1,0-0.3,0-0.4,0C387.1,282.9,387.1,282.8,387.1,282.8z M384.3,299.3c0,0.3,0,0.5-0.1,0.8c-0.1-0.2-0.2-0.4-0.3-0.6
	C384,299.3,384.2,299.3,384.3,299.3z M378.2,306.5c0.1,0,0.1,0.1,0.2,0.1c0,0.1-0.1,0.1-0.1,0.2c-0.1,0-0.2-0.1-0.2-0.1
	C378.1,306.7,378.1,306.6,378.2,306.5z M374.1,302.2l0,0.2l-0.1,0L374.1,302.2z M372.1,314.4c0,0,0.1,0.1,0.1,0.2
	c-0.1,0-0.2,0.1-0.3,0.1c0-0.1,0-0.1,0-0.2C371.9,314.4,372,314.4,372.1,314.4z M368.3,270.8c0.1,0,0.2,0.1,0.4,0.1
	c-0.1,0.1-0.1,0.2-0.2,0.4c-0.1-0.1-0.2-0.2-0.2-0.3C368.2,270.9,368.3,270.8,368.3,270.8z M366.6,280.5c0,0.1,0.1,0.1,0.1,0.2
	c0,0-0.1,0.1-0.1,0.1c-0.1,0-0.1-0.1-0.2-0.1C366.5,280.7,366.5,280.6,366.6,280.5z M366.4,320.1c0.1,0,0.1,0.1,0.2,0.1
	c0,0.1-0.1,0.2-0.1,0.2c-0.1,0-0.1,0-0.2,0C366.3,320.3,366.3,320.2,366.4,320.1z M366.2,282.4c0,0.1,0.1,0.1,0.1,0.2
	c0,0.1-0.1,0.1-0.1,0.2c0-0.1-0.1-0.1-0.1-0.2C366.1,282.5,366.1,282.4,366.2,282.4z M365.7,277.5c0.1,0.2,0.2,0.4,0.2,0.5
	c-0.1,0-0.2,0.1-0.4,0c0,0-0.1-0.1-0.1-0.2C365.5,277.7,365.6,277.6,365.7,277.5z M364.9,321.2c0,0.1,0.1,0.1,0,0.2
	c0,0-0.1,0.1-0.2,0.1c0-0.1-0.1-0.1,0-0.2C364.8,321.2,364.9,321.2,364.9,321.2z M363.9,266.6c0-0.1,0.2-0.1,0.2-0.1
	c0.1,0.1,0.1,0.2,0.2,0.3c-0.1,0-0.3,0-0.4,0C363.9,266.8,363.9,266.6,363.9,266.6z M362.9,265.3c0.1,0.1,0.1,0.2,0.2,0.3
	c-0.1,0-0.1,0.1-0.2,0.1c-0.1,0-0.1-0.1-0.2-0.1C362.7,265.5,362.8,265.4,362.9,265.3z M352.5,256.6c0.2,0.1,0.4,0.1,0.6,0.2
	c-0.1,0.2-0.1,0.3-0.2,0.5c-0.2-0.1-0.4-0.1-0.5-0.3C352.4,257,352.5,256.8,352.5,256.6z M304.5,246c0.2,0.3,0.4,0.6,0.6,1.1
	c-0.2,0.2-0.4,0.4-0.5,0.6c-0.2-0.3-0.6-0.6-0.6-0.9C304,246.6,304.3,246.3,304.5,246z M302.6,246c0.2,0.2,0.3,0.4,0.4,0.6
	c-0.2,0.1-0.4,0.2-0.5,0.1c-0.1,0-0.2-0.2-0.3-0.3C302.3,246.3,302.5,246.2,302.6,246z M301.5,243.9l0,0.2l-0.2-0.1L301.5,243.9z
	 M294.8,258.8c0,0.1,0.1,0.1,0.1,0.2c-0.1,0-0.1,0-0.2,0.1C294.8,259,294.8,258.9,294.8,258.8z M241.1,439.8
	c0.1,6.2,0,12.4-4.2,17.4c-4,4.8-8,9.7-12.9,13.5c-4.8,3.8-10.5,6.7-16.2,9.3c-7,3.1-12.2,0.1-14.6-7.9c-2-6.4,1.4-11.3,4.7-15.7
	c4.9-6.6,10.6-12.6,16.5-18.3c4.7-4.6,10.1-8.4,15.3-12.4c2.9-2.3,6.8-1.5,8.5,2.2c1.7,3.7,2.6,7.9,3.8,11.8
	C241.8,439.7,241.4,439.8,241.1,439.8z M303.7,421.7c-2.8,6.1-5.3,12.3-10,17.2c-1.2,1.3-2.8,2.3-4.4,2.9c-0.7,0.2-2.7-1-2.7-1.7
	c-0.3-3.4-0.2-6.9,0-10.3c0.4-5.4,0.6-10.9,1.7-16.1c2-9.3,6.9-17.4,12.9-24.8c0.3-0.4,0.8-0.8,1.2-0.8c2.6,0.3,3.2-1.8,4.2-3.4
	c0.4-0.6,1.3-1.3,2-1.3c0.5,0,1.2,1,1.4,1.7c0.5,2,0.8,4,1,5.2C309.4,401.5,308.2,411.9,303.7,421.7z M322.3,376.6
	c-0.2,0.1-0.3,0.3-0.5,0.4c0.1-0.2,0.1-0.4,0.2-0.7C322.1,376.4,322.2,376.5,322.3,376.6z M321.2,377.3c0.2-0.1,0.3-0.1,0.5-0.2
	c-0.1,0.1-0.2,0.2-0.4,0.3C321.2,377.5,321.2,377.4,321.2,377.3z M322.6,382.9c-0.1-0.1-0.2-0.2-0.2-0.3c0,0,0.1-0.2,0.1-0.2
	c0.1,0.1,0.3,0.1,0.4,0.2C322.8,382.8,322.7,382.8,322.6,382.9z M322.9,381.1c-0.1,0-0.3,0.1-0.4,0c-0.1-0.1,0-0.3,0-0.4
	c0.1,0,0.3-0.1,0.4,0C323,380.7,322.9,380.9,322.9,381.1z M354,406.8c-0.1,0-0.1-0.1-0.1-0.2c0.1,0,0.2-0.1,0.2-0.1
	c0.1,0,0.1,0.1,0.1,0.2C354.1,406.8,354,406.9,354,406.8z M359.4,368c-0.1-0.1-0.2-0.1-0.3-0.2c0-0.1,0.1-0.3,0.1-0.4
	c0.1,0.1,0.3,0.1,0.3,0.2C359.5,367.7,359.4,367.9,359.4,368z M359.7,364.4c0.7-0.7,1.4-1.3,2.1-2c0.2,0.2,0.3,0.5,0.5,0.7
	C361.4,363.6,360.5,364,359.7,364.4z M364.8,357.5c-0.5-0.1-0.9-0.5-1.4-0.8c0.3-0.2,0.6-0.6,1-0.6c0.4,0,0.8,0.2,2.3,0.7
	C365.6,357.2,365.1,357.6,364.8,357.5z M382,363.9c0.2,0.2,0.3,0.4,0.4,0.6c-0.1,0.1-0.3,0.2-0.3,0.1c-0.1-0.1-0.2-0.2-0.3-0.4
	C381.8,364.1,381.9,364,382,363.9z M375.6,437.9c-1.4,0.8-2.7,1.7-4.1,2.5c0.7-1.5,1.3-3.1,2.2-4.4c1.4-2.2,3-4.2,4.6-6.3
	c0.3-0.4,1.1-0.5,1.7-0.8c0.1,0.5,0.2,1.1,0.2,1.1C380.3,434,378.3,436.2,375.6,437.9z M381.2,372.3c0.3,0,0.6,0,0.9,0
	c-0.3,0.1-0.6,0.2-0.8,0.3C381.3,372.5,381.3,372.4,381.2,372.3z M386.7,397.3c-0.1,0-0.1-0.2-0.1-0.3c0.1,0,0.3-0.2,0.4-0.1
	c0.1,0,0.1,0.2,0.2,0.4C387,397.3,386.8,397.4,386.7,397.3z M402.1,394.9c0-0.1-0.1-0.2-0.1-0.2c0.1,0,0.1,0,0.2,0.1
	C402.2,394.7,402.2,394.8,402.1,394.9z M409.1,358.2c-0.2-0.4-0.4-0.5-0.4-0.7c0-0.1,0.1-0.3,0.1-0.5c0.2,0.1,0.5,0.2,0.5,0.3
	C409.4,357.5,409.2,357.7,409.1,358.2z M412.4,350c-0.1,0-0.1,0-0.2,0c0-0.1,0-0.2,0-0.2c0.1,0,0.1,0,0.2,0
	C412.4,349.9,412.4,350,412.4,350z M421.4,342.4c0,0-0.1-0.2-0.2-0.3c0.1-0.1,0.3-0.2,0.4-0.2c0.1,0,0.2,0.1,0.3,0.1
	C421.6,342.3,421.5,342.4,421.4,342.4z M428.4,342.7c0.1,0.1,0.2,0.2,0.2,0.3c0,0-0.1,0.1-0.1,0.1c-0.1,0-0.2-0.1-0.4-0.2
	C428.2,342.9,428.3,342.8,428.4,342.7z M423.3,342.5c0,0,0-0.1,0-0.2c0.1,0,0.2,0,0.4,0c0,0,0,0.1,0.1,0.2
	C423.6,342.5,423.4,342.6,423.3,342.5z M429,415.4c-1.1,3.3-2.3,6.6-3.6,9.8c-0.5,1.1-1.2,2.2-2,3.1c-0.5,0.6-1.3,1.1-2,1.6
	c-0.4-0.7-0.7-1.5-1.5-3c2.4-4.2,4.8-8.6,7.3-13c0.2-0.3,0.7-0.3,1.1-0.5C428.6,414.1,429.2,414.9,429,415.4z M439.2,395.2
	c-0.1,0-0.1,0-0.2,0c0-0.1,0-0.1,0-0.1c0.1,0,0.1,0,0.2,0C439.2,395.1,439.2,395.2,439.2,395.2z"/>
</svg>
