<svg id="Layer_1" xmlns="http://www.w3.org/2000/svg" viewBox="0 0 1920 900"><style>.st0{fill:none}.st1{fill:#f9a31a}.st2{fill:#395b87}.st3{fill:#4e2f1b}</style><path class="st0" d="M0 0h1920v1080H0z"/><circle class="st1" cx="881.1" cy="456.9" r="141.8"/><path class="st2" d="M312.3 350.7c7.6 5.2 17.2 7 27.2 5-10.8-28.5 5-66.2 43.6-66.2 10.4 0 19.1 4.1 25.4 10.2l27.2-26.7c2.4-37.3 10.9-59.7 35-59.7 18.3 0 23.9 19.5 4.6 38l-22.2 21.9c-.6 9.1-.7 19.8-.7 32.1 0 44.9-21.3 81.9-61.9 81.9-21.7 0-36.7-8.9-45.2-20.9-14.3 3.5-28.2 1.3-38.7-8.3l5.7-7.3zm42.4-.9c4.3-2.6 8.5-5.7 12.6-9.6l32.2-31.7c-4.4-3.5-10.2-5.7-16.5-5.7-25.3-.1-36.1 26.8-28.3 47zm6.1 10c6.1 7.2 15.9 12 29.7 12 29.5 0 44.3-28.5 44.3-66.5V291l-18.9 18.7c6.9 13.7 5.6 31.1-7.4 41.7l-8-8.2c8.3-8 9.6-17.2 6.5-25l-29.5 28.9c-5.4 5.3-10.9 9.5-16.7 12.7zm94-105.7l7.8-7.6c12.4-11.9 10.7-18.5 5.2-18.5-6.1 0-10.4 8-13 26.1zM690.9 327.3c2.6 1.1 5.9 4.1 7.2 6.7-15.9 18.5-34.3 35.6-50.2 35.6-15.6 0-21.3-13.2-13.2-27.4l25-43.6c9.3-15.9-8-20-44.3 31.3l-21.7 37.8h-19.6l39.8-69.1c9.1-15.8-7.8-19.8-43.6 30.2L548 367.7h-19.5l24.3-42.1c-7.6 3.2-15.8 4.6-23.9 4.6l-8.7 15.2c-10 17.2-25 25-37.6 25-12.4 0-22.2-7.4-22.2-20.6 0-6.1 2-13.2 6.9-21.5l13.7-24.1h6.1c-.2-1.5-.4-3.2-.4-4.8 0-11.9 10.9-29.1 29.3-29.1 28.2 0 32.6 25.4 20 47.8l-.7 1.3c10.6-.9 21.5-5.7 29.5-14.8l.7-.7 16.7-28.9h19.3L590 295c12.2-15.4 23.2-21.9 33.2-21.9 10.2 0 18 9.8 11.3 23.4 12.8-16.3 24.1-23.4 34.5-23.4 10.8 0 18.7 10.6 10.4 25.2L651.6 347c-4.4 7.6-2 10.6 2.2 10.6 8.5 0 22.1-12.8 36-28.9l1.1-1.4zm-210.3 12.3c-2.4 4.1-3.3 7.2-3.3 10 0 4.8 3.5 7.4 7.8 7.4 5 0 11.3-3.3 15.2-10l11.1-19.1c-7.2-2.2-13.5-5.7-18-10.7l-12.8 22.4zm41.3-29.7c7.2-12.2 4.8-25.8-6.3-26.1-6.9-.2-11.9 7-11.9 14.5 0 9.5 5.6 15.9 13.7 19.1l4.5-7.5z"/><path class="st2" d="M708 331.4l-1.9 3.3c-8.9 15.6-1.9 23 10 23 13.5 0 31.3-12.8 45.2-28.9l1.3-1.5c2.6 1.1 5.9 4.1 7.2 6.7-15.9 18.5-37.6 35.6-59.5 35.6-22.8 0-33.2-18.9-21.1-39.5l20.2-34.7c8.2-14.1 20.6-22.2 36.1-22.2 15.8 0 25.8 13.3 15.4 31.1l-2.8 4.8c-14.4 25.1-37.7 27.5-50.1 22.3zm5.5-9.4c7.2 2.6 19.6 3 28.9-12.8l2.8-4.8c11.5-20-8.2-23.2-19.3-4.1L713.5 322z"/><path class="st2" d="M780.8 265.8h17.4l18.2-31.5h19.3l-18.2 31.5h15.9l-5.6 9.3H812l-41.3 72.1c-4.4 7.6-2 10.6 2.2 10.6 8.5 0 22.1-12.8 36-28.9l1.3-1.5c2.6 1.1 5.9 4.1 7.2 6.7-15.9 18.5-34.3 35.6-50.2 35.6-15.6 0-21.3-13.2-13.2-27.4l38.7-67.1h-17.6l5.7-9.4z"/><path class="st2" d="M857.9 327.3c2.6 1.1 5.9 4.1 7.2 6.7-15.9 18.5-34.3 35.6-50.2 35.6-15.6 0-21.3-13.2-13.2-27.4l38.7-67.1h19.3l-41.3 72.1c-4.4 7.6-2 10.6 2.2 10.6 8.5 0 22.1-12.8 36-28.9l1.3-1.6zm4.3-84.5c6.3 0 11.3 5 11.3 11.3 0 6.3-5 11.1-11.3 11.1s-11.1-4.8-11.1-11.1c-.1-6.3 4.8-11.3 11.1-11.3z"/><path class="st2" d="M996.9 327.3c2.6 1.1 5.9 4.1 7.2 6.7-15.9 18.5-34.3 35.6-50.2 35.6-15.6 0-21.3-13.2-13.2-27.4l25-43.6c9.3-15.9-8-20-44.3 31.3l-21.7 37.8h-19.6l39.8-69.1c9.1-15.8-7.8-19.8-43.6 30.2L854 367.7h-19.5l53.6-92.7h19.3l-11.5 20c12.2-15.4 23.2-21.9 33.2-21.9 10.2 0 18 9.8 11.3 23.4 12.8-16.3 24.1-23.4 34.5-23.4 10.7 0 18.7 10.6 10.4 25.2L957.5 347c-4.4 7.6-2 10.6 2.2 10.6 8.5 0 22.1-12.8 36-28.9l1.2-1.4z"/><path class="st2" d="M1013.9 331.4l-1.9 3.3c-8.9 15.6-1.9 23 10 23 13.5 0 31.3-12.8 45.2-28.9l1.3-1.5c2.6 1.1 5.9 4.1 7.2 6.7-15.9 18.5-37.6 35.6-59.5 35.6-22.8 0-33.2-18.9-21.1-39.5l20.2-34.7c8.2-14.1 20.6-22.2 36.1-22.2 15.8 0 25.8 13.3 15.4 31.1l-2.8 4.8c-14.3 25.1-37.6 27.5-50.1 22.3zm5.6-9.4c7.2 2.6 19.6 3 28.9-12.8l2.8-4.8c11.5-20-8.2-23.2-19.3-4.1l-12.4 21.7z"/><path class="st2" d="M1060.3 354l12-6.3s2.6 7 9.1 7c18.3 0 14.3-36 21.9-56-6.9 9.1-16.5 22.6-27.4 35.2-2.8-1.9-5.6-4.3-7.2-6.7 17.4-20.4 34.8-45.6 42.8-56.5l14.5 7.8c-11.9 24.6-10.6 52.8-16.7 71.2 7.6-5.2 16.1-12.6 23.2-20.9l1.3-1.5c2.8.7 6.1 3.7 7.2 6.7-14.5 16.9-33.9 32.4-53.6 35-.2 0-.4.2-.6.2-1.9.2-3.5.4-5.4.4-17.6 0-21.1-15.6-21.1-15.6z"/><g><path class="st3" d="M253.3 576.3l-67.5-146.8h63.4l16.5 46.9c5.5 16.9 11 32.4 16.9 50h1.4c5.9-17.6 11.7-33.1 17.6-50l16.5-46.9h62l-67.5 146.8v77.2h-59.3v-77.2zM384.9 540.4c0-73.7 42-115.1 104-115.1s104 41.7 104 115.1c0 73.7-42 117.1-104 117.1s-104-43.3-104-117.1zm147.4 0c0-40.7-16.5-64.1-43.4-64.1s-43.4 23.4-43.4 64.1c0 40.7 16.5 66.1 43.4 66.1 26.9.1 43.4-25.4 43.4-66.1zM631.6 429.5h59.3v122.6c0 40 10.3 54.4 33.8 54.4 23.4 0 34.4-14.5 34.4-54.4V429.5h57.2v115.8c0 76.5-28.9 112.3-91.6 112.3-62.7 0-93-35.8-93-112.3V429.5zM956.8 584.9c15.8 12.7 35.8 21.7 52.4 21.7 17.9 0 25.5-5.9 25.5-15.8 0-10.7-11.4-14.1-30.3-21.7l-27.9-11.7c-24.1-9.6-45.1-30-45.1-62.4 0-38.2 34.4-69.6 83.4-69.6 25.5 0 53.7 9.6 74.4 30l-29.6 37.2c-15.2-10.7-28.2-16.2-44.8-16.2-14.5 0-23.4 5.2-23.4 15.2 0 10.7 12.7 14.5 33.1 22.4l27.2 10.7c27.9 11 43.8 30.3 43.8 61.3 0 37.9-31.7 71.7-87.5 71.7-28.2 0-60.6-10.3-84.7-32l33.5-40.8zM1129.7 429.5h59.3v122.6c0 40 10.3 54.4 33.8 54.4 23.4 0 34.4-14.5 34.4-54.4V429.5h57.2v115.8c0 76.5-28.9 112.3-91.6 112.3-62.7 0-93-35.8-93-112.3V429.5zM1462.5 425.4c28.2 0 52.4 13.8 68.2 29.6l-32.4 36.5c-11-9.6-20.7-15.2-35.1-15.2-26.9 0-49.6 24.1-49.6 64.8 0 42 19.3 65.5 48.2 65.5 17.2 0 29.6-7.6 39.3-17.9l32.4 35.8c-18.9 22-44.8 33.1-72.3 33.1-58.6 0-108.2-37.9-108.2-114.4-.1-75.1 51.6-117.8 109.5-117.8zM1564.4 429.5h59.3v83.4h1.4l56.5-83.4h64.8l-66.8 90.9 79.9 133h-64.8l-49.6-86.1-21.4 30.3v55.8h-59.3V429.5z"/></g></svg>