<?xml version="1.0" encoding="utf-8"?>
<!-- Generator: Adobe Illustrator 18.1.1, SVG Export Plug-In . SVG Version: 6.00 Build 0)  -->
<!DOCTYPE svg PUBLIC "-//W3C//DTD SVG 1.1//EN" "http://www.w3.org/Graphics/SVG/1.1/DTD/svg11.dtd">
<svg version="1.1" id="Layer_1" xmlns="http://www.w3.org/2000/svg" xmlns:xlink="http://www.w3.org/1999/xlink" x="0px" y="0px"
	 viewBox="0 0 800 600" enable-background="new 0 0 800 600" xml:space="preserve">
<g>
	<g>
		<defs>
			<rect id="SVGID_1_" width="800" height="600"/>
		</defs>
		<clipPath id="SVGID_2_">
			<use xlink:href="#SVGID_1_"  overflow="visible"/>
		</clipPath>
		<g id="CIbxgM_1_" clip-path="url(#SVGID_2_)">
				<image overflow="visible" enable-background="new" width="100%" id="CIbxgM_2_" xlink:href="web_creator_bg.jpg">
			</image>
		</g>
	</g>
</g>
<g>
	<g>
		<defs>
			<path id="SVGID_3_" d="M482.8,261.1c1-11.4,2.1-22.7,3.3-34.1c0.5-4.6,0.3-5.1-4.1-6c-1-0.2-2.1-0.5-3.1-0.4
				c-7.1,0.6-14-2.3-21.1-1.2c-0.5,0.1-1-0.2-1.6-0.2c-4.6-0.1-9.2-0.1-13.7-0.2c-2.5,0-5,0.1-7.5,0.1c-1.3,0-2.4-0.2-2.7-1.7
				c-0.7-3.6-1.7-7.2-0.1-10.7c5.5-0.8,10.8-1.2,16.1,0.2c1.6,0.4,3.4,0.1,5.1,0.2c2.5,0,5,0,7.5,0.1c4.2,0.2,8.3,0.4,12.5,0.7
				c0.9,0.1,1.8,0.1,2.7,0.3c5.8,1.6,8.6-0.8,8.4-6.8c-0.2-5.7-1.1-11.4-0.1-17.2c1.5-8.4,2.1-16.9,3.4-25.3
				c0.8-5.6-0.1-7.1-5.7-7.8c-0.5-0.1-1-0.2-1.6-0.2c-6.2,0.2-12.3-0.4-18.4-1.1c-7.2-0.9-14.6-0.8-21.9-1.3
				c-1.3-0.1-2.5-0.4-3.8-0.6c-1.9-5.9-1.8-11.3,0.9-17c2.3,0,4.2,0.1,6.2,0.1c5.2,0.1,10.5,0.1,15.7,0.2c4.2,0.1,8.4,0.3,12.6,0.1
				c5.2-0.3,10.1,2.4,15.4,1c2.7-0.7,3-0.1,3.5-2.9c0.3-1.4,0.3-2.9,0.4-4.3c0.6-9.2,1.1-18.3,1.7-27.5c0.1-2.2,0.6-4.4,0.8-6.6
				c0.6-4.5,1-9.1,1.9-13.6c1-5.7,2.3-11.3,3.5-16.9c0.5-2.5-0.7-3.7-3.2-3.2c-1.3,0.2-2.6,0.4-3.9,0.5c-6.9,0.2-13.9,0.6-20.8,0.6
				c-8.1,0-16.2-0.3-24.4-0.4c-4.7-0.1-9.4-0.2-14.1-0.1c-5.8,0.1-11.5,0.4-17.3,0.7c-7.7,0.4-15.4,0.7-23.1,1.2
				c-5.4,0.4-10.7,0.9-16,1.8c-7.2,1.2-14.4,2.8-21.6,4.3c-1.3,0.3-2.6,0.6-3.8,1c-2,0.7-2.4,1.7-2,3.9c0.2,1.4,0.4,2.9,0.4,4.3
				c0.1,6.4-0.3,12.9,0.1,19.3c0.5,8,1.8,15.9,2.3,23.9c0.6,9.3,1.2,18.6,1.2,27.9c0,7.6-0.8,15.2-1.1,22.8c-0.1,2.2-0.1,4.5,0,6.7
				c0.3,7.1,0.8,14.1,0.8,21.2c0.1,15,0,29.9,0,44.9c0,6.5,0,13.1-0.2,19.6c-0.1,4.1-0.4,8.1-0.4,12.2c0,3.8,0.1,7.6,0.6,11.3
				c0.5,4,1.5,7.9,2.5,11.9c0.4,1.5,1.5,2.7,3.2,1.7c3.1-1.8,6.5-1.6,10-1.7c11-0.4,22-0.8,33-1.2c6.9-0.3,13.9-0.8,20.8-1
				c13-0.3,25.9-0.3,38.9,0.8c3.7,0.3,7.2,1.1,10.5,2.9c1,0.6,2.1,1,3.2,1.4c3.3,1.1,4.9,0.5,6-2.9c0.5-1.6,0.5-3.3,0.6-5
				c0.1-1-0.2-2.1-0.1-3.1C481.4,279.4,482,270.2,482.8,261.1z M675.4,92c-0.3-1.3-0.6-3.1-1.6-3.8c-4.3-3-8.5-6.3-13.3-8.2
				c-5.2-2.1-10.9-2.9-16.4-3.9c-6.8-1.2-13.9-1.5-20.6-3.1c-14-3.2-27.9-7.2-42-10.6c-4-1-8.3-1.1-12.5-1.5c-3-0.3-6-0.2-9-0.6
				c-5.6-0.7-11.1-1.9-16.8-2.4c-6.4-0.5-12.8-0.6-19.3-0.7c-5.5-0.1-11,0.1-16.5,0.2c-0.6,0-1.4,0.1-1.9,0.5s-1,1.2-1.1,1.9
				c0,0.5,0.6,1.2,1.1,1.5c0.4,0.2,0.8,0.4,1.3,0.4c-0.1,1.7-0.4,4.2-0.4,4.2l0,0c-0.1,0.4-0.1,0.9-0.1,1.3c-0.4,4.2-0.7,8.4-1,12.5
				c-0.7,7.7-1.4,15.4-2.1,23.1c-0.1,0.8-0.3,1.5-0.4,2.3c-0.8,6.4-1.6,12.8-2.3,19.1c-0.3,2.3-0.1,4.7-0.4,7.1
				c-0.7,5.3-1.8,10.6-2.4,15.9c-1.9,16.8-2.7,33.7-3.4,50.7c-0.3,8.4-1,16.8-1.7,25.1c-0.9,10.3-2.2,20.6-3.2,30.9
				c-0.6,6.7-0.9,13.3-2.5,19.9c-1.4,5.7-1.8,11.7-2.4,17.5c-0.4,4.4,1.6,6,6,5.7c4.3-0.3,8.8-0.6,12.8,1.3c4.2,2,8.6,2.1,13,2.8
				c5.3,0.9,10.6,1.3,15.9,2.1c7.1,1.1,14.3,1.8,21.2,4c3,0.9,6.2,1.1,9.2,1.9c4.8,1.3,9.5,3,14.2,4.5c5.1,1.7,10.3,3.1,15.3,5.1
				c6.5,2.6,13.6,3.9,19.6,8.9c0,4.3,1.4,5.4,5.4,3.5c1.8-0.8,3.5-2.3,4.8-3.8c3.6-4,4.6-9.4,6.5-14.2c3.1-8.1,7.4-15.6,11.2-23.4
				c4-8.4,8.5-16.6,12.4-25c2.5-5.5,4.4-11.2,6.6-16.8c4.9-12.6,8.8-25.5,10.2-39.1c0.2-2.2-0.4-4-2.3-5c-3.3-1.9-6.6-3.8-10.1-5.2
				c-4.4-1.6-9.2-1.8-13.2-4.6c-1.4-1-3-1.5-4.6-2.2c-2.1-0.9-2.9-2.1-2.4-4.2c0.6-2.2,1.1-4.4,2-6.4c3.3-7.2,6.7-14.2,10-21.4
				c5-10.8,10.1-21.6,15-32.5c2.3-5.1,4.5-10.4,6.4-15.7c2.1-5.6,3.8-11.4,5.6-17.1C675.5,93.9,675.6,92.9,675.4,92z M337.5,64
				c-7.6,0.5-15.1-1-22.7,0.9c-8.8,2.2-17.9,2.4-27,2.6c-3.3,0.1-4.7,1.3-5.2,4.5c-0.3,1.7-0.2,3.4-0.5,5.1
				c-2,12.8-4.1,25.7-6.2,38.5c-0.2,1-0.6,1.9-1.1,3.3c-2.2-2.4-3.5-4.6-4.6-7.2c-1.2-2.9-2.6-5.8-4.6-8.2c-4-4.7-7.4-9.9-10.4-15.2
				c-2.6-4.5-5.7-8.8-8.3-13.4c-1.6-2.7-3.7-3.2-6.3-2.4c-3.4,1-6.6,2.6-10,3.3c-4.5,0.9-8.2,3.4-12.1,5.6c-2.6,1.5-4.7,3.2-3.8,6.8
				c0.2,0.8-0.1,1.8-0.2,2.7c-1.2,12.9-2.4,25.9-3.6,38.8c-0.2,2.1-0.6,4.2-1,7.2c-1.4-1.7-2.1-2.6-2.7-3.6
				c-2.3-3.5-4.3-7.2-6.8-10.6c-3.9-5.4-8.2-10.6-12.1-16c-2.8-3.8-6.4-7.4-4.6-13.6c-2-0.4-3.6-1.2-4.9-0.9
				c-2.5,0.5-4.8,1.8-7.3,2.6c-7.3,2.5-14.6,4.9-21.9,7.4c-8.6,3-17.2,6.2-25.8,9.4c-3.2,1.2-6.3,2.6-9.4,3.9
				c-1.2,0.5-2.7,1.2-2,2.8l1.8,5.6c0.8,2.7,1.5,5,2.2,7.2c3.1,9.6,7.6,18.6,10.2,28.4c0.9,3.5,2.4,6.9,3.9,10.3
				c2.9,6.5,5.9,12.9,8.8,19.3c3,6.6,5.8,13.2,8.8,19.7c1,2.3,2.2,4.5,3.3,6.7c1.7,3.4,3.5,6.7,5.2,10.1c3.5,7.2,6.9,14.4,10.4,21.6
				c2.9,5.9,6.5,11.5,8.9,17.5c6.7,16.5,14.7,32.5,19.9,49.6c0.1,0.5,0.3,1,0.5,1.4l0,0c0,0.1,0.1,0.3,0.2,0.4
				c0.1,0.2,0.2,0.5,0.4,0.7c0.1,0.2,0.3,0.3,0.4,0.5c1.6,2,4.5,4.4,4.5,4.4c1.2-0.3,2.3-0.5,3.3-0.9c3.6-1.6,7.2-3.3,10.7-4.9
				c5.8-2.6,11.9-4,18.1-5c5.9-1,11.8-2.1,17.8-3.1c0.9-0.1,1.8-0.1,2.7,0c2.7,0.3,3.3-0.3,3.4-2.8c0.1-2.6,0.1-5.3,0.8-7.8
				c2.5-8.7,3.4-17.7,4.6-26.7c0.3-2.4,0.9-4.8,1.5-8c1.4,2.2,2.2,3.8,3.4,5.1c3.8,4.7,6.9,9.8,9.4,15.4c0.7,1.5,1.6,3,2.6,4.3
				c2.4,2.9,4.6,5.9,5.9,9.6c1.4,4.2,4.7,5.2,9,4.2c5.8-1.4,11.7-3,17.7-3.7c6.6-0.8,13.3-0.8,20-1.2c0.8,0,1.7-0.1,2.5-0.2l0,0
				c0,0,6.4,0.2,7.4-0.4l0,0c1.4-0.4,2-2,1.7-3.6c-0.4-2.4-0.9-4.9-0.9-7.3c-0.1-4.6,0.3-9.2,0.2-13.8c-0.1-6.8-0.6-13.6-0.5-20.5
				c0.3-22.7,0.9-45.4,1.2-68.1c0.1-6.7-0.3-13.4-0.5-20c-0.1-2.7-0.1-5.5-0.3-8.2c-0.3-6.1-0.9-12.3-0.9-18.4
				c0-10.5,0.3-21,0.6-31.5c0.4-11.1,1-22.3,1.5-33.4c0-0.9,0.2-2.3-0.3-2.6C342.3,66.8,340.7,63.8,337.5,64z"/>
		</defs>
		<clipPath id="SVGID_4_">
			<use xlink:href="#SVGID_3_"  overflow="visible"/>
		</clipPath>
		<g id="_x33_c5Ucl_1_" clip-path="url(#SVGID_4_)">

				<image overflow="visible" enable-background="new    " width="638" height="479" id="_x33_c5Ucl" xlink:href="typewriter.jpg"  transform="matrix(0.9998 0 0 0.9998 87.0603 -49.9547)">
			</image>
		</g>
	</g>
</g>
<g opacity="0.8">
	<path fill="#F15A24" d="M480.5,258.1c1-11.4,2.1-22.7,3.3-34.1c0.5-4.6,0.3-5.1-4.1-6c-1-0.2-2.1-0.5-3.1-0.4
		c-7.1,0.6-14-2.3-21.1-1.2c-0.5,0.1-1-0.2-1.6-0.2c-4.6-0.1-9.2-0.1-13.7-0.2c-2.5,0-5,0.1-7.5,0.1c-1.3,0-2.4-0.2-2.7-1.7
		c-0.7-3.6-1.7-7.2-0.1-10.7c5.5-0.8,10.8-1.2,16.1,0.2c1.6,0.4,3.4,0.1,5.1,0.2c2.5,0,5,0,7.5,0.1c4.2,0.2,8.3,0.4,12.5,0.7
		c0.9,0.1,1.8,0.1,2.7,0.3c5.8,1.6,8.6-0.8,8.4-6.8c-0.2-5.7-1.1-11.4-0.1-17.2c1.5-8.4,2.1-16.9,3.4-25.3c0.8-5.6-0.1-7.1-5.7-7.8
		c-0.5-0.1-1-0.2-1.6-0.2c-6.2,0.2-12.3-0.4-18.4-1.1c-7.2-0.9-14.6-0.8-21.9-1.3c-1.3-0.1-2.5-0.4-3.8-0.6
		c-1.9-5.9-1.8-11.3,0.9-17c2.3,0,4.2,0.1,6.2,0.1c5.2,0.1,10.5,0.1,15.7,0.2c4.2,0.1,8.4,0.3,12.6,0.1c5.2-0.3,10.1,2.4,15.4,1
		c2.7-0.7,3-0.1,3.5-2.9c0.3-1.4,0.3-2.9,0.4-4.3c0.6-9.2,1.1-18.3,1.7-27.5c0.1-2.2,0.6-4.4,0.8-6.6c0.6-4.5,1-9.1,1.9-13.6
		c1-5.7,2.3-11.3,3.5-16.9c0.5-2.5-0.7-3.7-3.2-3.2c-1.3,0.2-2.6,0.4-3.9,0.5c-6.9,0.2-13.9,0.6-20.8,0.6c-8.1,0-16.2-0.3-24.4-0.4
		c-4.7-0.1-9.4-0.2-14.1-0.1c-5.8,0.1-11.5,0.4-17.3,0.7c-7.7,0.4-15.4,0.7-23.1,1.2c-5.4,0.4-10.7,0.9-16,1.8
		c-7.2,1.2-14.4,2.8-21.6,4.3c-1.3,0.3-2.6,0.6-3.8,1c-2,0.7-2.4,1.7-2,3.9c0.2,1.4,0.4,2.9,0.4,4.3c0.1,6.4-0.3,12.9,0.1,19.3
		c0.5,8,1.8,15.9,2.3,23.9c0.6,9.3,1.2,18.6,1.2,27.9c0,7.6-0.8,15.2-1.1,22.8c-0.1,2.2-0.1,4.5,0,6.7c0.3,7.1,0.8,14.1,0.8,21.2
		c0.1,15,0,29.9,0,44.9c0,6.5,0,13.1-0.2,19.6c-0.1,4.1-0.4,8.1-0.4,12.2c0,3.8,0.1,7.6,0.6,11.3c0.5,4,1.5,7.9,2.5,11.9
		c0.4,1.5,1.5,2.7,3.2,1.7c3.1-1.8,6.5-1.6,10-1.7c11-0.4,22-0.8,33-1.2c6.9-0.3,13.9-0.8,20.8-1c13-0.3,25.9-0.3,38.9,0.8
		c3.7,0.3,7.2,1.1,10.5,2.9c1,0.6,2.1,1,3.2,1.4c3.3,1.1,4.9,0.5,6-2.9c0.5-1.6,0.5-3.3,0.6-5c0.1-1-0.2-2.1-0.1-3.1
		C479.2,276.4,479.7,267.3,480.5,258.1z M478.1,238.1c-0.5,5-1,9.9-1.4,14.9c-1.1,12.2-2.2,24.3-3.3,36.5c0,0.5-0.2,1-0.3,1.4
		c-0.4,0.1-0.7,0.3-0.9,0.2c-6.9-3.4-14.4-3.6-21.9-3.8c-6.9-0.2-13.9-0.4-20.8-0.4c-5.6,0-11.2,0.5-16.9,0.7
		c-7.1,0.3-14.1,0.6-21.2,0.8c-11.5,0.4-23.1,0.7-34.7,1.1c-1.6-3.1-2.5-6.2-2.5-9.6c0-1.2,0.2-2.4,0-3.5
		c-1.7-6.9-0.9-13.8-0.7-20.8c0.1-4.8-0.1-9.7-0.1-14.5c-0.1-6.7-0.2-13.4-0.2-20.1c0-8,0.1-16,0-24c-0.1-7.2-0.5-14.4-0.5-21.6
		c0-8.1,0.5-16.3,0.5-24.4c0-10.1,0-20.2-0.5-30.3s-1.5-20.2-2.2-30.2c-0.1-2-0.2-3.9-0.1-5.9c0.2-4.7,0.6-9.4,0.6-14.2
		c0-2.3,1-3.4,3-3.8c3.1-0.7,6.1-1.7,9.2-2.1c5.8-0.8,11.4-2.9,17.4-2.7c3.6,0.1,7.2-1.1,10.9-1.5c2.7-0.3,5.5-0.4,8.2-0.5
		c6.5-0.4,13-0.8,19.6-1.2c3.4-0.2,6.8-0.3,10.2-0.2c19.3,0.4,38.6,0.8,57.9,1.3c1,0,2,0.2,3.6,0.4c-0.4,11.2-3.2,21.9-4,32.8
		c-0.8,11-2.1,21.9-3.2,32.6c-5.3-0.2-10.1-0.6-14.9-0.6c-4.8-0.1-9.7,0.3-14.5,0.3c-3.7,0-7.3-0.2-11-0.4c-2.5-0.1-5-0.6-7.4-0.7
		c-4.7-0.2-5.3-0.6-6.1,5c-0.8,5.8-0.7,11.5-1.2,17.2c-0.1,1.7,0.5,2.6,2,2.8c2.7,0.3,5.5,0.4,8.2,0.6c3.1,0.2,6.2,0.3,9.4,0.5
		c0.5,0,1,0.1,1.6,0.2c7.7,0.6,15.4,1.1,23.1,1.7c1.8,0.1,3.6,0.4,5.5,0.6c2.7,0.3,3.2,1,2.9,3.5c-0.5,4.4-1,8.9-1.5,13.3
		c-0.7,5.5-1.5,10.9-2.1,16.4c-0.3,2.3-0.1,4.7-0.1,7.1c0,2.6-0.1,5.2-0.2,8.2c-7.2-0.4-14-1.3-20.7-1c-6.2,0.3-12.3-0.2-18.4-0.9
		c-3.6-0.4-7.3,0.8-10.9-0.5c-1.7-0.6-3.3,1.5-3.1,3.6c0.2,4.1,0.5,8.1,0.7,12.2c0,0.9-0.1,1.8-0.3,2.7c-0.7,3.2-0.1,4,3.1,4.1
		c2.1,0,4.2-0.1,6.3-0.3c6.5-0.7,13-1.1,19.6-0.5c6,0.6,12,0.7,17.9,2.1c2,0.5,4.1,0.2,6.3,0.2C479.6,228.2,478.6,233.2,478.1,238.1
		z"/>
	<path fill="#F15A24" d="M673.2,89.1c-0.3-1.3-0.6-3.1-1.6-3.8c-4.3-3-8.5-6.3-13.3-8.2c-5.2-2.1-10.9-2.9-16.4-3.9
		c-6.8-1.2-13.9-1.5-20.6-3.1c-14-3.2-27.9-7.2-42-10.6c-4-1-8.3-1.1-12.5-1.5c-3-0.3-6-0.2-9-0.6c-5.6-0.7-11.1-1.9-16.8-2.4
		c-6.4-0.5-12.8-0.6-19.3-0.7c-5.5-0.1-11,0.1-16.5,0.2c-0.6,0-1.4,0.1-1.9,0.5s-1,1.2-1.1,1.9c0,0.5,0.6,1.2,1.1,1.5
		c0.4,0.2,0.8,0.4,1.3,0.4c-0.1,1.7-0.4,4.2-0.4,4.2l0,0c-0.1,0.4-0.1,0.9-0.1,1.3c-0.4,4.2-0.7,8.4-1,12.5
		c-0.7,7.7-1.4,15.4-2.1,23.1c-0.1,0.8-0.3,1.5-0.4,2.3c-0.8,6.4-1.6,12.8-2.3,19.1c-0.3,2.3-0.1,4.7-0.4,7.1
		c-0.7,5.3-1.8,10.6-2.4,15.9c-1.9,16.8-2.7,33.7-3.4,50.7c-0.3,8.4-1,16.8-1.7,25.1c-0.9,10.3-2.2,20.6-3.2,30.9
		c-0.6,6.7-0.9,13.3-2.5,19.9c-1.4,5.7-1.8,11.7-2.4,17.5c-0.4,4.4,1.6,6,6,5.7c4.3-0.3,8.8-0.6,12.8,1.3c4.2,2,8.6,2.1,13,2.8
		c5.3,0.9,10.6,1.3,15.9,2.1c7.1,1.1,14.3,1.8,21.2,4c3,0.9,6.2,1.1,9.2,1.9c4.8,1.3,9.5,3,14.2,4.5c5.1,1.7,10.3,3.1,15.3,5.1
		c6.5,2.6,13.6,3.9,19.6,8.9c0,4.3,1.4,5.4,5.4,3.5c1.8-0.8,3.5-2.3,4.8-3.8c3.6-4,4.6-9.4,6.5-14.2c3.1-8.1,7.4-15.6,11.2-23.4
		c4-8.4,8.5-16.6,12.4-25c2.5-5.5,4.4-11.2,6.6-16.8c4.9-12.6,8.8-25.5,10.2-39.1c0.2-2.2-0.4-4-2.3-5c-3.3-1.9-6.6-3.8-10.1-5.2
		c-4.4-1.6-9.2-1.8-13.2-4.6c-1.4-1-3-1.5-4.6-2.2c-2.1-0.9-2.9-2.1-2.4-4.2c0.6-2.2,1.1-4.4,2-6.4c3.3-7.2,6.7-14.2,10-21.4
		c5-10.8,10.1-21.6,15-32.5c2.3-5.1,4.5-10.4,6.4-15.7c2.1-5.6,3.8-11.4,5.6-17.1C673.3,90.9,673.4,89.9,673.2,89.1z M667.5,92.7
		c-0.2,1.2-0.6,2.3-0.8,3.4c-1,6-3.6,11.5-5.8,17.1c-1.9,5-3.6,10.1-5.8,15.1c-3.1,7.1-6.5,14-9.7,21.1c-2.6,5.6-4.8,11.4-7.8,16.8
		c-3.1,5.6-6.2,11.2-8.4,17.3c-1.3,3.8,0.7,9,4.4,10.5c3.1,1.3,6.2,2.7,9.4,4c1.7,0.7,3.5,1.6,5.2,1.6c4.6,0,8.3,2.4,11.9,4.8
		c0.8,0.5,1.5,2,1.4,2.9c-0.5,4.7-1.1,9.4-2.1,14c-2.2,10-5.8,19.6-9.2,29.3c-3.6,10.4-8.9,19.8-13.6,29.7
		c-4.9,10.5-10.8,20.7-15.1,31.5c-0.5,1.3-1.4,2.6-2.3,3.6c-1.1,1.2-2.7,1.9-3.9,3.1c-1.5,1.4-2.9,2.1-4.9,0.9
		c-2.4-1.4-4.8-2.9-7.3-3.8c-7.6-2.7-15.4-5.3-23.1-7.8c-3.2-1.1-6.5-2-9.8-2.9c-6.2-1.6-12.4-3.2-18.6-4.8c-1.7-0.4-3.3-0.9-5-1.2
		c-2.3-0.5-4.6-0.9-6.9-1.3c-3.4-0.6-6.7-1-10.1-1.6c-4.4-0.7-8.8-1.5-13.2-2.1c-2.4-0.4-4.9-0.4-7.4-0.8
		c-5.8-0.9-11.3-3.4-17.3-3.2c-1.3,0.1-2.7-0.7-3.7-1c0.1-5.1,0-9.7,0.4-14.2c0.5-5.6,1.7-11.2,2.3-16.8c1.6-16.3,3.2-32.6,4.6-49
		c0.7-7.6,1-15.2,1.4-22.8c0.7-11.9,1-23.9,2.1-35.7c1.2-12.3,3.7-24.4,4-36.7c0-0.4,0.1-0.8,0.1-1.2c1.2-11.6,2.5-23.2,3.7-34.8
		c0.5-4.8,0.8-9.7,1.2-14.5c0-0.1,0-0.3,0.1-0.5l0,0l0,0c0-0.3,0.1-0.5,0.1-0.8l0.4-3.3c5.6-0.5,11.2-0.2,16.8,0.1
		c4.6,0.2,9.2,0,13.8,0.4c11.8,1,23.5,2.3,35.2,3.6c0.9,0.1,1.8,0.2,2.7,0.5c9.1,2.4,18.3,4.7,27.4,7.2c9,2.5,18,4.5,27.3,5.6
		c4.9,0.6,9.8,1.5,14.7,2.5c2.6,0.5,5,1.5,7.6,2c2.8,0.6,5.2,1.8,7.3,3.7c1,0.9,2,1.8,3.1,2.3C667.4,87.6,668.2,89.8,667.5,92.7z"/>
	<path fill="#F15A24" d="M335.2,61c-7.6,0.5-15.1-1-22.7,0.9c-8.8,2.2-17.9,2.4-27,2.6c-3.3,0.1-4.7,1.3-5.2,4.5
		c-0.3,1.7-0.2,3.4-0.5,5.1c-2,12.8-4.1,25.7-6.2,38.5c-0.2,1-0.6,1.9-1.1,3.3c-2.2-2.4-3.5-4.6-4.6-7.2c-1.2-2.9-2.6-5.8-4.6-8.2
		c-4-4.7-7.4-9.9-10.4-15.2c-2.6-4.5-5.7-8.8-8.3-13.4c-1.6-2.7-3.7-3.2-6.3-2.4c-3.4,1-6.6,2.6-10,3.3c-4.5,0.9-8.2,3.4-12.1,5.6
		c-2.6,1.5-4.7,3.2-3.8,6.8c0.2,0.8-0.1,1.8-0.2,2.7c-1.2,12.9-2.4,25.9-3.6,38.8c-0.2,2.1-0.6,4.2-1,7.2c-1.4-1.7-2.1-2.6-2.7-3.6
		c-2.3-3.5-4.3-7.2-6.8-10.6c-3.9-5.4-8.2-10.6-12.1-16c-2.8-3.8-6.4-7.4-4.6-13.6c-2-0.4-3.6-1.2-4.9-0.9c-2.5,0.5-4.8,1.8-7.3,2.6
		c-7.3,2.5-14.6,4.9-21.9,7.4c-8.6,3-17.2,6.2-25.8,9.4c-3.2,1.2-6.3,2.6-9.4,3.9c-1.2,0.5-2.7,1.2-2,2.8l1.8,5.6
		c0.8,2.7,1.5,5,2.2,7.2c3.1,9.6,7.6,18.6,10.2,28.4c0.9,3.5,2.4,6.9,3.9,10.3c2.9,6.5,5.9,12.9,8.8,19.3c3,6.6,5.8,13.2,8.8,19.7
		c1,2.3,2.2,4.5,3.3,6.7c1.7,3.4,3.5,6.7,5.2,10.1c3.5,7.2,6.9,14.4,10.4,21.6c2.9,5.9,6.5,11.5,8.9,17.5
		c6.7,16.5,14.7,32.5,19.9,49.6c0.1,0.5,0.3,1,0.5,1.4l0,0c0,0.1,0.1,0.3,0.2,0.4c0.1,0.2,0.2,0.5,0.4,0.7c0.1,0.2,0.3,0.3,0.4,0.5
		c1.6,2,4.5,4.4,4.5,4.4c1.2-0.3,2.3-0.5,3.3-0.9c3.6-1.6,7.2-3.3,10.7-4.9c5.8-2.6,11.9-4,18.1-5c5.9-1,11.8-2.1,17.8-3.1
		c0.9-0.1,1.8-0.1,2.7,0c2.7,0.3,3.3-0.3,3.4-2.8c0.1-2.6,0.1-5.3,0.8-7.8c2.5-8.7,3.4-17.7,4.6-26.7c0.3-2.4,0.9-4.8,1.5-8
		c1.4,2.2,2.2,3.8,3.4,5.1c3.8,4.7,6.9,9.8,9.4,15.4c0.7,1.5,1.6,3,2.6,4.3c2.4,2.9,4.6,5.9,5.9,9.6c1.4,4.2,4.7,5.2,9,4.2
		c5.8-1.4,11.7-3,17.7-3.7c6.6-0.8,13.3-0.8,20-1.2c0.8,0,1.7-0.1,2.5-0.2l0,0c0,0,6.4,0.2,7.4-0.4l0,0c1.4-0.4,2-2,1.7-3.6
		c-0.4-2.4-0.9-4.9-0.9-7.3c-0.1-4.6,0.3-9.2,0.2-13.8c-0.1-6.8-0.6-13.6-0.5-20.5c0.3-22.7,0.9-45.4,1.2-68.1
		c0.1-6.7-0.3-13.4-0.5-20c-0.1-2.7-0.1-5.5-0.3-8.2c-0.3-6.1-0.9-12.3-0.9-18.4c0-10.5,0.3-21,0.6-31.5c0.4-11.1,1-22.3,1.5-33.4
		c0-0.9,0.2-2.3-0.3-2.6C340,63.9,338.5,60.8,335.2,61z M334.5,288.6c-0.4-0.1-0.8-0.1-1.2,0c-1.4,0.2-2.9,0.5-4.3,0.6
		c-11.8,0.5-23.4,2.5-35,4.4c-3.8,0.6-5,0-6.9-3.2c-1.3-2.3-2.9-4.3-4.4-6.4s-3.1-4.2-4.4-6.4c-2.8-4.6-5.3-9.4-8.5-13.7
		c-2.3-3.2-3.8-6.5-4.7-10.2c-0.2-0.9-0.4-1.9-0.9-2.6c-0.5-0.6-1.5-1.4-2.2-1.3c-0.7,0.1-1.6,1-1.8,1.7c-0.6,2.1-1,4.3-1.3,6.6
		c-1.9,14.4-3.6,28.9-9.1,42.7c-1.5,0.3-3.3,0.6-5.1,1c-6.3,1.4-12.5,2.9-18.8,4.3c-8.5,1.9-16.6,4.8-24.4,8.8
		c-0.2,0.1-0.5,0.3-0.7,0.4l0,0c-0.7,0.1-1.2-0.5-1.7-1.3c0.2-0.7-0.2-1.4-0.7-2.1c-0.7-0.9-1.3-2-1.7-3.1c-1.5-3.6-2.7-7.4-4.3-11
		c-3.5-8.1-7.1-16.1-10.7-24.1c-3.8-8.5-7.5-17-11.5-25.4c-3.8-7.9-7.9-15.6-11.8-23.5c-1.9-3.8-3-7.9-5.2-11.4
		c-4.5-7.2-7.6-14.9-11.1-22.5c-3.6-8-6.9-16.1-10.4-24.2c-0.2-0.5-0.6-0.9-0.8-1.4c-1.2-2.9-2.6-5.7-3.6-8.7
		c-3.8-11.1-7.4-22.2-11.1-33.3l0,0l-0.2-0.4c-0.2-0.5-0.4-1.1-0.5-1.6c0-0.1-0.1-0.2-0.1-0.2l-1.5-4.4c0.4,0,0.7-0.4,1-0.5
		c5.7-2.5,11.4-5.4,17.2-7.6c7.5-2.8,15.1-5.3,22.7-7.6c6-1.9,12.1-3.3,18.1-5.1c2.3-0.7,3.2,0.2,4.4,1.9c2.8,4.1,5.8,8.1,8.9,12
		c4.1,5.1,8.4,10.1,11.3,16c3.1,6.2,8.1,11.3,11,17.6c0.3,0.7,2.1,1.1,3,0.9c1.4-0.3,1.3-1.6,0.9-2.9c-0.4-1.5-0.6-3.1-0.6-4.6
		c0-2.6,0.3-5.2,0.2-7.9c-0.2-14.2,1.9-28.2,3.8-42.3c0.2-1.1,0.4-2.6,1.2-3.3c3.1-2.6,6.2-5.3,10.3-6.3c2.3-0.6,4.5-1.2,6.7-2.1
		c3.6-1.4,6.3-1.1,8.5,1.5c2,2.4,3.9,4.9,5.5,7.6c4.1,6.9,8.2,13.7,13.4,19.9c1.3,1.6,2,3.6,2.8,5.5c1.1,2.4,1.8,4.9,3,7.2
		c1.3,2.4,2.9,4.7,4.5,6.9c0.6,0.9,1.6,2,2.4,2.1c1.6,0.1,2-1.4,2.2-2.8c0.4-2.9,0.7-5.7,1-8.6c0.9-7.3,1.8-14.6,2.8-21.9
		c0.9-6.1,2-12.2,3-18.2c0.8-4.8,1.7-5.6,6.6-6c0.3,0,0.5,0,0.8,0c6.5-0.7,13.1-0.8,19.5-2.1c7.7-1.5,15.4-1,23.1-0.9
		c3.4,0,4.6,1.6,4.4,5c-0.1,2.2-0.3,4.5-0.4,6.7c-0.2,15.7,0,31.5-0.5,47.2c-0.3,9.7,0.4,19.4,1.3,29c0.3,3,0.1,6,0.1,9
		c0,1.3-0.2,2.6-0.2,3.9c0.1,6.2,0.4,12.3,0.4,18.5c0,6.3-0.2,12.6-0.3,18.9c-0.1,13.4-0.2,26.8-0.3,40.1c0,5.1-0.1,10.2,0.1,15.3
		c0.4,8.5,0.5,17-0.7,25.5c-0.2,1.3-0.1,2.7,0,4.1l0,0C337.4,288.2,336.3,288.5,334.5,288.6z"/>
</g>
<g opacity="0.8">
	<g>
		<path fill="#FFFFFF" d="M286.1,366.8c-4.8,1.8-8.9,3.4-13.2,5.1c1,3.4,2,6.8,2.9,10.2c0.6,2.3,1,4.6,1.2,7c0.2,1.7,0.2,3.5-2,4.2
			c-1.7,0.5-3.3-0.4-4.3-2.6c-5.6-12.6-12-24.8-14.9-38.4c-0.4-1.9-1-3.8-1.5-5.7c-0.5-1.8-1.2-3.5,0.8-4.9c0.5-0.3,0.4-1.5,0.7-2.2
			c1-1.8,1.9-3.8,3.2-5.4c3.9-4.8,8.9-8.4,14.5-10.5c8.4-3.2,17.1-1.7,22.4,6.8c0.3,0.6,0.8,1.1,1.2,1.6c5.2,6.1,5.5,13.1,3.9,20.4
			c-0.7,3.1-3.3,5-5.6,6.9c-1,0.8-2.1,1.5-3.2,2.3c6.8,9.9,15.2,17.6,25.7,22.9c3.5,1.8,10.7,0,13.4-3.3c1.1-1.3,1.8-3.2,3.9-2.5
			c2,0.7,2.4,2.3,2.5,4.4c0.1,1.8,1.2,3.5-0.3,5.2c-1.6,1.9-3.6,3.1-6.1,3.3c-6.9,0.5-13.3-1.1-19.1-4.9c-1.3-0.9-2.7-1.6-4.1-2.3
			c-6-3-11.5-6.7-16.2-11.6C290.2,370.7,288,368.7,286.1,366.8z M267,357.8c5.7-2.5,10.7-2.8,15.8-1.5c1,0.3,2.3-0.2,3.3-0.7
			c6.1-3.1,8.5-8,7.3-14.8c-0.3-1.5-0.3-3.5-1.2-4.4c-2.9-2.6-6-5.1-10.5-4c-2.3,0.6-4.7,0.5-7,0.8c-1.7,0.2-3.4,0.5-5,1
			c-2.4,0.8-5.3,5.2-5.1,7.3c0.3,2.1,0.4,4.1,0.7,6.2C265.8,350.9,266.4,353.9,267,357.8z"/>
		<path fill="#FFFFFF" d="M619.9,390c-1-0.8-1.7-1.3-2.3-1.9c-1.5-1.6-1.7-3.7-0.7-5.4c1.3-2.3,2.8-2.9,5.3-2.3
			c4.6,1.1,6.6,4.8,5.6,9.7c-1.7,8.7-11.7,14.9-19.2,12.8c-3-0.9-6.1-1.6-9.1-2.5c-0.7-0.2-1.5-0.6-2-1.1c-3.5-3.8-7-7.7-10.5-11.6
			c-0.5-0.6-0.9-1.3-1.4-1.9c-2.1-3.1-4.4-5.2-8.7-3.9c-3,0.9-6.2,0.6-9.4,0.7c-3.4,0.2-3.4,0.2-4.1,3.4c-0.6,2.7-1.2,5.4-1.6,8.1
			c-0.3,1.4-0.8,2.6-2.3,2.7c-1.6,0.2-2.9-0.6-3.4-2.1c-0.4-1.3-0.6-2.9-0.4-4.2c1.7-10.7,3.8-21.4,6.6-31.9
			c1.3-4.9,2.6-9.9,4.1-14.8c1.2-4,3.9-6.4,8.2-6.9c7.8-1,13.8,1.9,18.3,8.3c0.4,0.5,0.6,1.2,1.1,1.6c5.8,6.2,4,12.8,1.1,19.4
			c-1.3,3-2.9,5.8-4.5,8.7c-0.7,1.3-0.7,2.4,0.1,3.7c2.5,4.3,4.7,8.8,7.3,13c0.8,1.3,2.4,2.6,3.9,3.1c2.7,0.9,5.6,1.3,8.4,1.9
			c0.4,0.1,0.8,0,1.2-0.1C614.5,394.9,617.4,393,619.9,390z M589.9,357.3c0.7-6-1.7-10.2-7.1-12.8c-3-1.5-6.8-0.9-8.2,2.1
			c-2.2,4.8-3.9,9.7-5.7,14.7c-0.2,0.7,0.4,2.5,0.9,2.6c4.1,0.9,7.4,3.4,10.9,5.4c1.5,0.8,2.7,0.6,3.9-0.5
			C587.9,365.6,589.6,361.7,589.9,357.3z"/>
		<path fill="#FFFFFF" d="M344.9,338.4c2.1-0.5,3.9-0.9,5.7-1.2c5.4-1.1,10.8-2.2,16.1-3.3c1.7-0.4,2.8,0.4,3.6,1.8
			c0.4,0.8,0.6,1.7,0.9,2.6c0.6,2.5,0.4,2.9-2.2,3.4c-4.7,1-9.5,1.8-14.2,2.9c-2.8,0.7-5.4,1.8-8.1,2.7c-0.1,7.4,1.2,14.3,2.9,21
			c0.7,2.8,1.7,3,4.5,3.2c4.2,0.3,7.5-1.9,11.1-3.4c2.6-1.1,5.2-2.2,7.9-3.3c1.8-0.7,3.1,0,4.1,1.4s0.3,2.7-0.6,3.9
			c-2.2,2.7-5.4,3.9-8.4,4.9c-4.8,1.6-9.8,2.9-14.8,3.7c-8.2,1.3-13.6-3.8-14.2-12.1c-0.4-5.6-1.6-11.1-2.4-16.7
			c-1.1-7.2-2.2-14.5-3.2-21.7c-0.4-2.6-0.6-5.2-0.8-7.8c-0.2-2.1,0.2-3.8,2.4-4.9c1.3-0.6,2.1-2,3.4-2.7c1.9-1,4-2.3,6-2.5
			c3.4-0.3,6.7-1.3,10-1.8c5.1-0.8,10.4-0.9,15.7-0.9c2.7,0,4.3,2.3,4.2,5.2c0,2.5-1,3.5-4.1,3.7c-8.3,0.6-16.2,3.1-24.1,5.7
			c-0.8,0.3-2,1.4-2,2C344.3,328.5,342.9,333.3,344.9,338.4z"/>
		<path fill="#FFFFFF" d="M435.8,353.4c-1.6,0.3-3,0.8-4.4,0.9c-2.2,0.2-4.4,0.2-6.6,0.1c-3.3-0.1-6.5-0.3-9.8-0.3
			c-2.7,0-5.5,0.3-8.2,0.3c-4,0-4,0-5.5,3.5c-1,2.3-2.3,4.4-3.2,6.7c-0.6,1.4-0.8,3-1.2,4.5c-0.4,1.7-1,2.9-3.1,2.8
			c-2.7-0.2-4-1.1-4.3-3.4c-0.1-0.7-0.2-1.6-0.6-2.1c-1.8-1.8-1-3.2,0.3-4.8c1.7-2.1,3.8-4.2,4.9-6.6c1.5-3.4,4-6.1,6-9.1
			c4.8-7.2,8.8-14.9,13.3-22.2c2.8-4.5,5.9-9,9.3-13.1c3.3-4,7.5-3,9.2,1.9c0.3,1,0.8,1.9,1.3,2.9c2.1,4,3.2,8.2,3.6,12.7
			c0.5,6.2,3.2,11.9,6.4,17.1c1.8,3,2.7,5.9,2.6,9.5c-0.2,4.4,0.6,8.8,1.1,13.3c0.2,1.7,0.8,3.3,1.1,5c0.2,1.6,0.6,3.6-1.5,4.3
			c-1.7,0.6-4.6-1.2-5.1-3.3c-0.8-3.6-1.5-7.2-2-10.8C438.7,359.9,438.1,356.6,435.8,353.4z M408.4,348.2c1,0.1,1.4,0.2,1.8,0.1
			c6-1.2,12-2.4,18.1-3.7c1-0.2,2-0.5,3-0.9c2.7-1.1,3.1-1.8,2.1-4.4c-1.6-4.3-3.1-8.6-4.9-12.8c-0.9-2.2-1.7-4.6-4.1-6.4
			C417.8,328.8,413,338.1,408.4,348.2z"/>
		<path fill="#FFFFFF" d="M525.5,384.8c-10.7-0.9-18.6-7.5-20.7-18c-1.3-6.2-0.6-12,2.8-17.4c0.9-1.4,1.7-2.9,2.5-4.5
			c3.5-7,9.4-11,16.6-13.7c5-1.9,11.2-0.2,14.3,4.5c2.8,4.3,5.8,8.6,7.7,13.2c3.7,8.7,2.8,17.1-3.4,24.7c-3.7,4.5-8.6,7.3-13.6,9.8
			C529.7,384.4,527.5,384.4,525.5,384.8z M513.8,362.3c-0.1,0-0.1,0-0.2,0c0.1,2.2-0.1,4.5,0.2,6.7c0.8,5.7,7.1,9.2,12.4,7
			c6.5-2.7,11.6-7.1,15.3-13c1.8-2.7,2.2-5.7,1.8-9c-0.7-4.8-3.5-8.4-6.2-12.1c-2.3-3.1-3.7-3.5-7.5-2.3
			c-9.5,2.8-15.2,9.8-15.9,19.7C513.8,360.2,513.9,361.3,513.8,362.3z"/>
		<path fill="#FFFFFF" d="M486.9,333.5c0,4.8-1.3,9.3-2.5,13.9c-2.4,8.6-3.4,17.5-4.4,26.4c-0.1,1.3,0.3,2.6,0.3,3.9
			c0.2,2.9-1.6,4.1-4.3,3c-3-1.1-3.9-3-3.2-6.7c1.3-7.1,2.9-14.1,4.2-21.2c0.9-5,1.9-10.1,2.1-15.2c0.2-3.9-0.6-7.8-1.2-11.7
			c-0.1-0.8-1.4-2-2.3-2.1c-2.9-0.5-6.1-1.2-8.9-0.7c-5.5,1-10.7,0.1-15.8-1.8c-1.5-0.5-2.9-1.4-3-3.3c-0.1-2,1.6-4.9,3.3-5.4
			c1-0.3,2.1-0.5,3.1-0.4c4.6,0.8,9.4,0.9,13.5,3.7c1.9,1.3,3.9,1.4,6,1c5.5-1.2,10.9-0.9,16.3,1.1c1.2,0.5,2.6,0.6,3.8,0.8
			c5.5,1.2,11,2.3,16.5,3.5c2.7,0.6,4.9,2,6.5,4.2c0.7,0.9,1.2,2.6,0.7,3.5c-0.4,0.8-2.1,1.6-3.2,1.5c-3.9-0.5-7.8-1-11.6-2.1
			c-3.8-1-7.4-2.7-11.1-3.9c-3.1-1-4.7,0.2-4.7,3.5C486.9,330.6,486.9,332.1,486.9,333.5z"/>
		<path fill="#FFFFFF" d="M229,399.4c2.9,1,4.9-0.9,7.2-2.1c2.7-1.5,4.9-3.5,6.4-6.2c0.6-1,1.1-2.1,1.9-3c0.9-1.1,2.2-1.4,3.6-0.8
			c1.3,0.5,1.9,1.5,1.6,2.8c-0.4,1.9-0.7,4.1-1.8,5.4c-3,3.7-6.4,7.3-10.8,8.9c-5.2,1.9-10.9,3.5-16.5,1.6c-5.7-1.9-9.6-6.1-12-11.3
			c-3.6-7.8-6.1-15.9-7.4-24.4c-0.7-4.5,0.3-8.8,2.6-12.9c3.7-6.4,9.4-10.9,15-15.5c2.2-1.8,5.4-2.6,8.3-3.4
			c1.1-0.3,2.7,0.1,3.8,0.6c2.3,1.2,4.5,2.6,6.7,4.1c0.6,0.4,1.3,1.8,1,2.2c-0.4,0.8-1.5,1.5-2.3,1.6c-1,0.1-2-0.4-3-0.6
			c-4.8-0.9-9.1,0-11.9,4.1c-3.2,4.8-6,9.8-8.7,14.9c-2.9,5.4-3.1,11.2-0.8,16.7c1.7,4.1,4,7.9,6.4,11.6c1.2,1.8,3.3,3,5.1,4.3
			C224.8,399.3,226.7,400.4,229,399.4z"/>
	</g>
	<path fill="#FFFFFF" d="M337.9,518.1c-0.2-6.8-0.1-13.2-0.6-19.6c-0.9-10.2-1.5-20.4-0.9-30.6c0.2-4-0.1-8.1-0.1-12.1
		c0-1.2,0.1-2.3,0.2-3.4c4.4-1,6.8,0.2,7.4,4.1c0.6,3.5,0.9,7,0.8,10.5c-0.2,7.1-1.2,14.1-1.2,21.2c0,7.3,0.6,14.6,1,22
		c0.3,5.1,0.5,10.2,0.8,15.3c0.2,3.5-2.5,4.7-4.8,6c-1.4,0.8-3-0.1-4.2-1.3c-3.3-3.4-6.6-6.7-9.9-10c-1.5-1.5-3-2.9-4.3-4.6
		c-8.1-11.3-17.8-21.3-26.7-32c-1.9-2.3-3.7-4.8-5.5-7.2c-1.1-1.5-2.1-3-3.4-4.8c-1.3,1.7-1.5,3.4-1.6,5c-0.6,10.3-1.8,20.6-0.9,31
		c0.2,2.7-0.2,5.5-0.4,8.2c-0.6,6-1.2,12-1.9,18c-0.1,0.8-0.6,1.9-1.2,2.2c-0.7,0.3-2.1,0-2.4-0.6c-0.9-1.4-1.9-3-1.9-4.5
		c0.1-5,0.3-10,1.1-14.9c0.9-5.2,0.7-10.4,0.9-15.7c0.4-11.5,0.4-23.1,2.7-34.5c0.5-2.4-0.1-4.9-0.2-7.4c-0.2-2.8,1-3.8,3.5-2.5
		c1.5,0.8,3.3,2.1,4,3.5c3.3,8,8.5,14.7,14.3,21c3.5,3.9,6.4,8.3,9.7,12.3c2.2,2.8,4.6,5.4,6.9,8.1c1.2,1.4,2.4,2.7,3.7,4.1
		c0.8,0.9,1.5,1.8,2.4,2.6C329,510.9,333.2,514.3,337.9,518.1z M534.8,449.6c-4-1-8.3-2.1-12.1,0.4c-2.6,1.7-5.2,3.8-6.9,6.4
		c-4.2,6.5-7.9,13.3-10,20.9c-1.8,6.5-3.2,12.9-3.3,19.7c-0.2,10.8,0.8,21.1,7.4,30.3c3.3,4.6,7.4,7.3,13.1,7.3c2.5,0,5-0.2,7.5,0
		c4.7,0.3,9.1-0.4,12.9-3.5c0.2-0.1,0.5,0,1,0c1.4,1.7,1,3.9,1,5.9c0.1,3,0.3,6,0.3,9c0.1,2.9,0,5.7,0.1,8.6c0,1.2,0,2.4,0.3,3.5
		c0.6,1.9,2.5,2.8,4.4,2.4c2-0.4,2.4-1.7,2.4-3.5c0-2.8,0.3-5.5,0.1-8.3c-0.3-7.1-0.8-14.1-1.2-21.2c-0.2-3-0.5-6-0.6-9
		c-0.1-1.2,0.2-2.4,0.1-3.5c-0.1-2.7-0.2-5.5-0.6-8.2c-0.9-5.4-5-7.1-9.5-4.2c-2.2,1.4-4.5,2.8-6.5,4.4c-0.7,0.5-1.3,1.8-1.2,2.6
		c0.5,2.7,4.8,3.9,6.8,2c1-1,1.7-2.4,3.8-2c-0.1,2.9-0.1,5.7-0.2,8.7c-2.3-0.2-3.7,0.8-5.2,2.4c-1.9,2.2-3.7,4.9-6.8,5.6
		c-3.7,0.7-7.5,1.4-11.3,1.7c-2.6,0.3-5-0.8-6.4-3.1c-3.6-6.1-5.9-12.5-5.8-19.7c0.1-8.2,0.9-16.2,2.6-24.2
		c2-9.2,6.3-16.9,13.8-22.7c2-1.5,4.1-2.3,6.6-1.6c1.5,0.5,2.7,0.2,3.9-1.1c0.6-0.7,1.7-1.1,2.7-1.8
		C537.6,451.5,536.4,450,534.8,449.6z M432.6,486.2c-0.2,6.8-0.3,13.7,2.3,20.2c1.3,3.3,3.2,6.4,4,9.8c1.4,5.5,4.6,9.7,8.6,13.4
		c6.2,5.8,16.1,6,22.7,0.6c0.5-0.4,1-0.8,1.6-1.2c8.6-6.1,13.2-14.6,15.1-24.8c0.2-1.2,0-2.4,0.5-3.5c2.1-5.3,1.8-10.9,1.7-16.3
		c-0.1-8.8-0.4-17.6-1.3-26.3c-0.4-4.1-2.2-8-3.5-12c-0.2-0.7-0.9-1.4-1.5-1.7c-1-0.5-2.3-1.1-3.2-0.8c-1.5,0.5-1.3,2.2-0.9,3.4
		c1.6,4.9,2,10,2.2,15.1c0.2,4.3,0.6,8.6,1.1,12.9c0.6,5,0.5,10-0.6,14.9c-1.4,6.1-2.7,12.3-4.2,18.4c-1.4,5.5-3.9,10.5-8.4,14.4
		c-5.8,4.9-12.9,4-17.2-2.1c-3.4-4.9-6.2-10-8.6-15.4c-2.5-5.5-2.8-10.7-1.5-16.4c0.5-2.3,0.5-4.7,0.3-7c-0.3-3.1-2.2-4.3-5.4-4
		c-0.8,0.1-1.6,0.1-3.1,0.1C432.9,480.8,432.7,483.5,432.6,486.2z M601,503.1c0.7,11,1.4,22,2.1,33c0.1,1.8,0.2,3.5,1.8,4.6
		c0.8,0.5,2.1,0.9,2.9,0.6c0.7-0.3,1.3-1.5,1.5-2.4c0.3-2.2,0.4-4.4,0.3-6.7c-0.4-10.5-1-21-1.5-31.4c-0.1-2.9-0.4-5.8-0.4-8.6
		c0-5.4,0.3-10.7,0.3-16.1c0-2.5-0.4-5-0.4-7.4c-0.1-5.2-0.1-10.4-0.3-15.6c0-1.7-2.6-4.3-4.1-4.1c-2.2,0.3-1.9,2.2-2,3.7
		c0,0.3,0,0.5,0,0.8c-0.2,12.2-0.5,24.4,0.5,36.6c0.1,1.8-0.1,3.6-0.2,5.4c-9.4,1.7-18.3,0.5-27.6,0.3c-0.3-10-0.7-19.5-0.9-29.1
		c0-1.8,0.3-3.7,0.8-5.4c1.1-3.7,0.5-5.1-3.6-6.5c-3.4,3.2-4.4,6.3-3.6,10.5c0.4,1.9,1,3.8,1.2,5.8c0.8,11.9,1.5,23.8,2.2,35.7
		c0.7,11,1.4,22,2.2,33c0.1,1,0.2,2.3,0.8,3c0.7,0.7,2,1.3,3,1.3c0.6,0,1.6-1.5,1.6-2.2c0-3.8-0.1-7.6-0.5-11.4
		c-0.7-7.8-1.7-15.6-2.4-23.5c-0.3-3.2,0.4-3.9,3.7-4.3c4.9-0.6,9.9-1.1,14.9-1.6c2.5-0.2,4.9-0.2,7.6-0.2
		C600.8,501.6,601,502.3,601,503.1z M264.3,528.8c-0.7-0.6-1.8-1.1-2.8-1.1c-1.7-0.1-3.4,0-5.1,0.4c-10.6,2-21.1,4.2-31.7,6.2
		c-2.8,0.5-5.6,0.9-8.5,1.3c-0.3-1.2-0.6-2-0.7-2.7c-0.5-6-1.3-12-3.1-17.8c-0.7-2.1-1-4.4-1-6.6c0-5.1,1-9.8,7.3-10.6
		c4.7-0.6,9.3-1.4,13.9-2.1c2.5-0.3,5-0.5,7.4-0.8c1.4-0.2,3.1-0.5,3.2-2.3c0.1-1.9-1.4-2.7-3-3.2c-0.7-0.2-1.6-0.2-2.3-0.2
		c-3.4,0.3-6.8,0.6-10.2,1.1c-5.7,0.9-11.3,1.8-17.5,2.9c-0.2-2.2-0.8-4.2-0.4-6c0.9-4.2,0.8-8.3,0.6-12.5
		c-0.1-4.3,0.1-8.6,0.2-12.9c0.8-0.4,1.4-0.8,2-1.1c7.4-3.3,15.2-4.9,23.2-5.8c5-0.6,9.9-1.3,14.8-2.1c0.9-0.1,2.4-1.1,2.3-1.5
		c-0.2-1-0.8-2.3-1.7-2.7c-1.1-0.6-2.5-0.6-3.8-0.5c-9,1.2-17.9,2.5-26.8,3.9c-3.9,0.6-7.8,1.3-11.6,2.1c-4.7,1-8.4,3.1-8.2,8.8
		l2.2,33.3c0,0,0,0.1,0,0.2c0,2-0.1,16.5-0.2,21.9c-0.2,4.7-0.1,9.4-0.1,14.2c0,2.5,0.5,4.7,2.2,6.5c1.8,1.9,3.6,3.8,5.6,5.5
		s3.8,1.4,4.7-0.9c0.6-1.7,1.7-2.1,3.2-2.4c15-2.7,29.4-7.9,44.7-8.7c0.7,0,1.9-0.8,2.1-1.4C265.5,530.4,264.9,529.3,264.3,528.8z
		 M418.4,496.8c-0.3,6-1.2,12-4.2,17.5c-1.8,3.3-2.8,7.1-4.5,10.4c-4.3,8-11.6,11.8-20.3,12c-7.4,0.2-13.8-3.1-18.8-8.5
		c-5.3-5.8-8.5-12.7-9.2-20.5c-0.5-6.4-0.5-12.8-0.4-19.2c0.1-2,0.5-4,1.2-5.7c0.1-0.1,0.1-0.3,0.2-0.5c0.2-0.4,0.4-0.9,0.6-1.3
		c2.9-4.6,12.1-5.4,14-5.5c0.1,0,0.2,0,0.3,0l0,0l0,0c1.9-0.2,3.8-1,5.8-2c0,0,10.5-4.8,22,1.6c0.9,0.8,1.3,1.2,1.7,1.5
		c4.8,2.6,8.2,6.7,10.3,11.5C418.2,490.6,418.6,493.9,418.4,496.8z M409.8,495.6c-1-2.1-1.6-4.6-3.1-6.2c-2.4-2.6-5.2-4.8-8.1-6.7
		c-5.4-3.5-11-3.8-16.7-0.5c-2.4,1.4-4.6,3-7,4.3c-3.1,1.6-4.4,4.1-4,7.4c0.4,3.6,1.2,7.2,1.6,10.8c0.6,5.8,4.1,11,3,17.1
		c-0.1,0.6,0.6,1.4,1,2c2.2,3.1,5.6,3.5,9,4.2c1.6-0.2,3.1-0.4,4.7-0.5c3.3-0.1,6.2-1.1,8.3-3.7c2.6-3.1,5.1-6.3,7.6-9.4
		c2.7-3.3,3.1-7.1,2.8-11.1c-0.1-2-1.6-4.3,0.9-6C410.2,496.9,410,496,409.8,495.6z"/>
	<g>
		<path fill="#FFFFFF" d="M429.2,421.9c-0.9-0.5-1.9-1-2.6-1.7c-2.5-3-5.8-4.3-9.6-4.9c-2.4-0.3-4.5-3.9-3.8-6.3
			c0.5-1.7,1.8-2.6,3.6-1.8c1.9,0.8,3.6,2.1,5.8,3.4c0.9-0.4,2.1-0.6,3-1.3c0.5-0.3,1.2-1.5,1-1.9c-1.1-2.3-1.8-4.9-4.3-6.4
			c-3.6-2.3-6.9-1.5-10.2,0.7c-3.8,2.4-5.8,7.2-4.6,11.5c1.6,5.5,4.8,8,10.8,8.6c3.2,0.3,5.3,2.2,5.7,5.4c0.4,2.6-0.3,3.4-2.9,4
			c-0.6,0.1-1.4,0.1-1.8,0.5c-2,1.6-3.4,0.4-4.8-0.8c-0.7-0.6-1.1-1.5-1.7-2.1c-1.6-1.7-3.9-1.5-4.9,0.6c-0.8,1.6-1.3,3.5-1.4,5.2
			c-0.1,1,0.6,2.4,1.4,3c2.9,2.1,6,3.9,9.7,3.9c4.4,0,8.3-1.5,10.7-5.4c1.2-2,2.2-4.1,3.3-6.2C433.2,426.6,432.4,423.9,429.2,421.9z
			"/>
		<path fill="#FFFFFF" d="M399.6,424.5c-0.6-6.4-1.1-12.8-1.8-19.1c-0.1-1.1-1.3-3-2-3c-1.4,0-3.3,0.8-3.9,1.8
			c-1.3,2.2-2.7,4.5-2.3,7.3c0.6,5.5,1.1,10.9,1.7,16.4c0.1,1.3,0.6,2.6,0.7,3.9c0.2,2.5,2.2,3.8,3.8,5.3c0.5,0.5,2.1,0.2,2.8-0.2
			c0.7-0.4,1.7-1.9,1.5-2.3C398.2,431.3,399.5,427.9,399.6,424.5z"/>
		<path fill="#FFFFFF" d="M630.2,423.3c-1.7-0.3-3.4-0.6-5-0.8c-16.4-2.1-32.9-2.8-49.3-3.8c-8.9-0.6-17.8-1.1-26.7-1.5
			c-10.1-0.5-20.2-0.8-30.3-1.1c-14.4-0.5-28.9-1-43.3-1.4c-5.2-0.1-12.9,0-18.1,0.2c-1.7,0-2.7-0.1-3.2-0.9
			c-0.1-2.6-0.2-4.7-0.3-6.3V407c0,0.1,0,0.2,0,0.3c-0.1-1.5-0.2-2.4-0.2-2.4c-0.5-3.9-1.8-7.3-3.4-10.8c-2.1-4.5-5.6-7.3-10.1-8.4
			c-4.6-1.1-9.3-1.8-14-2.2c-5.1-0.3-10.2,0-15.3,0c-1.8,0-3.7,0.3-5.5,0.1c-7.6-0.8-15,0.7-22.2,2.7c-9.6,2.7-16.1,9.4-14.8,20.6
			c0.2,1.6,0.2,3.1,0.1,4.7c-0.1,2.8-0.8,3.3-3.7,3.2c-5.2-0.1-10.4-0.3-15.7-0.2c-14.4,0.4-28.9,0.9-43.3,1.4
			c-10.1,0.3-20.2,0.7-30.3,1.1c-8.9,0.4-17.8,0.9-26.7,1.5c-16.5,1-33,1.8-49.3,3.8c-1.7,0.2-3.4,0.5-5,0.8
			c-1.8,0.3-2.3,1.5-1.9,3.2c0.4,1.9,1.3,2.4,3.9,2.1c4.6-0.4,9.1-0.9,13.7-1.3c1.2-0.1,2.4,0,3.5-0.1c6.3-0.6,12.5-1.4,18.8-1.7
			c13.8-0.7,27.5-1.1,41.3-1.5c20.7-0.6,41.5-1,62.2-1.5c5.1-0.1,10.2-0.3,15.4-0.4c5.6-0.1,11.2-0.2,16.9-0.3
			c1.8,3.6,2,7.4,2.1,11.2c0.2,6.6,2.1,12.6,6.4,17.8c2.3,2.8,5.1,4.4,8.5,5.1c2.2,0.4,4.4,0.8,6.7,1.3l22,1.6
			c4.5,0.1,8.3,0.2,12.2,0.3c0.8,1.8,2.2,2.5,4.4,2c1.6-0.4,3.4-0.2,5.1-0.5c9.6-1.4,16.1-7.7,17.6-17.3c0.6-3.7,0.6-7.4,0.7-11.2
			l0,0c0.1-3.8,0.6-6.6,2.4-10.2c5.7,0.1,11.3,0.2,16.9,0.3c5.1,0.1,10.2,0.3,15.4,0.4c20.7,0.5,41.5,0.9,62.2,1.5
			c13.8,0.4,27.5,0.9,41.3,1.5c6.3,0.3,12.5,1.1,18.8,1.7c1.2,0.1,2.4,0,3.5,0.1c4.6,0.4,9.1,0.9,13.7,1.3c2.6,0.3,3.5-0.2,3.9-2.1
			C632.5,424.8,632,423.6,630.2,423.3z M446.1,421c-0.6,6.4-1.4,12.8-2.2,19.1c-0.1,0.6-0.4,1.3-0.6,1.9c-2.8,6.5-3.2,7.2-10.8,7.3
			c-2.6,0.1-5.2-0.4-7.9-0.5c-3.3-0.1-6.5-0.1-9.8-0.1c-3,0-5.9,0-8.8-1.4s-6.1-2.3-9.4-0.4c-0.7,0.4-1.8,0.3-2.7,0.3
			c-2.6,0-5.2-0.1-7.9-0.1c-3.5,0-4.2-0.5-4.9-4.1c-1.4-7.5-1.9-15.1-1.5-22.7c0.2-4.7-0.1-9.4-0.9-14.1c-0.7-3.6-0.6-7.3-0.6-11
			c0-0.7,0.6-1.7,1.3-2.2c1.5-1,3.1-2.2,4.8-2.7c6.7-1.9,13.4-3.7,20.5-2.8c1.5,0.2,3.2,0.2,4.7,0c9.4-1.6,18.6,0,27.7,1.6
			c4.5,0.8,6.1,2.9,6.6,7.5c0.3,2.5,0.8,4.9,1.1,7.4c0.2,1.5,0.2,3.1,0.2,5l0.2,6.5C445.6,417.5,446.3,419.3,446.1,421z"/>
	</g>
</g>
</svg>
